<svg xmlns="http://www.w3.org/2000/svg" width="75.354" height="53.707" viewBox="0 0 75.354 53.707"><g transform="translate(-443 -1307.36)"><path d="M488.552,1310.383h-.083a17.558,17.558,0,0,0-14.911,11.245,14.008,14.008,0,0,0-2-.226h0A13.9,13.9,0,0,0,458.008,1333a11.966,11.966,0,0,0-2.875-.52h0a12.251,12.251,0,0,0,0,24.5c.263,0,.457-.023.621-.038-.2,0-.109.038.29.038h49.276a8.523,8.523,0,0,0,2.925-.561,14.125,14.125,0,0,0,3.555-25.471,1.177,1.177,0,1,0-1.256,1.991,11.78,11.78,0,0,1-2.99,21.24c-.028.008-.056.017-.083.028a6.2,6.2,0,0,1-2.152.423H456.039c.2,0,.109-.037-.29-.037-.028,0-.055,0-.083,0-.242.024-.42.033-.538.033a9.9,9.9,0,0,1,0-19.791,9.539,9.539,0,0,1,3.3.6,1.178,1.178,0,0,0,1.582-1,11.518,11.518,0,0,1,13.973-10.4,1.178,1.178,0,0,0,1.371-.782,15.281,15.281,0,0,1,13.3-10.518,1.177,1.177,0,0,0-.1-2.35Z" transform="translate(0 4.089)" fill="#2b4255" fill-rule="evenodd"/><path d="M477.484,1307.36a16.484,16.484,0,1,0,16.484,16.484A16.5,16.5,0,0,0,477.484,1307.36Zm0,2.355a14.129,14.129,0,1,1-14.129,14.129A14.111,14.111,0,0,1,477.484,1309.715Zm-.956,4.732-6.4,6.4c-1.7.916.474,3.2,1.472,1.545l4.783-4.783v15.012a1.106,1.106,0,1,0,2.208,0v-15.012l4.783,4.783c1,1.656,3.175-.629,1.472-1.545l-6.329-6.329a1.1,1.1,0,0,0-.147-.146c-.883-.883-1.371-.4-1.84.073Z" transform="translate(24.387 0)" fill="#f8b84e"/></g></svg>