<svg xmlns="http://www.w3.org/2000/svg" width="74.805" height="66.008" viewBox="0 0 74.805 66.008"><path d="M55.952,83.283H5.49A3.3,3.3,0,0,1,2.2,79.989V76.218h11.73a1.1,1.1,0,0,0,0-2.2H2.2V35.6A3.3,3.3,0,0,1,5.49,32.3h41.8a1.1,1.1,0,1,0,0-2.2H5.49A5.5,5.5,0,0,0,0,35.6V79.989a5.5,5.5,0,0,0,5.49,5.49H29.631l-1.107,8.439h-3.9a1.1,1.1,0,1,0,0,2.2h25.56a1.1,1.1,0,1,0,0-2.2h-3.9l-1.107-8.439H55.952a1.1,1.1,0,1,0,0-2.2ZM44.067,93.918H30.739l1.107-8.439H42.96Z" transform="translate(0 -30.106)"/><path d="M169.952,30.107H152.315a1.1,1.1,0,1,0,0,2.2h17.637a3.3,3.3,0,0,1,3.294,3.294V74.023H118.953a1.1,1.1,0,1,0,0,2.2h54.292V79.99a3.3,3.3,0,0,1-3.294,3.294h-8.972a1.1,1.1,0,0,0,0,2.2h8.972a5.5,5.5,0,0,0,5.49-5.49V35.6a5.5,5.5,0,0,0-5.489-5.49Z" transform="translate(-100.636 -30.107)"/><path d="M205.889,120.276h6.575a1.1,1.1,0,0,0,1.1-1.1V99.552h1.446a1.105,1.105,0,0,0,.8-1.85l-5.831-6.2a1.1,1.1,0,0,0-1.6,0l-5.831,6.2a1.105,1.105,0,0,0,.8,1.85h1.446v19.626A1.1,1.1,0,0,0,205.889,120.276Zm3.287-26.419,3.291,3.5h0a1.1,1.1,0,0,0-1.1,1.1V118.08h-4.379V98.454a1.1,1.1,0,0,0-1.1-1.1h0Z" transform="translate(-172.7 -82.24)" fill="#f97757"/><path d="M60.391,200.165a2.565,2.565,0,0,0-2.562,2.562v9.53a1.1,1.1,0,0,0,1.1,1.1H65.5a1.1,1.1,0,0,0,1.1-1.1v-9.53a2.565,2.565,0,0,0-2.562-2.562H60.391Zm4.013,2.562v8.432H60.025v-8.432a.366.366,0,0,1,.366-.366h3.647A.366.366,0,0,1,64.4,202.727Z" transform="translate(-49.38 -175.319)" fill="#f97757"/><path d="M139.341,158.489a2.565,2.565,0,0,0-2.562,2.562V176.67a1.1,1.1,0,0,0,1.1,1.1h6.575a1.1,1.1,0,0,0,1.1-1.1V161.051a2.565,2.565,0,0,0-2.562-2.562Zm4.013,2.562v14.521h-4.379V161.051a.366.366,0,0,1,.366-.366h3.647A.366.366,0,0,1,143.354,161.051Z" transform="translate(-116.795 -139.732)" fill="#f97757"/><path d="M349.595,169.7H332.266a1.1,1.1,0,0,0,0,2.2h17.329a1.1,1.1,0,0,0,0-2.2Z" transform="translate(-282.783 -149.302)"/><path d="M349.595,214.891H332.266a1.1,1.1,0,0,0,0,2.2h17.329a1.1,1.1,0,0,0,0-2.2Z" transform="translate(-282.783 -187.893)"/><path d="M349.595,260.084H332.266a1.1,1.1,0,0,0,0,2.2h17.329a1.1,1.1,0,0,0,0-2.2Z" transform="translate(-282.783 -226.483)"/><path d="M332.266,126.7h17.329a1.1,1.1,0,0,0,0-2.2H332.266a1.1,1.1,0,0,0,0,2.2Z" transform="translate(-282.783 -110.711)"/></svg>