<svg id="Group_51500" data-name="Group 51500" xmlns="http://www.w3.org/2000/svg" xmlns:xlink="http://www.w3.org/1999/xlink" width="166.532" height="206.163" viewBox="0 0 166.532 206.163">
  <defs>
    <clipPath id="clip-path">
      <path id="Path_56847" data-name="Path 56847" d="M112.62-567.615c12.54,10.106,23.926,21.914,35.98,32.606q18.162,16.112,36.788,31.7c1.147.964-.511,2.591-1.654,1.634q-18.6-15.61-36.763-31.727c-11.972-10.639-24.9-21.074-35.691-32.9a.941.941,0,0,1,1.34-1.32" transform="translate(-111.007 567.857)" fill="#d72828" clip-rule="evenodd"/>
    </clipPath>
    <clipPath id="clip-path-2">
      <path id="Path_56846" data-name="Path 56846" d="M-639.981-937.981H-1367V-1665h727.019Z" transform="translate(1367 1665)" fill="#d72828"/>
    </clipPath>
    <clipPath id="clip-path-3">
      <path id="Path_56850" data-name="Path 56850" d="M84.423-402.965c-.015,0-.015-.025,0-.025a.013.013,0,1,1,0,.025" transform="translate(-84.413 402.99)" fill="#d72828" clip-rule="evenodd"/>
    </clipPath>
    <clipPath id="clip-path-5">
      <path id="Path_56853" data-name="Path 56853" d="M36.517-458.7c-3.032,4.031-8.7,6.6-12.865,9.353q-8.457,5.6-16.929,11.178a1.184,1.184,0,0,1-1.727-.7c-.149-.992-.145-1.37.636-2.068A1.183,1.183,0,0,1,7.593-439.8a131.564,131.564,0,0,1-5.067,19.444c-.545-.422-1.091-.84-1.636-1.261l.872-.4a.66.66,0,0,1,.956.734c-.065.309-.127.618-.193.931-.287,1.4-2.606.778-2.148-.593a135.69,135.69,0,0,0,4.955-19.477l1.959,1.141c-.007-.073-.018-.145-.025-.214-.574-.236-1.152-.469-1.727-.705q8.059-5.371,16.122-10.727c4.279-2.843,9.171-7.383,14.2-8.626.443-.109.978.425.654.854" transform="translate(-0.317 459.57)" fill="#d72828" clip-rule="evenodd"/>
    </clipPath>
    <clipPath id="clip-path-7">
      <path id="Path_56856" data-name="Path 56856" d="M94.307-385.191c1.934,1.61,3.352,4.028,4.78,6.074.956,1.374,3.119,3.279,2.276,5.027a.434.434,0,0,1-.374.214c-1.825.076-2.7-2.5-3.6-3.8-1.458-2.1-3.348-4.173-4.406-6.5a.844.844,0,0,1,1.32-1.018" transform="translate(-92.894 385.42)" fill="#d72828" clip-rule="evenodd"/>
    </clipPath>
    <clipPath id="clip-path-9">
      <path id="Path_56859" data-name="Path 56859" d="M96.542-374.845c2.81,2.977,7.07,4.726,10.469,6.983a.965.965,0,0,1-.974,1.665c-2.377-1.374-4.7-2.864-7.027-4.333-1.41-.891-3.413-1.781-3.7-3.6-.109-.672.676-1.3,1.232-.72" transform="translate(-95.299 375.076)" fill="#d72828" clip-rule="evenodd"/>
    </clipPath>
    <clipPath id="clip-path-11">
      <path id="Path_56862" data-name="Path 56862" d="M149.8-385.4c-1.825,2.41-4.515,3.846-6.958,5.6q-4.826,3.468-9.531,7.092c-6.314,4.867-12.432,9.978-18.477,15.173-1.007.869-2.475-.567-1.472-1.472,5.954-5.369,12.141-10.462,18.488-15.362q4.193-3.233,8.477-6.343c2.777-2.014,5.518-4.562,8.844-5.5.429-.12.931.414.629.814" transform="translate(-113.027 386.227)" fill="#d72828" clip-rule="evenodd"/>
    </clipPath>
    <clipPath id="clip-path-13">
      <path id="Path_56865" data-name="Path 56865" d="M211.362-563.382c-.262,3.713,3.537,9.433,5.012,12.948s2.947,7.047,4.419,10.569q4.666,11.172,9.34,22.341,4.644,11.123,9.3,22.245c3.257,7.79,7.365,15.742,9.755,23.848a.917.917,0,0,1-1.668.709c-4.138-7.492-6.91-16.054-10.21-23.965q-5.18-12.413-10.356-24.83-5.2-12.462-10.4-24.921c-1.672-4.011-3.362-8.014-4.976-12.043-1.013-2.526-2.335-4.581-1.22-7.176.215-.493,1.042-.243,1.005.276" transform="translate(-209.933 563.923)" fill="#d72828" clip-rule="evenodd"/>
    </clipPath>
    <clipPath id="clip-path-14">
      <path id="Path_56864" data-name="Path 56864" d="M-638.47-929.747H-1367V-1665h728.53Z" transform="translate(1367 1665)" fill="#d72828"/>
    </clipPath>
    <clipPath id="clip-path-15">
      <path id="Path_56868" data-name="Path 56868" d="M83.374-567.427q42.623,28.2,83.593,58.536c1.1.814.029,2.686-1.087,1.858-13.264-9.837-26.394-19.9-40.048-29.2-14.464-9.855-29.059-19.521-43.465-29.466-1.047-.72-.073-2.435,1.007-1.723" transform="translate(-81.919 567.597)" fill="#d72828" clip-rule="evenodd"/>
    </clipPath>
    <clipPath id="clip-path-17">
      <path id="Path_56871" data-name="Path 56871" d="M3.08-566.727c10.11,2.153,20.136,6.519,29.937,9.84q14.451,4.895,28.884,9.837c9.456,3.234,18.905,6.5,28.3,9.917q7.261,2.637,14.471,5.405c3.522,1.359,8.3,2.3,11.181,4.783a1.141,1.141,0,0,1,.174,1.359c-.054.1-.113.2-.167.3a1.137,1.137,0,0,1-1.253.516l-.283-.055c-1.4-.275-.81-2.432.588-2.161l-2.379.747c-.563-.223-1.122-.451-1.685-.678a31.353,31.353,0,0,1-3.381-1.337q-3.383-1.329-6.78-2.629-7.212-2.758-14.482-5.38c-9.4-3.406-18.847-6.672-28.307-9.906-9.064-3.1-18.135-6.178-27.192-9.291-9.3-3.193-19.294-5.724-28.169-9.976-.752-.362-.2-1.454.541-1.3" transform="translate(-2.181 566.742)" fill="#d72828" clip-rule="evenodd"/>
    </clipPath>
    <clipPath id="clip-path-18">
      <path id="Path_56870" data-name="Path 56870" d="M-640.719-932.566H-1367V-1665h726.281Z" transform="translate(1367 1665)" fill="#d72828"/>
    </clipPath>
    <clipPath id="clip-path-19">
      <path id="Path_56874" data-name="Path 56874" d="M144.053-343.377a1.619,1.619,0,0,0,1.131-.454,1.636,1.636,0,0,0,.051-2.312l-.658-.68a1.636,1.636,0,0,0-2.312-.029,1.632,1.632,0,0,0-.029,2.312l.636.662A1.638,1.638,0,0,0,144.053-343.377Zm4.929,5.612a1.626,1.626,0,0,0,1.025-.36,1.634,1.634,0,0,0,.247-2.3c-.2-.247-.4-.494-.6-.738a1.637,1.637,0,0,0-2.3-.225,1.633,1.633,0,0,0-.222,2.3c.193.236.385.476.578.712A1.632,1.632,0,0,0,148.982-337.765Zm4.442,6.009a1.609,1.609,0,0,0,.916-.284,1.635,1.635,0,0,0,.436-2.268l-.538-.785a1.637,1.637,0,0,0-2.276-.414,1.638,1.638,0,0,0-.414,2.276l.52.76A1.637,1.637,0,0,0,153.424-331.756Zm3.926,6.358a1.645,1.645,0,0,0,.8-.211,1.638,1.638,0,0,0,.625-2.225l-.473-.825a1.628,1.628,0,0,0-2.228-.6,1.628,1.628,0,0,0-.6,2.228l.451.8A1.641,1.641,0,0,0,157.35-325.4Zm3.377,6.663a1.585,1.585,0,0,0,.672-.149,1.633,1.633,0,0,0,.814-2.163c-.131-.287-.265-.578-.4-.865a1.631,1.631,0,0,0-2.174-.785,1.633,1.633,0,0,0-.789,2.17c.131.28.258.556.385.832A1.635,1.635,0,0,0,160.727-318.735Zm2.792,6.929a1.581,1.581,0,0,0,.545-.095,1.635,1.635,0,0,0,1-2.087l-.32-.894a1.636,1.636,0,0,0-2.1-.974,1.633,1.633,0,0,0-.974,2.094l.309.869A1.639,1.639,0,0,0,163.519-311.807Zm2.17,7.15a1.7,1.7,0,0,0,.4-.051,1.635,1.635,0,0,0,1.181-1.988c-.08-.305-.16-.614-.24-.923a1.629,1.629,0,0,0-2-1.156,1.634,1.634,0,0,0-1.16,2c.08.294.156.589.229.887A1.64,1.64,0,0,0,165.689-304.656Zm1.5,7.317a1.984,1.984,0,0,0,.251-.018,1.637,1.637,0,0,0,1.367-1.865c-.051-.316-.1-.632-.156-.949a1.632,1.632,0,0,0-1.883-1.338,1.635,1.635,0,0,0-1.338,1.887c.051.3.1.6.145.9A1.635,1.635,0,0,0,167.19-297.339Zm.789,7.427a.887.887,0,0,0,.1,0,1.63,1.63,0,0,0,1.534-1.727l-.058-.949a1.647,1.647,0,0,0-1.741-1.519,1.633,1.633,0,0,0-1.519,1.741l.058.92A1.633,1.633,0,0,0,167.979-289.912Zm-95.857,5.58a1.379,1.379,0,0,0,.171-.007c.269-.029.538-.047.811-.055a1.633,1.633,0,0,0,1.585-1.679A1.643,1.643,0,0,0,73-287.662c-.353.011-.705.033-1.054.073a1.631,1.631,0,0,0-1.454,1.8A1.631,1.631,0,0,0,72.122-284.333Zm95.894,1.89A1.637,1.637,0,0,0,169.648-284c.015-.316.029-.636.04-.952a1.638,1.638,0,0,0-1.578-1.69,1.643,1.643,0,0,0-1.69,1.574c-.011.305-.025.611-.04.916a1.634,1.634,0,0,0,1.556,1.709A.622.622,0,0,0,168.015-282.442Zm-88.024.371a1.63,1.63,0,0,0,1.287-.625,1.637,1.637,0,0,0-.28-2.3c-.28-.218-.567-.425-.865-.622a1.636,1.636,0,0,0-2.265.465,1.636,1.636,0,0,0,.465,2.265c.222.145.44.3.651.469A1.633,1.633,0,0,0,79.992-282.072Zm-14.711.509a1.617,1.617,0,0,0,.971-.32c.225-.167.454-.327.687-.476a1.637,1.637,0,0,0,.476-2.265,1.633,1.633,0,0,0-2.261-.476c-.287.189-.571.385-.847.589a1.633,1.633,0,0,0-.342,2.286A1.632,1.632,0,0,0,65.28-281.563ZM6.73-278.375a1.64,1.64,0,0,0,1.625-1.443c.033-.3.073-.6.113-.9a1.632,1.632,0,0,0-1.4-1.839,1.63,1.63,0,0,0-1.839,1.4c-.044.316-.084.636-.124.956a1.637,1.637,0,0,0,1.432,1.814A1.77,1.77,0,0,0,6.73-278.375Zm53.69,2.417a1.636,1.636,0,0,0,1.439-.858c.134-.247.273-.487.422-.727a1.635,1.635,0,0,0-.531-2.25,1.633,1.633,0,0,0-2.25.531c-.182.294-.353.592-.516.894a1.635,1.635,0,0,0,.662,2.214A1.612,1.612,0,0,0,60.42-275.957Zm30.262.1a1.457,1.457,0,0,0,.251-.022c.265-.04.534-.069.8-.091a1.636,1.636,0,0,0,1.5-1.756,1.627,1.627,0,0,0-1.756-1.5c-.356.029-.705.069-1.054.124a1.634,1.634,0,0,0-1.363,1.865A1.638,1.638,0,0,0,90.682-275.859Zm76.6.8a1.579,1.579,0,0,0,1.581-1.3l.022-.142c.044-.265.087-.549.127-.836a1.631,1.631,0,0,0-1.389-1.847,1.629,1.629,0,0,0-1.847,1.389c-.04.269-.08.534-.124.8a1.68,1.68,0,0,0,1.338,1.916A1.989,1.989,0,0,0,167.285-275.059Zm-68.434.545a1.63,1.63,0,0,0,1.461-.905,1.629,1.629,0,0,0-.727-2.192q-.469-.235-.949-.436a1.635,1.635,0,0,0-2.141.876,1.633,1.633,0,0,0,.876,2.137c.254.105.505.222.749.345A1.636,1.636,0,0,0,98.851-274.514Zm-14.37,2.4a1.634,1.634,0,0,0,1.374-.745,5.879,5.879,0,0,1,.436-.589,1.637,1.637,0,0,0-.207-2.3,1.644,1.644,0,0,0-1.378-.345,1.633,1.633,0,0,0,.956-1.9,10.82,10.82,0,0,0-.316-1.047,1.629,1.629,0,0,0-2.087-.989,1.633,1.633,0,0,0-.992,2.087c.087.244.164.491.225.738A1.627,1.627,0,0,0,84.4-276a1.657,1.657,0,0,0-.622.462,9.793,9.793,0,0,0-.672.909,1.636,1.636,0,0,0,.483,2.261A1.625,1.625,0,0,0,84.481-272.111Zm-78.042,1.2H6.5a1.639,1.639,0,0,0,1.57-1.7c-.011-.3-.022-.6-.025-.905a1.639,1.639,0,0,0-1.669-1.6,1.636,1.636,0,0,0-1.6,1.668c.007.32.018.64.029.96A1.635,1.635,0,0,0,6.439-270.915Zm97.682,1.512a1.624,1.624,0,0,0,.756-.185,1.636,1.636,0,0,0,.691-2.206c-.149-.287-.313-.574-.48-.858l-.055-.087a1.64,1.64,0,0,0-2.185-.527,1.634,1.634,0,0,0-.607,2.228c.015.022.029.051.047.08.134.222.262.451.382.68A1.634,1.634,0,0,0,104.121-269.4Zm-45.864.552a1.639,1.639,0,0,0,1.621-1.439c.033-.287.076-.574.12-.862a1.63,1.63,0,0,0-1.352-1.872,1.631,1.631,0,0,0-1.876,1.352c-.051.331-.1.658-.138.989a1.63,1.63,0,0,0,1.425,1.818A1.265,1.265,0,0,0,58.257-268.851Zm107.406,1.131a1.637,1.637,0,0,0,1.574-1.192c.087-.309.171-.614.251-.923a1.636,1.636,0,0,0-1.163-2,1.632,1.632,0,0,0-2,1.163c-.08.294-.16.585-.24.876a1.637,1.637,0,0,0,1.134,2.017A1.66,1.66,0,0,0,165.664-267.72ZM7.29-263.5a1.482,1.482,0,0,0,.309-.029,1.636,1.636,0,0,0,1.3-1.912c-.058-.294-.113-.589-.16-.887a1.638,1.638,0,0,0-1.887-1.338,1.635,1.635,0,0,0-1.338,1.887c.055.316.113.636.171.952A1.636,1.636,0,0,0,7.29-263.5Zm98.671,1.276h.062a1.639,1.639,0,0,0,1.57-1.7q-.016-.507-.065-1.014a1.625,1.625,0,0,0-1.77-1.483,1.632,1.632,0,0,0-1.483,1.774c.022.28.04.563.051.847A1.638,1.638,0,0,0,105.961-262.224ZM58.4-261.4a1.721,1.721,0,0,0,.236-.018,1.633,1.633,0,0,0,1.385-1.85c-.044-.294-.084-.589-.116-.883a1.64,1.64,0,0,0-1.818-1.432,1.632,1.632,0,0,0-1.429,1.814c.036.324.08.647.127.971A1.633,1.633,0,0,0,58.4-261.4Zm104.836.749a1.636,1.636,0,0,0,1.512-1.018c.124-.3.24-.592.356-.891a1.637,1.637,0,0,0-.927-2.119,1.638,1.638,0,0,0-2.119.931c-.109.28-.222.563-.334.843a1.632,1.632,0,0,0,.894,2.13A1.616,1.616,0,0,0,163.239-260.654ZM9.2-256.281a1.572,1.572,0,0,0,.527-.087,1.633,1.633,0,0,0,1.021-2.072c-.1-.291-.193-.578-.287-.869A1.635,1.635,0,0,0,8.4-260.356a1.629,1.629,0,0,0-1.047,2.061c.1.3.2.6.3.905A1.639,1.639,0,0,0,9.2-256.281Zm95.847,1.443a1.636,1.636,0,0,0,1.578-1.2c.087-.316.167-.636.244-.956a1.638,1.638,0,0,0-1.214-1.97,1.632,1.632,0,0,0-1.967,1.21c-.069.287-.142.571-.218.854a1.64,1.64,0,0,0,1.145,2.01A1.787,1.787,0,0,0,105.048-254.837Zm-44.835.673a1.6,1.6,0,0,0,.545-.094,1.63,1.63,0,0,0,1-2.083c-.1-.284-.193-.563-.287-.851a1.629,1.629,0,0,0-2.057-1.043,1.629,1.629,0,0,0-1.047,2.061c.1.305.2.614.309.916A1.637,1.637,0,0,0,60.213-254.165Zm99.827.258a1.629,1.629,0,0,0,1.439-.858c.153-.276.3-.556.447-.836a1.635,1.635,0,0,0-.683-2.21,1.638,1.638,0,0,0-2.21.683c-.142.273-.284.542-.429.811a1.632,1.632,0,0,0,.662,2.214A1.612,1.612,0,0,0,160.04-253.907ZM12.088-249.392a1.615,1.615,0,0,0,.734-.174,1.636,1.636,0,0,0,.727-2.192c-.138-.273-.269-.542-.4-.814a1.638,1.638,0,0,0-2.181-.767,1.637,1.637,0,0,0-.767,2.181c.142.291.28.578.425.865A1.634,1.634,0,0,0,12.088-249.392ZM102.3-247.9a1.637,1.637,0,0,0,1.45-.876c.153-.287.3-.578.443-.869a1.637,1.637,0,0,0-.749-2.188,1.629,1.629,0,0,0-2.185.745c-.134.265-.269.534-.407.8a1.636,1.636,0,0,0,.691,2.206A1.624,1.624,0,0,0,102.3-247.9Zm53.818.356a1.636,1.636,0,0,0,1.345-.7c.182-.262.364-.527.542-.789a1.637,1.637,0,0,0-.44-2.272,1.635,1.635,0,0,0-2.268.44c-.171.254-.342.505-.516.756a1.629,1.629,0,0,0,.407,2.272A1.621,1.621,0,0,0,156.118-247.545Zm-92.833.174a1.612,1.612,0,0,0,.8-.211,1.634,1.634,0,0,0,.629-2.225c-.145-.262-.291-.523-.433-.789a1.633,1.633,0,0,0-2.21-.672,1.637,1.637,0,0,0-.672,2.214c.153.284.305.563.462.843A1.645,1.645,0,0,0,63.285-247.371ZM15.88-242.958a1.625,1.625,0,0,0,.92-.287,1.631,1.631,0,0,0,.425-2.272c-.171-.247-.338-.5-.505-.752a1.633,1.633,0,0,0-2.265-.462,1.633,1.633,0,0,0-.462,2.265c.174.265.353.534.534.8A1.633,1.633,0,0,0,15.88-242.958Zm135.647,1.3a1.624,1.624,0,0,0,1.229-.56c.211-.24.422-.483.629-.727a1.639,1.639,0,0,0-.189-2.3,1.635,1.635,0,0,0-2.3.189c-.2.233-.393.462-.593.691a1.63,1.63,0,0,0,.153,2.3A1.624,1.624,0,0,0,151.527-241.653Zm-53.243.044a1.628,1.628,0,0,0,1.3-.644c.2-.258.389-.516.582-.778a1.633,1.633,0,0,0-.36-2.283,1.63,1.63,0,0,0-2.283.356c-.178.244-.356.483-.538.723a1.634,1.634,0,0,0,.309,2.29A1.631,1.631,0,0,0,98.283-241.609Zm-30.829.425a1.631,1.631,0,0,0,1.018-.356,1.635,1.635,0,0,0,.258-2.3c-.189-.236-.374-.473-.556-.712a1.638,1.638,0,0,0-2.294-.3,1.634,1.634,0,0,0-.3,2.294c.2.254.393.509.593.76A1.637,1.637,0,0,0,67.454-241.184ZM20.507-237.1a1.628,1.628,0,0,0,1.1-.425,1.633,1.633,0,0,0,.105-2.308q-.305-.333-.6-.676a1.638,1.638,0,0,0-2.308-.145,1.634,1.634,0,0,0-.149,2.3c.211.24.425.48.64.716A1.629,1.629,0,0,0,20.507-237.1Zm125.8.785a1.613,1.613,0,0,0,1.1-.425c.236-.214.473-.433.705-.651a1.636,1.636,0,0,0,.073-2.312,1.636,1.636,0,0,0-2.312-.073c-.218.207-.44.414-.665.618a1.633,1.633,0,0,0-.109,2.308A1.623,1.623,0,0,0,146.3-236.317Zm-52.981.28a1.623,1.623,0,0,0,1.131-.458c.233-.222.465-.447.691-.676a1.632,1.632,0,0,0,0-2.312,1.639,1.639,0,0,0-2.312,0q-.316.322-.643.632a1.636,1.636,0,0,0-.047,2.312A1.653,1.653,0,0,0,93.322-236.037Zm-20.778.313a1.621,1.621,0,0,0,1.2-.523,1.634,1.634,0,0,0-.091-2.312c-.222-.2-.443-.411-.662-.622a1.636,1.636,0,0,0-2.312.054,1.636,1.636,0,0,0,.055,2.312c.233.222.465.44.7.658A1.623,1.623,0,0,0,72.543-235.724Zm-46.635,3.773a1.636,1.636,0,0,0,1.261-.593,1.633,1.633,0,0,0-.222-2.3c-.229-.193-.462-.389-.691-.585a1.635,1.635,0,0,0-2.3.182,1.635,1.635,0,0,0,.182,2.3c.244.211.487.414.734.618A1.632,1.632,0,0,0,25.909-231.951Zm114.582.327a1.63,1.63,0,0,0,.945-.3c.262-.185.523-.374.782-.563a1.637,1.637,0,0,0,.345-2.286,1.633,1.633,0,0,0-2.286-.345c-.244.178-.487.356-.734.531a1.633,1.633,0,0,0-.385,2.279A1.636,1.636,0,0,0,140.491-231.624Zm-52.912.353a1.609,1.609,0,0,0,.945-.305c.262-.185.523-.374.782-.564a1.64,1.64,0,0,0,.338-2.29,1.636,1.636,0,0,0-2.286-.338c-.24.178-.487.356-.731.531a1.64,1.64,0,0,0-.382,2.283A1.632,1.632,0,0,0,87.578-231.271Zm-9.2.207a1.631,1.631,0,0,0,1.349-.709,1.634,1.634,0,0,0-.418-2.272c-.251-.171-.5-.345-.745-.52a1.632,1.632,0,0,0-2.279.382,1.632,1.632,0,0,0,.382,2.279c.258.185.523.371.789.552A1.609,1.609,0,0,0,78.378-231.064Zm55.773,3.388a1.641,1.641,0,0,0,.771-.2c.284-.153.563-.305.843-.462a1.634,1.634,0,0,0,.629-2.225,1.63,1.63,0,0,0-2.225-.629c-.262.145-.527.291-.792.436a1.633,1.633,0,0,0-.669,2.21A1.63,1.63,0,0,0,134.151-227.676Zm-102.139.022a1.63,1.63,0,0,0,1.407-.8,1.632,1.632,0,0,0-.571-2.239c-.258-.153-.516-.309-.771-.465a1.633,1.633,0,0,0-2.25.524,1.637,1.637,0,0,0,.527,2.254c.273.167.549.334.825.5A1.653,1.653,0,0,0,32.012-227.654Zm52.792.4a1.63,1.63,0,0,0,1.461-.9,1.633,1.633,0,0,0-.723-2.2c-.269-.135-.538-.273-.8-.414a1.641,1.641,0,0,0-1.65.073,1.63,1.63,0,0,0-1.832-.185c-.265.142-.534.287-.8.425a1.636,1.636,0,0,0-.691,2.206,1.634,1.634,0,0,0,2.206.691c.284-.149.567-.3.847-.451.036-.022.073-.04.105-.062a2.078,2.078,0,0,0,.294.2c.284.149.567.294.854.44A1.615,1.615,0,0,0,84.8-227.254Zm42.552,2.664a1.622,1.622,0,0,0,.578-.105c.3-.113.6-.225.894-.345a1.634,1.634,0,0,0,.916-2.119,1.636,1.636,0,0,0-2.123-.92c-.28.113-.56.222-.843.327a1.634,1.634,0,0,0-.952,2.1A1.636,1.636,0,0,0,127.357-224.59Zm-88.642.222a1.636,1.636,0,0,0,1.523-1.036,1.634,1.634,0,0,0-.923-2.119c-.28-.113-.56-.225-.836-.342a1.637,1.637,0,0,0-2.137.883,1.634,1.634,0,0,0,.88,2.137c.3.124.6.244.9.363A1.649,1.649,0,0,0,38.715-224.368Zm35.657,0a1.621,1.621,0,0,0,.553-.094c.3-.109.6-.222.905-.334a1.636,1.636,0,0,0,.949-2.108,1.634,1.634,0,0,0-2.108-.949c-.284.105-.563.211-.851.313a1.632,1.632,0,0,0-.985,2.09A1.634,1.634,0,0,0,74.372-224.368Zm17.31.033a1.64,1.64,0,0,0,1.545-1.1,1.634,1.634,0,0,0-1.011-2.079q-.425-.147-.851-.305a1.631,1.631,0,0,0-2.1.971,1.633,1.633,0,0,0,.971,2.1c.3.113.6.222.909.327A1.6,1.6,0,0,0,91.682-224.335Zm28.521,1.883a1.734,1.734,0,0,0,.36-.04c.313-.073.625-.142.938-.218a1.639,1.639,0,0,0,1.2-1.974,1.629,1.629,0,0,0-1.974-1.2c-.291.069-.585.138-.88.2a1.635,1.635,0,0,0-1.24,1.952A1.636,1.636,0,0,0,120.2-222.452Zm-21.32.091a1.632,1.632,0,0,0,1.6-1.309A1.63,1.63,0,0,0,99.21-225.6c-.3-.062-.593-.124-.887-.189a1.637,1.637,0,0,0-1.948,1.243,1.63,1.63,0,0,0,1.243,1.948c.313.069.625.138.938.2A1.671,1.671,0,0,0,98.883-222.362Zm-31.691.044a1.851,1.851,0,0,0,.342-.036c.313-.069.625-.138.938-.211a1.633,1.633,0,0,0,1.225-1.959,1.635,1.635,0,0,0-1.959-1.225c-.294.069-.589.135-.887.2a1.635,1.635,0,0,0-1.258,1.937A1.637,1.637,0,0,0,67.192-222.318Zm-21.323.1a1.636,1.636,0,0,0,1.6-1.294,1.634,1.634,0,0,0-1.258-1.937c-.294-.065-.585-.131-.88-.2a1.64,1.64,0,0,0-1.967,1.218,1.641,1.641,0,0,0,1.218,1.967c.316.073.629.142.945.211A1.593,1.593,0,0,0,45.869-222.22Zm66.948.829c.036,0,.073,0,.109,0,.32-.022.64-.047.96-.073a1.634,1.634,0,0,0,1.49-1.767,1.625,1.625,0,0,0-1.767-1.49c-.3.025-.6.047-.9.069a1.635,1.635,0,0,0-1.523,1.738A1.637,1.637,0,0,0,112.817-221.391Zm-6.532.011a1.638,1.638,0,0,0,1.632-1.534,1.64,1.64,0,0,0-1.534-1.734c-.3-.018-.6-.036-.9-.062a1.64,1.64,0,0,0-1.756,1.5,1.63,1.63,0,0,0,1.5,1.756c.32.025.64.051.96.069A.98.98,0,0,0,106.284-221.38Zm-46.489.105c.04,0,.08,0,.116,0,.324-.022.643-.047.963-.076a1.634,1.634,0,0,0,1.483-1.77,1.627,1.627,0,0,0-1.77-1.487c-.3.029-.6.051-.905.073a1.633,1.633,0,0,0-1.516,1.745A1.635,1.635,0,0,0,59.8-221.275Zm-6.529.047a1.633,1.633,0,0,0,1.629-1.541,1.629,1.629,0,0,0-1.538-1.723c-.3-.018-.6-.04-.9-.062a1.629,1.629,0,0,0-1.756,1.5,1.634,1.634,0,0,0,1.5,1.756c.32.022.64.044.963.062a.809.809,0,0,0,.095,0Z" transform="translate(-4.778 347.317)" fill="#d72828" clip-rule="evenodd"/>
    </clipPath>
  </defs>
  <g id="Group_51481" data-name="Group 51481" transform="translate(51.527 1.886)" clip-path="url(#clip-path)">
    <g id="Group_51480" data-name="Group 51480" transform="translate(-114.981 -400.802)" clip-path="url(#clip-path-2)">
      <path id="Path_56845" data-name="Path 56845" d="M185.716-572.857H106.007v72.092h79.709Z" transform="translate(5.85 969.861)" fill="#d72828"/>
    </g>
  </g>
  <g id="Group_51483" data-name="Group 51483" transform="translate(135.938 59.836)" clip-path="url(#clip-path-3)">
    <g id="Group_51482" data-name="Group 51482" transform="translate(-199.392 -458.752)" clip-path="url(#clip-path-2)">
      <path id="Path_56848" data-name="Path 56848" d="M83.072-407.99h-3.66v3.661h3.66Z" transform="translate(118.162 864.925)" fill="#d72828"/>
    </g>
  </g>
  <g id="Group_51485" data-name="Group 51485" transform="translate(130.233 39.269)" clip-path="url(#clip-path-5)">
    <g id="Group_51484" data-name="Group 51484" transform="translate(-193.687 -438.185)" clip-path="url(#clip-path-2)">
      <path id="Path_56851" data-name="Path 56851" d="M35.251-464.57H-4.683v43.641H35.251Z" transform="translate(196.552 900.937)" fill="#d72828"/>
    </g>
  </g>
  <g id="Group_51487" data-name="Group 51487" transform="translate(124.22 66.223)" clip-path="url(#clip-path-7)">
    <g id="Group_51486" data-name="Group 51486" transform="translate(-187.673 -465.139)" clip-path="url(#clip-path-2)">
      <path id="Path_56854" data-name="Path 56854" d="M100.189-390.42h-12.3v15.182h12.3Z" transform="translate(97.962 853.742)" fill="#d72828"/>
    </g>
  </g>
  <g id="Group_51489" data-name="Group 51489" transform="translate(119.846 69.983)" clip-path="url(#clip-path-9)">
    <g id="Group_51488" data-name="Group 51488" transform="translate(-183.3 -468.899)" clip-path="url(#clip-path-2)">
      <path id="Path_56857" data-name="Path 56857" d="M106.094-380.076H90.3v12.656h15.794Z" transform="translate(91.183 847.158)" fill="#d72828"/>
    </g>
  </g>
  <g id="Group_51491" data-name="Group 51491" transform="translate(88.695 65.93)" clip-path="url(#clip-path-11)">
    <g id="Group_51490" data-name="Group 51490" transform="translate(-152.149 -464.846)" clip-path="url(#clip-path-2)">
      <path id="Path_56860" data-name="Path 56860" d="M148.528-391.227h-40.5v32.6h40.5Z" transform="translate(42.304 854.256)" fill="#d72828"/>
    </g>
  </g>
  <g id="Group_51493" data-name="Group 51493" transform="translate(51.045 0.287)" clip-path="url(#clip-path-13)">
    <g id="Group_51492" data-name="Group 51492" transform="translate(-114.818 -404.785)" clip-path="url(#clip-path-14)">
      <path id="Path_56863" data-name="Path 56863" d="M247.866-568.924H204.933V-471.6h42.933Z" transform="translate(-91.936 971.871)" fill="#d72828"/>
    </g>
  </g>
  <g id="Group_51495" data-name="Group 51495" transform="translate(51.359)" clip-path="url(#clip-path-15)">
    <g id="Group_51494" data-name="Group 51494" transform="translate(-114.813 -398.916)" clip-path="url(#clip-path-2)">
      <path id="Path_56866" data-name="Path 56866" d="M166.064-572.6H76.919v64.405h89.145Z" transform="translate(36.076 969.696)" fill="#d72828"/>
    </g>
  </g>
  <g id="Group_51497" data-name="Group 51497" transform="translate(51.863 0)" clip-path="url(#clip-path-17)">
    <g id="Group_51496" data-name="Group 51496" transform="translate(-115.084 -402.201)" clip-path="url(#clip-path-18)">
      <path id="Path_56869" data-name="Path 56869" d="M114.8-571.742H-2.819v45.665H114.8Z" transform="translate(116.087 972.112)" fill="#d72828"/>
    </g>
  </g>
  <g id="Group_51499" data-name="Group 51499" transform="translate(0 80.074)" clip-path="url(#clip-path-19)">
    <g id="Group_51498" data-name="Group 51498" transform="translate(-63.454 -478.99)" clip-path="url(#clip-path-2)">
      <path id="Path_56872" data-name="Path 56872" d="M168.324-352.317H-.222v129.724H168.324Z" transform="translate(61.858 829.489)" fill="#d72828"/>
    </g>
  </g>
</svg>
