<svg xmlns="http://www.w3.org/2000/svg" width="377.028" height="201.991" viewBox="0 0 377.028 201.991">
  <g id="Group_77965" data-name="Group 77965" transform="translate(-1352.656 -287.004)">
    <path id="Path_83620" data-name="Path 83620" d="M-28.815,373.591a24.29,24.29,0,0,1-5.311-1.156c-2.036-.66-3.677-1.627-2.62-3.487a19.172,19.172,0,0,0,2.445-8.721l3.789,3.054,2.574,2.073a30.8,30.8,0,0,1-.291,3.366c-.052.389-.112.811-.183,1.263a.919.919,0,0,0,.423.922l.058.036A1.437,1.437,0,0,1-28.815,373.591Z" transform="translate(1424.116 35.478)" fill="#fb9e63" fill-rule="evenodd"/>
    <path id="Path_83621" data-name="Path 83621" d="M-23.534,367.745a6.257,6.257,0,0,1-.094,2.083,10.767,10.767,0,0,1-4.44-2.205c1.168-.32,1.593-1.584,2.464-1.465Z" transform="translate(1419.713 32.582)" fill="#ea7f40" fill-rule="evenodd"/>
    <path id="Path_83622" data-name="Path 83622" d="M-25.141,356.036s-8.826,1.466-9.655-4.043-2.526-9.033,3.075-10.2,7.014.769,7.737,2.54S-22.867,355.513-25.141,356.036Z" transform="translate(1423.443 44.664)" fill="#fb9e63" fill-rule="evenodd"/>
    <path id="Path_83623" data-name="Path 83623" d="M-24.557,340.772a3.084,3.084,0,0,1-2.338,3.475c-2.528.79-1.969,3.89-3.106,3.849s-1.6-1.782-2.612-.392c-.867,1.185.721,2.592.612,3.242-.188,1.116-1.936,3.4-3.512,3.286s-4.525-7.6-3.935-9.92,2.949-4.76,5.182-5.1,5.333.627,6.049.627S-24.761,340.055-24.557,340.772Z" transform="translate(1425.313 45.785)" fill="#003170" fill-rule="evenodd"/>
    <path id="Path_83624" data-name="Path 83624" d="M-30.1,409.185c-.147,1.272-.415,2.137-.836,2.418-1.316.882-3.06,1.977-5.007,3.062-6.9,3.85-16.356,7.565-18.278,1.059-2.259-7.642-.775-21.991,1.44-30.9,1.275-5.134,4.8-10.522,7.185-10.517,4.062.008,9.9,1.079,12.26,6.9.912,2.254,2.254,10.062,2.939,17.215A59.209,59.209,0,0,1-30.1,409.185Z" transform="translate(1433.051 28.595)" fill="#fff" fill-rule="evenodd"/>
    <path id="Path_83625" data-name="Path 83625" d="M-37.077,372.419l.92-2.073s8.154.831,9.538,5.516C-26.619,375.862-32.922,372.519-37.077,372.419Z" transform="translate(1424.117 30.531)" fill="#d5e4f5" fill-rule="evenodd"/>
    <path id="Path_83626" data-name="Path 83626" d="M-19.069,430.775c-.147,1.272-.415,2.137-.836,2.418-1.316.882-3.06,1.977-5.007,3.062-2.032-1.235-6.2-4.183-7.179-7.656a27.741,27.741,0,0,1-.381-10.131Z" transform="translate(1422.015 7.006)" fill="#d5e4f5" fill-rule="evenodd"/>
    <path id="Path_83627" data-name="Path 83627" d="M-76.984,509.727l-.057,0a.772.772,0,0,1-.78-.826l3.1-30.971,2.706.241-4.453,31.137A.5.5,0,0,1-76.984,509.727Z" transform="translate(1444.036 -22.061)" fill="#598fcb" fill-rule="evenodd"/>
    <path id="Path_83628" data-name="Path 83628" d="M-45.756,509.727l-.057,0a.772.772,0,0,1-.78-.826l3.1-30.971,2.706.241-4.453,31.137A.5.5,0,0,1-45.756,509.727Z" transform="translate(1428.771 -22.061)" fill="#598fcb" fill-rule="evenodd"/>
    <path id="Path_83629" data-name="Path 83629" d="M-77.342,436.722l-2.944-25.869c-.386-3.727.862-7.378,6.241-7.66l9.464-.577c5.609-.231,8.142,4.437,8.852,8.031l5.618,28.435Z" transform="translate(1445.271 14.76)" fill="#598fcb" fill-rule="evenodd"/>
    <path id="Path_83630" data-name="Path 83630" d="M-73.182,474.074h24.8a1.2,1.2,0,0,0,1.192-1.191v-2.575a1.2,1.2,0,0,0-1.192-1.191H-74.373v3.766A1.2,1.2,0,0,0-73.182,474.074Z" transform="translate(1442.349 -17.752)" fill="#598fcb" fill-rule="evenodd"/>
    <path id="Path_83631" data-name="Path 83631" d="M260.726,349.282l-335.591-.1s-.327-.364-.911-1.063c-.033-.039-.066-.08-.1-.122a126,126,0,0,1-8.048-10.926l0-.005C-93.3,322.89-106.285,297.788-104.1,269.93a76.332,76.332,0,0,1,5.9-24.068c10.483-24.628,41.758-41.23,69.932-41.563q.436-.005.872-.005c10.589,0,20.7,2.323,29.065,7.407a18.582,18.582,0,0,0,5.668,2.127,35.094,35.094,0,0,0,6.258.742c.533.019,1.079.028,1.633.028,18.394,0,46.939-10.452,64.075-35.638,9.373-13.777,23.762-22.8,40.3-27.492q1.156-.327,2.326-.627a101.909,101.909,0,0,1,11.557-2.249q1.062-.143,2.132-.267a114.749,114.749,0,0,1,13.224-.753,126.242,126.242,0,0,1,40.064,6.613q3.387,1.143,6.688,2.48c32.264,13.066,57.363,39.745,55.157,77q-.131,2.209-.393,4.47H247.3v-9.384h-.61v9.384h-6.213v-5.006h-.391v5.006h-2.592v10.735h-5.2v2.7h-5.606v-4.655h-10.08V234.262h-1.578V233h-.224v1.261H213.5v0h-6.537V233h-.226v1.259h-1.705v6.362l-8.467-.035v3.927h-7.179V220.239h-1.88v-1.818h-.253v1.818H182.68v-1.818h-.254v1.818h-7.266v-1.818h-.255v1.818h-5.129v-1.818h-.255v1.818H168.11v26h-6.5V232.182H140.339v1.8h-1.854V221.473c-.091-.049-.182-.1-.27-.149h-1.732v-.006H126.4v.006h-.009V223.2h.009v1.29h-.009v1.875h.009v1.294h-.009v1.876h.009v.006l-1.066-.006v-9.812h-1.518v-1.4h-.178v1.4h-8.312v-1.4h-.179v1.4h-1.122v1.244h-.005v1.875h.005v1.648h-.005v1.875h.005v1.294h-.005v1.876h.005v1.2h-.005v1.876h.005v1.2h-.005v1.876h.005v1.128h-.005V238h.005v.131h-3.765v-9.386H109.7v9.386h-5.691v-5.008h-.359v5.008h-2.375v10.733H96.515v2.7H91.379v-4.657H82.144V234.262H80.7V233h-.2v1.261h-1.2v0H73.3V233h-.208v1.258h-1.56v6.363l-7.759-.035v3.927H57.2V220.239H55.476v-1.818h-.232v1.818H51.056v-1.818h-.235v1.818H44.167v-1.818h-.233v1.818h-4.7v-1.818H39v1.818H37.706v26H31.753V232.182H12.262v16.565H2.492V269.96L.24,348.027l17.672,0a.464.464,0,0,0,.335.141h.045a.506.506,0,0,0,.351-.141H30.127a.471.471,0,0,0,.337.142h.045a.506.506,0,0,0,.353-.142l20.785,0a.51.51,0,0,0,.355.145h.045a.47.47,0,0,0,.34-.145L261.455,348l-.087.155C261.161,348.525,260.946,348.9,260.726,349.282Z" transform="translate(1457 139.433)" fill="#e9f0f9" fill-rule="evenodd"/>
    <path id="Path_83632" data-name="Path 83632" d="M361.474,415.659v0l-261.215.027,2.252-78.067V316.409h9.77V299.844h19.491V313.9h5.952v-26h1.295v-1.818h.232V287.9h4.7v-1.818h.233V287.9h6.655v-1.818h.235V287.9h4.188v-1.818h.232V287.9h1.721v24.275h6.579v-3.927l7.759.035v-6.363h1.56v-1.258h.208v1.258h5.992v0h1.2v-1.261h.2v1.261h1.446v12.651H191.4v4.657h5.136v-2.7H201.3V305.794h2.375v-5.008h.359v5.008h5.691v-9.386h.559v9.386h3.765v-.131h-.005v-1.191h.005v-1.128h-.005v-1.876h.005v-1.2h-.005v-1.876h.005v-1.2h-.005v-1.876h.005v-1.294h-.005v-1.875h.005V290.5h-.005v-1.875h.005v-1.244h1.122v-1.4h.179v1.4h8.312v-1.4h.178v1.4h1.518V297.2l1.066.006V297.2h-.009v-1.876h.009v-1.294h-.009v-1.875h.009v-1.29h-.009v-1.876h.009v-.006H236.5v.006h1.732l.27.15v12.513h1.854v-1.8h21.274V313.9h6.5v-26h1.412v-1.818h.255V287.9h5.129v-1.818h.255V287.9h7.266v-1.818h.254V287.9h4.573v-1.818h.253V287.9h1.88v24.275h7.179v-3.927l8.467.035v-6.362h1.705v-1.259h.226v1.259h6.537v0h1.309v-1.261h.224v1.261h1.578v12.652h10.08v4.655h5.606v-2.7h5.2V305.792h2.592v-5.006h.391v5.006h6.213v-9.384h.61v9.384h3.053a86.568,86.568,0,0,1-1.479,8.783q-.584,2.641-1.342,5.34C334.254,367.14,387.413,369.271,361.474,415.659Z" transform="translate(1356.981 71.771)" fill="#d5e6f6" fill-rule="evenodd"/>
    <path id="Path_83633" data-name="Path 83633" d="M476.034,162.989V354.32h-6.688V160.509Q472.734,161.651,476.034,162.989Z" transform="translate(1176.555 133.109)" fill="#9cbee5" fill-rule="evenodd"/>
    <path id="Path_83634" data-name="Path 83634" d="M7.334,268.079v134.29H-75.776c-.033-.039-.066-.08-.1-.122a126,126,0,0,1-8.048-10.926l0-.005c-9.372-14.175-22.357-39.276-20.172-67.134a76.332,76.332,0,0,1,5.9-24.068c10.483-24.628,41.758-41.23,69.932-41.563,10.8.119,21.1,2.451,29.652,7.4A20.134,20.134,0,0,0,7.334,268.079Z" transform="translate(1457 85.181)" fill="#c2d9f1" fill-rule="evenodd"/>
    <path id="Path_83635" data-name="Path 83635" d="M363.059,149.045v23.563c0,1.837-.449,3.336-1,3.336h-.143c-.547,0-.994-1.5-.994-3.336v-23.3Q361.989,149.168,363.059,149.045Z" transform="translate(1229.555 138.713)" fill="#8bb3df" fill-rule="evenodd"/>
    <path id="Path_83636" data-name="Path 83636" d="M348.479,190.578c-7.766,0-14.061,6.657-14.061,14.868h28.121C362.539,197.235,356.243,190.579,348.479,190.578Z" transform="translate(1242.514 118.41)" fill="#f77e27" fill-rule="evenodd"/>
    <path id="Path_83637" data-name="Path 83637" d="M354.175,190.8a5.78,5.78,0,0,0-1.236-.134c-5.059,0-9.161,6.635-9.161,14.821h2.47C346.248,197.983,349.7,191.78,354.175,190.8Z" transform="translate(1237.938 118.365)" fill="#ffb371" fill-rule="evenodd"/>
    <path id="Path_83638" data-name="Path 83638" d="M541.428,488.117s-3.742-4.366-.231-7.139a9.954,9.954,0,0,1,4.656-1.426s-2.964,4.969-2,5.463,2.9-5.776,2.9-5.776,5.837-.565,7.713.337c0,0-4.988,4.083-3.938,4.327s6.441-3.766,6.441-3.766,5.432.925,5.142,4.238-2.162,4.337-2.985,4.248-5.635-1.924-5.739-1.25,2.792,2.877,4.82,2.98c0,0-3.83,4.224-6.375,3s-2.762-3.151-4.349-3.877-2.941-.722-2.285.017,3.526,1.457,4.433,3.062,1.722,2.687-.911,2.291-6.914-2.323-7.1-4.529Z" transform="translate(1142.165 -22.615)" fill="#598fcb" fill-rule="evenodd"/>
    <path id="Path_83639" data-name="Path 83639" d="M557.956,489.606s-14.754-.569-18.012,3.651a10.672,10.672,0,0,1-2.939,4.123l-.346.942s2.558-2.7,3.472-2.858C540.132,495.464,538.7,490.236,557.956,489.606Z" transform="translate(1143.648 -27.757)" fill="#598fcb" fill-rule="evenodd"/>
    <path id="Path_83640" data-name="Path 83640" d="M534.1,504.485a9.268,9.268,0,0,0-3.387,6.526l.576.051s1.012-4.326,2.838-6.019S534.1,504.485,534.1,504.485Z" transform="translate(1146.557 -34.861)" fill="#598fcb" fill-rule="evenodd"/>
    <path id="Path_83641" data-name="Path 83641" d="M496.608,471.291s5.953-3.333,3.175-7.857c0,0-2.223-2.778-4.6-3.492,0,0,1.27,6.746,0,6.9s-.873-7.619-.873-7.619-6.27-3.016-8.73-2.778c0,0,3.889,6.588,2.619,6.429s-5.636-6.825-5.636-6.825-6.428-1.191-7.46,2.619.635,5.714,1.587,5.952,7.064.159,6.9.952-4.286,2.063-6.587,1.349c0,0,2.54,6.27,5.873,5.952s4.365-2.38,6.429-2.539,3.571.4,2.539.952-4.524.182-6.191,1.6-3.016,2.291.08,2.925,8.651.239,9.762-2.143Z" transform="translate(1173.9 -11.281)" fill="#598fcb" fill-rule="evenodd"/>
    <path id="Path_83642" data-name="Path 83642" d="M481.158,463.674s16.667,5.4,18.571,11.428a12.676,12.676,0,0,0,1.589,5.795v1.189s-1.747-4.047-2.7-4.6C498.619,477.483,502.348,472.245,481.158,463.674Z" transform="translate(1170.78 -15.092)" fill="#598fcb" fill-rule="evenodd"/>
    <path id="Path_83643" data-name="Path 83643" d="M519.834,496.66a10.994,10.994,0,0,1,1.1,8.653l-.661-.177s.641-5.233-.7-7.865S519.834,496.66,519.834,496.66Z" transform="translate(1152.263 -30.855)" fill="#598fcb" fill-rule="evenodd"/>
    <path id="Path_83644" data-name="Path 83644" d="M531.083,457.607s-7.846-4.393-4.185-10.358c0,0,2.929-3.661,6.068-4.6,0,0-1.673,8.893,0,9.1s1.151-10.043,1.151-10.043,8.265-3.975,11.508-3.661c0,0-5.126,8.683-3.452,8.473s7.428-9,7.428-9,8.474-1.571,9.834,3.452-.837,7.532-2.092,7.846-9.311.209-9.1,1.255,5.649,2.72,8.682,1.779c0,0-3.347,8.265-7.74,7.846s-5.755-3.138-8.475-3.347-4.708.523-3.348,1.255,5.963.24,8.16,2.107,3.975,3.019-.1,3.856-11.4.314-12.869-2.826Z" transform="translate(1148.896 -2.194)" fill="#8bb3df" fill-rule="evenodd"/>
    <path id="Path_83645" data-name="Path 83645" d="M558.5,447.567s-21.97,7.114-24.482,15.065a16.691,16.691,0,0,1-2.092,7.638v1.569s2.3-5.335,3.557-6.069C535.481,465.77,530.563,458.865,558.5,447.567Z" transform="translate(1145.964 -7.218)" fill="#8bb3df" fill-rule="evenodd"/>
    <path id="Path_83646" data-name="Path 83646" d="M529.961,491.047a14.486,14.486,0,0,0-1.456,11.407l.872-.233s-.846-6.9.927-10.369S529.961,491.047,529.961,491.047Z" transform="translate(1147.926 -27.995)" fill="#8bb3df" fill-rule="evenodd"/>
    <path id="Path_83647" data-name="Path 83647" d="M520.8,526.17A15.369,15.369,0,0,0,536.17,510.8H505.431A15.37,15.37,0,0,0,520.8,526.17Z" transform="translate(1158.914 -38.129)" fill="#8bb3df" fill-rule="evenodd"/>
    <path id="Path_83648" data-name="Path 83648" d="M526.374,526.052A15.377,15.377,0,0,1,509.1,510.8h3.819A15.373,15.373,0,0,0,526.374,526.052Z" transform="translate(1157.123 -38.129)" fill="#9cbee5" fill-rule="evenodd"/>
    <rect id="Rectangle_17427" data-name="Rectangle 17427" width="31.594" height="0.472" transform="translate(1663.841 472.67)" fill="#8bb3df"/>
    <path id="Path_83649" data-name="Path 83649" d="M381.072,477.08l-15.1-62.686,1.055-2.468,14.962,65.148a.266.266,0,0,1-.259.325h-.25A.416.416,0,0,1,381.072,477.08Z" transform="translate(1227.09 10.205)" fill="#598fcb" fill-rule="evenodd"/>
    <path id="Path_83650" data-name="Path 83650" d="M261.687,513.67h0a.5.5,0,0,1-.5-.584l4.449-26.962h1.906l-5.3,27.092A.564.564,0,0,1,261.687,513.67Z" transform="translate(1278.313 -26.067)" fill="#598fcb" fill-rule="evenodd"/>
    <path id="Path_83651" data-name="Path 83651" d="M345.168,513.67h0a.5.5,0,0,1-.5-.584l4.449-26.962h1.906l-5.3,27.092A.563.563,0,0,1,345.168,513.67Z" transform="translate(1237.504 -26.067)" fill="#598fcb" fill-rule="evenodd"/>
    <path id="Path_83652" data-name="Path 83652" d="M315.084,420.242H261.959l11.006-69h53.126Z" transform="translate(1277.935 39.871)" fill="#f5fbfe" fill-rule="evenodd"/>
    <rect id="Rectangle_17428" data-name="Rectangle 17428" width="61.014" height="2.029" transform="translate(1535.98 459.588)" fill="#598fcb"/>
    <path id="Path_83653" data-name="Path 83653" d="M305.611,369.644a11.3,11.3,0,0,1-.239,1.607,11.061,11.061,0,0,1-10.461,8.718,9.264,9.264,0,0,1-9.181-10.29,11.109,11.109,0,0,1,10.7-10.325,9.257,9.257,0,0,1,3.242.572,8.9,8.9,0,0,1,3.641,2.523,9.279,9.279,0,0,1,1,1.388,8.988,8.988,0,0,1,.461.891,9.778,9.778,0,0,1,.781,2.759,10.48,10.48,0,0,1,.088,1.509C305.635,369.209,305.626,369.426,305.611,369.644Z" transform="translate(1266.329 35.905)" fill="#abc5e7" fill-rule="evenodd"/>
    <path id="Path_83654" data-name="Path 83654" d="M314.3,365.849l-9.1,4.933s3.755-6.611,5.3-9.134a8.96,8.96,0,0,1,2.346,1.922,9.278,9.278,0,0,1,1,1.388A9.1,9.1,0,0,1,314.3,365.849Z" transform="translate(1256.794 34.783)" fill="#fff" fill-rule="evenodd"/>
    <path id="Path_83655" data-name="Path 83655" d="M316.907,363.756l-8.311,4.506s3.429-6.039,4.837-8.344a8.16,8.16,0,0,1,2.144,1.756,8.548,8.548,0,0,1,1.331,2.082Z" transform="translate(1255.137 35.629)" fill="#f77e27" fill-rule="evenodd"/>
    <path id="Path_83656" data-name="Path 83656" d="M272.423,451.583l43.109,0,4.338-24.722-43.109,0-4.338,24.721Zm43.373.258-43.727,0,4.427-25.229,43.728,0Z" transform="translate(1272.992 3.027)" fill="#abc5e7" fill-rule="evenodd"/>
    <path id="Path_83657" data-name="Path 83657" d="M315.426,462.8l-38.78,0s6.879-3.69,8.766-3.5,4.6,1.687,6.343,1.745,3.632-5.178,5.574-4.931S300,461,301.006,460.544a10.168,10.168,0,0,1,5.763,0c1.738.649,4.271-2.061,5.8-1.976S315.426,462.8,315.426,462.8Z" transform="translate(1270.755 -11.395)" fill="#f77e27" fill-rule="evenodd"/>
    <path id="Path_83658" data-name="Path 83658" d="M287.805,454.321H280.4l.069-.392h7.406Z" transform="translate(1268.921 -10.327)" fill="#f77e27" fill-rule="evenodd"/>
    <path id="Path_83659" data-name="Path 83659" d="M287.517,455.961H280.11l.069-.394h7.407Z" transform="translate(1269.062 -11.129)" fill="#f77e27" fill-rule="evenodd"/>
    <path id="Path_83660" data-name="Path 83660" d="M280.987,438.059l38.78,0s-5.584-3.69-7.539-3.5-5.191,1.687-6.955,1.745-1.815-5.179-3.843-4.932-4.384,4.878-5.231,4.425a10.053,10.053,0,0,0-5.762,0c-1.965.649-3.547-2.061-5.106-1.977S280.987,438.059,280.987,438.059Z" transform="translate(1268.633 0.7)" fill="#abc5e7" fill-rule="evenodd"/>
    <path id="Path_83661" data-name="Path 83661" d="M291.9,430.99h-7.407l.069-.392h7.407Z" transform="translate(1266.92 1.077)" fill="#abc5e7" fill-rule="evenodd"/>
    <path id="Path_83662" data-name="Path 83662" d="M291.61,432.632H284.2l.069-.394h7.407Z" transform="translate(1267.061 0.275)" fill="#abc5e7" fill-rule="evenodd"/>
    <path id="Path_83663" data-name="Path 83663" d="M284.279,412.1h-1.7l1.478-7.97h1.7Z" transform="translate(1267.855 14.015)" fill="#abc5e7" fill-rule="evenodd"/>
    <path id="Path_83664" data-name="Path 83664" d="M288.811,413.819h-1.7l1.145-6.174h1.7Z" transform="translate(1265.64 12.298)" fill="#abc5e7" fill-rule="evenodd"/>
    <path id="Path_83665" data-name="Path 83665" d="M293.345,413.565h-1.7l1.194-6.439h1.7Z" transform="translate(1263.423 12.552)" fill="#abc5e7" fill-rule="evenodd"/>
    <path id="Path_83666" data-name="Path 83666" d="M297.877,415.04h-1.7l.909-4.9h1.7Z" transform="translate(1261.208 11.076)" fill="#abc5e7" fill-rule="evenodd"/>
    <path id="Path_83667" data-name="Path 83667" d="M302.412,414.7h-1.7l.974-5.254h1.7Z" transform="translate(1258.991 11.417)" fill="#abc5e7" fill-rule="evenodd"/>
    <path id="Path_83668" data-name="Path 83668" d="M306.944,415.827h-1.7l.756-4.074h1.7Z" transform="translate(1256.775 10.289)" fill="#abc5e7" fill-rule="evenodd"/>
    <path id="Path_83669" data-name="Path 83669" d="M328.793,412.1h-1.7l1.478-7.97h1.7Z" transform="translate(1246.095 14.015)" fill="#f77e27" fill-rule="evenodd"/>
    <path id="Path_83670" data-name="Path 83670" d="M333.326,413.819h-1.7l1.145-6.174h1.7Z" transform="translate(1243.878 12.298)" fill="#f77e27" fill-rule="evenodd"/>
    <path id="Path_83671" data-name="Path 83671" d="M337.86,413.565h-1.7l1.194-6.439h1.7Z" transform="translate(1241.663 12.552)" fill="#f77e27" fill-rule="evenodd"/>
    <path id="Path_83672" data-name="Path 83672" d="M342.392,415.04h-1.7l.909-4.9h1.7Z" transform="translate(1239.447 11.076)" fill="#f77e27" fill-rule="evenodd"/>
    <path id="Path_83673" data-name="Path 83673" d="M346.926,414.7h-1.7l.974-5.254h1.7Z" transform="translate(1237.23 11.417)" fill="#f77e27" fill-rule="evenodd"/>
    <path id="Path_83674" data-name="Path 83674" d="M351.458,415.827h-1.7l.756-4.074h1.7Z" transform="translate(1235.015 10.289)" fill="#f77e27" fill-rule="evenodd"/>
    <path id="Path_83675" data-name="Path 83675" d="M341.146,368.1h-5.537l.142-.758h5.537Z" transform="translate(1241.932 32.001)" fill="#abc5e7" fill-rule="evenodd"/>
    <path id="Path_83676" data-name="Path 83676" d="M353.883,368.1h-6.115l.144-.758h6.114Z" transform="translate(1235.987 32.001)" fill="#abc5e7" fill-rule="evenodd"/>
    <path id="Path_83677" data-name="Path 83677" d="M364.528,368.1h-3.9l.142-.758h3.9Z" transform="translate(1229.7 32.001)" fill="#abc5e7" fill-rule="evenodd"/>
    <path id="Path_83678" data-name="Path 83678" d="M372.5,368.1H369.49l.142-.758h3.007Z" transform="translate(1225.369 32.001)" fill="#abc5e7" fill-rule="evenodd"/>
    <path id="Path_83679" data-name="Path 83679" d="M339.957,374.428H334.42l.142-.759H340.1Z" transform="translate(1242.513 28.906)" fill="#abc5e7" fill-rule="evenodd"/>
    <path id="Path_83680" data-name="Path 83680" d="M352.693,374.428h-6.114l.142-.759h6.115Z" transform="translate(1236.568 28.906)" fill="#abc5e7" fill-rule="evenodd"/>
    <path id="Path_83681" data-name="Path 83681" d="M363.339,374.428h-3.9l.142-.759h3.9Z" transform="translate(1230.281 28.906)" fill="#abc5e7" fill-rule="evenodd"/>
    <path id="Path_83682" data-name="Path 83682" d="M371.309,374.428H368.3l.142-.759h3.008Z" transform="translate(1225.95 28.906)" fill="#abc5e7" fill-rule="evenodd"/>
    <path id="Path_83683" data-name="Path 83683" d="M344.754,364.634h-8.5l.142-.759h8.5Z" transform="translate(1241.613 33.694)" fill="#abc5e7" fill-rule="evenodd"/>
    <path id="Path_83684" data-name="Path 83684" d="M359.359,364.634h-4.9l.142-.759h4.9Z" transform="translate(1232.715 33.694)" fill="#abc5e7" fill-rule="evenodd"/>
    <path id="Path_83685" data-name="Path 83685" d="M370.832,364.634h-5.438l.142-.759h5.438Z" transform="translate(1227.371 33.694)" fill="#abc5e7" fill-rule="evenodd"/>
    <path id="Path_83686" data-name="Path 83686" d="M343.49,371.366h-8.5l.142-.759h8.5Z" transform="translate(1242.231 30.403)" fill="#abc5e7" fill-rule="evenodd"/>
    <path id="Path_83687" data-name="Path 83687" d="M358.095,371.366h-4.9l.142-.759h4.9Z" transform="translate(1233.333 30.403)" fill="#abc5e7" fill-rule="evenodd"/>
    <path id="Path_83688" data-name="Path 83688" d="M369.568,371.366H364.13l.142-.759h5.438Z" transform="translate(1227.989 30.403)" fill="#abc5e7" fill-rule="evenodd"/>
    <path id="Path_83689" data-name="Path 83689" d="M338.768,380.758h-5.537l.142-.759h5.537Z" transform="translate(1243.094 25.812)" fill="#abc5e7" fill-rule="evenodd"/>
    <path id="Path_83690" data-name="Path 83690" d="M351.5,380.758h-6.114l.142-.759h6.114Z" transform="translate(1237.149 25.812)" fill="#abc5e7" fill-rule="evenodd"/>
    <path id="Path_83691" data-name="Path 83691" d="M362.15,380.758h-3.9l.142-.759h3.9Z" transform="translate(1230.862 25.812)" fill="#abc5e7" fill-rule="evenodd"/>
    <path id="Path_83692" data-name="Path 83692" d="M370.12,380.758h-3.007l.142-.759h3.007Z" transform="translate(1226.531 25.812)" fill="#abc5e7" fill-rule="evenodd"/>
    <path id="Path_83693" data-name="Path 83693" d="M342.3,377.7h-8.5l.142-.757h8.5Z" transform="translate(1242.813 27.307)" fill="#abc5e7" fill-rule="evenodd"/>
    <path id="Path_83694" data-name="Path 83694" d="M356.906,377.7h-4.9l.142-.757h4.9Z" transform="translate(1233.914 27.307)" fill="#abc5e7" fill-rule="evenodd"/>
    <path id="Path_83695" data-name="Path 83695" d="M368.377,377.7h-5.438l.143-.757h5.438Z" transform="translate(1228.571 27.307)" fill="#abc5e7" fill-rule="evenodd"/>
    <path id="Path_83696" data-name="Path 83696" d="M337.654,386.695h-5.538l.142-.759H337.8Z" transform="translate(1243.639 22.91)" fill="#abc5e7" fill-rule="evenodd"/>
    <path id="Path_83697" data-name="Path 83697" d="M350.391,386.695h-6.114l.142-.759h6.114Z" transform="translate(1237.694 22.91)" fill="#abc5e7" fill-rule="evenodd"/>
    <path id="Path_83698" data-name="Path 83698" d="M361.035,386.695h-3.9l.142-.759h3.9Z" transform="translate(1231.407 22.91)" fill="#abc5e7" fill-rule="evenodd"/>
    <path id="Path_83699" data-name="Path 83699" d="M369.006,386.695H366l.142-.759h3.008Z" transform="translate(1227.075 22.91)" fill="#abc5e7" fill-rule="evenodd"/>
    <path id="Path_83700" data-name="Path 83700" d="M341.187,383.632h-8.494l.142-.759h8.494Z" transform="translate(1243.357 24.407)" fill="#abc5e7" fill-rule="evenodd"/>
    <path id="Path_83701" data-name="Path 83701" d="M355.79,383.632h-4.9l.144-.759h4.9Z" transform="translate(1234.46 24.407)" fill="#abc5e7" fill-rule="evenodd"/>
    <path id="Path_83702" data-name="Path 83702" d="M367.263,383.632h-5.438l.142-.759h5.438Z" transform="translate(1229.115 24.407)" fill="#abc5e7" fill-rule="evenodd"/>
    <path id="Path_83703" data-name="Path 83703" d="M315.7,406.094h-2.71l.071-.37h2.71Z" transform="translate(1252.986 13.236)" fill="#abc5e7" fill-rule="evenodd"/>
    <path id="Path_83704" data-name="Path 83704" d="M321.941,406.094h-2.992l.069-.37h2.992Z" transform="translate(1250.075 13.236)" fill="#abc5e7" fill-rule="evenodd"/>
    <path id="Path_83705" data-name="Path 83705" d="M315.123,409.193h-2.71l.071-.372h2.71Z" transform="translate(1253.271 11.722)" fill="#abc5e7" fill-rule="evenodd"/>
    <path id="Path_83706" data-name="Path 83706" d="M321.359,409.193h-2.992l.069-.372h2.992Z" transform="translate(1250.36 11.722)" fill="#abc5e7" fill-rule="evenodd"/>
    <path id="Path_83707" data-name="Path 83707" d="M317.472,404.4h-4.159l.071-.372h4.158Z" transform="translate(1252.83 14.065)" fill="#abc5e7" fill-rule="evenodd"/>
    <path id="Path_83708" data-name="Path 83708" d="M324.62,404.4h-2.4l.069-.372h2.4Z" transform="translate(1248.475 14.065)" fill="#abc5e7" fill-rule="evenodd"/>
    <path id="Path_83709" data-name="Path 83709" d="M316.854,407.7H312.7l.069-.372h4.157Z" transform="translate(1253.132 12.454)" fill="#abc5e7" fill-rule="evenodd"/>
    <path id="Path_83710" data-name="Path 83710" d="M324,407.7h-2.4l.069-.372h2.4Z" transform="translate(1248.777 12.454)" fill="#abc5e7" fill-rule="evenodd"/>
    <path id="Path_83711" data-name="Path 83711" d="M358.178,406.094h-2.71l.071-.37h2.71Z" transform="translate(1232.224 13.236)" fill="#abc5e7" fill-rule="evenodd"/>
    <path id="Path_83712" data-name="Path 83712" d="M364.413,406.094h-2.994l.071-.37h2.992Z" transform="translate(1229.314 13.236)" fill="#abc5e7" fill-rule="evenodd"/>
    <path id="Path_83713" data-name="Path 83713" d="M357.6,409.193h-2.71l.07-.372h2.71Z" transform="translate(1232.508 11.722)" fill="#abc5e7" fill-rule="evenodd"/>
    <path id="Path_83714" data-name="Path 83714" d="M363.831,409.193h-2.993l.07-.372H363.9Z" transform="translate(1229.599 11.722)" fill="#abc5e7" fill-rule="evenodd"/>
    <path id="Path_83715" data-name="Path 83715" d="M359.945,404.4h-4.159l.07-.372h4.158Z" transform="translate(1232.067 14.065)" fill="#abc5e7" fill-rule="evenodd"/>
    <path id="Path_83716" data-name="Path 83716" d="M367.093,404.4h-2.4l.069-.372h2.4Z" transform="translate(1227.712 14.065)" fill="#abc5e7" fill-rule="evenodd"/>
    <path id="Path_83717" data-name="Path 83717" d="M359.325,407.7h-4.159l.071-.372h4.157Z" transform="translate(1232.37 12.454)" fill="#abc5e7" fill-rule="evenodd"/>
    <path id="Path_83718" data-name="Path 83718" d="M366.475,407.7h-2.4l.069-.372h2.4Z" transform="translate(1228.015 12.454)" fill="#abc5e7" fill-rule="evenodd"/>
    <path id="Path_83719" data-name="Path 83719" d="M377.031,529.47c-.1,1.3-1.926,1.312-4,1.07s-1.524.285-4.432.325-3.91-.921-4.051-1.336c-.126-.368,1.275-.678,2.773-1.044.188-.045.378-.092.566-.141,1.69-.429,2.809-1.693,4.254-2.8,1.369-1.046,3.134-4.83,3.134-4.83l3.972-.18s-1.672,3.394-2.3,4.855a4.8,4.8,0,0,0-.053,2.73A5.08,5.08,0,0,1,377.031,529.47Z" transform="translate(1227.789 -42.89)" fill="#fb9e63" fill-rule="evenodd"/>
    <path id="Path_83720" data-name="Path 83720" d="M373.03,537.794c-2.077-.241-1.525.285-4.432.325s-3.91-.921-4.051-1.336c-.126-.368,1.275-.678,2.773-1.044l.018.028a8.161,8.161,0,0,0,4.267.764c1.952-.2,3.943-1.01,5.289-1.156a5.081,5.081,0,0,1,.139,1.348C376.935,538.021,375.106,538.035,373.03,537.794Z" transform="translate(1227.789 -50.143)" fill="#052146" fill-rule="evenodd"/>
    <path id="Path_83721" data-name="Path 83721" d="M430.7,527.457c-.093,1.3-1.924,1.313-4,1.074s-1.524.286-4.432.33-3.91-.917-4.051-1.332c-.127-.369,1.275-.68,2.772-1.046l.566-.141c1.689-.432,2.806-1.7,4.25-2.8,1.368-1.047,0-7.247,0-7.247l4.369-.424s-.209,5.219-.206,7.592a13.4,13.4,0,0,0,.593,2.648A5.087,5.087,0,0,1,430.7,527.457Z" transform="translate(1201.554 -40.607)" fill="#fb9e63" fill-rule="evenodd"/>
    <path id="Path_83722" data-name="Path 83722" d="M426.7,538.324c-2.077-.238-1.524.286-4.432.33s-3.91-.917-4.051-1.332c-.127-.369,1.275-.68,2.772-1.046l.018.027a8.155,8.155,0,0,0,4.268.76c1.951-.2,3.941-1.014,5.288-1.162a5.087,5.087,0,0,1,.139,1.349C430.605,538.547,428.774,538.563,426.7,538.324Z" transform="translate(1201.554 -50.401)" fill="#052146" fill-rule="evenodd"/>
    <path id="Path_83723" data-name="Path 83723" d="M417.463,320.831c-.753-3.094.337-4.534,1.321-5.3a4.689,4.689,0,0,1,1.544-2.269,5.567,5.567,0,0,1,3.014-.577,1.406,1.406,0,0,0-.636-.3,4.667,4.667,0,0,1,1.669.435c7.178-2.766,8.306,7.8,8.156,10.259s-.13,5.348,3.605,7.282c7.125,3.692-2.369,17.6-2.369,17.6.182-1.984-8.975-12.457-13.752-15.593a13.81,13.81,0,0,1-1.607-4.975,13.059,13.059,0,0,0,.977,4.5C417.209,329.893,416.886,325.081,417.463,320.831Z" transform="translate(1202.04 58.877)" fill="#94241f" fill-rule="evenodd"/>
    <path id="Path_83724" data-name="Path 83724" d="M423.251,345.048a6.614,6.614,0,0,0,4.059.742,5.268,5.268,0,0,0,2.7-2.593c-.7-.139-.9-1.1-.885-5.221l-.315.062-5.309,1.051s.122,1.67.124,3.244C423.633,343.654,423.553,344.908,423.251,345.048Z" transform="translate(1199.088 46.354)" fill="#fb9e63" fill-rule="evenodd"/>
    <path id="Path_83725" data-name="Path 83725" d="M423.748,339.149s.122,1.67.124,3.244c2.97-.084,4.541-2.793,5.184-4.295Z" transform="translate(1198.845 46.295)" fill="#ea7f40" fill-rule="evenodd"/>
    <path id="Path_83726" data-name="Path 83726" d="M381.44,468.416a1.3,1.3,0,0,0,1.181,1.7l2.073.1,2.195.066a1.758,1.758,0,0,0,1.419-.649,61.679,61.679,0,0,0,10.412-19.712c.092-.292.188-.587.291-.886,2.16-6.3,6.637-14.2,9-21.354.375-1.139.713-2.212,1.015-3.226.1-.326.191-.645.281-.959a75.905,75.905,0,0,0,2.707-14.245l-17.035.137A375.259,375.259,0,0,1,381.44,468.416Z" transform="translate(1219.557 11.515)" fill="#00377e" fill-rule="evenodd"/>
    <path id="Path_83727" data-name="Path 83727" d="M410.28,369.249c.042,8.107-1.189,11.584-1.189,11.584a22.891,22.891,0,0,0,15.963.978c.1-.032,6.2-1.759,6.2-1.759-.145-.328-1.35-5.752-1.491-6.054-1.831-3.93-2.329-5.58-2.546-6.788a25.76,25.76,0,0,1-.212-6.792,54.538,54.538,0,0,1,2.1-10.665,55.308,55.308,0,0,1-7.031-2.4,5.494,5.494,0,0,1-3.795,1.407c-1.727-.038-2.286-.777-2.2-1.585-1.84,1.024-3.307,1.991-3.307,1.991-1.564,2.717-4.736,5.355-4.966,9.522C407.755,359.71,410.279,369.023,410.28,369.249Z" transform="translate(1206.636 41.859)" fill="#fff" fill-rule="evenodd"/>
    <path id="Path_83728" data-name="Path 83728" d="M438.856,378.658c.745,1.054,2.171,7.46,5.724,8.265-1.83-4.565-3.22-6.567-3.437-7.971a34.685,34.685,0,0,1-.212-7.888c-1.188-2.085-2.075-3.513-2.075-3.513-.094-.337-1.89-5.891-2.465-.927A22.929,22.929,0,0,0,438.856,378.658Z" transform="translate(1192.71 33.353)" fill="#458896" fill-rule="evenodd"/>
    <path id="Path_83729" data-name="Path 83729" d="M419.571,331.729s7.026.116,7.031-4.261.915-7.31-3.571-7.569-5.36,1.41-5.716,2.871S417.743,331.586,419.571,331.729Z" transform="translate(1202.031 55.205)" fill="#fb9e63" fill-rule="evenodd"/>
    <path id="Path_83730" data-name="Path 83730" d="M422.318,318.863s1.923,5.136,4.877,5.895,4.233-.032,4.233-.032a8.358,8.358,0,0,1-2.735-4.94S423.769,316.419,422.318,318.863Z" transform="translate(1199.544 56.133)" fill="#94241f" fill-rule="evenodd"/>
    <path id="Path_83731" data-name="Path 83731" d="M419.848,319.728a6.2,6.2,0,0,0-1.787,2.261c-.351,1.115-.509,3.409-1.177,3.332,0,0-1.45-3.491.179-5.465C418.79,317.763,419.848,319.728,419.848,319.728Z" transform="translate(1202.491 55.684)" fill="#94241f" fill-rule="evenodd"/>
    <path id="Path_83732" data-name="Path 83732" d="M397,401.37l-3.319,10.12,1.892.759,5.488-8.941Z" transform="translate(1213.541 15.365)" fill="#fb9e63" fill-rule="evenodd"/>
    <path id="Path_83733" data-name="Path 83733" d="M408.336,349.9s-3.914,1.553-5.046,3.974-2.849,18.662-3.531,20.33-1.2,2.988-1.2,2.988a8.156,8.156,0,0,0,3.957,1.784C404.5,379.1,408.336,349.9,408.336,349.9Z" transform="translate(1211.157 40.524)" fill="#f77e27" fill-rule="evenodd"/>
    <path id="Path_83734" data-name="Path 83734" d="M413.822,347.173s-4.066,10.044-4.185,12.077-.478,33.24-.478,33.24.238,1.434-2.511.836a9.251,9.251,0,0,1-3.468-1.195s2.63-19.25,1.914-25.947,5.5-17.616,5.5-17.616Z" transform="translate(1208.899 41.859)" fill="#f77e27" fill-rule="evenodd"/>
    <path id="Path_83735" data-name="Path 83735" d="M387.866,482.012l2.382.072a1.371,1.371,0,0,0,1.105-.5,61.475,61.475,0,0,0,10.539-19.867c.092-.292.188-.587.291-.886,2.16-6.3,6.637-14.2,9-21.354.375-1.139.713-2.212,1.015-3.226.1-.326.191-.645.281-.959l-2.509-1.9s-7.531,12.2-9.863,23.673C398.077,467.032,389.966,479.027,387.866,482.012Z" transform="translate(1216.386 -0.287)" fill="#062752" fill-rule="evenodd"/>
    <path id="Path_83736" data-name="Path 83736" d="M428.989,455.036c-.041,5.28.209,17.049.852,22.8a1.04,1.04,0,0,0,1.034.923h1.778c.749,0,1.309-.005,1.682-.01a.683.683,0,0,0,.659-.553c1.768-8.994,3.033-16.467,3.959-22.924.774-5.4,1.464-10.038,1.993-14.027.534-4.014.9-7.375,1.036-10.214q.031-.672.045-1.306c.008-.424.01-.836.008-1.237l-14.72-1.434C427.5,436.836,429.013,451.791,428.989,455.036Z" transform="translate(1197.102 2.807)" fill="#00377e" fill-rule="evenodd"/>
    <path id="Path_83737" data-name="Path 83737" d="M437.757,482.564q1.01,0,1.562-.009a.83.83,0,0,0,.8-.669c1.755-8.943,3.014-16.38,3.936-22.809.774-5.4,1.464-10.038,1.993-14.027.534-4.014.9-7.375,1.036-10.214l-5.4,3.176s3.447,1.217,2.132,10.423S439.588,481.262,437.757,482.564Z" transform="translate(1191.997 -0.995)" fill="#062752" fill-rule="evenodd"/>
    <path id="Path_83738" data-name="Path 83738" d="M431.586,392.088s1.037,3.746,4.624,3.267a43.213,43.213,0,0,0,8.688-2.63s-1.533-4.843-3.438-11.207c-2.307-7.7-5.165-17.635-6.511-23.9a38.8,38.8,0,0,1-.732-4.272l-2.975-5.773s-4.437,9.959-4.677,12.47S431.586,392.088,431.586,392.088Z" transform="translate(1197.472 41.663)" fill="#f77e27" fill-rule="evenodd"/>
    <path id="Path_83739" data-name="Path 83739" d="M430.144,359.669l-3.927-12.095a60.711,60.711,0,0,1,7.451,2.731s1.556,2.006,2.52,6.636c0,0,1.016,11.113-1.255,15.178,0,0-7.174,1.436-18.653-2.51v-2.63s12.555.657,15.126.956Z" transform="translate(1202.496 41.663)" fill="#fb9e63" fill-rule="evenodd"/>
    <path id="Path_83740" data-name="Path 83740" d="M436.7,374.911c.16,4.066,1.118,11.957,9.646,16.181a.686.686,0,0,0,.069.032c-2.307-7.7-5.165-17.635-6.511-23.9C438.341,369.567,436.617,372.673,436.7,374.911Z" transform="translate(1192.513 32.056)" fill="#e66215" fill-rule="evenodd"/>
    <path id="Path_83741" data-name="Path 83741" d="M435.318,347.574s7.28.513,9.034,4.419,2.311,16.9.079,20.725c0,0-3.073.875-8.507-.141l-.2-.038s-1.733-4.245-.179-5.082c0,0,4.583.239,4.105-1.275S435.318,347.574,435.318,347.574Z" transform="translate(1193.396 41.663)" fill="#f77e27" fill-rule="evenodd"/>
    <path id="Path_83742" data-name="Path 83742" d="M400.007,385.163l.214.689,11.947-3.717a.455.455,0,0,0,.081-.422.336.336,0,0,0-.295-.267Z" transform="translate(1210.45 25.104)" fill="#94241f" fill-rule="evenodd"/>
    <path id="Path_83743" data-name="Path 83743" d="M398.317,389.368l.864-.651.214.689Z" transform="translate(1211.276 21.551)" fill="#94241f" fill-rule="evenodd"/>
    <path id="Path_83744" data-name="Path 83744" d="M391.143,420.626s-3.032,1.675-3.431,2.951-.125,3.947.356,3.907,1.2-2.872,1.6-3.071.956-.8.956-.359-.4,1.236-.2,1.357.837-1.117,1.275-1.357.623-2.211,1.049-2.741S391.143,420.626,391.143,420.626Z" transform="translate(1216.555 5.952)" fill="#fb9e63" fill-rule="evenodd"/>
    <path id="Path_83745" data-name="Path 83745" d="M409.719,384.16s-2.71-1.669-3.847-1.413-4.034,2.355-2.641,2.81,2.523-.022,3.059.308.932.933,3.429.925S409.719,384.16,409.719,384.16Z" transform="translate(1209.056 24.481)" fill="#fb9e63" fill-rule="evenodd"/>
    <path id="Path_83746" data-name="Path 83746" d="M159.11,539.871h-.044a.471.471,0,0,1-.337-.142h.735A.506.506,0,0,1,159.11,539.871Z" transform="translate(1328.398 -52.272)" fill="#91b5e0" fill-rule="evenodd"/>
    <path id="Path_83747" data-name="Path 83747" d="M158.6,511.269a.465.465,0,0,1-.132-.338l.678-29.42h2.033l-1.691,29.423a.508.508,0,0,1-.154.336Z" transform="translate(1328.525 -23.812)" fill="#88b0de" fill-rule="evenodd"/>
    <path id="Path_83748" data-name="Path 83748" d="M135.212,539.872h-.045a.466.466,0,0,1-.336-.141h.732A.508.508,0,0,1,135.212,539.872Z" transform="translate(1340.081 -52.273)" fill="#91b5e0" fill-rule="evenodd"/>
    <path id="Path_83749" data-name="Path 83749" d="M134.7,511.219a.465.465,0,0,1-.133-.339l.679-29.474a2.066,2.066,0,0,0,.468.054h1.564l-1.691,29.423a.5.5,0,0,1-.155.337Z" transform="translate(1340.208 -23.76)" fill="#88b0de" fill-rule="evenodd"/>
    <path id="Path_83750" data-name="Path 83750" d="M201.227,539.869h-.044a.51.51,0,0,1-.355-.145h.74A.469.469,0,0,1,201.227,539.869Z" transform="translate(1307.818 -52.269)" fill="#91b5e0" fill-rule="evenodd"/>
    <path id="Path_83751" data-name="Path 83751" d="M199.065,511.267a.507.507,0,0,1-.151-.333l-1.691-29.423h2.033l.678,29.42a.463.463,0,0,1-.129.336Z" transform="translate(1309.58 -23.812)" fill="#88b0de" fill-rule="evenodd"/>
    <path id="Path_83752" data-name="Path 83752" d="M161.555,448.328h-28.7V427.192a6.734,6.734,0,0,1,6.734-6.734h15.229a6.735,6.735,0,0,1,6.734,6.734Z" transform="translate(1341.045 6.034)" fill="#88b0de" fill-rule="evenodd"/>
    <path id="Path_83753" data-name="Path 83753" d="M145.562,478.319H134.881a2.066,2.066,0,0,1-.468-.054,2.024,2.024,0,0,1-1.555-1.968v-1.315h12.7a1.5,1.5,0,0,0-1.5,1.5v.347A1.5,1.5,0,0,0,145.562,478.319Z" transform="translate(1341.045 -20.62)" fill="#88b0de" fill-rule="evenodd"/>
    <path id="Path_83754" data-name="Path 83754" d="M178.526,478.319H156.282a1.5,1.5,0,0,1-1.5-1.5v-.347a1.5,1.5,0,0,1,1.5-1.5h22.243a1.5,1.5,0,0,1,1.5,1.5v.347A1.5,1.5,0,0,1,178.526,478.319Z" transform="translate(1330.325 -20.62)" fill="#88b0de" fill-rule="evenodd"/>
    <path id="Path_83755" data-name="Path 83755" d="M231.155,508.851c.213,1.063,1.727.886,3.419.472s1.29.078,3.7-.188,3.138-1.164,3.211-1.522c.065-.318-1.124-.429-2.4-.577-.162-.018-.322-.038-.483-.058-1.441-.181-2.5-1.11-3.805-1.874-1.24-.723-3.089-3.67-3.089-3.67l-3.3.262s1.733,2.632,2.4,3.776a4,4,0,0,1,.324,2.25A4.263,4.263,0,0,0,231.155,508.851Z" transform="translate(1294.339 -33.551)" fill="#fb9e63" fill-rule="evenodd"/>
    <path id="Path_83756" data-name="Path 83756" d="M237.158,514.681c1.692-.413,1.29.078,3.7-.188s3.138-1.164,3.211-1.522c.065-.318-1.124-.429-2.4-.577l-.013.025a6.781,6.781,0,0,1-3.447,1.071c-1.634.04-3.364-.428-4.492-.41a4.263,4.263,0,0,0,.025,1.129C233.952,515.272,235.466,515.095,237.158,514.681Z" transform="translate(1291.754 -38.908)" fill="#052146" fill-rule="evenodd"/>
    <path id="Path_83757" data-name="Path 83757" d="M178.087,518.741c-.656.862.478,1.881,1.908,2.875s.795,1.019,2.587,2.648,2.948,1.583,3.266,1.4c.282-.161-.422-1.127-1.155-2.182-.094-.132-.185-.266-.277-.4-.818-1.2-.818-2.606-1.111-4.094-.277-1.407,2.021-6.583,2.021-6.583l-3.693-.466a41.435,41.435,0,0,1-.9,4.386c-.244.741-1.27,1.229-1.818,1.646A4.219,4.219,0,0,0,178.087,518.741Z" transform="translate(1319.028 -38.688)" fill="#fb9e63" fill-rule="evenodd"/>
    <path id="Path_83758" data-name="Path 83758" d="M180,527.385c1.429,1,.795,1.019,2.587,2.648s2.948,1.584,3.266,1.4c.282-.161-.422-1.127-1.155-2.182l-.027.008a6.792,6.792,0,0,1-3.084-1.877c-1.11-1.2-1.905-2.806-2.664-3.64a4.219,4.219,0,0,0-.831.767C177.431,525.372,178.565,526.39,180,527.385Z" transform="translate(1319.028 -44.456)" fill="#052146" fill-rule="evenodd"/>
    <path id="Path_83759" data-name="Path 83759" d="M195.943,467.952l-3.374,9.079-4.4,11.854a7.127,7.127,0,0,1-2.34-.214,10.177,10.177,0,0,1-2.262-1.1s1.223-12.729,3.5-20.035a13.02,13.02,0,0,1,1.963-4.247C192.566,459.109,195.943,467.952,195.943,467.952Z" transform="translate(1316.259 -14.355)" fill="#001f41" fill-rule="evenodd"/>
    <path id="Path_83760" data-name="Path 83760" d="M169.863,443.544c-2.21-.713-8.872-.287-15.2.952l-.97-1.7-13.679-1.068s-4.514,10.01-2.042,16.388a2.315,2.315,0,0,0,2.316,1.559h.2s8.14-.005,10.784-.005c6.8,0,14.4-4.677,15.38-4.873,1.608-.322,2.251,2.895,3.859,6.271s15.114,14.954,15.114,14.954a11.884,11.884,0,0,0,2.935-.3,2.892,2.892,0,0,0,1.259-.795S174.848,445.152,169.863,443.544Z" transform="translate(1338.908 -4.365)" fill="#00377e" fill-rule="evenodd"/>
    <path id="Path_83761" data-name="Path 83761" d="M143.817,362.643a14.433,14.433,0,0,0-4.973.13c-5.195.606-6.356,8.676-5.97,10.933.713,4.16-1.286,5.332-3.67,8.658-4.779,6.67-1.478,12.163,2.414,13.525,2.334.817,5.515-1.407,5.515-1.407.059.021,8.26-7.807,12.317-11.611C156.269,380.06,148.725,363.811,143.817,362.643Z" transform="translate(1343.99 34.386)" fill="#052146" fill-rule="evenodd"/>
    <path id="Path_83762" data-name="Path 83762" d="M155.338,394.034a6.448,6.448,0,0,1-3.859,1.112c-1.64-.276-3.375-2.415-3.354-2.423.663-.2,1.249-.976.835-4.966l.312.029,5.242.5s.044,1.63.193,3.154C154.832,392.722,155.032,393.927,155.338,394.034Z" transform="translate(1333.582 22.019)" fill="#fb9e63" fill-rule="evenodd"/>
    <path id="Path_83763" data-name="Path 83763" d="M155.61,388.316s.044,1.63.193,3.154c-2.883.207-4.666-2.264-5.436-3.656Z" transform="translate(1332.485 21.992)" fill="#ea7f40" fill-rule="evenodd"/>
    <path id="Path_83764" data-name="Path 83764" d="M155.427,380.637s-6.792.794-7.221-3.445-1.6-6.99,2.724-7.675,5.327.846,5.814,2.226S157.183,380.32,155.427,380.637Z" transform="translate(1333.772 31.018)" fill="#fb9e63" fill-rule="evenodd"/>
    <path id="Path_83765" data-name="Path 83765" d="M154.05,368.958s-3.281,4.7-6.065,5.718-4.1.379-4.1.379a11.533,11.533,0,0,0,1.767-4.346A2.078,2.078,0,0,1,147,369.1C149,368.4,152.853,367.336,154.05,368.958Z" transform="translate(1335.655 31.626)" fill="#052146" fill-rule="evenodd"/>
    <path id="Path_83766" data-name="Path 83766" d="M158.469,369.286a10.682,10.682,0,0,1,2.454,1.9,8.2,8.2,0,0,1,1.293,4.172s1.105-4.82-.664-6.574C159.677,366.921,158.469,369.286,158.469,369.286Z" transform="translate(1328.525 31.644)" fill="#052146" fill-rule="evenodd"/>
    <path id="Path_83767" data-name="Path 83767" d="M155.059,409.463c-.2,13.721-.056,10.855-1.557,12.156a5.759,5.759,0,0,1-2.717.589c-4.206.279-11.6-.415-11.884-1.191-.97-2.691-.285-3.526-1.095-7.644-.084-.439-.189-.912-.311-1.429-.674-2.828-1.332-3.791,1.063-8.335,2.173-4.116,4.518-7.4,4.72-7.284,5.731,3.4,6.1.49,6.1.49S155.159,402.772,155.059,409.463Z" transform="translate(1339.084 17.834)" fill="#fff" fill-rule="evenodd"/>
    <path id="Path_83768" data-name="Path 83768" d="M192.422,482.166l-4.5,12.348a7.633,7.633,0,0,1-2.8.356,3.512,3.512,0,0,1-1.859-.831s1.377-14.063,3.659-21.369Z" transform="translate(1316.406 -19.489)" fill="#00377e" fill-rule="evenodd"/>
    <path id="Path_83769" data-name="Path 83769" d="M161.346,397.282s5.9,1,6.588,3.538,5.756,16.527,5.756,16.527-3.985,1.473-5.371.088-4.818-12.847-4.818-12.847Z" transform="translate(1327.119 17.363)" fill="#fff" fill-rule="evenodd"/>
    <path id="Path_83770" data-name="Path 83770" d="M151.68,434.218c-4.206.28-11.6-.414-11.884-1.191-.97-2.691-.285-3.526-1.095-7.644l1.975-4.493s-.281,5.142,1.6,6.815,7.683,3.23,8.6,4.63A5.1,5.1,0,0,1,151.68,434.218Z" transform="translate(1338.188 5.822)" fill="#d5e4f5" fill-rule="evenodd"/>
    <path id="Path_83771" data-name="Path 83771" d="M164.764,441.237a9.433,9.433,0,0,0,1.609,1.169,1,1,0,0,0,.56.005l-.914-1.069Z" transform="translate(1325.448 -4.124)" fill="#fb9e63" fill-rule="evenodd"/>
    <path id="Path_83772" data-name="Path 83772" d="M163.791,438.746l3.173.819a.522.522,0,0,1-.441.281,6.943,6.943,0,0,1-1.323-.091Z" transform="translate(1325.924 -2.906)" fill="#fb9e63" fill-rule="evenodd"/>
    <path id="Path_83773" data-name="Path 83773" d="M153.268,440.472s4.529-2.016,5.379-1.749a11.361,11.361,0,0,1,3.373,1.906c.342.486-1.786-.06-2.45-.1a5.7,5.7,0,0,0-1.926.849,6.829,6.829,0,0,1-3.536,1.092Z" transform="translate(1331.067 -2.884)" fill="#fb9e63" fill-rule="evenodd"/>
    <path id="Path_83774" data-name="Path 83774" d="M136.471,396.326s-6.407,1.2-7.594,2.978c-2.59,3.876-8.1,19.931-5.016,22.083,3.478,2.425,15.826.635,15.826.635a5.016,5.016,0,0,0-.162-2.85c-.57-.929-9.862-2.429-10.29-2.858s4.235-6.629,3.74-7.817C131.382,404.7,136.471,396.326,136.471,396.326Z" transform="translate(1345.891 17.831)" fill="#fff" fill-rule="evenodd"/>
    <path id="Path_83775" data-name="Path 83775" d="M198.416,440.828s4.484,1.211,4.944,1.908a10.648,10.648,0,0,1,1.326,3.379c-.039.555-1.263-1.1-1.721-1.522a5.356,5.356,0,0,0-1.9-.52,5.657,5.657,0,0,1-2.475-1.131,1.355,1.355,0,0,0-.742-.166Z" transform="translate(1309.275 -3.924)" fill="#fb9e63" fill-rule="evenodd"/>
    <path id="Path_83776" data-name="Path 83776" d="M207.869,446.945a8.768,8.768,0,0,0,.479,1.8.943.943,0,0,0,.4.336l-.032-1.318Z" transform="translate(1304.376 -6.914)" fill="#fb9e63" fill-rule="evenodd"/>
    <path id="Path_83777" data-name="Path 83777" d="M208.634,444.56l1.824,2.47a.5.5,0,0,1-.489-.056,6.612,6.612,0,0,1-.907-.848Z" transform="translate(1304.002 -5.748)" fill="#fb9e63" fill-rule="evenodd"/>
    <path id="Path_83778" data-name="Path 83778" d="M199.3,444.964a2.823,2.823,0,0,0,1.245,1.37c.831.363,1.439.906,1.573.71s-.628-1.224-.628-1.224Z" transform="translate(1308.565 -5.946)" fill="#fb9e63" fill-rule="evenodd"/>
    <path id="Path_83779" data-name="Path 83779" d="M179.168,430.067l9.431,5.962a7.816,7.816,0,0,1-1.322,1.446c-1.746.639-9.6.027-12.29-4.013Z" transform="translate(1320.45 1.337)" fill="#fff" fill-rule="evenodd"/>
    <path id="Path_83780" data-name="Path 83780" d="M175.636,442.375c.556,0,6.092-.383,6.092-.383a2.617,2.617,0,0,0,.182,1.506l-5.395,1.032-1.108-.326Z" transform="translate(1320.245 -4.493)" fill="#f8d4b0" fill-rule="evenodd"/>
    <path id="Path_83781" data-name="Path 83781" d="M157.4,443.631l9.233-.889s-.325,1.709.879,2.155l-10.178.745A1.6,1.6,0,0,1,157.4,443.631Z" transform="translate(1329.25 -4.86)" fill="#f77e27" fill-rule="evenodd"/>
    <path id="Path_83782" data-name="Path 83782" d="M181.776,442.056l-6.24.481s.046-.216.163-.219,6.2-.444,6.2-.444l-.022.171Z" transform="translate(1320.183 -4.436)" fill="#f77e27" fill-rule="evenodd"/>
    <path id="Path_83783" data-name="Path 83783" d="M177.182,445.823l5.5-1.045-.051-.142-5.856,1.122Z" transform="translate(1319.579 -5.785)" fill="#f77e27" fill-rule="evenodd"/>
    <path id="Path_83784" data-name="Path 83784" d="M51.928,506.2h-.05a.523.523,0,0,1-.521-.536l.79-34.441,2.327-.273L52.49,505.666A.564.564,0,0,1,51.928,506.2Z" transform="translate(1380.886 -18.649)" fill="#598fcb" fill-rule="evenodd"/>
    <path id="Path_83785" data-name="Path 83785" d="M25.4,506.2h-.05a.523.523,0,0,1-.521-.536l.79-34.441,2.327-.273-1.984,34.717A.565.565,0,0,1,25.4,506.2Z" transform="translate(1393.855 -18.649)" fill="#598fcb" fill-rule="evenodd"/>
    <path id="Path_83786" data-name="Path 83786" d="M96.716,506.2h.05a.523.523,0,0,0,.521-.536l-.79-34.441-2.327-.273,1.984,34.717A.565.565,0,0,0,96.716,506.2Z" transform="translate(1359.958 -18.649)" fill="#598fcb" fill-rule="evenodd"/>
    <path id="Path_83787" data-name="Path 83787" d="M22.927,437.544v-23.6a7.5,7.5,0,0,1,7.476-7.519h16.9a7.5,7.5,0,0,1,7.476,7.519v24.5Z" transform="translate(1394.784 12.894)" fill="#598fcb" fill-rule="evenodd"/>
    <path id="Path_83788" data-name="Path 83788" d="M57.812,471.03H25.178a2.251,2.251,0,0,1-2.251-2.251V467.3H57.812Z" transform="translate(1394.784 -16.867)" fill="#598fcb" fill-rule="evenodd"/>
    <path id="Rectangle_17429" data-name="Rectangle 17429" d="M1.862,0H26.15a1.863,1.863,0,0,1,1.863,1.863v0a1.862,1.862,0,0,1-1.862,1.862H1.863A1.863,1.863,0,0,1,0,1.862v0A1.862,1.862,0,0,1,1.862,0Z" transform="translate(1430.154 450.438)" fill="#598fcb"/>
    <path id="Path_83789" data-name="Path 83789" d="M71.181,389.369s-1.415,1.2-1.722,4.325c-.234,2.37,1.411,20.772,2.648,22.235,3.481,4.114,7.845,2.375,9.553,3l1.612-1.449s-5.669-4.183-6.1-5.548C75.511,406.677,76.541,391.354,71.181,389.369Z" transform="translate(1372.049 21.231)" fill="#f8d4b0" fill-rule="evenodd"/>
    <path id="Path_83790" data-name="Path 83790" d="M58.583,355.947s.1-3.374-4.355-4.036-5.68.378-6.437,1.514a19.862,19.862,0,0,0-2.034,7.615c.142,1.845,5.219,4.126,5.136,5.2S58.583,355.948,58.583,355.947Z" transform="translate(1383.629 39.644)" fill="#001f41" fill-rule="evenodd"/>
    <path id="Path_83791" data-name="Path 83791" d="M110.928,526.44c-.144,1.14,1.411,1.476,3.22,1.635s1.249.517,3.717,1.065,3.488-.106,3.679-.441c.172-.3-.967-.814-2.178-1.394-.153-.072-.306-.148-.459-.222-1.363-.67-2.095-1.964-3.133-3.175-.984-1.149-1.829-4.739-1.829-4.739l-3.349-.858s.834,3.235,1.115,4.613a4.3,4.3,0,0,1-.43,2.373A4.55,4.55,0,0,0,110.928,526.44Z" transform="translate(1351.929 -41.801)" fill="#fb9e63" fill-rule="evenodd"/>
    <path id="Path_83792" data-name="Path 83792" d="M114.457,534.756c1.811.159,1.249.517,3.717,1.065s3.488-.106,3.679-.441c.172-.3-.967-.814-2.178-1.394l-.02.02a6.961,6.961,0,0,1-3.764-.093c-1.628-.514-3.18-1.573-4.3-1.937a4.551,4.551,0,0,0-.352,1.144C111.093,534.261,112.648,534.6,114.457,534.756Z" transform="translate(1351.619 -48.482)" fill="#052146" fill-rule="evenodd"/>
    <path id="Path_83793" data-name="Path 83793" d="M57.486,440.235s22.394,2.323,26.085,5.752,3.034,35.365,3.034,35.365c-.574.6-1,.582-1.907.512a12.753,12.753,0,0,1-2.648-.818s-4.8-15.683-4.856-19.313-.818-9.793-2.342-10.157-19.652,1.67-21.64-4.057a12.345,12.345,0,0,1,1.313-10.438Z" transform="translate(1380.29 -2.092)" fill="#e66215" fill-rule="evenodd"/>
    <path id="Path_83794" data-name="Path 83794" d="M40.894,422.225a10.2,10.2,0,0,0,5.593,1.747c5.188.189,11.66-.429,12.935-1.633a2.191,2.191,0,0,0,.538-1.478c.141-1.991-.81-5.267-1.449-7.977a10.216,10.216,0,0,1-.465-4.059c.7-2.368,2.89-7.19,3.079-8.775s-1.7-10.077-4.318-11.129-12.709,0-12.709,0c-3.943.8-4.109,9.207-2.8,16.363.034.185.068.368.1.549C42.821,413.1,38.2,420.418,40.894,422.225Z" transform="translate(1386.423 21.678)" fill="#f8d4b0" fill-rule="evenodd"/>
    <path id="Path_83795" data-name="Path 83795" d="M60.6,385.532c-.071.462-1.333,1.209-4.031.5-2.585-.682-2.9-1.524-2.9-2.079,0-.659,1.124-1.545,1.109-5.594l.31.061,5.212,1.032s-.119,1.64-.122,3.185C60.183,383.933,60.722,384.765,60.6,385.532Z" transform="translate(1379.752 26.615)" fill="#fb9e63" fill-rule="evenodd"/>
    <path id="Path_83796" data-name="Path 83796" d="M61.666,379.509s-.119,1.64-.122,3.185c-2.917-.082-4.458-2.743-5.09-4.218Z" transform="translate(1378.395 26.556)" fill="#ea7f40" fill-rule="evenodd"/>
    <path id="Path_83797" data-name="Path 83797" d="M61.879,372.222s-6.9.114-6.906-4.185-.9-7.179,3.507-7.433,5.264,1.385,5.615,2.819S63.673,372.082,61.879,372.222Z" transform="translate(1379.156 35.305)" fill="#fb9e63" fill-rule="evenodd"/>
    <path id="Path_83798" data-name="Path 83798" d="M59.5,359.588s-1.889,5.042-4.789,5.788-4.157-.031-4.157-.031a8.217,8.217,0,0,0,2.686-4.852S58.076,357.188,59.5,359.588Z" transform="translate(1381.278 36.217)" fill="#001f41" fill-rule="evenodd"/>
    <path id="Path_83799" data-name="Path 83799" d="M67.141,360.438a6.091,6.091,0,0,1,1.755,2.22c.344,1.095.5,3.349,1.156,3.272,0,0,1.424-3.428-.176-5.367C68.179,358.507,67.141,360.439,67.141,360.438Z" transform="translate(1373.171 35.776)" fill="#001f41" fill-rule="evenodd"/>
    <path id="Path_83800" data-name="Path 83800" d="M78.343,525.859c-.016,1.15,1.566,1.3,3.381,1.253s1.3.369,3.811.631,3.454-.508,3.607-.863c.137-.314-1.051-.7-2.32-1.133l-.479-.168c-1.429-.51-2.3-1.71-3.467-2.794-1.105-1.027,1.334-6,1.334-6l-3.2-1.582s-.606,3.547-1.387,6.652c-.2.8-.859,2.123-1.06,2.825A4.569,4.569,0,0,0,78.343,525.859Z" transform="translate(1367.694 -40.283)" fill="#fb9e63" fill-rule="evenodd"/>
    <path id="Path_83801" data-name="Path 83801" d="M41.144,433.832c.967.647,2.557,2.5,5.456,2.6,4.784-1.088,10.232-2.355,13.472-3.111.141-1.991-.81-5.267-1.449-7.977-3.778,1.154-9.4-2.777-11.292-4.33-1.986-1.632-1.924-7.069-1.924-7.069l-4,3.8c.034.185.068.368.1.549C42.933,425.562,38.449,432.026,41.144,433.832Z" transform="translate(1386.31 9.217)" fill="#f0be96" fill-rule="evenodd"/>
    <path id="Path_83802" data-name="Path 83802" d="M81.725,536.176c1.815-.05,1.3.369,3.81.631s3.454-.508,3.607-.863c.137-.314-1.051-.7-2.32-1.133l-.017.021a6.969,6.969,0,0,1-3.75.343c-1.674-.324-3.335-1.2-4.489-1.429a4.569,4.569,0,0,0-.222,1.178C78.327,536.073,79.909,536.227,81.725,536.176Z" transform="translate(1367.694 -49.346)" fill="#052146" fill-rule="evenodd"/>
    <path id="Path_83803" data-name="Path 83803" d="M46.048,444.583c5.686-.163,22.667,1.194,25.929,3.653C75.993,451.264,64.522,484,64.522,484a14.879,14.879,0,0,1-1.754.081,5.623,5.623,0,0,1-2.564-.761s.044-19.269,1.385-22.956c1.239-3.4,2-4.61.446-4.814S41.118,457.82,39.5,451.974a14.482,14.482,0,0,1,.6-8.793S40.8,444.732,46.048,444.583Z" transform="translate(1386.896 -5.074)" fill="#f77e27" fill-rule="evenodd"/>
    <path id="Path_83804" data-name="Path 83804" d="M42.807,389.357s-3.95.335-4.257,3.456c-.233,2.37-1.951,19.183-.714,20.646,3.481,4.114,15.089,4.987,16.8,5.611l.47-1.946s-12.392-6.243-12.2-7.662S46.595,388.8,42.807,389.357Z" transform="translate(1387.713 21.243)" fill="#f8d4b0" fill-rule="evenodd"/>
    <path id="Path_83805" data-name="Path 83805" d="M49.087,353.234s.283-1.8-2.214-2.265-2.544,4.84-2.812,6.12.4,2.045,1.352,2.121S49.087,353.234,49.087,353.234Z" transform="translate(1384.482 40.017)" fill="#001f41" fill-rule="evenodd"/>
    <path id="Path_83806" data-name="Path 83806" d="M71.3,442.758s3.529-1,4.369-.765,3.721,2.141,3.316,2.659-2.942-.31-4.11-.153-2.07.732-2.911.608a9.731,9.731,0,0,1-1.72-.455Z" transform="translate(1371.654 -4.477)" fill="#fb9e63" fill-rule="evenodd"/>
    <path id="Path_83807" data-name="Path 83807" d="M72.307,442.154a13.2,13.2,0,0,0,2.217-1.392.138.138,0,0,1,.215.026c.132.208.255.608-.351,1.006A3.252,3.252,0,0,1,72.307,442.154Z" transform="translate(1370.646 -3.872)" fill="#fb9e63" fill-rule="evenodd"/>
    <path id="Path_83808" data-name="Path 83808" d="M94.962,444.364s3.662.2,4.382.7,2.825,3.232,2.274,3.591-2.683-1.249-3.838-1.479-2.2.021-2.951-.37a9.675,9.675,0,0,1-1.479-.988Z" transform="translate(1360.358 -5.653)" fill="#fb9e63" fill-rule="evenodd"/>
    <path id="Path_83809" data-name="Path 83809" d="M32.573,533.213h-14.9c-.717-.876-.453-4.1-.344-5.156.022-.213.038-.336.038-.336s5.088-4.07,5.787-.954c.021.1.047.194.075.287.881,2.915,4.83,4.241,7.111,4.609A2.584,2.584,0,0,1,32.573,533.213Z" transform="translate(1397.589 -45.361)" fill="#001832" fill-rule="evenodd"/>
    <path id="Path_83810" data-name="Path 83810" d="M-41.213,445.776c.538,0,25.525,4.691,29.658,9.808,2.065,2.556,2.372,32.072,2.372,32.072s-2.554,3.168-8.071,1.328c0,0-4.045-20.195-3.746-26.32.082-1.694-17.073-.245-20.213-1.058s-10.811-7.643-9.121-10.97S-41.213,445.777-41.213,445.776Z" transform="translate(1430.715 -6.343)" fill="#052146" fill-rule="evenodd"/>
    <path id="Path_83811" data-name="Path 83811" d="M2.492,443.063a9.214,9.214,0,0,0,3.239,1.769,14.7,14.7,0,0,1,2.38.724c1.484.681,4.3,3.72,4.037,4.023-.839.969-4.22-1.555-4.866-1.377s1.061,1.644.383,2.043c-.354.209-1.02-1.059-1.644-1.237-.843-.241-1.4-1.515-1.656-1.6A20.152,20.152,0,0,1,1.82,445.4Z" transform="translate(1405.103 -5.017)" fill="#fb9e63" fill-rule="evenodd"/>
    <path id="Path_83812" data-name="Path 83812" d="M45.457,533.213h-14.9c-.717-.876-.453-4.1-.344-5.156.022-.213.037-.336.037-.336s5.089-4.07,5.788-.954c.021.1.047.194.075.287.881,2.915,4.83,4.241,7.111,4.609A2.584,2.584,0,0,1,45.457,533.213Z" transform="translate(1391.291 -45.361)" fill="#03254a" fill-rule="evenodd"/>
    <path id="Path_83813" data-name="Path 83813" d="M-26.808,445.776c.538,0,25.525,4.691,29.658,9.808,2.065,2.556,2.371,32.072,2.371,32.072s-2.554,3.168-8.071,1.328c0,0-4.045-20.195-3.746-26.32.083-1.694-17.072-.245-20.212-1.058s-10.811-7.643-9.121-10.97S-26.808,445.777-26.808,445.776Z" transform="translate(1423.673 -6.343)" fill="#003170" fill-rule="evenodd"/>
    <path id="Path_83814" data-name="Path 83814" d="M-33.841,386.7s.707,19.518,1.818,23.377C-30.131,416.657-12.868,419-12.868,419a3.536,3.536,0,0,0,.563-3.067s-10.321-8.134-10.622-9.683,2.249-12.043-.666-15.858S-31.882,383.27-33.841,386.7Z" transform="translate(1422.535 23.239)" fill="#fff" fill-rule="evenodd"/>
    <path id="Path_83815" data-name="Path 83815" d="M8.92,509.727l.057,0a.772.772,0,0,0,.78-.826l-3.1-30.971-2.706.241L8.4,509.308A.5.5,0,0,0,8.92,509.727Z" transform="translate(1404.062 -22.061)" fill="#598fcb" fill-rule="evenodd"/>
    <path id="Path_83816" data-name="Path 83816" d="M-72.839,474.074h42a1.538,1.538,0,0,0,1.534-1.535V470.65a1.538,1.538,0,0,0-1.534-1.534H-74.373v3.423A1.539,1.539,0,0,0-72.839,474.074Z" transform="translate(1442.349 -17.752)" fill="#598fcb" fill-rule="evenodd"/>
    <path id="Rectangle_17430" data-name="Rectangle 17430" d="M.766,0h373.41a.768.768,0,0,1,.768.768v0a.768.768,0,0,1-.768.768H.768A.768.768,0,0,1,0,.768v0A.766.766,0,0,1,.766,0Z" transform="translate(1354.741 487.46)" fill="#021937"/>
    <rect id="Rectangle_17431" data-name="Rectangle 17431" width="16.968" height="16.461" rx="2.374" transform="translate(1418.732 356.442)" fill="#598fcb"/>
    <path id="Rectangle_17432" data-name="Rectangle 17432" d="M2.168,0h11.16A2.168,2.168,0,0,1,15.5,2.168v10.7a2.168,2.168,0,0,1-2.168,2.168H2.169A2.169,2.169,0,0,1,0,12.866V2.168A2.168,2.168,0,0,1,2.168,0Z" transform="translate(1419.468 357.155)" fill="#d5e4f5"/>
    <path id="Path_83817" data-name="Path 83817" d="M40.834,287.415a.352.352,0,1,1,.352.352A.351.351,0,0,1,40.834,287.415Z" transform="translate(1386.03 71.243)" fill="#598fcb" fill-rule="evenodd"/>
    <path id="Path_83818" data-name="Path 83818" d="M46.34,288.55a.351.351,0,1,1,.136.478A.352.352,0,0,1,46.34,288.55Z" transform="translate(1383.36 70.604)" fill="#598fcb" fill-rule="evenodd"/>
    <path id="Path_83819" data-name="Path 83819" d="M50.982,292.446a.352.352,0,1,1-.1.486A.352.352,0,0,1,50.982,292.446Z" transform="translate(1381.148 68.639)" fill="#598fcb" fill-rule="evenodd"/>
    <path id="Path_83820" data-name="Path 83820" d="M53.155,298.345a.351.351,0,1,1-.352.351A.352.352,0,0,1,53.155,298.345Z" transform="translate(1380.18 65.728)" fill="#598fcb" fill-rule="evenodd"/>
    <path id="Path_83821" data-name="Path 83821" d="M51.715,305.03a.352.352,0,1,1-.5,0A.352.352,0,0,1,51.715,305.03Z" transform="translate(1381.005 62.511)" fill="#598fcb" fill-rule="evenodd"/>
    <path id="Path_83822" data-name="Path 83822" d="M47.4,309.359a.352.352,0,1,1-.5,0A.352.352,0,0,1,47.4,309.359Z" transform="translate(1383.115 60.394)" fill="#598fcb" fill-rule="evenodd"/>
    <path id="Path_83823" data-name="Path 83823" d="M40.834,311.353a.352.352,0,1,1,.352.352A.352.352,0,0,1,40.834,311.353Z" transform="translate(1386.03 59.542)" fill="#598fcb" fill-rule="evenodd"/>
    <path id="Path_83824" data-name="Path 83824" d="M36.009,288.55a.352.352,0,1,0-.137.478A.352.352,0,0,0,36.009,288.55Z" transform="translate(1388.711 70.604)" fill="#598fcb" fill-rule="evenodd"/>
    <path id="Path_83825" data-name="Path 83825" d="M31.367,292.446a.352.352,0,1,0,.1.486A.352.352,0,0,0,31.367,292.446Z" transform="translate(1390.924 68.639)" fill="#598fcb" fill-rule="evenodd"/>
    <path id="Path_83826" data-name="Path 83826" d="M29.2,298.345a.351.351,0,1,0,.352.351A.351.351,0,0,0,29.2,298.345Z" transform="translate(1391.892 65.728)" fill="#598fcb" fill-rule="evenodd"/>
    <path id="Path_83827" data-name="Path 83827" d="M30.635,305.03a.352.352,0,1,0,.5,0A.351.351,0,0,0,30.635,305.03Z" transform="translate(1391.066 62.511)" fill="#598fcb" fill-rule="evenodd"/>
    <path id="Path_83828" data-name="Path 83828" d="M34.953,309.359a.352.352,0,1,0,.5,0A.352.352,0,0,0,34.953,309.359Z" transform="translate(1388.956 60.394)" fill="#598fcb" fill-rule="evenodd"/>
    <path id="Path_83829" data-name="Path 83829" d="M41.337,298.7a.351.351,0,1,1,.351.352A.351.351,0,0,1,41.337,298.7Z" transform="translate(1385.785 65.728)" fill="#598fcb" fill-rule="evenodd"/>
    <rect id="Rectangle_17433" data-name="Rectangle 17433" width="0.096" height="4.391" transform="translate(1427.425 360.034)" fill="#598fcb"/>
    <rect id="Rectangle_17434" data-name="Rectangle 17434" width="2.959" height="0.288" transform="matrix(0.787, -0.618, 0.618, 0.787, 1427.34, 364.305)" fill="#598fcb"/>
  </g>
</svg>
