<svg xmlns="http://www.w3.org/2000/svg" width="94.948" height="79.43" viewBox="0 0 94.948 79.43"><g transform="translate(-2.526 -10.285)"><path d="M10.161,18.266a1.8,1.8,0,0,0-.433-.565.759.759,0,0,0-.457-.168l-.07,0c-.159,0-.491,0-.829.606a2.724,2.724,0,0,0-.378,1.356A2.578,2.578,0,0,0,8.4,20.811a1.018,1.018,0,0,0,.816.564,1.078,1.078,0,0,0,.868-.613,2.544,2.544,0,0,0,.335-1.375v-.04A2.188,2.188,0,0,0,10.161,18.266Zm10.019-.731a1.024,1.024,0,0,0-.1-.006c-.127,0-.423,0-.8.566a2.676,2.676,0,0,0,.022,2.748.891.891,0,0,0,1.629-.011,2.6,2.6,0,0,0,.395-1.339,2.659,2.659,0,0,0-.237-1.145C20.774,17.719,20.5,17.567,20.179,17.534Z" fill="#e78125"/><path d="M14.652,10.285A12.142,12.142,0,1,0,26.811,22.411,12.18,12.18,0,0,0,14.652,10.285ZM7.435,21.6a3.592,3.592,0,0,1-.056-3.82,2.027,2.027,0,0,1,1.96-1.185,2.191,2.191,0,0,1,1.82,1.326,3.329,3.329,0,0,1,.4,1.652,3.639,3.639,0,0,1-.495,1.964A2.017,2.017,0,0,1,7.435,21.6ZM18.4,30.056a3.243,3.243,0,0,1-1.875,1.191,8.708,8.708,0,0,1-3.739,0,3.227,3.227,0,0,1-2.515-3.5c.006-.054.012-.1.019-.135a.964.964,0,0,1,.952-.811h.3l.248.173a5.017,5.017,0,0,0,5.746,0l.248-.173h.3a.96.96,0,0,1,.956.853c0,.028.007.058.009.1s.007.108.011.188A3.239,3.239,0,0,1,18.4,30.056Zm3.482-8.411a2.014,2.014,0,0,1-3.522.025,3.806,3.806,0,0,1-.028-4.01A2.026,2.026,0,0,1,20.3,16.6a2.262,2.262,0,0,1,1.808,1.44,3.8,3.8,0,0,1,.355,1.661A3.749,3.749,0,0,1,21.88,21.645Z" fill="#e78125"/><path d="M18.086,27.566a5.977,5.977,0,0,1-6.846,0c-.005,0-.011.03-.017.09a2.271,2.271,0,0,0,1.769,2.457,7.747,7.747,0,0,0,3.325,0A2.276,2.276,0,0,0,18.1,27.789,1.375,1.375,0,0,0,18.086,27.566ZM10.172,73.008a1.8,1.8,0,0,0-.433-.565.759.759,0,0,0-.457-.168l-.07,0c-.159,0-.491,0-.829.606A2.724,2.724,0,0,0,8,74.235a2.578,2.578,0,0,0,.411,1.319,1.018,1.018,0,0,0,.816.564A1.078,1.078,0,0,0,10.1,75.5a2.544,2.544,0,0,0,.335-1.375v-.04A2.186,2.186,0,0,0,10.172,73.008Zm10.019-.731a1.026,1.026,0,0,0-.1-.006c-.127,0-.423,0-.8.566a2.676,2.676,0,0,0,.022,2.748.891.891,0,0,0,1.629-.011,2.6,2.6,0,0,0,.395-1.339,2.659,2.659,0,0,0-.237-1.145C20.785,72.461,20.509,72.31,20.19,72.277Z" fill="#e78125"/><path d="M14.652,65.43A12.143,12.143,0,1,0,26.811,77.556,12.18,12.18,0,0,0,14.652,65.43ZM7.26,76.26a3.91,3.91,0,0,1-.61-2.009A4.056,4.056,0,0,1,7.2,72.222a2.232,2.232,0,0,1,2.011-1.3c.05,0,.1,0,.152,0a2.1,2.1,0,0,1,1.214.457,3.1,3.1,0,0,1,.784.982,3.562,3.562,0,0,1,.426,1.758,3.889,3.889,0,0,1-.525,2.074,2.385,2.385,0,0,1-2.032,1.275A2.329,2.329,0,0,1,7.26,76.26Zm12.206,6.454c0,.084-.008.149-.011.2s-.007.082-.011.117a1.35,1.35,0,0,1-1.346,1.2h-.425l-.349-.243a4.624,4.624,0,0,0-5.3,0l-.349.244H11.25a1.353,1.353,0,0,1-1.339-1.134c-.009-.048-.016-.1-.023-.163A3.62,3.62,0,0,1,12.709,79a9.1,9.1,0,0,1,3.909,0A3.622,3.622,0,0,1,19.466,82.714ZM22.686,74.3a3.963,3.963,0,0,1-.613,2.017,2.23,2.23,0,0,1-3.884.028,4.025,4.025,0,0,1-.029-4.252,2.277,2.277,0,0,1,1.926-1.173,2.383,2.383,0,0,1,.244.013,2.483,2.483,0,0,1,1.981,1.56,3.946,3.946,0,0,1,.377,1.715v.046Z" fill="#e78125"/><path d="M16.328,80.322a7.747,7.747,0,0,0-3.325,0,2.271,2.271,0,0,0-1.769,2.457c.007.06.012.093.017.09a5.977,5.977,0,0,1,6.846,0,1.388,1.388,0,0,0,.017-.222A2.276,2.276,0,0,0,16.328,80.322ZM9.22,49.14a1.078,1.078,0,0,0,.868-.613,2.543,2.543,0,0,0,.335-1.375v-.04a2.187,2.187,0,0,0-.263-1.082,1.8,1.8,0,0,0-.433-.565A.76.76,0,0,0,9.27,45.3l-.07,0c-.159,0-.491,0-.829.606a2.725,2.725,0,0,0-.378,1.355A2.578,2.578,0,0,0,8.4,48.576,1.018,1.018,0,0,0,9.22,49.14Zm10.894-.008a1.027,1.027,0,0,0,.815-.535,2.6,2.6,0,0,0,.395-1.339,2.659,2.659,0,0,0-.237-1.145c-.312-.63-.588-.781-.907-.814a1.021,1.021,0,0,0-.1-.006c-.127,0-.423,0-.8.566a2.677,2.677,0,0,0,.022,2.748A1.024,1.024,0,0,0,20.114,49.132Zm-9.17,6.238a.58.58,0,0,0,.41.99h6.609a.58.58,0,0,0,0-1.16H11.354A.578.578,0,0,0,10.943,55.369Z" fill="#e78125"/><path d="M14.686,62.142A12.142,12.142,0,1,0,2.526,49.986,12.177,12.177,0,0,0,14.686,62.142Zm3.567-16.96a2.159,2.159,0,0,1,1.822-1.117,2.257,2.257,0,0,1,.231.012,2.369,2.369,0,0,1,1.881,1.491,3.826,3.826,0,0,1,.364,1.662v.041l0,.041a3.788,3.788,0,0,1-.593,1.954,2.105,2.105,0,0,1-3.675.027A3.893,3.893,0,0,1,18.253,45.182Zm-.291,8.789a1.808,1.808,0,0,1,0,3.616H11.354a1.808,1.808,0,0,1,0-3.616h6.609ZM7.3,45.3a2.114,2.114,0,0,1,1.9-1.237c.048,0,.1,0,.146,0a1.978,1.978,0,0,1,1.143.43,2.972,2.972,0,0,1,.751.943,3.434,3.434,0,0,1,.411,1.7h0a3.765,3.765,0,0,1-.508,2.01A2.262,2.262,0,0,1,9.22,50.368a2.207,2.207,0,0,1-1.863-1.151,3.786,3.786,0,0,1-.591-1.946A3.931,3.931,0,0,1,7.3,45.3ZM59.05,19.384h36.6a1.822,1.822,0,0,0,0-3.644H59.05a1.822,1.822,0,0,0,0,3.644Zm0,9.731H75.306a1.822,1.822,0,1,0,0-3.644H59.05a1.822,1.822,0,0,0,0,3.644Zm36.6,14.2H59.05a1.822,1.822,0,0,0,0,3.644h36.6a1.822,1.822,0,1,0,0-3.644ZM59.05,56.688H75.306a1.822,1.822,0,0,0,0-3.644H59.05a1.822,1.822,0,0,0,0,3.644Zm36.6,14.2H59.05a1.822,1.822,0,0,0,0,3.644h36.6a1.822,1.822,0,1,0,0-3.644ZM75.306,80.616H59.05a1.822,1.822,0,0,0,0,3.644H75.306a1.822,1.822,0,0,0,0-3.644ZM32.887,57.38H47.648V42.62H32.887Zm2.806-11.955h9.149v9.149H35.693ZM32.887,84.953H47.648V70.192H32.887ZM35.693,73h9.149v9.149H35.693ZM47.354,22.287c-.907.861-1.784,1.695-2.512,2.393V27H35.693V17.853H44.77l.459-.443c.974-.939,1.907-1.838,2.419-2.336v-.027H32.887V29.808H47.648v-7.8l-.276.263Z" fill="#e78125"/><path d="M50.542,14.663a1.621,1.621,0,0,0-1.119.559c-.585.593-6.81,6.442-7.581,7.235l-.21.216-.2-.224c-.181-.2-.344-.39-.5-.57-.316-.362-.862-1.055-1.154-1.346a1.48,1.48,0,0,0-1.023-.491,1.184,1.184,0,0,0-.837.378,1.231,1.231,0,0,0,.1,1.862c.852.866,1.988,2.1,2.645,2.749a1.5,1.5,0,0,0,1.01.519,1.482,1.482,0,0,0,1-.518c.789-.785,2.262-2.184,3.822-3.665,1.64-1.557,3.852-3.552,4.7-4.4.659-.662.73-1.359.193-1.913A1.154,1.154,0,0,0,50.542,14.663Z" fill="#e78125"/><path d="M10.161,18.266a1.8,1.8,0,0,0-.433-.565.759.759,0,0,0-.457-.168l-.07,0c-.159,0-.491,0-.829.606a2.724,2.724,0,0,0-.378,1.356A2.578,2.578,0,0,0,8.4,20.811a1.018,1.018,0,0,0,.816.564,1.078,1.078,0,0,0,.868-.613,2.544,2.544,0,0,0,.335-1.375v-.04A2.188,2.188,0,0,0,10.161,18.266Zm10.019-.731a1.024,1.024,0,0,0-.1-.006c-.127,0-.423,0-.8.566a2.676,2.676,0,0,0,.022,2.748.891.891,0,0,0,1.629-.011,2.6,2.6,0,0,0,.395-1.339,2.659,2.659,0,0,0-.237-1.145C20.774,17.719,20.5,17.567,20.179,17.534Z" fill="#fb8e0b"/><path d="M14.652,10.285A12.142,12.142,0,1,0,26.811,22.411,12.18,12.18,0,0,0,14.652,10.285ZM7.435,21.6a3.592,3.592,0,0,1-.056-3.82,2.027,2.027,0,0,1,1.96-1.185,2.191,2.191,0,0,1,1.82,1.326,3.329,3.329,0,0,1,.4,1.652,3.639,3.639,0,0,1-.495,1.964A2.017,2.017,0,0,1,7.435,21.6ZM18.4,30.056a3.243,3.243,0,0,1-1.875,1.191,8.708,8.708,0,0,1-3.739,0,3.227,3.227,0,0,1-2.515-3.5c.006-.054.012-.1.019-.135a.964.964,0,0,1,.952-.811h.3l.248.173a5.017,5.017,0,0,0,5.746,0l.248-.173h.3a.96.96,0,0,1,.956.853c0,.028.007.058.009.1s.007.108.011.188A3.239,3.239,0,0,1,18.4,30.056Zm3.482-8.411a2.014,2.014,0,0,1-3.522.025,3.806,3.806,0,0,1-.028-4.01A2.026,2.026,0,0,1,20.3,16.6a2.262,2.262,0,0,1,1.808,1.44,3.8,3.8,0,0,1,.355,1.661A3.749,3.749,0,0,1,21.88,21.645Z" fill="#fb8e0b"/><path d="M18.086,27.566a5.977,5.977,0,0,1-6.846,0c-.005,0-.011.03-.017.09a2.271,2.271,0,0,0,1.769,2.457,7.747,7.747,0,0,0,3.325,0A2.276,2.276,0,0,0,18.1,27.789,1.375,1.375,0,0,0,18.086,27.566ZM10.172,73.008a1.8,1.8,0,0,0-.433-.565.759.759,0,0,0-.457-.168l-.07,0c-.159,0-.491,0-.829.606A2.724,2.724,0,0,0,8,74.235a2.578,2.578,0,0,0,.411,1.319,1.018,1.018,0,0,0,.816.564A1.078,1.078,0,0,0,10.1,75.5a2.544,2.544,0,0,0,.335-1.375v-.04A2.186,2.186,0,0,0,10.172,73.008Zm10.019-.731a1.026,1.026,0,0,0-.1-.006c-.127,0-.423,0-.8.566a2.676,2.676,0,0,0,.022,2.748.891.891,0,0,0,1.629-.011,2.6,2.6,0,0,0,.395-1.339,2.659,2.659,0,0,0-.237-1.145C20.785,72.461,20.509,72.31,20.19,72.277Z" fill="#fb8e0b"/><path d="M14.652,65.43A12.143,12.143,0,1,0,26.811,77.556,12.18,12.18,0,0,0,14.652,65.43ZM7.26,76.26a3.91,3.91,0,0,1-.61-2.009A4.056,4.056,0,0,1,7.2,72.222a2.232,2.232,0,0,1,2.011-1.3c.05,0,.1,0,.152,0a2.1,2.1,0,0,1,1.214.457,3.1,3.1,0,0,1,.784.982,3.562,3.562,0,0,1,.426,1.758,3.889,3.889,0,0,1-.525,2.074,2.385,2.385,0,0,1-2.032,1.275A2.329,2.329,0,0,1,7.26,76.26Zm12.206,6.454c0,.084-.008.149-.011.2s-.007.082-.011.117a1.35,1.35,0,0,1-1.346,1.2h-.425l-.349-.243a4.624,4.624,0,0,0-5.3,0l-.349.244H11.25a1.353,1.353,0,0,1-1.339-1.134c-.009-.048-.016-.1-.023-.163A3.62,3.62,0,0,1,12.709,79a9.1,9.1,0,0,1,3.909,0A3.622,3.622,0,0,1,19.466,82.714ZM22.686,74.3a3.963,3.963,0,0,1-.613,2.017,2.23,2.23,0,0,1-3.884.028,4.025,4.025,0,0,1-.029-4.252,2.277,2.277,0,0,1,1.926-1.173,2.383,2.383,0,0,1,.244.013,2.483,2.483,0,0,1,1.981,1.56,3.946,3.946,0,0,1,.377,1.715v.046Z" fill="#1a3342"/><path d="M16.328,80.322a7.747,7.747,0,0,0-3.325,0,2.271,2.271,0,0,0-1.769,2.457c.007.06.012.093.017.09a5.977,5.977,0,0,1,6.846,0,1.388,1.388,0,0,0,.017-.222A2.276,2.276,0,0,0,16.328,80.322ZM9.22,49.14a1.078,1.078,0,0,0,.868-.613,2.543,2.543,0,0,0,.335-1.375v-.04a2.187,2.187,0,0,0-.263-1.082,1.8,1.8,0,0,0-.433-.565A.76.76,0,0,0,9.27,45.3l-.07,0c-.159,0-.491,0-.829.606a2.725,2.725,0,0,0-.378,1.355A2.578,2.578,0,0,0,8.4,48.576,1.018,1.018,0,0,0,9.22,49.14Zm10.894-.008a1.027,1.027,0,0,0,.815-.535,2.6,2.6,0,0,0,.395-1.339,2.659,2.659,0,0,0-.237-1.145c-.312-.63-.588-.781-.907-.814a1.021,1.021,0,0,0-.1-.006c-.127,0-.423,0-.8.566a2.677,2.677,0,0,0,.022,2.748A1.024,1.024,0,0,0,20.114,49.132Zm-9.17,6.238a.58.58,0,0,0,.41.99h6.609a.58.58,0,0,0,0-1.16H11.354A.578.578,0,0,0,10.943,55.369Z" fill="#fb8e0b"/><path d="M14.686,62.142A12.142,12.142,0,1,0,2.526,49.986,12.177,12.177,0,0,0,14.686,62.142Zm3.567-16.96a2.159,2.159,0,0,1,1.822-1.117,2.257,2.257,0,0,1,.231.012,2.369,2.369,0,0,1,1.881,1.491,3.826,3.826,0,0,1,.364,1.662v.041l0,.041a3.788,3.788,0,0,1-.593,1.954,2.105,2.105,0,0,1-3.675.027A3.893,3.893,0,0,1,18.253,45.182Zm-.291,8.789a1.808,1.808,0,0,1,0,3.616H11.354a1.808,1.808,0,0,1,0-3.616h6.609ZM7.3,45.3a2.114,2.114,0,0,1,1.9-1.237c.048,0,.1,0,.146,0a1.978,1.978,0,0,1,1.143.43,2.972,2.972,0,0,1,.751.943,3.434,3.434,0,0,1,.411,1.7h0a3.765,3.765,0,0,1-.508,2.01A2.262,2.262,0,0,1,9.22,50.368a2.207,2.207,0,0,1-1.863-1.151,3.786,3.786,0,0,1-.591-1.946A3.931,3.931,0,0,1,7.3,45.3Z" fill="#1a3342"/><path d="M59.05,19.384h36.6a1.822,1.822,0,0,0,0-3.644H59.05a1.822,1.822,0,0,0,0,3.644Zm0,9.731H75.306a1.822,1.822,0,1,0,0-3.644H59.05a1.822,1.822,0,0,0,0,3.644Zm36.6,14.2H59.05a1.822,1.822,0,0,0,0,3.644h36.6a1.822,1.822,0,1,0,0-3.644ZM59.05,56.688H75.306a1.822,1.822,0,0,0,0-3.644H59.05a1.822,1.822,0,0,0,0,3.644Zm36.6,14.2H59.05a1.822,1.822,0,0,0,0,3.644h36.6a1.822,1.822,0,1,0,0-3.644ZM75.306,80.616H59.05a1.822,1.822,0,0,0,0,3.644H75.306a1.822,1.822,0,0,0,0-3.644ZM32.887,57.38H47.648V42.62H32.887Zm2.806-11.955h9.149v9.149H35.693ZM32.887,84.953H47.648V70.192H32.887ZM35.693,73h9.149v9.149H35.693ZM47.354,22.287c-.907.861-1.784,1.695-2.512,2.393V27H35.693V17.853H44.77l.459-.443c.974-.939,1.907-1.838,2.419-2.336v-.027H32.887V29.808H47.648v-7.8l-.276.263Z" fill="#347bbb"/><path d="M50.542,14.663a1.621,1.621,0,0,0-1.119.559c-.585.593-6.81,6.442-7.581,7.235l-.21.216-.2-.224c-.181-.2-.344-.39-.5-.57-.316-.362-.862-1.055-1.154-1.346a1.48,1.48,0,0,0-1.023-.491,1.184,1.184,0,0,0-.837.378,1.231,1.231,0,0,0,.1,1.862c.852.866,1.988,2.1,2.645,2.749a1.5,1.5,0,0,0,1.01.519,1.482,1.482,0,0,0,1-.518c.789-.785,2.262-2.184,3.822-3.665,1.64-1.557,3.852-3.552,4.7-4.4.659-.662.73-1.359.193-1.913A1.154,1.154,0,0,0,50.542,14.663Z" fill="#347bbb"/></g></svg>