<svg xmlns="http://www.w3.org/2000/svg" width="18" height="18" viewBox="0 0 18 18"><g opacity="0.6"><g stroke="rgba(0,0,0,0)" stroke-width="1" opacity="0"><rect width="18" height="18" stroke="none"/><rect x="0.5" y="0.5" width="17" height="17" fill="none"/></g><path d="M9.92,13.237H12.8V11.105l3.6,3.2-3.6,3.2V15.368H9.92V13.237M14.96,4H3.44A1.431,1.431,0,0,0,2,5.421v8.526a1.431,1.431,0,0,0,1.44,1.421H8.48V13.947H3.44V6.842L9.2,10.395l5.76-3.553v4.263H16.4V5.421A1.431,1.431,0,0,0,14.96,4M9.2,8.974,3.44,5.421H14.96Z" transform="translate(-0.2 -1.3)"/></g></svg>