<svg xmlns="http://www.w3.org/2000/svg" width="73" height="65.5" viewBox="0 0 73 65.5"><g transform="translate(1 0.5)"><path d="M56.833,0H5.167A5.154,5.154,0,0,0,0,5.143V36H62V5.143A5.155,5.155,0,0,0,56.833,0Z" transform="translate(0 12)" fill="none" stroke="#1a1e51" stroke-miterlimit="10" stroke-width="2"/><path d="M0,21H40V0L8.811.038,3.918,4.581,0,8.292Z" transform="translate(11)" fill="#fff"/><path d="M2.561,43.966,0,0H2.563V43.966Z" transform="translate(48.437 1)" fill="none" stroke="#1a1e51" stroke-miterlimit="10" stroke-width="2"/><path d="M10,10H0L10,0Z" transform="translate(10 1)" fill="none" stroke="#1a1e51" stroke-linejoin="round" stroke-miterlimit="10" stroke-width="2"/><path d="M20,5H0L5,0H15l5,5Z" transform="translate(20 59)" fill="none" stroke="#1a1e51" stroke-miterlimit="10" stroke-width="2"/><path d="M0,5H30V0H0Z" transform="translate(15 55)" fill="#fff"/><path d="M0,0V5a5.084,5.084,0,0,0,5.167,5H56.833A5.085,5.085,0,0,0,62,5V0Z" transform="translate(0 47)" fill="#fff"/><path d="M0,0V5a5.084,5.084,0,0,0,5.167,5H56.833A5.085,5.085,0,0,0,62,5V0Z" transform="translate(0 47)" fill="none" stroke="#1a1e51" stroke-miterlimit="10" stroke-width="2"/><path d="M0,0H10" transform="translate(26 52)" fill="none" stroke="#1a1e51" stroke-miterlimit="10" stroke-width="2"/><path d="M12,6A6,6,0,1,1,6,0a6,6,0,0,1,6,6" transform="translate(36 13)" fill="#fff"/><path d="M9,4.5A4.5,4.5,0,1,1,4.5,0,4.5,4.5,0,0,1,9,4.5" transform="translate(27 7)" fill="#fff"/><path d="M2.727,14.333A2.667,2.667,0,1,1,2.727,9a2.667,2.667,0,1,1,0,5.333ZM13.664,3.253A1.647,1.647,0,0,1,12,1.627a1.665,1.665,0,0,1,3.328,0A1.647,1.647,0,0,1,13.664,3.253Z" transform="translate(27.545 1)" fill="none" stroke="#f7775c" stroke-linejoin="round" stroke-miterlimit="10" stroke-width="2"/><path d="M1.252,31a1.252,1.252,0,0,1-1.016-.552,1.3,1.3,0,0,1-.166-1.167L2.837,20.7,22.869,0,30,7.37,9.969,28.069l-8.3,2.861a1.275,1.275,0,0,1-.412.07" transform="translate(40 9)" fill="#fff"/><g transform="translate(46 11)" fill="none" stroke-linejoin="round" stroke-miterlimit="10"><path d="M5.538,22.154,24,3.693,20.307,0,1.846,18.461,0,24Z" stroke="none"/><path d="M -1.77635683940025e-15 24 L 5.537559986114502 22.15415000915527 L 24 3.693010091781616 L 20.3069896697998 -1.77635683940025e-15 L 1.845849990844727 18.46113967895508 L -1.77635683940025e-15 24 M 0.000268359377514571 26.00005340576172 C -0.5218565464019775 26.00005340576172 -1.032946944236755 25.79545211791992 -1.414160013198853 25.41426086425781 C -1.949830055236816 24.87863922119141 -2.136909961700439 24.08633995056152 -1.897410035133362 23.36767959594727 L -0.05155999958515167 17.82881927490234 C 0.04662000015377998 17.53421020507812 0.2120500057935715 17.26651000976562 0.4316399991512299 17.04693031311035 L 18.89278030395508 -1.414209961891174 C 19.673828125 -2.195260047912598 20.94014930725098 -2.195260047912598 21.72120094299316 -1.414209961891174 L 25.41420936584473 2.278800010681152 C 25.7892894744873 2.653879880905151 26.00000953674316 3.162600040435791 26 3.693049907684326 C 25.99999046325684 4.223490238189697 25.78926086425781 4.732210159301758 25.41415977478027 5.107269763946533 L 6.951720237731934 23.56841087341309 C 6.732180118560791 23.78793907165527 6.464550018310547 23.95334053039551 6.170010089874268 24.0515193939209 L 0.6324499845504761 25.89736938476562 C 0.4252444803714752 25.9664363861084 0.2118050754070282 26.00005340576172 0.000268359377514571 26.00005340576172 Z" stroke="none" fill="#f7775c"/></g><path d="M0,0,3.529,3.706" transform="translate(44.588 30.676)" fill="none" stroke="#ff3b46" stroke-miterlimit="10" stroke-width="2"/><path d="M17.647,0,0,18.529" transform="translate(46.353 14)" fill="none" stroke="#ff3b46" stroke-miterlimit="10" stroke-width="2"/><path d="M0,0,1.765,1.853" transform="translate(44 33.147)" fill="none" stroke="#ff3b46" stroke-miterlimit="10" stroke-width="2"/><path d="M0,.5H9" transform="translate(21)" fill="none" stroke="#1a1e51" stroke-miterlimit="10" stroke-width="2"/></g></svg>