<svg xmlns="http://www.w3.org/2000/svg" width="74" height="75" viewBox="0 0 74 75"><path d="M0,75H52.941V0H0Z" transform="translate(13.866)" fill="#fff"/><path d="M44.748,66.808H0V0H44.748V66.807ZM9.789,50.1h0Zm19.578-5.567h0Zm-19.578,0h0ZM29.367,33.4h0Zm-19.578,0h0ZM29.367,22.269h0Zm-19.578,0h0ZM29.367,11.135h0Zm-19.578,0h0Z" transform="translate(18.277 4.412)" fill="none" stroke="#1a1e51" stroke-miterlimit="10" stroke-width="2"/><path d="M0,31.513H31.513V0H0Z" transform="translate(2.521 33.403)" fill="#f2f7fa"/><path d="M6.933,13.866a6.933,6.933,0,1,1,6.933-6.933,6.941,6.941,0,0,1-6.933,6.933" transform="translate(0 30.252)" fill="#f6fafd"/><path d="M6.933,13.866a6.933,6.933,0,1,1,6.933-6.933,6.941,6.941,0,0,1-6.933,6.933" transform="translate(22.059 30.252)" fill="#f6fafd"/><path d="M6.933,13.866a6.933,6.933,0,1,1,6.933-6.933,6.941,6.941,0,0,1-6.933,6.933" transform="translate(0 52.941)" fill="#f6fafd"/><path d="M6.933,13.866a6.933,6.933,0,1,1,6.933-6.933,6.941,6.941,0,0,1-6.933,6.933" transform="translate(22.059 52.941)" fill="#f6fafd"/><path d="M24.958,27.731a2.773,2.773,0,1,1,2.773-2.773A2.776,2.776,0,0,1,24.958,27.731Zm-22.185,0a2.773,2.773,0,1,1,2.773-2.773A2.776,2.776,0,0,1,2.773,27.731ZM24.958,5.546a2.773,2.773,0,1,1,2.773-2.773A2.776,2.776,0,0,1,24.958,5.546Zm-22.185,0A2.773,2.773,0,1,1,5.546,2.773,2.776,2.776,0,0,1,2.773,5.546Z" transform="translate(4.412 34.664)" fill="none" stroke="#f7775c" stroke-miterlimit="10" stroke-width="2"/><path d="M9.454,1.261H8.1V0h1.35V1.26Zm-4.052,0H4.052V0H5.4V1.26Zm-4.051,0H0V0H1.351V1.26Z" transform="translate(13.235 59.244)" fill="#ff5c00"/><path d="M9.454,1.261H8.1V0h1.35V1.26Zm-4.052,0H4.052V0H5.4V1.26Zm-4.051,0H0V0H1.351V1.26Z" transform="translate(13.235 36.555)" fill="#ff3844"/><path d="M0,0V11.345" transform="translate(6.933 42.857)" fill="none" stroke="#ff3844" stroke-miterlimit="10" stroke-width="2"/><path d="M0,0V11.345" transform="translate(28.992 42.857)" fill="none" stroke="#ff3844" stroke-miterlimit="10" stroke-width="2"/><path d="M4.034,5.042h0L3.025,4.034,4.034,3.025,5.042,4.034,4.035,5.041ZM1.008,2.017h0L0,1.008,1.008,0,2.017,1.008,1.009,2.016Z" transform="translate(20.168 50.42)" fill="#ff5c00"/><path d="M0,13.866,13.866,0" transform="translate(11.345 41.597)" fill="none" stroke="#f7775c" stroke-miterlimit="10" stroke-width="2"/><path d="M4.034,5.042h0L3.025,4.034,4.034,3.025,5.042,4.034,4.035,5.041ZM1.008,2.017h0L0,1.008,1.008,0,2.017,1.008,1.009,2.016Z" transform="translate(10.714 41.597)" fill="#ff5c00"/><path d="M0,44.37H2.731V0H0" transform="translate(70.269 16)" fill="none" stroke="#1a1e51" stroke-miterlimit="10" stroke-width="2"/></svg>