<svg xmlns="http://www.w3.org/2000/svg" width="76.827" height="67.224" viewBox="0 0 76.827 67.224"><g transform="translate(0 -8)"><path d="M73.226,28.593h-1.2V16.481a2.4,2.4,0,0,0-2.4-2.4H34.812V10.4a2.4,2.4,0,0,0-2.4-2.4H12.6a2.4,2.4,0,0,0-2.4,2.4v3.631h-3a2.4,2.4,0,0,0-2.4,2.4v12.16H3.6A3.6,3.6,0,0,0,0,32.225V71.592a3.6,3.6,0,0,0,3.6,3.631H55.219a1.2,1.2,0,1,0,0-2.4H3.6a1.2,1.2,0,0,1-1.2-1.2V55.237H7.2a1.2,1.2,0,0,0,0-2.4H2.4v-2.4h9a1.2,1.2,0,0,0,0-2.4h-9V32.225a1.2,1.2,0,0,1,1.2-1.2H73.226a1.2,1.2,0,0,1,1.2,1.2V47.968h-9a1.2,1.2,0,0,0,0,2.4h9v2.4h-4.8a1.2,1.2,0,0,0,0,2.4h4.8V71.52a1.2,1.2,0,0,1-1.2,1.2h-8.4a1.2,1.2,0,0,0,0,2.4h8.4a3.6,3.6,0,0,0,3.6-3.631V32.225a3.6,3.6,0,0,0-3.6-3.631ZM7.2,16.481h5.4V10.4H32.411v6.08H69.624V28.593h-9V22.507a3.6,3.6,0,0,0-3.6-3.6H24.609a3.6,3.6,0,0,0-3.6,3.6v6.086H7.2ZM58.22,28.593H23.408V22.507a1.2,1.2,0,0,1,1.2-1.2H57.02a1.2,1.2,0,0,1,1.2,1.2Z" transform="translate(0)"/><circle cx="1.2" cy="1.2" r="1.2" transform="translate(58.821 72.799)"/><path d="M66.61,34.23H46.2a1.2,1.2,0,0,0,0,2.4H66.61a1.2,1.2,0,0,0,0-2.4ZM39,62.7A15.005,15.005,0,1,0,54.005,47.555,15.005,15.005,0,0,0,39,62.7Zm27.61,0a12.6,12.6,0,1,1-12.6-12.718A12.6,12.6,0,0,1,66.61,62.7Z" transform="translate(-15.592 -10.486)" fill="#fb8e0b"/><path d="M55,72.292a5.666,5.666,0,0,0,1.927,4.268l-1.014,6.89a1.221,1.221,0,0,0,1.194,1.386h6.6a1.2,1.2,0,0,0,1.182-1.386l-1.014-6.89A5.666,5.666,0,0,0,65.8,72.292a5.4,5.4,0,1,0-10.8,0Zm8.4,0a3.223,3.223,0,0,1-1.459,2.737,1.2,1.2,0,0,0-.546,1.2l.912,6.188H58.493l.912-6.188a1.2,1.2,0,0,0-.546-1.2A3.223,3.223,0,0,1,57.4,72.292a3,3,0,0,1,6,0Z" transform="translate(-21.988 -23.544)" fill="#fb8e0b"/></g></svg>