<svg xmlns="http://www.w3.org/2000/svg" width="73.669" height="73.687" viewBox="0 0 73.669 73.687"><g transform="translate(-1.025 -0.95)"><path d="M18,60.039a1.226,1.226,0,0,1-1.22-1.1l-.989-9.49H10.116a3.129,3.129,0,0,1-3.09-2.8l-.718-7.384H3.327A2.258,2.258,0,0,1,1.31,38.23a2.261,2.261,0,0,1,.042-2.268l4.3-9.52L5.494,23.7a16.753,16.753,0,0,1,5.822-12.508,1.23,1.23,0,1,1,1.628,1.845A14.071,14.071,0,0,0,7.952,23.629l.17,2.976a1.219,1.219,0,0,1-.106.576L3.669,36.8l3.756.007A1.229,1.229,0,0,1,8.65,37.915l.827,8.494a.68.68,0,0,0,.64.576H16.9a1.227,1.227,0,0,1,1.223,1.1l1.1,10.594a1.229,1.229,0,0,1-1.095,1.35A1.191,1.191,0,0,1,18,60.039Z" transform="translate(0 14.497)" fill="#263238"/><path d="M24.382,66.708a1.228,1.228,0,0,1-1.22-1.1L21.7,51.907H15a3.4,3.4,0,0,1-3.368-3.055L10.789,40.2h-3.6a2.427,2.427,0,0,1-2.165-1.1,2.434,2.434,0,0,1,.052-2.43l4.966-11-.18-3.213A19.385,19.385,0,0,1,18.6,6.6a1.228,1.228,0,1,1,1.387,2.027,16.923,16.923,0,0,0-7.66,13.77l.194,3.441a1.213,1.213,0,0,1-.106.576L7.3,37.724l4.6.02a1.229,1.229,0,0,1,1.225,1.109l.952,9.763a.961.961,0,0,0,.918.831h7.8a1.227,1.227,0,0,1,1.223,1.1l1.582,14.8A1.229,1.229,0,0,1,24.515,66.7C24.471,66.705,24.426,66.708,24.382,66.708Z" transform="translate(5.405 7.929)" fill="#263238"/><path d="M27.043,56.333H20.682a3.688,3.688,0,0,1-3.645-3.311L16.072,43.1H11.856a2.419,2.419,0,0,1-2.241-3.754l5.628-12.479-.2-3.675C15.037,10.9,25.975.95,39.423.95,52.7.95,62.711,11.434,62.711,25.332a32.532,32.532,0,0,1-3.975,15.45,1.23,1.23,0,0,1-2.177-1.144,30.162,30.162,0,0,0,3.692-14.306c0-12.5-8.954-21.922-20.827-21.922C27.333,3.41,17.5,12.255,17.5,23.128l.219,3.906a1.209,1.209,0,0,1-.106.573L11.819,40.44a2.153,2.153,0,0,0-.1.2c.039,0,.079,0,.133,0h5.333a1.229,1.229,0,0,1,1.225,1.112l1.072,11.035a1.237,1.237,0,0,0,1.2,1.082h6.361a1.23,1.23,0,1,1,0,2.46Z" transform="translate(11.981 0)" fill="#263238"/><g transform="translate(32.941 5.816)"><path d="M34.658,39.823H30.235a1.229,1.229,0,0,1-1.2-.969l-.728-3.326a14.518,14.518,0,0,1-2.937-1.22L22.5,36.146a1.228,1.228,0,0,1-1.532-.165l-3.126-3.126a1.229,1.229,0,0,1-.165-1.532l1.837-2.868a14.519,14.519,0,0,1-1.22-2.937l-3.326-.728a1.227,1.227,0,0,1-.969-1.2V19.16a1.227,1.227,0,0,1,.967-1.2l3.323-.728a14.693,14.693,0,0,1,1.223-2.937l-1.837-2.868a1.229,1.229,0,0,1,.165-1.532l3.126-3.126A1.228,1.228,0,0,1,22.5,6.6L25.367,8.44A14.636,14.636,0,0,1,28.3,7.22l.728-3.326a1.229,1.229,0,0,1,1.2-.967h4.425a1.227,1.227,0,0,1,1.2.967l.728,3.328A14.486,14.486,0,0,1,39.523,8.44L42.391,6.6a1.228,1.228,0,0,1,1.535.162l3.126,3.126a1.229,1.229,0,0,1,.165,1.532L45.383,14.3A14.523,14.523,0,0,1,46.6,17.232l3.328.728a1.229,1.229,0,0,1,.967,1.2v4.425a1.227,1.227,0,0,1-.967,1.2l-3.328.728a14.465,14.465,0,0,1-1.218,2.935l1.837,2.871a1.229,1.229,0,0,1-.165,1.532l-3.126,3.129a1.232,1.232,0,0,1-1.532.165l-2.868-1.84a14.51,14.51,0,0,1-2.937,1.218l-.728,3.328A1.234,1.234,0,0,1,34.658,39.823Zm-3.434-2.46h2.445l.676-3.094a1.234,1.234,0,0,1,.92-.937A12.1,12.1,0,0,0,38.9,31.824a1.226,1.226,0,0,1,1.311.01l2.669,1.71,1.729-1.729L42.9,29.145a1.232,1.232,0,0,1-.012-1.309A12.15,12.15,0,0,0,44.4,24.2a1.228,1.228,0,0,1,.935-.92L48.43,22.6V20.152l-3.092-.679a1.231,1.231,0,0,1-.935-.92,12.1,12.1,0,0,0-1.51-3.641,1.227,1.227,0,0,1,.012-1.309l1.71-2.669L42.886,9.205l-2.669,1.71a1.226,1.226,0,0,1-1.311.01,12.137,12.137,0,0,0-3.638-1.508,1.228,1.228,0,0,1-.92-.935l-.676-3.094H31.226L30.55,8.482a1.231,1.231,0,0,1-.922.935,12.063,12.063,0,0,0-3.638,1.508,1.226,1.226,0,0,1-1.311-.01l-2.669-1.71L20.28,10.935,21.99,13.6A1.231,1.231,0,0,1,22,14.915a12.265,12.265,0,0,0-1.515,3.641,1.222,1.222,0,0,1-.932.918l-3.092.679V22.6l3.094.676a1.231,1.231,0,0,1,.935.92A12.059,12.059,0,0,0,22,27.831a1.221,1.221,0,0,1-.01,1.311l-1.71,2.669,1.729,1.729,2.669-1.71a1.236,1.236,0,0,1,1.311-.01,12.022,12.022,0,0,0,3.638,1.508,1.23,1.23,0,0,1,.922.937Zm1.22-7.377a8.609,8.609,0,1,1,8.609-8.609A8.619,8.619,0,0,1,32.444,29.986Zm0-14.759a6.15,6.15,0,1,0,6.15,6.15A6.155,6.155,0,0,0,32.444,15.227Z" transform="translate(-14 -2.928)" fill="#f97757"/></g><g transform="translate(43.833 41.377)"><path d="M35.684,48.253h-3.65a1.229,1.229,0,0,1-1.2-.969l-.571-2.62a12.24,12.24,0,0,1-2.229-.925l-2.263,1.446a1.225,1.225,0,0,1-1.532-.165l-2.583-2.583A1.232,1.232,0,0,1,21.49,40.9l1.451-2.258a12.22,12.22,0,0,1-.927-2.229L19.4,35.844a1.231,1.231,0,0,1-.969-1.2v-3.65a1.229,1.229,0,0,1,.969-1.2l2.617-.573a12.148,12.148,0,0,1,.927-2.229L21.49,24.728a1.229,1.229,0,0,1,.165-1.532l2.58-2.58a1.225,1.225,0,0,1,1.532-.165L28.031,21.9a12.249,12.249,0,0,1,2.229-.927l.571-2.615a1.231,1.231,0,0,1,1.2-.969h3.65a1.229,1.229,0,0,1,1.2.967l.573,2.617a12.243,12.243,0,0,1,2.231.927l2.258-1.446a1.232,1.232,0,0,1,1.532.165l2.58,2.58a1.228,1.228,0,0,1,.165,1.532l-1.446,2.263a12.4,12.4,0,0,1,.927,2.229l2.617.573a1.231,1.231,0,0,1,.969,1.2v3.648a1.229,1.229,0,0,1-.969,1.2l-2.62.573a12.039,12.039,0,0,1-.925,2.229L46.222,40.9a1.229,1.229,0,0,1-.165,1.532l-2.58,2.583a1.233,1.233,0,0,1-1.532.165l-2.258-1.449a12.408,12.408,0,0,1-2.231.925l-.573,2.622A1.217,1.217,0,0,1,35.684,48.253Zm-2.659-2.46h1.67l.524-2.388a1.234,1.234,0,0,1,.922-.935,9.847,9.847,0,0,0,2.937-1.215,1.217,1.217,0,0,1,1.309.01l2.054,1.316L43.622,41.4l-1.316-2.056a1.231,1.231,0,0,1-.01-1.311A9.745,9.745,0,0,0,43.511,35.1a1.23,1.23,0,0,1,.937-.925l2.386-.521V31.982l-2.381-.521a1.231,1.231,0,0,1-.935-.92A9.942,9.942,0,0,0,42.3,27.6a1.221,1.221,0,0,1,.01-1.311l1.316-2.059-1.181-1.181-2.054,1.316a1.232,1.232,0,0,1-1.309.01,9.933,9.933,0,0,0-2.939-1.223,1.225,1.225,0,0,1-.92-.932l-.524-2.381H33.022L32.5,22.219a1.231,1.231,0,0,1-.92.935,9.888,9.888,0,0,0-2.937,1.223,1.226,1.226,0,0,1-1.311-.01L25.276,23.05,24.1,24.231l1.321,2.059a1.231,1.231,0,0,1,.01,1.311A9.942,9.942,0,0,0,24.2,30.538a1.224,1.224,0,0,1-.935.92l-2.381.521v1.673l2.381.521a1.231,1.231,0,0,1,.935.92,9.942,9.942,0,0,0,1.223,2.937,1.225,1.225,0,0,1-.01,1.314L24.1,41.4l1.178,1.178,2.059-1.316a1.236,1.236,0,0,1,1.311-.01,9.739,9.739,0,0,0,2.935,1.215,1.23,1.23,0,0,1,.922.937Zm.834-5.658a7.318,7.318,0,1,1,7.318-7.318A7.324,7.324,0,0,1,33.859,40.136Zm0-12.174a4.858,4.858,0,1,0,4.858,4.858A4.864,4.864,0,0,0,33.859,27.962Z" transform="translate(-18.428 -17.385)" fill="#f97757"/></g></g></svg>