<svg xmlns="http://www.w3.org/2000/svg" width="20" height="20" viewBox="0 0 20 20"><g opacity="0.6"><g stroke="rgba(0,0,0,0)" stroke-width="1" opacity="0"><rect width="20" height="20" stroke="none"/><rect x="0.5" y="0.5" width="19" height="19" fill="none"/></g><path d="M9.2,5.333h4V6.889h-4V5.333M6.8,7.667V3h8.8V7.667A2.367,2.367,0,0,1,18,10v4.667H15.6V17H6.8V14.667H6v-7h.8M8.4,4.556V7.667H14V4.556H8.4m0,7.778v3.111H14V12.333H8.4m7.2-3.111a.778.778,0,1,0,.8.778.789.789,0,0,0-.8-.778M3.6,7.667h.8a.789.789,0,0,1,.8.778v5.444a.789.789,0,0,1-.8.778H3.6A1.578,1.578,0,0,1,2,13.111V9.222A1.578,1.578,0,0,1,3.6,7.667Z" transform="translate(0 0)"/></g></svg>