<svg xmlns="http://www.w3.org/2000/svg" width="20" height="20" viewBox="0 0 20 20"><g opacity="0.6"><g stroke="rgba(0,0,0,0)" stroke-width="1" opacity="0"><rect width="20" height="20" stroke="none"/><rect x="0.5" y="0.5" width="19" height="19" fill="none"/></g><path d="M9.611,7.6A1.94,1.94,0,0,1,13.4,6.952a2.254,2.254,0,0,1,.1.648,1.94,1.94,0,0,1-3.78.672A2.131,2.131,0,0,1,9.611,7.6m-5.056,0c0,3.6,3.951,8.528,4.667,9.448L8.444,18S3,11.8,3,7.6A5.586,5.586,0,0,1,6.889,2.232,7.277,7.277,0,0,0,4.556,7.6m7-5.6A5.525,5.525,0,0,1,17,7.6C17,11.8,11.556,18,11.556,18S6.111,11.8,6.111,7.6A5.525,5.525,0,0,1,11.556,2m0,1.6a3.947,3.947,0,0,0-3.889,4c0,.8,0,2.4,3.889,7.768C15.444,10,15.444,8.4,15.444,7.6A3.947,3.947,0,0,0,11.556,3.6Z"/></g></svg>