<svg xmlns="http://www.w3.org/2000/svg" width="553.542" height="462.477" viewBox="0 0 553.542 462.477">
  <g id="Group_77753" data-name="Group 77753" transform="translate(0)">
    <path id="Path_82533" data-name="Path 82533" d="M288.156,520.532l9.452,5.431a7.584,7.584,0,0,0,10.893-3.947h0a7.584,7.584,0,0,0-6.7-10.2l-11.446-.629-34.48-10.437-5.559-20.813L235.782,488.1l9.995,23.663Z" transform="translate(-167.996 -231.52)" fill="#ffb8b8"/>
    <path id="Path_82534" data-name="Path 82534" d="M231.926,361.032c-2.187,2.479-1.792,5.46-.2,7.881s4.242,4.435,6.562,6.57a13.4,13.4,0,0,1,3.536,4.479,4.859,4.859,0,0,1-.8,5.139c-1.519,1.8-4.348,3.013-7.108,4.056a140.076,140.076,0,0,1-24.333,6.7c6.989-8.166,10.488-17.363,9.975-26.223-.108-1.859-.384-3.736.266-5.6a7.608,7.608,0,0,1,5.213-4.561c2.778-.8,6.437-.009,6.863,1.812" transform="translate(-156.831 -180.047)" fill="#2f2e41"/>
    <path id="Path_82535" data-name="Path 82535" d="M26.523,704.745l10,.435L56.264,614l-17.131.736Z" transform="translate(-11.304 -261.693)" fill="#ffb8b8"/>
    <path id="Path_82536" data-name="Path 82536" d="M156.3,678.943l-8.262,4.348L96.355,606.618l16.458-7.248Z" transform="translate(-41.067 -255.457)" fill="#ffb8b8"/>
    <circle id="Ellipse_2884" data-name="Ellipse 2884" cx="15.819" cy="15.819" r="15.819" transform="translate(41.805 178.047)" fill="#ffb8b8"/>
    <path id="Path_82537" data-name="Path 82537" d="M175.612,399.323s-5.653,11.74-13.48,11.305c0,0-14.784-6.088-19.567,10.436l-5.218,13.045,69.137,11.74s-3.913-23.915-13.045-24.35c0,0-10.436-.87-9.131-4.783s6.088-13.045,6.088-13.045Z" transform="translate(-126.043 -197.162)" fill="#ffb8b8"/>
    <path id="Path_82538" data-name="Path 82538" d="M192.969,493.565l-10.436,22.611,8.6,36.547,41.887,78.609s-19.291,17.307-24.1,20.083c-4.171,2.408-38.9-62.862-40.165-76.314-.419-4.44-8.033,85.495-8.033,85.495s-28.706-4.737-36.723-6.312c0,0,5.775-40.906,9.181-79.183,2.625-29.5.238-56.244,15-68.925l-1.3-25.22,34.786-1.3Z" transform="translate(-120.353 -231.399)" fill="#2f2e41"/>
    <path id="Path_82539" data-name="Path 82539" d="M145.651,829.243l15.966,2.318a5.314,5.314,0,0,0,6.632-2.651h0a5.314,5.314,0,0,0-.883-5.944l-6.777-7.3-4.877-10.524c-2.917-2.979-4.911-1.926-6.026,2.969l-7.8-2.448-2.044,13.742A9.073,9.073,0,0,0,145.651,829.243Z" transform="translate(-127.064 -369.419)" fill="#2f2e41"/>
    <path id="Path_82540" data-name="Path 82540" d="M303.3,803.589l16.133-.056a5.314,5.314,0,0,0,6.17-3.6h0a5.314,5.314,0,0,0-1.748-5.75l-7.777-6.221-6.373-9.692c-3.324-2.518-5.141-1.182-5.523,3.824l-8.072-1.275v13.893a9.072,9.072,0,0,0,7.19,8.875Z" transform="translate(-193.708 -358.145)" fill="#2f2e41"/>
    <path id="Path_82541" data-name="Path 82541" d="M185.251,341.659a9.962,9.962,0,0,0-8.479.653,21.092,21.092,0,0,0-6.481,5.851,49.354,49.354,0,0,0-10.433,27.787c-.142,2.765-.009,5.687,1.43,8.051,1.582,2.6,4.477,4.09,7.344,5.106a38.634,38.634,0,0,0,29.35-1.615,104.05,104.05,0,0,1-13.357-12.976c-.76-.884-1.555-2.019-1.168-3.118a3.416,3.416,0,0,1,1.1-1.345l9.314-8.088-.235,3.272A9.493,9.493,0,0,0,202,359c-.449.906.408,2.02,1.4,2.224a5.032,5.032,0,0,0,2.923-.6c2.254-.97,4.7-2.124,5.7-4.365a6.263,6.263,0,0,0-.132-4.943,12.431,12.431,0,0,0-3.031-4.041,25.355,25.355,0,0,0-23.671-5.885" transform="translate(-135.618 -172.11)" fill="#2f2e41"/>
    <path id="Path_82542" data-name="Path 82542" d="M170.658,508.644l6.946,8.4a7.584,7.584,0,0,0,11.585.125h0a7.584,7.584,0,0,0-2.693-11.9l-10.5-4.6L147.37,478.795l2.1-21.441L132.989,459.9l1.059,25.665Z" transform="translate(-124.185 -221.896)" fill="#ffb8b8"/>
    <path id="Path_82543" data-name="Path 82543" d="M207.218,485.283s-6.77-24.8-10.342-24.791-8.355-.429-8.355-.429-5.653-16.523-34.786-11.305-16.523-4.783-24.785-.87S117.645,479.2,117.645,479.2s44.787-14.784,54.353-6.522a106.217,106.217,0,0,0,17.828,12.61S185.477,496.154,207.218,485.283Z" transform="translate(-117.645 -217.464)" fill="#2f2e41"/>
    <rect id="Rectangle_16994" data-name="Rectangle 16994" width="175.58" height="1.148" transform="translate(69.257 444.084)" fill="#3f3d56"/>
    <circle id="Ellipse_2885" data-name="Ellipse 2885" cx="106.151" cy="106.151" r="106.151" transform="translate(273.527 33.823)" fill="#e6e6e6"/>
    <rect id="Rectangle_16995" data-name="Rectangle 16995" width="175.58" height="1.148" transform="translate(184.015 80.874)" fill="#3f3d56"/>
    <rect id="Rectangle_16996" data-name="Rectangle 16996" width="344.848" height="1.148" transform="translate(184.015 112.433)" fill="#3f3d56"/>
    <path id="Path_82544" data-name="Path 82544" d="M775.071,281.4A106.725,106.725,0,1,1,881.8,174.671,106.846,106.846,0,0,1,775.071,281.4Zm0-212.3A105.578,105.578,0,1,0,880.649,174.671,105.7,105.7,0,0,0,775.071,69.094Z" transform="translate(-352.359 -55.927)" fill="#3f3d56"/>
    <circle id="Ellipse_2886" data-name="Ellipse 2886" cx="14.012" cy="14.012" r="14.012" transform="translate(398.853 0)" fill="#6c63ff"/>
    <circle id="Ellipse_2887" data-name="Ellipse 2887" cx="9.067" cy="9.067" r="9.067" transform="translate(307.32 102.167)" fill="#ff6584"/>
    <circle id="Ellipse_2888" data-name="Ellipse 2888" cx="20.707" cy="20.707" r="20.707" transform="translate(512.129 90.677)" fill="#6c63ff"/>
    <path id="Path_82545" data-name="Path 82545" d="M458.874,383.507h-62.83v1.148h62.83a11.663,11.663,0,1,1,0,23.327H363.8a11.663,11.663,0,1,1,0-23.327h3.553v-1.148H363.8a12.811,12.811,0,0,0,0,25.622h95.072a12.811,12.811,0,1,0,0-25.622Z" transform="translate(-217.099 -190.422)" fill="#3f3d56"/>
    <path id="Path_82546" data-name="Path 82546" d="M458.874,452.507h-62.83v1.148h62.83a11.663,11.663,0,0,1,0,23.327H363.8a11.663,11.663,0,1,1,0-23.326h3.553v-1.148H363.8a12.811,12.811,0,1,0,0,25.622h95.072a12.811,12.811,0,0,0,0-25.622Z" transform="translate(-217.099 -219.83)" fill="#3f3d56"/>
    <path id="Path_82547" data-name="Path 82547" d="M458.874,521.507h-62.83v1.148h62.83a11.663,11.663,0,0,1,0,23.327H363.8a11.663,11.663,0,1,1,0-23.327h3.553v-1.148H363.8a12.811,12.811,0,0,0,0,25.622h95.072a12.811,12.811,0,1,0,0-25.622Z" transform="translate(-217.099 -249.238)" fill="#3f3d56"/>
    <path id="Path_40" data-name="Path 40" d="M389.334,378.223a3.412,3.412,0,1,0,0,6.824H404.3a3.412,3.412,0,1,0,.112-6.824h-15.08Z" transform="translate(-231.987 -188.169)" fill="#6c63ff"/>
    <path id="Path_40-2" data-name="Path 40" d="M389.334,448.223a3.412,3.412,0,1,0,0,6.824H404.3a3.412,3.412,0,1,0,.112-6.824h-15.08Z" transform="translate(-231.987 -218.004)" fill="#ff6584"/>
    <path id="Path_40-3" data-name="Path 40" d="M389.334,516.223a3.412,3.412,0,1,0,0,6.824H404.3a3.412,3.412,0,1,0,.112-6.824h-15.08Z" transform="translate(-231.987 -246.986)" fill="#3f3d56"/>
    <path id="Path_40-4" data-name="Path 40" d="M378.988,399.887a3.412,3.412,0,1,0,0,6.824h85.544a3.412,3.412,0,1,0,.112-6.824H378.988Z" transform="translate(-227.578 -197.402)" fill="#e6e6e6"/>
    <path id="Path_40-5" data-name="Path 40" d="M378.988,468.887a3.412,3.412,0,1,0,0,6.824h85.544a3.412,3.412,0,1,0,.112-6.823H378.988Z" transform="translate(-227.578 -226.811)" fill="#e6e6e6"/>
    <path id="Path_40-6" data-name="Path 40" d="M378.988,537.887a3.412,3.412,0,1,0,0,6.824h85.544a3.412,3.412,0,1,0,.112-6.824H378.988Z" transform="translate(-227.578 -256.219)" fill="#e6e6e6"/>
    <path id="Path_82548" data-name="Path 82548" d="M513.149,733.115a58.833,58.833,0,0,0-5.163-16.575l-.369-.763-2.741,3.039,2.031-4.526-.133-.263a108.231,108.231,0,0,0-5.949-10.322l-.4-.617-.537.6.376-.838-.188-.283c-2.689-4.033-4.755-6.584-4.775-6.609l-.584-.719-.376.857c-.069.157-6.9,15.89-7.8,31.436l-.014.242,4.6,5.554-4.686-2.942.008,1.068a45.479,45.479,0,0,0,.372,5.464q.31,2.338.729,4.566a2.434,2.434,0,0,1,1.246.389q-.486-2.489-.838-5.116c-.181-1.4-.3-2.819-.34-4.235l9.064,5.691-8.976-10.85c.817-13.144,5.89-26.386,7.314-29.882.764.991,2.206,2.916,3.931,5.486l-3.135,6.99,4.47-4.957a107.036,107.036,0,0,1,5.349,9.325L500.8,725.085l6.528-7.239a57.6,57.6,0,0,1,4.688,15.446c1.143,8.63.92,16.921-.628,23.345-1.482,6.154-4.095,9.936-7.168,10.378a4.857,4.857,0,0,1-1.894-.113,2.81,2.81,0,0,1-1.7.518h-.168a6.66,6.66,0,0,0,3.112.836,5.635,5.635,0,0,0,.8-.058c3.614-.519,6.5-4.522,8.125-11.271C514.082,750.36,514.313,741.907,513.149,733.115Z" transform="translate(-274.826 -323.283)" fill="#3f3d56"/>
    <path id="Path_82549" data-name="Path 82549" d="M489.38,799.1c-4.726,0-11.541-2.6-18.3-7.333a29.2,29.2,0,0,1-2.844-2.287l-.757-.691,2.862-.824-3.811-.14-.161-.169c-7.144-7.482-11.589-18.05-11.634-18.155l-.347-.835.9.041c.09,0,2.237.105,5.465.563l.2.029v0l.708.108a71.026,71.026,0,0,1,7.82,1.643l.275.075.859,2.115-.13-1.9.788.227a38,38,0,0,1,10.516,4.876c10.279,7.2,15.966,16.193,12.96,20.487C493.725,798.4,491.833,799.1,489.38,799.1Zm-19.591-9.782c.628.532,1.281,1.038,1.951,1.51,9.414,6.592,19.522,9.085,22.072,5.445s-3.251-12.288-12.666-18.881a36.815,36.815,0,0,0-9.4-4.484l.509,7.412-3.344-8.237c-2.2-.584-4.456-1.065-6.711-1.432l.37,5.379-2.3-5.669c-1.783-.245-3.221-.378-4.1-.445,1.192,2.618,5.131,10.7,10.866,16.78l10.518.385Z" transform="translate(-261.168 -354.581)" fill="#3f3d56"/>
  </g>
</svg>
