<svg xmlns="http://www.w3.org/2000/svg" xmlns:xlink="http://www.w3.org/1999/xlink" width="104" height="104" viewBox="0 0 104 104"><defs><linearGradient id="a" x1="-0.037" y1="1.146" x2="1.009" y2="0.049" gradientUnits="objectBoundingBox"><stop offset="0" stop-color="#fff200"/><stop offset="1" stop-color="#cd118c"/></linearGradient><linearGradient id="b" x1="-4.621" y1="5.869" x2="5.837" y2="-5.095" xlink:href="#a"/><linearGradient id="c" x1="-2.103" y1="6.867" x2="2.379" y2="-4.096" xlink:href="#a"/><linearGradient id="d" x1="-3.455" y1="4.647" x2="7.003" y2="-6.317" xlink:href="#a"/><linearGradient id="e" x1="-1.604" y1="5.646" x2="2.878" y2="-5.318" xlink:href="#a"/><linearGradient id="f" x1="-2.29" y1="3.425" x2="8.168" y2="-7.539" xlink:href="#a"/><linearGradient id="g" x1="-1.104" y1="4.424" x2="3.378" y2="-6.54" xlink:href="#a"/></defs><g transform="translate(-2 -2)"><path d="M73.067,29.733H100.8a5.2,5.2,0,0,0,5.2-5.2v-10.4a5.2,5.2,0,0,0-5.2-5.2H92.133V7.2a5.2,5.2,0,0,0-5.2-5.2H69.6a1.733,1.733,0,0,0-1.733,1.733V15.867H60.933A1.733,1.733,0,0,0,59.2,17.6V49.119a5.2,5.2,0,0,0-3.148,3.148H54V48.8a5.2,5.2,0,0,0-5.2-5.2V40.133a5.2,5.2,0,0,0,5.2-5.2v-10.4a5.2,5.2,0,0,0-5.2-5.2H7.2a5.2,5.2,0,0,0-5.2,5.2v10.4a5.2,5.2,0,0,0,5.2,5.2V43.6A5.2,5.2,0,0,0,2,48.8V59.2a5.2,5.2,0,0,0,5.2,5.2v3.467a5.2,5.2,0,0,0-5.2,5.2v10.4a5.2,5.2,0,0,0,5.2,5.2H48.8a5.2,5.2,0,0,0,5.2-5.2v-10.4a5.2,5.2,0,0,0-5.2-5.2V64.4A5.2,5.2,0,0,0,54,59.2V55.733h2.052A5.2,5.2,0,0,0,59.2,58.881V95.6a1.733,1.733,0,0,0,1.733,1.733h6.933V100.8a5.2,5.2,0,0,0,5.2,5.2H100.8a5.2,5.2,0,0,0,5.2-5.2V90.4a5.2,5.2,0,0,0-5.2-5.2H92.133V83.467a5.2,5.2,0,0,0-5.2-5.2H69.6A1.733,1.733,0,0,0,67.867,80V93.867h-5.2V58.881a5.2,5.2,0,0,0,3.148-3.148h2.052V59.2a5.2,5.2,0,0,0,5.2,5.2H100.8a5.2,5.2,0,0,0,5.2-5.2V48.8a5.2,5.2,0,0,0-5.2-5.2H92.133V41.867a5.2,5.2,0,0,0-5.2-5.2H69.6A1.733,1.733,0,0,0,67.867,38.4V52.267H65.814a5.2,5.2,0,0,0-3.148-3.148V19.333h5.2v5.2A5.2,5.2,0,0,0,73.067,29.733Zm-67.6,5.2v-10.4A1.733,1.733,0,0,1,7.2,22.8H48.8a1.733,1.733,0,0,1,1.733,1.733v10.4A1.733,1.733,0,0,1,48.8,36.667H7.2A1.733,1.733,0,0,1,5.467,34.933Zm5.2,5.2H45.333V43.6H10.667ZM50.533,73.067v10.4A1.733,1.733,0,0,1,48.8,85.2H7.2a1.733,1.733,0,0,1-1.733-1.733v-10.4A1.733,1.733,0,0,1,7.2,71.333H48.8A1.733,1.733,0,0,1,50.533,73.067Zm-5.2-5.2H10.667V64.4H45.333Zm5.2-8.667A1.733,1.733,0,0,1,48.8,60.933H7.2A1.733,1.733,0,0,1,5.467,59.2V48.8A1.733,1.733,0,0,1,7.2,47.067H48.8A1.733,1.733,0,0,1,50.533,48.8Zm52,31.2v10.4a1.733,1.733,0,0,1-1.733,1.733H73.067a1.733,1.733,0,0,1-1.733-1.733V88.667H100.8A1.733,1.733,0,0,1,102.533,90.4Zm-31.2-8.667h15.6a1.733,1.733,0,0,1,1.733,1.733V85.2H71.333Zm31.2-32.933V59.2a1.733,1.733,0,0,1-1.733,1.733H73.067A1.733,1.733,0,0,1,71.333,59.2V47.067H100.8A1.733,1.733,0,0,1,102.533,48.8Zm-31.2-8.667h15.6a1.733,1.733,0,0,1,1.733,1.733V43.6H71.333Zm31.2-26v10.4a1.733,1.733,0,0,1-1.733,1.733H73.067a1.733,1.733,0,0,1-1.733-1.733V12.4H100.8A1.733,1.733,0,0,1,102.533,14.133Zm-31.2-8.667h15.6A1.733,1.733,0,0,1,88.667,7.2V8.933H71.333Z" fill="url(#a)"/><path d="M7.733,25.4h6.933A1.733,1.733,0,0,0,16.4,23.667V16.733A1.733,1.733,0,0,0,14.667,15H7.733A1.733,1.733,0,0,0,6,16.733v6.933A1.733,1.733,0,0,0,7.733,25.4Zm1.733-6.933h3.467v3.467H9.467Z" transform="translate(2.933 9.533)" fill="url(#b)"/><path d="M15.733,25.4h20.8a1.733,1.733,0,0,0,1.733-1.733V16.733A1.733,1.733,0,0,0,36.533,15h-20.8A1.733,1.733,0,0,0,14,16.733v6.933A1.733,1.733,0,0,0,15.733,25.4Zm1.733-6.933H34.8v3.467H17.467Z" transform="translate(8.8 9.533)" fill="url(#c)"/><path d="M14.667,29H7.733A1.733,1.733,0,0,0,6,30.733v6.933A1.733,1.733,0,0,0,7.733,39.4h6.933A1.733,1.733,0,0,0,16.4,37.667V30.733A1.733,1.733,0,0,0,14.667,29Zm-1.733,6.933H9.467V32.467h3.467Z" transform="translate(2.933 19.8)" fill="url(#d)"/><path d="M36.533,29h-20.8A1.733,1.733,0,0,0,14,30.733v6.933A1.733,1.733,0,0,0,15.733,39.4h20.8a1.733,1.733,0,0,0,1.733-1.733V30.733A1.733,1.733,0,0,0,36.533,29ZM34.8,35.933H17.467V32.467H34.8Z" transform="translate(8.8 19.8)" fill="url(#e)"/><path d="M14.667,43H7.733A1.733,1.733,0,0,0,6,44.733v6.933A1.733,1.733,0,0,0,7.733,53.4h6.933A1.733,1.733,0,0,0,16.4,51.667V44.733A1.733,1.733,0,0,0,14.667,43Zm-1.733,6.933H9.467V46.467h3.467Z" transform="translate(2.933 30.067)" fill="url(#f)"/><path d="M36.533,43h-20.8A1.733,1.733,0,0,0,14,44.733v6.933A1.733,1.733,0,0,0,15.733,53.4h20.8a1.733,1.733,0,0,0,1.733-1.733V44.733A1.733,1.733,0,0,0,36.533,43ZM34.8,49.933H17.467V46.467H34.8Z" transform="translate(8.8 30.067)" fill="url(#g)"/></g></svg>