<svg id="Component_94_1" data-name="Component 94 – 1" xmlns="http://www.w3.org/2000/svg" width="333.691" height="212.991" viewBox="0 0 333.691 212.991">
  <path id="Path_82889" data-name="Path 82889" d="M609.008,678.408h43.631c.281-.277.558-.558.832-.847a46.735,46.735,0,0,0,7.32-10.006c4.624-8.523,6.481-18.429,3.835-27.631-.068-.235-.135-.47-.21-.7-.142.217-.288.434-.438.647a65.268,65.268,0,0,1-6.577,8.192c-.181.2-.37.4-.562.594a68.136,68.136,0,0,1-20.5,14.566q-2.572,1.19-5.243,2.152c-1.38.5-2.782.953-4.194,1.359-5.93,1.7-12.7,2.967-16.213,8.035a11.613,11.613,0,0,0-1.416,2.8C609.175,677.839,609.086,678.124,609.008,678.408Z" transform="translate(-502.201 -465.417)" fill="#f0f0f0"/>
  <path id="Path_82890" data-name="Path 82890" d="M612.8,677.151a9.624,9.624,0,0,0-.765.846h.861a9.207,9.207,0,0,1,.861-.846,7.426,7.426,0,0,1,3.34-1.672,10.755,10.755,0,0,1,2.433-.2c1.615.036,3.244.338,4.838.519.4.046.8.082,1.2.1a14.555,14.555,0,0,0,6.122-.864,22.953,22.953,0,0,0,6.609-4.123,49.935,49.935,0,0,0,3.657-3.436l.448-.47a59.221,59.221,0,0,0,14.531-27.5c.046-.2.089-.395.132-.594.085-.409-.562-.466-.647-.06-.043.2-.085.4-.132.6a57.766,57.766,0,0,1-4.158,12.1c-.089.2-.181.395-.281.587a57.44,57.44,0,0,1-10.081,14.581c-.039.046-.082.089-.128.135q-1.435,1.5-2.984,2.888a24.949,24.949,0,0,1-6.463,4.389,13.9,13.9,0,0,1-6.289,1.142c-.213-.007-.43-.021-.647-.039-.171-.014-.341-.029-.516-.046-1.629-.174-3.273-.48-4.92-.548a12.7,12.7,0,0,0-2.234.093A8.394,8.394,0,0,0,612.8,677.151Z" transform="translate(-494.507 -465.006)" fill="#fff"/>
  <path id="Path_82891" data-name="Path 82891" d="M623.384,718.126a8.688,8.688,0,0,0,11.25-.05c.316-.273-.093-.776-.409-.5a8.045,8.045,0,0,1-10.465.026c-.318-.27-.692.259-.376.528Z" transform="translate(-476.179 -515.849)" fill="#fff"/>
  <path id="Path_82892" data-name="Path 82892" d="M690.713,720.13a16.746,16.746,0,0,1,3.354-11.734c.253-.332-.275-.707-.528-.376a17.418,17.418,0,0,0-3.465,12.218c.041.416.68.306.639-.107Z" transform="translate(-559.301 -509.662)" fill="#fff"/>
  <path id="Path_82893" data-name="Path 82893" d="M628.263,667.806a4.918,4.918,0,0,1-2.566-3.9c-.035-.416-.674-.306-.639.107a5.511,5.511,0,0,0,2.829,4.318.335.335,0,0,0,.452-.076.326.326,0,0,0-.076-.452Z" transform="translate(-470.466 -481.154)" fill="#fff"/>
  <path id="Path_82894" data-name="Path 82894" d="M701.382,644.1l.2.267h28.588c.146-.281.292-.562.434-.847q.475-.929.921-1.871c.1-.206.2-.416.292-.633v0a63.03,63.03,0,0,0,3.589-9.679v0a55.536,55.536,0,0,0,1.234-5.521,46.461,46.461,0,0,0,.146-14.541l-.011-.075c-1.44-9.59-5.922-18.614-13.57-24.37,0,0,0,0-.007,0-.2-.149-.388-.288-.583-.434.014.26.028.512.039.772v.014a64.676,64.676,0,0,1-.317,10.5v0c-.025.27-.057.541-.089.811v0a68.291,68.291,0,0,1-7.6,23.96,0,0,0,0,1,0,0h0a65.71,65.71,0,0,1-5.425,8.484c-2.792,3.714-6.115,7.513-7.48,11.8-.085.26-.16.519-.228.783C701.464,643.716,701.421,643.912,701.382,644.1Z" transform="translate(-606.502 -431.379)" fill="#f0f0f0"/>
  <path id="Path_82895" data-name="Path 82895" d="M726.118,643.862h.662c.014-.285.039-.566.078-.847a7.576,7.576,0,0,1,1.779-3.995c1.618-1.846,3.92-2.9,6-4.119.349-.206.69-.42,1.021-.644a14.487,14.487,0,0,0,4.372-4.375,23.149,23.149,0,0,0,2.792-7.271,49.145,49.145,0,0,0,.847-4.944c.032-.213.057-.43.078-.647a59.1,59.1,0,0,0-4.959-30.7c-.078-.185-.164-.37-.249-.551-.174-.377-.726-.032-.548.342.085.181.171.366.253.548a58.071,58.071,0,0,1,3.966,12.172c.046.213.089.427.128.637a57.551,57.551,0,0,1,.733,17.7c-.007.071-.014.139-.021.206q-.251,2.06-.647,4.091a25.03,25.03,0,0,1-2.518,7.4,13.883,13.883,0,0,1-4.333,4.692c-.178.128-.359.249-.544.366-.146.092-.292.185-.441.274-2.042,1.224-4.272,2.241-5.979,3.941a8.406,8.406,0,0,0-2.383,4.884A8.3,8.3,0,0,0,726.118,643.862Z" transform="translate(-622.092 -430.871)" fill="#fff"/>
  <path id="Path_82896" data-name="Path 82896" d="M703.263,662.66a8.688,8.688,0,0,0,8.952-6.814c.088-.408-.541-.563-.629-.155a8.045,8.045,0,0,1-8.34,6.321C702.829,661.988,702.849,662.636,703.263,662.66Z" transform="translate(-581.996 -475.875)" fill="#fff"/>
  <path id="Path_82897" data-name="Path 82897" d="M754.5,699.654a16.746,16.746,0,0,1-4.387-11.388c0-.417-.645-.4-.648.018a17.419,17.419,0,0,0,4.589,11.841c.283.307.727-.165.446-.471Z" transform="translate(-640.912 -496.821)" fill="#fff"/>
  <path id="Path_82898" data-name="Path 82898" d="M734.8,619.691a4.918,4.918,0,0,1-4.4-1.567c-.279-.311-.723.161-.446.471a5.511,5.511,0,0,0,4.859,1.745.335.335,0,0,0,.315-.333A.326.326,0,0,0,734.8,619.691Z" transform="translate(-614.487 -451.759)" fill="#fff"/>
  <ellipse id="Ellipse_2921" data-name="Ellipse 2921" cx="2.676" cy="2.735" rx="2.676" ry="2.735" transform="translate(321.622)" fill="#3f3d56"/>
  <ellipse id="Ellipse_2922" data-name="Ellipse 2922" cx="2.676" cy="2.735" rx="2.676" ry="2.735" transform="translate(312.38)" fill="#3f3d56"/>
  <ellipse id="Ellipse_2923" data-name="Ellipse 2923" cx="2.676" cy="2.735" rx="2.676" ry="2.735" transform="translate(303.137)" fill="#3f3d56"/>
  <path id="Path_82899" data-name="Path 82899" d="M593.341,153.511h6.568a.5.5,0,1,0,0-.995h-6.567a.5.5,0,1,0,0,.995Z" transform="translate(-431.016 -151.838)" fill="#3f3d56"/>
  <path id="Path_82900" data-name="Path 82900" d="M593.341,158.754h6.568a.5.5,0,1,0,0-.995h-6.567a.5.5,0,1,0,0,.995Z" transform="translate(-431.016 -155.216)" fill="#3f3d56"/>
  <path id="Path_82901" data-name="Path 82901" d="M593.341,164h6.568a.5.5,0,1,0,0-.995h-6.567a.5.5,0,1,0,0,.995Z" transform="translate(-431.016 -158.594)" fill="#3f3d56"/>
  <path id="Path_82902" data-name="Path 82902" d="M131.3,178.321H309.16a.356.356,0,0,0,0-.711H131.3a.356.356,0,0,0,0,.711Z" transform="translate(24.176 -168.006)" fill="#cacaca"/>
  <rect id="Rectangle_17288" data-name="Rectangle 17288" width="37.556" height="3.087" rx="1.543" transform="translate(226.609 83.239)" fill="#2ac6b0"/>
  <rect id="Rectangle_17289" data-name="Rectangle 17289" width="52.219" height="3.087" rx="1.543" transform="translate(219.278 89.412)" fill="#e6e6e6"/>
  <rect id="Rectangle_17290" data-name="Rectangle 17290" width="52.219" height="3.087" rx="1.543" transform="translate(219.278 95.586)" fill="#e6e6e6"/>
  <rect id="Rectangle_17291" data-name="Rectangle 17291" width="37.556" height="3.087" rx="1.543" transform="translate(225.542 34.506)" fill="#2ac6b0"/>
  <rect id="Rectangle_17292" data-name="Rectangle 17292" width="52.219" height="3.087" rx="1.543" transform="translate(218.211 40.68)" fill="#e6e6e6"/>
  <rect id="Rectangle_17293" data-name="Rectangle 17293" width="52.219" height="3.087" rx="1.543" transform="translate(218.211 46.854)" fill="#e6e6e6"/>
  <path id="Path_82903" data-name="Path 82903" d="M646.053,542.083h4.559l2.169-17.586h-6.729Z" transform="translate(-548.896 -337.929)" fill="#9e616a"/>
  <path id="Path_82904" data-name="Path 82904" d="M758.387,728.35h3.235l.577-3.054,1.479,3.054h8.58a1.929,1.929,0,0,0,1.1-3.516L766.5,720.1v-3.088l-7.207.43Z" transform="translate(-663.683 -515.539)" fill="#2f2e41"/>
  <path id="Path_82905" data-name="Path 82905" d="M744.258,532.978l4.037,2.119,10.1-14.562-5.958-3.128Z" transform="translate(-689.438 -333.362)" fill="#9e616a"/>
  <path id="Path_82906" data-name="Path 82906" d="M889.881,713.408l2.864,1.5,1.931-2.436-.11,3.392,7.6,3.989a1.929,1.929,0,0,0,2.6-2.6l-3.867-7.375,1.435-2.734-6.581-2.97Z" transform="translate(-841.257 -507.267)" fill="#2f2e41"/>
  <path id="Path_82907" data-name="Path 82907" d="M770.473,234.976v14.6a41.985,41.985,0,0,0-10.342-1.421,39.4,39.4,0,0,0-7.3.608q-1.8.315-3.65.812c-2.583-5.43-3.4-10.473,0-14.6A8.82,8.82,0,0,1,758,226.155h3.649a8.82,8.82,0,0,1,8.821,8.823Z" transform="translate(-655.891 -199.283)" fill="#2f2e41"/>
  <path id="Path_82908" data-name="Path 82908" d="M819.132,582.587l22.326-38.766a2.319,2.319,0,0,0-.025-2.341l-9.505-15.842a2.317,2.317,0,0,0-4.166.4l-19.188,51.592a2.308,2.308,0,0,0,1.187,2.881l6.368,3.016a2.3,2.3,0,0,0,.983.221A2.328,2.328,0,0,0,819.132,582.587Z" transform="translate(-749.059 -391.512)" fill="#2f2e41"/>
  <path id="Path_82909" data-name="Path 82909" d="M786.535,509.634l9.441-1.089a2.317,2.317,0,0,0,2.031-2.607L789.581,442.5a1.8,1.8,0,0,1,.035-.662l8.469-34.941a2.29,2.29,0,0,0-.362-1.888c-1.313-1.811-5.813-6.03-19.2-6.11h-.014a2.325,2.325,0,0,0-2.115,1.359l-1.786,3.928a1.809,1.809,0,0,1-.6.728c-2.458,1.74-14.363,11.5-7.372,32.942,6.871,21.071,15.674,61.977,17.369,69.963a2.3,2.3,0,0,0,2.259,1.835A2.363,2.363,0,0,0,786.535,509.634Z" transform="translate(-689.81 -310.578)" fill="#2f2e41"/>
  <ellipse id="Ellipse_2924" data-name="Ellipse 2924" cx="9.43" cy="9.43" rx="9.43" ry="9.43" transform="translate(98.326 29.855)" fill="#9e616a"/>
  <path id="Path_82910" data-name="Path 82910" d="M755.746,339.81l-.1-1.4c.073-.037.146-.076.222-.122,4.231-2.454,9.6-15.042,12.97-23.949a10.221,10.221,0,0,0-4.848-12.677h0a.494.494,0,0,1-.208-.174l-15.56-2.953a.494.494,0,0,0-.212-.037l-9.533.46a5.848,5.848,0,0,0-5.418,4.531l-3.1,26.16c-.011.047.122.57.1.612l-.229.394c-.289.5-1.013,3.864-1.695,5.078C729.619,340.247,749.12,339.074,755.746,339.81Z" transform="translate(-648.227 -245.891)" fill="#e4e4e4"/>
  <path id="Path_82911" data-name="Path 82911" d="M673.555,193.818l-3.65,13.688,6.692,10.342-3.042-10.342Z" transform="translate(-581.196 -124.875)" opacity="0.1"/>
  <path id="Path_82912" data-name="Path 82912" d="M754.989,420.166,741.6,429.9l-4.563-2.129,10.038-8.517Z" transform="translate(-636.891 -323.695)" fill="#9e616a"/>
  <path id="Path_82913" data-name="Path 82913" d="M727.182,336.025,720.794,348.5l16.73,2.433s-1.825-35.589-2.738-38.023a14.8,14.8,0,0,0-1.908-3.213,5.332,5.332,0,0,0-5.7-1.958h0Z" transform="translate(-613.647 -251.721)" fill="#e4e4e4"/>
  <ellipse id="Ellipse_2925" data-name="Ellipse 2925" cx="3.954" cy="3.954" rx="3.954" ry="3.954" transform="translate(96.939 103.526)" fill="#9e616a"/>
  <path id="Path_82914" data-name="Path 82914" d="M641.874,439.378l81.188-8.431a4.718,4.718,0,0,1,5.18,4.206l2.028,19.526a4.718,4.718,0,0,1-4.206,5.18l-1.192.124-6.141.638-73.856,7.669a4.718,4.718,0,0,1-5.18-4.206l-2.028-19.526A4.718,4.718,0,0,1,641.874,439.378Z" transform="translate(-576.841 -331.212)" fill="#cacaca"/>
  <path id="Path_82915" data-name="Path 82915" d="M647.044,470.246l81.188-8.431a2.326,2.326,0,0,0,2.071-2.551l-2.028-19.526a2.327,2.327,0,0,0-2.552-2.071l-61.662,6.4a21.98,21.98,0,0,0-19.569,24.105A2.326,2.326,0,0,0,647.044,470.246Z" transform="translate(-579.256 -335.55)" fill="#fff"/>
  <rect id="Rectangle_17294" data-name="Rectangle 17294" width="37.556" height="3.087" rx="1.543" transform="translate(125.229 111.742) rotate(174.071)" fill="#2ac6b0"/>
  <rect id="Rectangle_17295" data-name="Rectangle 17295" width="52.219" height="3.087" rx="1.543" transform="translate(133.159 117.125) rotate(174.071)" fill="#e6e6e6"/>
  <rect id="Rectangle_17296" data-name="Rectangle 17296" width="52.219" height="3.087" rx="1.543" transform="translate(133.797 123.266) rotate(174.071)" fill="#e6e6e6"/>
  <path id="Path_82916" data-name="Path 82916" d="M788.664,414.123,798.7,422.64l-4.563,2.129-13.384-9.734Z" transform="translate(-696.154 -320.389)" fill="#9e616a"/>
  <path id="Path_82917" data-name="Path 82917" d="M810.766,302.606h0a5.332,5.332,0,0,0-5.7,1.958,14.807,14.807,0,0,0-1.908,3.213c-.912,2.433-2.738,38.023-2.738,38.023l16.73-2.433-6.388-12.471Z" transform="translate(-721.602 -248.416)" fill="#e4e4e4"/>
  <ellipse id="Ellipse_2926" data-name="Ellipse 2926" cx="3.954" cy="3.954" rx="3.954" ry="3.954" transform="translate(97.851 101.701)" fill="#9e616a"/>
  <path id="Path_82918" data-name="Path 82918" d="M745.411,232.141H734.461v5.171h-1.217v15.31a39.4,39.4,0,0,1,7.3-.608,28.5,28.5,0,0,1-1.088-9.53h9.451a5.547,5.547,0,0,0,.408-2.861,5.764,5.764,0,0,1,1.174,2.861h5.264A10.342,10.342,0,0,0,745.411,232.141Z" transform="translate(-636.305 -203.14)" fill="#2f2e41"/>
  <path id="Path_82919" data-name="Path 82919" d="M419.384,747.433a.422.422,0,0,0,.423.423H650.052a.423.423,0,1,0,0-.847H419.806a.422.422,0,0,0-.422.423Z" transform="translate(-419.384 -534.866)" fill="#cacaca"/>
  <ellipse id="Ellipse_2927" data-name="Ellipse 2927" cx="5.336" cy="5.336" rx="5.336" ry="5.336" transform="translate(300.465 37.016)" fill="#f0f0f0"/>
  <ellipse id="Ellipse_2928" data-name="Ellipse 2928" cx="5.336" cy="5.336" rx="5.336" ry="5.336" transform="translate(300.465 87.504)" fill="#f0f0f0"/>
  <ellipse id="Ellipse_2929" data-name="Ellipse 2929" cx="5.336" cy="5.336" rx="5.336" ry="5.336" transform="translate(162.095 105.645)" fill="#f0f0f0"/>
</svg>
