<svg xmlns="http://www.w3.org/2000/svg" width="112.229" height="103.878" viewBox="0 0 112.229 103.878"><g transform="translate(-23.833 -31.584)"><path d="M111.577,71.433H101.255a1.347,1.347,0,0,1-1.347-1.347V65.631a1.347,1.347,0,0,1,1.347-1.347h10.322a1.347,1.347,0,0,1,1.347,1.347v4.456A1.347,1.347,0,0,1,111.577,71.433ZM102.6,68.74h7.629V66.977H102.6Z" transform="translate(-35.094 -15.085)" fill="#a58bc9"/><path d="M111.848,95.738H97.764a1.347,1.347,0,1,1,0-2.693h14.084a1.347,1.347,0,0,1,0,2.693Z" transform="translate(-33.483 -28.352)" fill="#a58bc9"/><path d="M112.713,104.093H86.591a1.347,1.347,0,0,1,0-2.693h26.122a1.347,1.347,0,0,1,0,2.693Z" transform="translate(-28.329 -32.206)" fill="#a58bc9"/><path d="M112.713,122.022H86.591a1.347,1.347,0,0,1,0-2.693h26.122a1.347,1.347,0,0,1,0,2.693Z" transform="translate(-28.329 -40.477)" fill="#a58bc9"/><path d="M112.713,130.557H86.591a1.347,1.347,0,1,1,0-2.693h26.122a1.347,1.347,0,1,1,0,2.693Z" transform="translate(-28.329 -44.414)" fill="#a58bc9"/><path d="M199.747,156.69H182.234a6.43,6.43,0,0,1-6.422-6.423v-35.79a6.429,6.429,0,0,1,6.422-6.423h17.513a6.43,6.43,0,0,1,6.423,6.423v35.79a6.43,6.43,0,0,1-6.423,6.423Zm-17.513-45.943a3.733,3.733,0,0,0-3.729,3.729v35.79A3.733,3.733,0,0,0,182.234,154h17.513a3.734,3.734,0,0,0,3.729-3.729v-35.79a3.734,3.734,0,0,0-3.729-3.729Z" transform="translate(-70.109 -35.276)" fill="#a58bc9"/><path d="M203.245,186.093h-5.7a1.347,1.347,0,1,1,0-2.693h5.7a1.347,1.347,0,0,1,0,2.693Z" transform="translate(-79.514 -70.033)" fill="#a58bc9"/><path d="M113.994,98.1a1.347,1.347,0,0,0,1.347-1.347v-45.6a1.347,1.347,0,0,0-1.347-1.347H70.031a1.347,1.347,0,0,0-1.347,1.347v45.6a1.347,1.347,0,1,0,2.693,0V69.991h41.27V96.754a1.347,1.347,0,0,0,1.347,1.347ZM71.377,67.3V52.5h41.27V67.3Z" transform="translate(-20.69 -8.407)" fill="#846f75"/><path d="M94.733,120.067v-5.916a6.15,6.15,0,0,0-6.141-6.141H78.025V95.7h23.949a1.347,1.347,0,1,0,0-2.693H26.526V34.277h89.592V69.049a1.347,1.347,0,1,0,2.693,0V32.931a1.347,1.347,0,0,0-1.347-1.347H25.18a1.347,1.347,0,0,0-1.347,1.347V94.358A1.347,1.347,0,0,0,25.18,95.7H64.62v12.3H54.055a6.15,6.15,0,0,0-6.141,6.141v5.916a1.347,1.347,0,0,0,1.347,1.347H93.388A1.347,1.347,0,0,0,94.733,120.067ZM75.332,95.7v13.651a4.009,4.009,0,1,1-8.019,0V95.7Zm16.708,23.016H50.605v-4.569a3.454,3.454,0,0,1,3.448-3.448h10.7a6.7,6.7,0,0,0,13.134,0h10.7a3.453,3.453,0,0,1,3.448,3.448Z" transform="translate(0 0)" fill="#846f75"/><path d="M161.348,200.823a1.347,1.347,0,0,0-1.9,0l-5.025,5.025a1.347,1.347,0,1,0,1.9,1.9l2.726-2.726v5.63H112.182v-6.775a1.347,1.347,0,0,0-2.693,0V212a1.347,1.347,0,0,0,1.347,1.347H160.4A1.347,1.347,0,0,0,161.742,212v-6.977l2.726,2.726a1.347,1.347,0,1,0,1.9-1.9Z" transform="translate(-39.514 -77.889)" fill="#846f75"/><path d="M195.322,132.8a10.121,10.121,0,1,0,10.121,10.121A10.121,10.121,0,0,0,195.322,132.8Zm0,17.549a7.428,7.428,0,1,1,7.428-7.428,7.428,7.428,0,0,1-7.428,7.428Z" transform="translate(-74.44 -46.694)" fill="#846f75"/><path d="M199.32,152.4h-.067a1.347,1.347,0,0,1-.976-.492l-2.31-2.823a1.347,1.347,0,1,1,2.085-1.705l1.368,1.67,3.183-3.183a1.347,1.347,0,1,1,1.9,1.9l-4.236,4.236A1.347,1.347,0,0,1,199.32,152.4Z" transform="translate(-79.266 -52.539)" fill="#a58bc9"/></g></svg>