<svg xmlns="http://www.w3.org/2000/svg" width="89" height="103.534" viewBox="0 0 89 103.534"><g transform="translate(-63.848 -31)"><path d="M67.352,186.754a3.5,3.5,0,1,1,3.5-3.5,3.5,3.5,0,0,1-3.5,3.5Zm0-4.448a.946.946,0,1,0,.946.946.946.946,0,0,0-.946-.946Z" transform="translate(-0.001 -72.696)" fill="#ebe7f2"/><path d="M182.352,186.754a3.5,3.5,0,1,1,3.5-3.5,3.5,3.5,0,0,1-3.5,3.5Zm0-4.448a.946.946,0,1,0,.946.946.946.946,0,0,0-.946-.946Z" transform="translate(-56.203 -72.696)" fill="#ebe7f2"/><path d="M118.644,132.494a1.317,1.317,0,0,1-.231-.021,1.278,1.278,0,0,1-1.028-1.487l2.268-12.4-.448-.333a1.278,1.278,0,0,1-.517-1.026V113.64a1.278,1.278,0,1,1,2.556,0v2.941l.57.423a1.278,1.278,0,0,1,.5,1.256L119.9,131.445A1.278,1.278,0,0,1,118.644,132.494Z" transform="translate(-26.154 -39.763)" fill="#fb8e0b"/><path d="M132.865,132.494a1.278,1.278,0,0,1-1.257-1.053l-2.369-13.184a1.278,1.278,0,0,1,.42-1.191l.488-.424v-3a1.278,1.278,0,1,1,2.556,0v3.585a1.278,1.278,0,0,1-.44.965l-.38.33,2.24,12.469a1.278,1.278,0,0,1-1.259,1.5Z" transform="translate(-31.948 -39.763)" fill="#fb8e0b"/><path d="M151.358,177.223H144.99a1.278,1.278,0,1,1,0-2.556h6.368a1.278,1.278,0,0,1,0,2.556Z" transform="translate(-39.031 -70.212)" fill="#fb8e0b"/><path d="M202.885,135.188l.153-.032a4.192,4.192,0,0,0,2.155-1.092,3.753,3.753,0,0,0,1.1-2.794,3.972,3.972,0,0,0-.424-1.877,3.858,3.858,0,0,0-1.255-1.367,10.3,10.3,0,0,0-2.414-1.089,5.6,5.6,0,0,1-1.979-.994,1.527,1.527,0,0,1-.446-1.2,1.667,1.667,0,0,1,.506-1.3,2.171,2.171,0,0,1,1.534-.492,1.853,1.853,0,0,1,1.5.607,2.4,2.4,0,0,1,.547,1.38,1.157,1.157,0,0,0,2.3-.215,4.53,4.53,0,0,0-.974-2.563,3.818,3.818,0,0,0-2.121-1.274l-.148-.035v-.792a1.081,1.081,0,1,0-2.161,0v.786l-.153.033a4.047,4.047,0,0,0-2.079,1.1,3.815,3.815,0,0,0-1.068,2.786,3.77,3.77,0,0,0,.976,2.667,6.957,6.957,0,0,0,3.054,1.655,5.535,5.535,0,0,1,2.029,1.043,1.538,1.538,0,0,1,.449,1.16,1.579,1.579,0,0,1-.573,1.278,2.464,2.464,0,0,1-1.644.524,2.51,2.51,0,0,1-1.814-.607,2.035,2.035,0,0,1-.6-1.311,1.161,1.161,0,0,0-2.309.243,4.177,4.177,0,0,0,1.119,2.542,4.364,4.364,0,0,0,2.422,1.222l.157.028v.578a1.077,1.077,0,1,0,2.153,0Z" transform="translate(-65.086 -42.994)" fill="#ae0e18"/><path d="M128.374,137.3a1.278,1.278,0,0,0-1.278,1.278v13.549h-8.721V130.808a1.278,1.278,0,1,0-2.556,0v31.13c-4.459,3.63-10.853,5.788-17.788,6.007v-20.68l12.51-16.112a1.278,1.278,0,0,0-.2-1.769l-1.943-1.6,3.208-1.463a1.278,1.278,0,0,0,.7-.818l3.825-13.567h3.572a1.278,1.278,0,1,0,0-2.556H107.187v-3.461a1.278,1.278,0,0,0-1.779-1.176l-8.763,3.737-8.763-3.737a1.278,1.278,0,0,0-1.779,1.176v3.461H73.793a9.957,9.957,0,0,0-9.945,9.945V162a6.916,6.916,0,0,0,13.272,2.726c5.1,3.7,12.086,5.8,19.523,5.8h.211c7.438,0,14.427-2.1,19.523-5.8A6.916,6.916,0,0,0,129.65,162V138.579A1.278,1.278,0,0,0,128.374,137.3ZM88.755,127.294a1.278,1.278,0,0,0-.737-1l-4.526-2.065-3.47-12.3h6.413l9.038,29.7V143.1l-9.731-12.535,2.56-2.116A1.278,1.278,0,0,0,88.755,127.294Zm21.256-3.061-4.527,2.065a1.278,1.278,0,0,0-.284,2.147l2.559,2.116L98.028,143.1V141.63l8.833-29.7h6.617ZM88.659,107.847l7.485,3.192a1.278,1.278,0,0,0,1,0l7.485-3.192v2.619l-7.894,26.541-8.078-26.545ZM73.793,111.93h3.57L81.189,125.5a1.278,1.278,0,0,0,.7.818l3.208,1.463-1.943,1.6a1.278,1.278,0,0,0-.2,1.769L95.47,147.268v20.676c-6.937-.219-13.33-2.376-17.789-6.007V130.806a1.278,1.278,0,0,0-2.556,0v21.321H66.406V119.319A7.4,7.4,0,0,1,73.793,111.93Zm-3.027,54.43A4.365,4.365,0,0,1,66.406,162v-7.315h8.721V162a4.366,4.366,0,0,1-4.361,4.361Zm51.967,0a4.365,4.365,0,0,1-4.36-4.361v-7.315H127.1V162a4.366,4.366,0,0,1-4.361,4.361Z" transform="translate(0 -35.986)" fill="#090a2a"/><path d="M190.529,104.635A16.276,16.276,0,1,0,206.8,120.91,16.276,16.276,0,0,0,190.529,104.635Zm0,29.994a13.719,13.719,0,1,1,13.719-13.719,13.719,13.719,0,0,1-13.719,13.719Z" transform="translate(-53.957 -35.987)" fill="#fb8e0b"/><path d="M109.184,70.369A19.684,19.684,0,1,0,89.5,50.684,19.684,19.684,0,0,0,109.184,70.369Zm0-2.556A17.157,17.157,0,0,1,92.409,54.147a19.812,19.812,0,0,0,8.255-10.273,19.562,19.562,0,0,0,17.041,0,19.815,19.815,0,0,0,8.255,10.273A17.157,17.157,0,0,1,109.184,67.812ZM126.3,51.3a17.23,17.23,0,0,1-6.328-8.7,19.659,19.659,0,0,0,2.848-2.268,17.039,17.039,0,0,1,3.5,10.353C126.312,50.889,126.3,51.093,126.3,51.3Zm-5.175-12.879a17.107,17.107,0,0,1-23.874,0A17.086,17.086,0,0,1,121.122,38.419Zm-25.57,1.912A19.678,19.678,0,0,0,98.4,42.6a17.237,17.237,0,0,1-6.328,8.7c-.008-.2-.016-.409-.016-.614a17.036,17.036,0,0,1,3.5-10.354Z" transform="translate(-12.537 0)" fill="#090a2a"/><path d="M126.923,86.625H120.34a1.278,1.278,0,0,0,0,2.556h6.583a1.278,1.278,0,1,0,0-2.556Z" transform="translate(-26.984 -27.185)" fill="#727272"/><path d="M113.269,69H110.84a1.278,1.278,0,1,0,0,2.556h2.429a1.278,1.278,0,1,0,0-2.556Z" transform="translate(-22.341 -18.571)" fill="#727272"/><path d="M140.395,69h-2.429a1.278,1.278,0,0,0,0,2.556h2.429a1.278,1.278,0,1,0,0-2.556Z" transform="translate(-35.598 -18.571)" fill="#727272"/></g></svg>