<svg xmlns="http://www.w3.org/2000/svg" width="124.829" height="100.355" viewBox="0 0 124.829 100.355"><g transform="translate(-14.489 -36.748)"><path d="M48.576,146.729a1.375,1.375,0,0,1-1.375-1.375v-7.842a2.326,2.326,0,0,0-2.323-2.323H38.022a2.326,2.326,0,0,0-2.323,2.323v7.842a1.375,1.375,0,1,1-2.749,0v-7.842a5.078,5.078,0,0,1,5.072-5.073h6.856a5.078,5.078,0,0,1,5.072,5.073v7.842A1.375,1.375,0,0,1,48.576,146.729Z" transform="translate(-8.31 -43.073)" fill="#65c1d6"/><path d="M42.922,124.648a6.514,6.514,0,1,1,6.513-6.514,6.514,6.514,0,0,1-6.513,6.514Zm0-10.279a3.765,3.765,0,1,0,3.765,3.765,3.765,3.765,0,0,0-3.765-3.765Z" transform="translate(-9.865 -33.701)" fill="#65c1d6"/><path d="M131.072,63.879H131a1.375,1.375,0,0,1-1-.5l-2.056-2.513a1.375,1.375,0,1,1,2.128-1.741l1.094,1.337,2.694-2.694a1.375,1.375,0,1,1,1.944,1.944l-3.77,3.769A1.375,1.375,0,0,1,131.072,63.879Z" transform="translate(-50.932 -9.279)" fill="#65c1d6"/><path d="M131.072,128.645H131a1.379,1.379,0,0,1-1-.5l-2.056-2.514a1.375,1.375,0,1,1,2.128-1.741l1.094,1.338,2.694-2.694a1.375,1.375,0,1,1,1.944,1.944l-3.77,3.769A1.375,1.375,0,0,1,131.072,128.645Z" transform="translate(-50.932 -38.432)" fill="#65c1d6"/><path d="M131.072,193.412H131a1.375,1.375,0,0,1-1-.5l-2.056-2.513a1.375,1.375,0,0,1,2.128-1.741l1.094,1.337,2.694-2.694a1.375,1.375,0,1,1,1.944,1.944l-3.77,3.77A1.375,1.375,0,0,1,131.072,193.412Z" transform="translate(-50.932 -67.585)" fill="#65c1d6"/><path d="M66.428,65.876h71.514a1.375,1.375,0,0,0,1.375-1.375V38.123a1.375,1.375,0,0,0-1.375-1.375H66.428a1.375,1.375,0,0,0-1.375,1.375V49.937H63.365a7.128,7.128,0,0,0-7.119,7.119V85.551H51.562a18.562,18.562,0,1,0,0,2.749h4.683v28.495a7.128,7.128,0,0,0,7.119,7.119h1.689v11.814a1.375,1.375,0,0,0,1.375,1.375h71.514a1.375,1.375,0,0,0,1.375-1.375V109.35a1.375,1.375,0,0,0-1.375-1.375H66.428a1.375,1.375,0,0,0-1.375,1.375v11.815H63.365a4.375,4.375,0,0,1-4.37-4.37V88.3h6.059v11.814a1.375,1.375,0,0,0,1.375,1.375h71.514a1.375,1.375,0,0,0,1.375-1.375V73.737a1.375,1.375,0,0,0-1.375-1.375H66.428a1.375,1.375,0,0,0-1.375,1.375V85.551H58.995V57.056a4.375,4.375,0,0,1,4.37-4.37h1.689V64.5A1.375,1.375,0,0,0,66.428,65.876ZM33.057,102.738A15.813,15.813,0,1,1,48.869,86.926,15.813,15.813,0,0,1,33.057,102.738ZM67.8,110.725h68.765v23.629H67.8Zm0-35.613h68.765V98.74H67.8Zm0-35.614h68.765V63.126H67.8Z" transform="translate(0)" fill="#846f75"/><path d="M127.7,46.31a9.183,9.183,0,1,0,9.183,9.183A9.183,9.183,0,0,0,127.7,46.31Zm0,15.617a6.434,6.434,0,1,1,6.434-6.434,6.434,6.434,0,0,1-6.434,6.434Z" transform="translate(-46.827 -4.304)" fill="#846f75"/><path d="M161.618,56.692h15.656a1.375,1.375,0,1,0,0-2.749H161.618a1.375,1.375,0,0,0,0,2.749Z" transform="translate(-65.607 -7.74)" fill="#846f75"/><path d="M196.226,66.3H161.618a1.375,1.375,0,0,0,0,2.749h34.608a1.375,1.375,0,0,0,0-2.749Z" transform="translate(-65.607 -13.302)" fill="#846f75"/><path d="M127.7,129.446a9.183,9.183,0,1,0-9.183-9.183A9.183,9.183,0,0,0,127.7,129.446Zm0-15.617a6.434,6.434,0,1,1-6.434,6.434,6.434,6.434,0,0,1,6.434-6.434Z" transform="translate(-46.827 -33.458)" fill="#846f75"/><path d="M161.618,121.459h15.656a1.375,1.375,0,1,0,0-2.749H161.618a1.375,1.375,0,1,0,0,2.749Z" transform="translate(-65.607 -36.893)" fill="#846f75"/><path d="M161.618,133.818h34.608a1.375,1.375,0,0,0,0-2.749H161.618a1.375,1.375,0,0,0,0,2.749Z" transform="translate(-65.607 -42.456)" fill="#846f75"/><path d="M127.7,175.842a9.183,9.183,0,1,0,9.183,9.183,9.183,9.183,0,0,0-9.183-9.183Zm0,15.619a6.434,6.434,0,1,1,6.434-6.434,6.434,6.434,0,0,1-6.434,6.434Z" transform="translate(-46.827 -62.609)" fill="#846f75"/><path d="M161.618,186.226h15.656a1.375,1.375,0,1,0,0-2.749H161.618a1.375,1.375,0,1,0,0,2.749Z" transform="translate(-65.607 -66.046)" fill="#846f75"/><path d="M196.226,195.835H161.618a1.375,1.375,0,0,0,0,2.749h34.608a1.375,1.375,0,0,0,0-2.749Z" transform="translate(-65.607 -71.608)" fill="#846f75"/></g></svg>