<svg xmlns="http://www.w3.org/2000/svg" width="16.55" height="16.55" viewBox="0 0 16.55 16.55"><path d="M10.275,7.792a2.482,2.482,0,1,0,2.482,2.482A2.482,2.482,0,0,0,10.275,7.792Zm0-1.655a4.137,4.137,0,1,1-4.137,4.137A4.137,4.137,0,0,1,10.275,6.137Zm5.379-.207A1.034,1.034,0,1,1,14.619,4.9,1.034,1.034,0,0,1,15.653,5.931ZM10.275,3.655c-2.047,0-2.381.006-3.334.048a4.5,4.5,0,0,0-1.488.275A2.582,2.582,0,0,0,3.977,5.453,4.489,4.489,0,0,0,3.7,6.941c-.043.914-.048,1.233-.048,3.334,0,2.047.006,2.381.048,3.334A4.513,4.513,0,0,0,3.977,15.1a2.573,2.573,0,0,0,1.475,1.475,4.5,4.5,0,0,0,1.489.276c.914.043,1.233.048,3.334.048,2.047,0,2.381-.006,3.334-.048a4.522,4.522,0,0,0,1.487-.274,2.417,2.417,0,0,0,.894-.581,2.392,2.392,0,0,0,.583-.894,4.524,4.524,0,0,0,.275-1.489c.043-.914.048-1.233.048-3.334,0-2.047-.006-2.381-.048-3.334a4.5,4.5,0,0,0-.275-1.488,2.409,2.409,0,0,0-.582-.894,2.386,2.386,0,0,0-.894-.583A4.493,4.493,0,0,0,13.609,3.7C12.7,3.66,12.376,3.655,10.275,3.655Zm0-1.655c2.248,0,2.529.008,3.411.05a6.1,6.1,0,0,1,2.009.385,4.034,4.034,0,0,1,1.466.954,4.061,4.061,0,0,1,.954,1.466A6.113,6.113,0,0,1,18.5,6.864c.039.882.05,1.163.05,3.411s-.008,2.529-.05,3.411a6.117,6.117,0,0,1-.385,2.009,4.225,4.225,0,0,1-2.42,2.42,6.113,6.113,0,0,1-2.009.385c-.882.039-1.163.05-3.411.05s-2.529-.008-3.411-.05a6.117,6.117,0,0,1-2.009-.385,4.225,4.225,0,0,1-2.42-2.42,6.091,6.091,0,0,1-.385-2.009C2.011,12.8,2,12.523,2,10.275s.008-2.529.05-3.411a6.091,6.091,0,0,1,.385-2.009,4.038,4.038,0,0,1,.954-1.466,4.052,4.052,0,0,1,1.466-.954A6.091,6.091,0,0,1,6.864,2.05C7.746,2.011,8.027,2,10.275,2Z" transform="translate(-2 -2)" fill="#1a1c52"/></svg>