<svg xmlns="http://www.w3.org/2000/svg" width="24" height="24" viewBox="0 0 24 24"><g opacity="0.6"><g fill="#740d0d" stroke="rgba(0,0,0,0)" stroke-width="1" opacity="0"><rect width="24" height="24" stroke="none"/><rect x="0.5" y="0.5" width="23" height="23" fill="none"/></g><path d="M19,6H17A5,5,0,0,0,7,6H5A2.006,2.006,0,0,0,3,8V20a2.006,2.006,0,0,0,2,2H19a2.006,2.006,0,0,0,2-2V8a2.006,2.006,0,0,0-2-2M12,3a2.946,2.946,0,0,1,3,3H9a2.946,2.946,0,0,1,3-3m7,17H5V8H19V20m-7-8A2.946,2.946,0,0,1,9,9H7A5,5,0,0,0,17,9H15A2.946,2.946,0,0,1,12,12Z" transform="translate(0 1)" fill="#740d0d"/></g></svg>