<svg xmlns="http://www.w3.org/2000/svg" width="24" height="24" viewBox="0 0 24 24"><g transform="translate(-707 -5597)" opacity="0.6"><g transform="translate(707 5597)" fill="#fb8e0b" stroke="rgba(0,0,0,0)" stroke-width="1" opacity="0"><rect width="24" height="24" stroke="none"/><rect x="0.5" y="0.5" width="23" height="23" fill="none"/></g><path d="M9,2V8h2v3H5a1.993,1.993,0,0,0-2,2v3H1v6H7V16H5V13h6v3H9v6h6V16H13V13h6v3H17v6h6V16H21V13a1.993,1.993,0,0,0-2-2H13V8h2V2Z" transform="translate(707 5597)" fill="#fb8e0b"/></g></svg>