<svg xmlns="http://www.w3.org/2000/svg" xmlns:xlink="http://www.w3.org/1999/xlink" width="104" height="104" viewBox="0 0 104 104"><defs><linearGradient id="a" x1="-0.037" y1="1.146" x2="1.009" y2="0.049" gradientUnits="objectBoundingBox"><stop offset="0" stop-color="#fff200"/><stop offset="1" stop-color="#cd118c"/></linearGradient></defs><path d="M73.067,29.733H100.8a5.2,5.2,0,0,0,5.2-5.2v-10.4a5.2,5.2,0,0,0-5.2-5.2H92.133V7.2a5.2,5.2,0,0,0-5.2-5.2H69.6a1.733,1.733,0,0,0-1.733,1.733V15.867H60.933A1.733,1.733,0,0,0,59.2,17.6V49.119a5.2,5.2,0,0,0-3.148,3.148H54V48.8a5.2,5.2,0,0,0-5.2-5.2V40.133a5.2,5.2,0,0,0,5.2-5.2v-10.4a5.2,5.2,0,0,0-5.2-5.2H7.2a5.2,5.2,0,0,0-5.2,5.2v10.4a5.2,5.2,0,0,0,5.2,5.2V43.6A5.2,5.2,0,0,0,2,48.8V59.2a5.2,5.2,0,0,0,5.2,5.2v3.467a5.2,5.2,0,0,0-5.2,5.2v10.4a5.2,5.2,0,0,0,5.2,5.2H48.8a5.2,5.2,0,0,0,5.2-5.2v-10.4a5.2,5.2,0,0,0-5.2-5.2V64.4A5.2,5.2,0,0,0,54,59.2V55.733h2.052A5.2,5.2,0,0,0,59.2,58.881V95.6a1.733,1.733,0,0,0,1.733,1.733h6.933V100.8a5.2,5.2,0,0,0,5.2,5.2H100.8a5.2,5.2,0,0,0,5.2-5.2V90.4a5.2,5.2,0,0,0-5.2-5.2H92.133V83.467a5.2,5.2,0,0,0-5.2-5.2H69.6A1.733,1.733,0,0,0,67.867,80V93.867h-5.2V58.881a5.2,5.2,0,0,0,3.148-3.148h2.052V59.2a5.2,5.2,0,0,0,5.2,5.2H100.8a5.2,5.2,0,0,0,5.2-5.2V48.8a5.2,5.2,0,0,0-5.2-5.2H92.133V41.867a5.2,5.2,0,0,0-5.2-5.2H69.6A1.733,1.733,0,0,0,67.867,38.4V52.267H65.814a5.2,5.2,0,0,0-3.148-3.148V19.333h5.2v5.2A5.2,5.2,0,0,0,73.067,29.733Zm-67.6,5.2v-10.4A1.733,1.733,0,0,1,7.2,22.8H48.8a1.733,1.733,0,0,1,1.733,1.733v10.4A1.733,1.733,0,0,1,48.8,36.667H7.2A1.733,1.733,0,0,1,5.467,34.933Zm5.2,5.2H45.333V43.6H10.667ZM50.533,73.067v10.4A1.733,1.733,0,0,1,48.8,85.2H7.2a1.733,1.733,0,0,1-1.733-1.733v-10.4A1.733,1.733,0,0,1,7.2,71.333H48.8A1.733,1.733,0,0,1,50.533,73.067Zm-5.2-5.2H10.667V64.4H45.333Zm5.2-8.667A1.733,1.733,0,0,1,48.8,60.933H7.2A1.733,1.733,0,0,1,5.467,59.2V48.8A1.733,1.733,0,0,1,7.2,47.067H48.8A1.733,1.733,0,0,1,50.533,48.8Zm52,31.2v10.4a1.733,1.733,0,0,1-1.733,1.733H73.067a1.733,1.733,0,0,1-1.733-1.733V88.667H100.8A1.733,1.733,0,0,1,102.533,90.4Zm-31.2-8.667h15.6a1.733,1.733,0,0,1,1.733,1.733V85.2H71.333Zm31.2-32.933V59.2a1.733,1.733,0,0,1-1.733,1.733H73.067A1.733,1.733,0,0,1,71.333,59.2V47.067H100.8A1.733,1.733,0,0,1,102.533,48.8Zm-31.2-8.667h15.6a1.733,1.733,0,0,1,1.733,1.733V43.6H71.333Zm31.2-26v10.4a1.733,1.733,0,0,1-1.733,1.733H73.067a1.733,1.733,0,0,1-1.733-1.733V12.4H100.8A1.733,1.733,0,0,1,102.533,14.133Zm-31.2-8.667h15.6A1.733,1.733,0,0,1,88.667,7.2V8.933H71.333Z" transform="translate(-2 -2)" fill="url(#a)"/></svg>