<svg xmlns="http://www.w3.org/2000/svg" width="20" height="20" viewBox="0 0 20 20"><g opacity="0.6"><g stroke="rgba(0,0,0,0)" stroke-width="1" opacity="0"><rect width="20" height="20" stroke="none"/><rect x="0.5" y="0.5" width="19" height="19" fill="none"/></g><path d="M15,2a.917.917,0,0,0-1,.8V5.2H10A1.827,1.827,0,0,0,8,6.8v9.6A1.827,1.827,0,0,0,10,18h5a1.827,1.827,0,0,0,2-1.6V6.8a1.556,1.556,0,0,0-1-1.376V2.8A.917.917,0,0,0,15,2M10,6.8h5v4H10v-4m0,5.6h1v.8H10v-.8m2,0h1v.8H12v-.8m2,0h1v.8H14v-.8M10,14h1v.8H10V14m2,0h1v.8H12V14m2,0h1v.8H14V14m-4,1.6h1v.8H10v-.8m2,0h1v.8H12v-.8m2,0h1v.8H14Z" transform="translate(-2.133)"/></g></svg>