<svg xmlns="http://www.w3.org/2000/svg" width="128.719" height="81.232" viewBox="0 0 128.719 81.232"><g transform="translate(-238.258 -147.532)"><path d="M360.192,221.048c9.9-2.577,17.157-11,17.157-21,0-11.012-8.808-20.116-20.25-21.6.011-.332.02-.664.02-1,0-16.525-14.456-29.921-32.287-29.921-15.2,0-27.94,9.73-31.374,22.834a10.645,10.645,0,0,0-6.713-2.291c-4.881,0-8.923,3.066-9.631,7.067a219.509,219.509,0,0,1-15.472-16.356C310.253,236.6,388.884,248.8,381.681,198.977,380.274,214.264,372.06,220.769,360.192,221.048Z" transform="translate(-15.167)" fill="#1889bf" fill-rule="evenodd"/><path d="M256.835,243.61c13.746,17.035,29.9,30.928,49.123,40.817l-48.768-.078q-.222,0-.445,0a18.142,18.142,0,1,1,0-36.278l.128,0Z" transform="translate(0 -62.317)" fill="#6b6d71" fill-rule="evenodd"/><path d="M3.257,0H35.73a3.256,3.256,0,0,1,3.256,3.256V5.5A3.257,3.257,0,0,1,35.73,8.753H3.256A3.256,3.256,0,0,1,0,5.5V3.257A3.257,3.257,0,0,1,3.257,0Z" transform="translate(289.435 178.389)" fill="#fff"/><path d="M3.257,0H35.73a3.256,3.256,0,0,1,3.256,3.256V5.5a3.257,3.257,0,0,1-3.257,3.257H3.256A3.256,3.256,0,0,1,0,5.5V3.257A3.257,3.257,0,0,1,3.257,0Z" transform="translate(289.435 190.09)" fill="#fff"/><path d="M3.256,0H35.73a3.256,3.256,0,0,1,3.256,3.256V5.5A3.257,3.257,0,0,1,35.73,8.753H3.256A3.256,3.256,0,0,1,0,5.5V3.256A3.256,3.256,0,0,1,3.256,0Z" transform="translate(289.435 201.969)" fill="#fff"/><rect width="2.144" height="4.779" transform="translate(321.991 180.376)" fill="#1889bf"/><rect width="2.144" height="4.779" transform="translate(321.991 192.076)" fill="#1889bf"/><rect width="2.144" height="4.779" transform="translate(321.991 203.956)" fill="#1889bf"/><rect width="2.144" height="4.779" transform="translate(316.051 180.376)" fill="#1889bf"/><rect width="2.144" height="4.779" transform="translate(316.051 192.076)" fill="#1889bf"/><rect width="2.144" height="4.779" transform="translate(316.051 203.956)" fill="#1889bf"/><rect width="1.295" height="4.779" transform="translate(319.334 180.376)" fill="#1889bf"/><rect width="1.295" height="4.779" transform="translate(319.334 192.076)" fill="#1889bf"/><rect width="1.295" height="4.779" transform="translate(319.334 203.956)" fill="#1889bf"/><path d="M402.272,246.524a1.509,1.509,0,1,0-1.563-1.508A1.539,1.539,0,0,0,402.272,246.524Z" transform="translate(-105.367 -62.251)" fill="#1889bf" fill-rule="evenodd"/><path d="M402.272,279.822a1.509,1.509,0,1,0-1.563-1.508A1.539,1.539,0,0,0,402.272,279.822Z" transform="translate(-105.367 -83.848)" fill="#1889bf" fill-rule="evenodd"/><path d="M402.272,313.628a1.509,1.509,0,1,0-1.563-1.509A1.54,1.54,0,0,0,402.272,313.628Z" transform="translate(-105.367 -105.774)" fill="#1889bf" fill-rule="evenodd"/></g></svg>