<svg xmlns="http://www.w3.org/2000/svg" width="310.66" height="349.448" viewBox="0 0 310.66 349.448"><g transform="translate(-133.067 -109.304)"><rect width="310.66" height="349.448" transform="translate(133.067 109.304)" fill="#fff"/><path d="M378.708,357.531v1.645a2.3,2.3,0,0,0,2.3,2.3h40.652a2.3,2.3,0,0,0,2.3-2.3v-1.645Z" transform="translate(-43.761 -44.222)" fill="#313133" fill-rule="evenodd"/><path d="M419.592,353.858a2.9,2.9,0,0,1-2.9,2.9H387.065a2.9,2.9,0,0,1-2.9-2.9l-2.414-19.95a2.9,2.9,0,0,1,2.895-2.9h34.461a2.9,2.9,0,0,1,2.893,2.9Z" transform="translate(-44.304 -39.497)" fill="#3b3c3e" fill-rule="evenodd"/><path d="M411.256,346.161c0,2.446-2.867,4.426-6.4,4.426s-6.4-1.98-6.4-4.426,2.865-4.427,6.4-4.427S411.256,343.717,411.256,346.161Z" transform="translate(-47.278 -41.407)" fill="#c7c9cb" fill-rule="evenodd"/><path d="M246.561,408.788H217.937a2.215,2.215,0,0,1-2.213-2.217v-5.354A2.214,2.214,0,0,1,217.937,399h28.623Z" transform="translate(-14.725 -51.609)" fill="#edeeef" fill-rule="evenodd"/><path d="M215.724,399.127V399h.151C215.823,399.041,215.772,399.083,215.724,399.127Z" transform="translate(-14.725 -51.609)" fill="#d6d7d9" fill-rule="evenodd"/><path d="M246.76,400.2H216.842a1.557,1.557,0,0,1,.648-.314h29.27Z" transform="translate(-14.925 -51.767)" fill="#cccdcf" fill-rule="evenodd"/><path d="M246.651,401.088H216.23a1.59,1.59,0,0,1,.143-.313h30.278Z" transform="translate(-14.815 -51.925)" fill="#cccdcf" fill-rule="evenodd"/><path d="M246.634,401.976h-30.5v-.24c0-.025,0-.05,0-.076h30.5Z" transform="translate(-14.798 -52.083)" fill="#cccdcf" fill-rule="evenodd"/><rect width="30.499" height="0.312" transform="translate(201.336 350.308)" fill="#cccdcf"/><rect width="30.499" height="0.313" transform="translate(201.336 351.036)" fill="#cccdcf"/><rect width="30.499" height="0.312" transform="translate(201.336 351.765)" fill="#cccdcf"/><rect width="30.499" height="0.314" transform="translate(201.336 352.494)" fill="#cccdcf"/><rect width="30.499" height="0.312" transform="translate(201.336 353.223)" fill="#cccdcf"/><rect width="30.499" height="0.314" transform="translate(201.336 353.951)" fill="#cccdcf"/><rect width="30.499" height="0.314" transform="translate(201.336 354.679)" fill="#cccdcf"/><path d="M246.645,409.068H216.319a1.584,1.584,0,0,1-.121-.313h30.447Z" transform="translate(-14.81 -53.347)" fill="#cccdcf" fill-rule="evenodd"/><path d="M246.738,409.956H217.194a1.575,1.575,0,0,1-.473-.314h30.017Z" transform="translate(-14.903 -53.505)" fill="#cccdcf" fill-rule="evenodd"/><path d="M215.768,410.9h-.044v-.038Z" transform="translate(-14.725 -53.723)" fill="#d6d7d9" fill-rule="evenodd"/><path d="M246.663,408.055H217.424a1.574,1.574,0,0,1-1.57-1.57v-5.354a1.574,1.574,0,0,1,1.57-1.571h29.239v-1.292H217.424a2.863,2.863,0,0,0-2.862,2.863v5.354a2.862,2.862,0,0,0,2.862,2.862h29.239Z" transform="translate(-14.518 -51.479)" fill="#0d988c" fill-rule="evenodd"/><path d="M242.94,395.941H214.315a2.216,2.216,0,0,1-2.216-2.217v-2.113a2.215,2.215,0,0,1,2.216-2.215H242.94Z" transform="translate(-14.08 -49.898)" fill="#edeeef" fill-rule="evenodd"/><path d="M212.237,391.086H212.1v-.314h.284A2.318,2.318,0,0,0,212.237,391.086Z" transform="translate(-14.08 -50.143)" fill="#d6d7d9" fill-rule="evenodd"/><path d="M242.97,391.086h-30.7a2.32,2.32,0,0,1,.145-.314H242.97Z" transform="translate(-14.109 -50.143)" fill="#cccdcf" fill-rule="evenodd"/><path d="M212.1,391.971h0v-.314h.029A2.332,2.332,0,0,0,212.1,391.971Z" transform="translate(-14.08 -50.301)" fill="#d6d7d9" fill-rule="evenodd"/><path d="M242.94,391.971H212.1a2.475,2.475,0,0,1,.029-.314H242.94Z" transform="translate(-14.08 -50.301)" fill="#cccdcf" fill-rule="evenodd"/><rect width="30.84" height="0.315" transform="translate(198.02 342.085)" fill="#cccdcf"/><rect width="30.84" height="0.314" transform="translate(198.02 342.814)" fill="#cccdcf"/><path d="M212.1,394.693h0v0Z" transform="translate(-14.08 -50.837)" fill="#d6d7d9" fill-rule="evenodd"/><path d="M242.94,394.632H212.1v-.314H242.94Z" transform="translate(-14.08 -50.775)" fill="#cccdcf" fill-rule="evenodd"/><path d="M212.232,395.518H212.1v-.313h.045A2.316,2.316,0,0,0,212.232,395.518Z" transform="translate(-14.08 -50.933)" fill="#d6d7d9" fill-rule="evenodd"/><path d="M242.95,395.518H212.242a2.314,2.314,0,0,1-.088-.313h30.8Z" transform="translate(-14.089 -50.933)" fill="#cccdcf" fill-rule="evenodd"/><path d="M212.673,396.4H212.1v-.314h.336A2.155,2.155,0,0,0,212.673,396.4Z" transform="translate(-14.08 -51.091)" fill="#d6d7d9" fill-rule="evenodd"/><path d="M243.013,396.4H212.746a2.157,2.157,0,0,1-.238-.314h30.5Z" transform="translate(-14.152 -51.091)" fill="#cccdcf" fill-rule="evenodd"/><path d="M242.94,397.292H212.1v-.313h1.08a2.2,2.2,0,0,0,1.136.313H242.94v0Z" transform="translate(-14.08 -51.249)" fill="#d6d7d9" fill-rule="evenodd"/><path d="M243.174,397.292H214.549a2.2,2.2,0,0,1-1.136-.313h29.761Z" transform="translate(-14.314 -51.249)" fill="#cccdcf" fill-rule="evenodd"/><path d="M243.039,395.208H213.8a1.573,1.573,0,0,1-1.571-1.569v-2.112a1.573,1.573,0,0,1,1.571-1.57h29.239v-1.293H213.8a2.864,2.864,0,0,0-2.863,2.863v2.112A2.864,2.864,0,0,0,213.8,396.5h29.239Z" transform="translate(-13.873 -49.768)" fill="#ec411b" fill-rule="evenodd"/><path d="M246.507,419.158h-37a2.215,2.215,0,0,1-2.215-2.215v-2.112a2.215,2.215,0,0,1,2.215-2.216h37Z" transform="translate(-13.224 -54.035)" fill="#edeeef" fill-rule="evenodd"/><path d="M207.435,414.3H207.3v-.312h.284A2.3,2.3,0,0,0,207.435,414.3Z" transform="translate(-13.224 -54.279)" fill="#d6d7d9" fill-rule="evenodd"/><path d="M246.537,414.3H207.465a2.3,2.3,0,0,1,.145-.312h38.927Z" transform="translate(-13.254 -54.279)" fill="#cccdcf" fill-rule="evenodd"/><path d="M207.3,415.189h0v-.315h.029A2.209,2.209,0,0,0,207.3,415.189Z" transform="translate(-13.224 -54.437)" fill="#d6d7d9" fill-rule="evenodd"/><path d="M246.507,415.189H207.3a2.209,2.209,0,0,1,.029-.315h39.182Z" transform="translate(-13.224 -54.437)" fill="#cccdcf" fill-rule="evenodd"/><rect width="39.21" height="0.313" transform="translate(194.073 361.167)" fill="#cccdcf"/><rect width="39.21" height="0.312" transform="translate(194.073 361.897)" fill="#cccdcf"/><path d="M207.3,417.91h0v0Z" transform="translate(-13.224 -54.973)" fill="#d6d7d9" fill-rule="evenodd"/><path d="M246.507,417.848H207.3v-.313h39.21Z" transform="translate(-13.224 -54.911)" fill="#cccdcf" fill-rule="evenodd"/><path d="M207.43,418.736H207.3v-.314h.044A2.216,2.216,0,0,0,207.43,418.736Z" transform="translate(-13.224 -55.069)" fill="#d6d7d9" fill-rule="evenodd"/><path d="M246.517,418.736H207.44a2.216,2.216,0,0,1-.089-.314h39.166Z" transform="translate(-13.234 -55.069)" fill="#cccdcf" fill-rule="evenodd"/><path d="M207.869,419.622H207.3v-.313h.335A2.317,2.317,0,0,0,207.869,419.622Z" transform="translate(-13.224 -55.227)" fill="#d6d7d9" fill-rule="evenodd"/><path d="M246.58,419.622H207.942a2.317,2.317,0,0,1-.237-.313H246.58Z" transform="translate(-13.297 -55.227)" fill="#cccdcf" fill-rule="evenodd"/><path d="M246.507,420.508H207.3V420.2h1.077a2.209,2.209,0,0,0,1.137.313h37v0Z" transform="translate(-13.224 -55.385)" fill="#d6d7d9" fill-rule="evenodd"/><path d="M246.741,420.508h-37a2.209,2.209,0,0,1-1.137-.313h38.133Z" transform="translate(-13.458 -55.385)" fill="#cccdcf" fill-rule="evenodd"/><path d="M246.607,418.427H209a1.571,1.571,0,0,1-1.568-1.571v-2.113A1.567,1.567,0,0,1,209,413.175h37.609v-1.293H209a2.86,2.86,0,0,0-2.861,2.861v2.113A2.863,2.863,0,0,0,209,419.72h37.609Z" transform="translate(-13.017 -53.904)" fill="#3f0e0c" fill-rule="evenodd"/><path d="M222.464,408.55l-1.74-1.6-1.741,1.6v-6h3.481Z" transform="translate(-15.306 -52.241)" fill="#e82727" fill-rule="evenodd"/><path d="M1.915,0H17.664A1.916,1.916,0,0,1,19.58,1.916V31.192a1.915,1.915,0,0,1-1.915,1.915H1.915A1.915,1.915,0,0,1,0,31.191V1.915A1.915,1.915,0,0,1,1.915,0Z" transform="translate(269.493 371.957)" fill="#6d6f72"/><path d="M317,428.515H300.573a1.885,1.885,0,0,0-1.885,1.884v29.957a1.886,1.886,0,0,0,1.885,1.884H317a1.885,1.885,0,0,0,1.883-1.884V430.4A1.885,1.885,0,0,0,317,428.515Zm0,.62a1.264,1.264,0,0,1,1.264,1.264v29.957A1.266,1.266,0,0,1,317,461.621H300.573a1.266,1.266,0,0,1-1.266-1.265V430.4a1.265,1.265,0,0,1,1.266-1.264Z" transform="translate(-29.505 -56.867)" fill="#e3136b" fill-rule="evenodd"/><rect width="16.001" height="26.57" transform="translate(271.283 374.575)" fill="#e0e1e3"/><path d="M301.244,458.647v-26.57h16Z" transform="translate(-29.961 -57.502)" fill="#fff" fill-rule="evenodd"/><path d="M311.934,466.091a1.222,1.222,0,1,1-1.22-1.222A1.22,1.22,0,0,1,311.934,466.091Z" transform="translate(-31.43 -63.344)" fill="#262b3a" fill-rule="evenodd"/><path d="M452.583,288.992a15.9,15.9,0,1,1,15.9-15.905A15.924,15.924,0,0,1,452.583,288.992Z" transform="translate(-54.088 -26.345)" fill="#edeeef" fill-rule="evenodd"/><path d="M452.38,256.042a16.842,16.842,0,1,0,16.843,16.841,16.862,16.862,0,0,0-16.843-16.841Zm0,1.876a14.965,14.965,0,1,1-14.967,14.965A14.966,14.966,0,0,1,452.38,257.918Z" transform="translate(-53.885 -26.141)" fill="#e82727" fill-rule="evenodd"/><rect width="1.439" height="10.043" transform="translate(397.819 237.374)" fill="#e82727"/><rect width="12.189" height="1.437" transform="translate(397.819 245.98)" fill="#464749"/><path d="M456.559,260.783a.676.676,0,1,1-.675-.674A.675.675,0,0,1,456.559,260.783Z" transform="translate(-57.389 -26.866)" fill="#464749" fill-rule="evenodd"/><path d="M456.559,291.995a.676.676,0,1,1-.675-.675A.675.675,0,0,1,456.559,291.995Z" transform="translate(-57.389 -32.426)" fill="#464749" fill-rule="evenodd"/><path d="M471.49,277.063a.675.675,0,1,1,.675-.675A.672.672,0,0,1,471.49,277.063Z" transform="translate(-60.17 -29.646)" fill="#464749" fill-rule="evenodd"/><path d="M440.279,277.063a.675.675,0,1,1,.674-.675A.674.674,0,0,1,440.279,277.063Z" transform="translate(-54.609 -29.646)" fill="#464749" fill-rule="evenodd"/><path d="M442.917,267.679a.674.674,0,1,1-.925.224A.674.674,0,0,1,442.917,267.679Z" transform="translate(-55.017 -28.197)" fill="#464749" fill-rule="evenodd"/><path d="M469.554,283.946a.674.674,0,1,1-.928.224A.678.678,0,0,1,469.554,283.946Z" transform="translate(-59.762 -31.095)" fill="#464749" fill-rule="evenodd"/><path d="M464.594,263.422a.675.675,0,1,1-.224-.927A.674.674,0,0,1,464.594,263.422Z" transform="translate(-58.839 -27.273)" fill="#464749" fill-rule="evenodd"/><path d="M448.327,290.059a.675.675,0,1,1-.225-.926A.675.675,0,0,1,448.327,290.059Z" transform="translate(-55.94 -32.019)" fill="#464749" fill-rule="evenodd"/><path d="M448.87,262.43a.675.675,0,1,1-.918-.26A.677.677,0,0,1,448.87,262.43Z" transform="translate(-56.035 -27.218)" fill="#464749" fill-rule="evenodd"/><path d="M464.075,289.688a.675.675,0,1,1-.916-.26A.677.677,0,0,1,464.075,289.688Z" transform="translate(-58.744 -32.074)" fill="#464749" fill-rule="evenodd"/><path d="M469.842,269.375a.675.675,0,1,1,.261-.917A.674.674,0,0,1,469.842,269.375Z" transform="translate(-59.818 -28.291)" fill="#464749" fill-rule="evenodd"/><path d="M442.583,284.581a.675.675,0,1,1,.261-.918A.674.674,0,0,1,442.583,284.581Z" transform="translate(-54.961 -31)" fill="#464749" fill-rule="evenodd"/><path d="M2.908,0H51.731a2.912,2.912,0,0,1,2.912,2.912V29.7A2.908,2.908,0,0,1,51.735,32.6H2.908A2.908,2.908,0,0,1,0,29.7V2.908A2.908,2.908,0,0,1,2.908,0Z" transform="translate(179.432 256.661)" fill="#96999c"/><path d="M231.883,330.388H208.5l4.864-20.852h13.653Z" transform="translate(-13.439 -35.671)" fill="#c7c9cb" fill-rule="evenodd"/><rect width="30.059" height="2.108" transform="translate(191.724 294.591)" fill="#96999c"/><rect width="1.279" height="3.072" transform="translate(183.819 283.93)" fill="#464749"/><rect width="1.282" height="3.072" transform="translate(185.95 283.93)" fill="#464749"/><rect width="1.281" height="3.072" transform="translate(188.084 283.93)" fill="#464749"/><rect width="1.281" height="3.072" transform="translate(190.219 283.93)" fill="#464749"/><rect width="1.28" height="3.072" transform="translate(192.352 283.93)" fill="#464749"/><rect width="1.282" height="4.609" transform="translate(219.059 282.393)" fill="#464749"/><rect width="1.281" height="4.609" transform="translate(221.192 282.393)" fill="#464749"/><rect width="1.28" height="4.609" transform="translate(223.327 282.393)" fill="#464749"/><rect width="1.28" height="3.072" transform="translate(225.461 283.93)" fill="#464749"/><rect width="1.28" height="3.072" transform="translate(227.594 283.93)" fill="#464749"/><rect width="39.333" height="24.503" rx="1.758" transform="translate(291.136 166.726)" fill="#5a1f0b"/><path d="M1.758,0H37.576a1.758,1.758,0,0,1,1.758,1.758V8.735a1.758,1.758,0,0,1-1.758,1.758H1.759A1.759,1.759,0,0,1,0,8.734V1.758A1.758,1.758,0,0,1,1.758,0Z" transform="translate(291.136 166.726)" fill="#7f3317"/><path d="M351.494,196.983a2.765,2.765,0,1,1-5.529,0V186.6a2.765,2.765,0,1,1,5.529,0Z" transform="translate(-37.928 -13.277)" fill="#7f3317" fill-rule="evenodd"/><path d="M345.731,197.8a.558.558,0,0,1-.57-.544v-1.83a.559.559,0,0,1,.57-.546h5.478a.56.56,0,0,1,.571.546v1.83a.56.56,0,0,1-.571.545v.652a1.211,1.211,0,0,0,1.222-1.2v-1.83a1.21,1.21,0,0,0-1.222-1.2h-5.478a1.21,1.21,0,0,0-1.22,1.2v1.83a1.209,1.209,0,0,0,1.22,1.2Z" transform="translate(-37.669 -15.129)" fill="#ffae00" fill-rule="evenodd"/><path d="M351.348,194.937a.23.23,0,0,1-.245.21h-4.536a.23.23,0,0,1-.245-.21v-.782a.229.229,0,0,1,.245-.21H351.1a.229.229,0,0,1,.245.21Z" transform="translate(-37.991 -15.079)" fill="#fa8a06" fill-rule="evenodd"/><path d="M349.86,196.653a.677.677,0,1,1-.676-.677A.677.677,0,0,1,349.86,196.653Z" transform="translate(-38.38 -15.441)" fill="#401300" fill-rule="evenodd"/><path d="M349.834,196.627h-.121a.557.557,0,1,1-.556-.556.557.557,0,0,1,.556.556h.241a.8.8,0,1,0-.8.8.8.8,0,0,0,.8-.8Z" transform="translate(-38.354 -15.414)" fill="#818386" fill-rule="evenodd"/><path d="M349.86,192.074a.677.677,0,1,1-.676-.677A.677.677,0,0,1,349.86,192.074Z" transform="translate(-38.38 -14.625)" fill="#401300" fill-rule="evenodd"/><path d="M349.834,192.048h-.121a.557.557,0,1,1-.556-.557.557.557,0,0,1,.556.557h.241a.8.8,0,1,0-.8.8.8.8,0,0,0,.8-.8Z" transform="translate(-38.354 -14.599)" fill="#818386" fill-rule="evenodd"/><path d="M349.86,200.114a.677.677,0,1,1-.676-.678A.678.678,0,0,1,349.86,200.114Z" transform="translate(-38.38 -16.057)" fill="#401300" fill-rule="evenodd"/><path d="M349.834,200.088h-.121a.557.557,0,1,1-.556-.557.558.558,0,0,1,.556.557h.241a.8.8,0,1,0-.8.8.8.8,0,0,0,.8-.8Z" transform="translate(-38.354 -16.031)" fill="#818386" fill-rule="evenodd"/><path d="M349.6,196.665c0,.192-.062.347-.346.347-.315,0-.348-.155-.348-.347v-1.45a.347.347,0,0,1,.694,0Z" transform="translate(-38.452 -15.243)" fill="#4e4f51" fill-rule="evenodd"/><path d="M1.28,0H9.737a1.281,1.281,0,0,1,1.281,1.281v8.974a1.281,1.281,0,0,1-1.281,1.281H1.28A1.28,1.28,0,0,1,0,10.257V1.28A1.28,1.28,0,0,1,1.28,0Z" transform="translate(317.052 178.513)" fill="#7f3317"/><path d="M367.263,204.319a.9.9,0,0,1-.279.2l-.03.081.081.03a1.03,1.03,0,0,0,.317-.224l0-.087-.087,0Zm-.613.278h-.366l-.061.062.061.062h.371l.058-.064-.064-.059Zm-.734,0h-.368l-.062.062.062.062h.368l.062-.062-.062-.062Zm-.736,0h-.368l-.062.062.062.062h.368l.061-.062-.061-.062Zm-.737,0h-.368l-.062.062.062.062h.368l.062-.062-.062-.062Zm-.736,0h-.368l-.062.062.062.062h.368l.062-.062-.062-.062Zm-.736,0H362.6l-.061.062.061.062h.369l.061-.062-.061-.062Zm-.737,0h-.368l-.062.062.062.062h.368l.062-.062-.062-.062Zm-.736,0h-.368l-.062.062.062.062h.368l.061-.062-.061-.062Zm-.737,0h-.368l-.062.062.062.062h.368l.062-.062-.062-.062Zm-.736,0h-.368l-.062.062.062.062h.368l.062-.062-.062-.062Zm-.736,0h-.369l-.061.062.061.062h.369l.061-.062-.061-.062Zm-.737,0h-.1a.913.913,0,0,1-.247-.034l-.076.041.042.076a1.027,1.027,0,0,0,.281.039h.1l.062-.062-.062-.062Zm-.653-.19a.9.9,0,0,1-.226-.258l-.084-.022-.022.085a1.031,1.031,0,0,0,.256.293l.086-.011-.011-.086Zm-.339-.581-.009-.132v-.227l-.062-.061-.062.061v.227l.011.15.07.052.051-.07Zm-.009-.727v-.368l-.062-.061-.062.061v.368l.062.062.062-.062Zm0-.736v-.368l-.062-.062-.062.062v.368l.062.062.062-.062Zm0-.737v-.368l-.062-.062-.062.062v.368l.062.062.062-.062Zm0-.736v-.368l-.062-.062-.062.062v.368l.062.061.062-.061Zm0-.736v-.369l-.062-.061-.062.061v.369l.062.061.062-.061Zm0-.737v-.368l-.062-.062-.062.062v.368l.062.061.062-.061Zm0-.737v-.367l-.062-.062-.062.062v.367l.062.062.062-.062Zm0-.736v-.368l-.062-.062-.062.062v.368l.062.062.062-.062Zm0-.736v-.368l-.062-.062-.062.062v.368l.062.061.062-.061Zm0-.736V196.1l-.062-.062-.062.062v.368l.062.061.062-.061Zm0-.737v-.368l-.062-.061-.062.061v.368l.062.062.062-.062Zm0-.732a.886.886,0,0,1,.087-.332l-.029-.081-.082.029a1.033,1.033,0,0,0-.1.376l.058.066.065-.058Zm.292-.607a.888.888,0,0,1,.292-.179l.036-.079-.079-.036a1.006,1.006,0,0,0-.332.2l0,.086.087,0Zm.631-.237h.368l.062-.061-.062-.062h-.368l-.062.062.062.061Zm.736,0h.369l.061-.061-.061-.062h-.369l-.061.062.061.061Zm.737,0h.368l.062-.061-.062-.062h-.368l-.062.062.062.061Zm.736,0h.368l.062-.061-.062-.062h-.368l-.061.062.061.061Zm.737,0h.368l.061-.061-.061-.062h-.368l-.062.062.062.061Zm.736,0h.368l.062-.061-.062-.062h-.368l-.062.062.062.061Zm.736,0h.369l.061-.061-.061-.062h-.369l-.061.062.061.061Zm.737,0H364l.062-.061-.062-.062h-.368l-.062.062.062.061Zm.736,0h.368l.062-.061-.062-.062h-.368l-.062.062.062.061Zm.737,0h.368l.061-.061-.061-.062H365.1l-.062.062.062.061Zm.736,0h.368l.062-.061-.062-.062h-.368l-.062.062.062.061Zm.736,0h.036a.887.887,0,0,1,.3.053l.079-.038-.037-.078a1.032,1.032,0,0,0-.347-.06h-.036l-.061.062.061.061Zm.636.228a.889.889,0,0,1,.208.272l.082.027.028-.082a1.024,1.024,0,0,0-.237-.309l-.086,0,0,.087Zm.3.6,0,.072v.292l.061.062.062-.062v-.292l0-.081-.066-.057-.057.067Zm0,.731v.369l.061.061.062-.061v-.369l-.062-.061-.061.061Zm0,.737v.368l.061.061.062-.061v-.368l-.062-.062-.061.062Zm0,.736v.368l.061.061.062-.061v-.368l-.062-.062-.061.062Zm0,.736v.368l.061.062.062-.062v-.368l-.062-.061-.061.061Zm0,.737v.368l.061.061.062-.061v-.368l-.062-.062-.061.062Zm0,.736v.368l.061.062.062-.062V199.4l-.062-.062-.061.062Zm0,.736v.369l.061.061.062-.061v-.369l-.062-.061-.061.061Zm0,.737v.368l.061.062.062-.062v-.368l-.062-.062-.061.062Zm0,.736v.369l.061.061.062-.061v-.369l-.062-.061-.061.061Zm0,.737v.368l.061.062.062-.062v-.368l-.062-.062-.061.062Zm0,.736v.368l.061.062.062-.062v-.368l-.062-.061-.061.061Zm0,.608a.9.9,0,0,1-.065.337l.035.08.08-.034a1.037,1.037,0,0,0,.073-.383l-.062-.061Z" transform="translate(-39.969 -15.095)" fill="#ffae00" fill-rule="evenodd"/><path d="M357.123,197.426v-2.91a.814.814,0,0,1,.812-.812h8.913a.814.814,0,0,1,.811.812v2.91a.241.241,0,1,0,.482,0v-2.91a1.293,1.293,0,0,0-1.293-1.294h-8.913a1.293,1.293,0,0,0-1.294,1.294v2.91a.241.241,0,1,0,.482,0Z" transform="translate(-39.83 -14.95)" fill="#3c1000" fill-rule="evenodd"/><path d="M357.335,196.4h-.121a.466.466,0,1,1-.467-.467.468.468,0,0,1,.467.467h.241a.707.707,0,1,0-.708.708.708.708,0,0,0,.708-.708Z" transform="translate(-39.723 -15.39)" fill="#818386" fill-rule="evenodd"/><path d="M357.5,197.958s-.212-.845-.321-1.226c-.03-.1-.086-.19-.193-.19h-.413c-.107,0-.164.09-.193.19-.075.247-.215.8-.282,1.069l-.03.114-.011.043,0,.025,0,.051v1.319a.719.719,0,0,0,1.437,0v-1.319l0-.03Z" transform="translate(-39.726 -15.541)" fill="#a54220" fill-rule="evenodd"/><path d="M1.28,0H9.738a1.28,1.28,0,0,1,1.28,1.28v8.975a1.281,1.281,0,0,1-1.281,1.281H1.281A1.281,1.281,0,0,1,0,10.255V1.28A1.28,1.28,0,0,1,1.28,0Z" transform="translate(294.256 178.513)" fill="#7f3317"/><path d="M339.525,204.319a.907.907,0,0,1-.279.2l-.031.081.081.03a1.05,1.05,0,0,0,.318-.225l0-.087-.086,0Zm-.613.278h-.366l-.062.062.062.062h.371l.058-.064-.064-.059Zm-.734,0h-.368l-.062.062.062.062h.368l.062-.062-.062-.062Zm-.736,0h-.369l-.061.062.061.062h.369l.061-.062-.061-.062Zm-.737,0h-.368l-.062.062.062.062h.368l.062-.062-.062-.062Zm-.736,0H335.6l-.062.062.062.062h.368l.061-.062-.061-.062Zm-.737,0h-.368l-.062.062.062.062h.368l.062-.062-.062-.062Zm-.736,0h-.368l-.062.062.062.062h.368l.062-.062-.062-.062Zm-.736,0h-.369l-.061.062.061.062h.369l.061-.062-.061-.062Zm-.737,0h-.368l-.062.062.062.062h.368l.062-.062-.062-.062Zm-.736,0h-.368l-.062.062.062.062h.368l.061-.062-.061-.062Zm-.737,0h-.368l-.062.062.062.062h.368l.062-.062-.062-.062Zm-.736,0h-.1a.912.912,0,0,1-.247-.034l-.076.042.042.076a1.027,1.027,0,0,0,.281.039h.1l.061-.062-.061-.062Zm-.653-.189a.919.919,0,0,1-.226-.258l-.084-.023-.022.085a1.045,1.045,0,0,0,.256.293l.086-.011-.011-.086Zm-.339-.582-.01-.132v-.227l-.062-.061-.061.061v.227l.011.15.07.052.052-.07Zm-.01-.727v-.368l-.062-.061-.061.061v.368l.061.062.062-.062Zm0-.736v-.368l-.062-.062-.061.062v.368l.061.062.062-.062Zm0-.737v-.368l-.062-.062-.061.062v.368l.061.062.062-.062Zm0-.736v-.368l-.062-.062-.061.062v.368l.061.061.062-.061Zm0-.736v-.369l-.062-.061-.061.061v.369l.061.061.062-.061Zm0-.737v-.368l-.062-.062-.061.062v.368l.061.061.062-.061Zm0-.737v-.367l-.062-.062-.061.062v.367l.061.062.062-.062Zm0-.736v-.368l-.062-.062-.061.062v.368l.061.062.062-.062Zm0-.736v-.368l-.062-.062-.061.062v.368l.061.061.062-.061Zm0-.736V196.1l-.062-.062-.061.062v.368l.061.061.062-.061Zm0-.737v-.368l-.062-.061-.061.061v.368l.061.062.062-.062Zm0-.732a.9.9,0,0,1,.087-.332l-.029-.081-.082.028a1.041,1.041,0,0,0-.1.377l.058.066.065-.058Zm.291-.607a.892.892,0,0,1,.293-.179l.036-.08-.08-.036a1.052,1.052,0,0,0-.332.2l0,.087.086,0Zm.632-.237h.368l.062-.061-.062-.062h-.368l-.062.062.062.061Zm.736,0h.368l.062-.061-.062-.062h-.368l-.062.062.062.061Zm.737,0h.368l.061-.061-.061-.062h-.368l-.062.062.062.061Zm.736,0h.368l.062-.061-.062-.062h-.368l-.062.062.062.061Zm.736,0h.369l.061-.061-.061-.062h-.369l-.061.062.061.061Zm.737,0h.368l.062-.061-.062-.062h-.368l-.062.062.062.061Zm.736,0h.368l.062-.061-.062-.062h-.368l-.062.062.062.061Zm.737,0h.368l.061-.061-.061-.062h-.368l-.062.062.062.061Zm.736,0H337l.062-.061-.062-.062h-.368l-.062.062.062.061Zm.736,0h.369l.061-.061-.061-.062h-.369l-.061.062.061.061Zm.737,0h.368l.062-.061-.062-.062H338.1l-.062.062.062.061Zm.736,0h.035a.9.9,0,0,1,.306.053l.079-.038-.037-.078a1.037,1.037,0,0,0-.348-.06h-.035l-.062.062.062.061Zm.636.228a.9.9,0,0,1,.208.272l.082.027.028-.082a1.036,1.036,0,0,0-.237-.309l-.087,0,.006.087Zm.3.6,0,.072v.292l.061.062.062-.062v-.292l0-.081-.066-.057-.057.067Zm0,.731v.369l.061.061.062-.061v-.369l-.062-.061-.061.061Zm0,.737v.368l.061.061.062-.061v-.368l-.062-.062-.061.062Zm0,.736v.368l.061.061.062-.061v-.368l-.062-.062-.061.062Zm0,.736v.368l.061.062.062-.062v-.368l-.062-.061-.061.061Zm0,.737v.368l.061.061.062-.061v-.368l-.062-.062-.061.062Zm0,.736v.368l.061.062.062-.062V199.4l-.062-.062-.061.062Zm0,.736v.369l.061.061.062-.061v-.369l-.062-.061-.061.061Zm0,.737v.368l.061.062.062-.062v-.368l-.062-.062-.061.062Zm0,.736v.369l.061.061.062-.061v-.369l-.062-.061-.061.061Zm0,.737v.368l.061.062.062-.062v-.368l-.062-.062-.061.062Zm0,.736v.368l.061.062.062-.062v-.368l-.062-.061-.061.061Zm0,.608a.918.918,0,0,1-.065.337l.034.08.08-.034a1.022,1.022,0,0,0,.074-.383l-.062-.061Z" transform="translate(-35.028 -15.095)" fill="#ffae00" fill-rule="evenodd"/><path d="M329.385,197.426v-2.91a.814.814,0,0,1,.811-.812h8.913a.814.814,0,0,1,.812.812v2.91a.241.241,0,1,0,.482,0v-2.91a1.294,1.294,0,0,0-1.294-1.294H330.2a1.293,1.293,0,0,0-1.293,1.294v2.91a.241.241,0,1,0,.482,0Z" transform="translate(-34.888 -14.95)" fill="#3c1000" fill-rule="evenodd"/><path d="M329.6,196.4h-.12a.466.466,0,1,1-.466-.467.467.467,0,0,1,.466.467h.241a.707.707,0,1,0-.707.708.709.709,0,0,0,.707-.708Z" transform="translate(-34.781 -15.39)" fill="#818386" fill-rule="evenodd"/><path d="M329.761,197.958s-.213-.845-.322-1.226c-.028-.1-.085-.19-.193-.19h-.413c-.106,0-.162.09-.192.19-.075.247-.215.8-.283,1.069l-.028.114-.011.043,0,.025,0,.051v1.319a.718.718,0,1,0,1.437,0V198Z" transform="translate(-34.784 -15.541)" fill="#a54220" fill-rule="evenodd"/><rect width="17.671" height="1.027" transform="translate(301.967 165.699)" fill="#3c1000"/><path d="M341.195,177.2v-1.419a.359.359,0,0,1,.362-.353h12.089a.359.359,0,0,1,.362.353V177.2h1.566v-1.419a1.924,1.924,0,0,0-1.928-1.917H341.557a1.923,1.923,0,0,0-1.927,1.917V177.2Z" transform="translate(-36.799 -11.501)" fill="#7f3317" fill-rule="evenodd"/><path d="M292,262.606l.044.067a1.233,1.233,0,0,0,2.046-1.377l-.047-.07A1.233,1.233,0,1,0,292,262.606Zm3.311,5.6.036.071a1.233,1.233,0,0,0,2.2-1.122l-.039-.075a1.233,1.233,0,1,0-2.194,1.125Zm2.614,5.955.027.075a1.233,1.233,0,0,0,2.315-.85l-.03-.078a1.233,1.233,0,1,0-2.313.853Zm1.876,6.226.019.078a1.233,1.233,0,1,0,2.4-.564l-.019-.082a1.233,1.233,0,0,0-2.4.568Zm1.113,6.407.009.08a1.233,1.233,0,0,0,2.451-.272l-.009-.083a1.233,1.233,0,0,0-2.451.275Z" transform="translate(-28.276 -26.968)" fill="#818386" fill-rule="evenodd"/><path d="M238.209,341.09l-.078.02a1.233,1.233,0,0,0,.593,2.393l.081-.021a1.233,1.233,0,0,0-.6-2.392Zm-6.395,1.188-.08.01a1.233,1.233,0,1,0,.3,2.447l.083-.01a1.233,1.233,0,1,0-.3-2.447Zm-6.493.415h-.081a1.233,1.233,0,1,0,.008,2.466h.084a1.233,1.233,0,0,0-.012-2.466Zm-6.5-.354-.08-.01a1.233,1.233,0,0,0-.284,2.449l.084.01a1.233,1.233,0,1,0,.28-2.449Zm-6.4-1.128-.078-.019a1.233,1.233,0,0,0-.577,2.4l.082.02a1.233,1.233,0,0,0,.573-2.4Zm-6.225-1.891-.076-.029a1.233,1.233,0,1,0-.862,2.31l.08.03a1.233,1.233,0,0,0,.858-2.311Zm-5.951-2.629-.072-.037a1.232,1.232,0,1,0-1.134,2.189l.076.039a1.233,1.233,0,0,0,1.13-2.191Zm-5.592-3.325-.066-.045a1.233,1.233,0,1,0-1.388,2.038l.069.047a1.233,1.233,0,1,0,1.385-2.04ZM189.5,329.4l-.06-.053a1.233,1.233,0,1,0-1.622,1.857l.063.055a1.233,1.233,0,1,0,1.618-1.86Zm-4.643-4.554-.054-.06a1.232,1.232,0,0,0-1.83,1.651l.056.063a1.233,1.233,0,0,0,1.829-1.654Zm-4.067-5.075-.046-.065a1.233,1.233,0,0,0-2.015,1.421l.048.069a1.233,1.233,0,0,0,2.013-1.425Zm-3.431-5.521-.039-.071a1.233,1.233,0,1,0-2.17,1.17l.039.074a1.233,1.233,0,0,0,2.169-1.174Zm-2.743-5.891-.03-.075a1.233,1.233,0,1,0-2.295.9l.03.078a1.233,1.233,0,1,0,2.294-.9Zm-2.014-6.182-.021-.078a1.233,1.233,0,1,0-2.387.617l.021.081a1.233,1.233,0,0,0,2.386-.621Zm-1.254-6.38-.011-.08a1.233,1.233,0,1,0-2.444.325l.012.083a1.233,1.233,0,1,0,2.443-.329Zm-.482-6.485v-.08a1.233,1.233,0,1,0-2.466.033l0,.084a1.232,1.232,0,1,0,2.465-.037Zm.288-6.5.008-.08a1.233,1.233,0,1,0-2.452-.259l-.009.083a1.233,1.233,0,0,0,2.452.256Zm1.06-6.416.018-.079a1.233,1.233,0,0,0-2.4-.551l-.019.081a1.233,1.233,0,0,0,2.4.548Zm1.826-6.246.028-.076a1.233,1.233,0,0,0-2.319-.837l-.029.08a1.233,1.233,0,1,0,2.32.833Zm2.567-5.978.037-.072a1.233,1.233,0,1,0-2.2-1.11l-.038.075a1.233,1.233,0,0,0,2.2,1.108Zm3.267-5.626.045-.067a1.233,1.233,0,0,0-2.052-1.367l-.047.07a1.233,1.233,0,1,0,2.054,1.363Zm3.916-5.195.053-.061a1.233,1.233,0,0,0-1.875-1.6l-.054.064a1.233,1.233,0,1,0,1.876,1.6Zm4.507-4.691.059-.054a1.233,1.233,0,0,0-1.67-1.814l-.062.057a1.233,1.233,0,1,0,1.672,1.811Zm5.032-4.12.066-.047a1.233,1.233,0,0,0-1.442-2l-.068.049a1.232,1.232,0,0,0,1.445,2Zm5.487-3.488.071-.039a1.233,1.233,0,0,0-1.193-2.157l-.074.04a1.233,1.233,0,0,0,1.2,2.157Zm5.863-2.8.074-.03a1.233,1.233,0,0,0-.924-2.286l-.078.031a1.233,1.233,0,0,0,.928,2.284Z" transform="translate(-6.294 -22.542)" fill="#818386" fill-rule="evenodd"/><path d="M358.434,391.571l-.058-.038a1.054,1.054,0,0,0-1.156,1.762l.06.039a1.054,1.054,0,1,0,1.154-1.764Zm-4.463-3.316-.053-.044a1.053,1.053,0,1,0-1.358,1.611l.055.046a1.053,1.053,0,1,0,1.355-1.612Zm-4.035-3.826-.047-.05a1.054,1.054,0,1,0-1.54,1.438l.049.052a1.053,1.053,0,0,0,1.538-1.44Zm-3.55-4.279-.041-.055a1.053,1.053,0,0,0-1.7,1.243l.043.058a1.054,1.054,0,0,0,1.7-1.247Z" transform="translate(-37.656 -48.164)" fill="#818386" fill-rule="evenodd"/><path d="M338.372,321.745l.022-.066a1.054,1.054,0,1,0-2-.671l-.023.068a1.054,1.054,0,0,0,2,.669Zm2.08-5.157.03-.062a1.054,1.054,0,0,0-1.9-.907l-.031.065a1.054,1.054,0,0,0,1.9.9Zm2.685-4.869.037-.058a1.053,1.053,0,0,0-1.779-1.129l-.039.061a1.053,1.053,0,1,0,1.78,1.127Zm3.25-4.512.044-.053a1.054,1.054,0,1,0-1.631-1.334l-.046.056a1.054,1.054,0,0,0,1.634,1.331Zm3.763-4.092.049-.048a1.054,1.054,0,0,0-1.46-1.519l-.052.05a1.053,1.053,0,1,0,1.463,1.516Zm4.223-3.615.055-.041a1.054,1.054,0,0,0-1.27-1.682l-.058.044a1.054,1.054,0,1,0,1.272,1.68ZM359,296.417l.059-.035A1.053,1.053,0,1,0,358,294.561l-.062.036a1.053,1.053,0,1,0,1.062,1.82Zm4.957-2.507.063-.027a1.054,1.054,0,1,0-.833-1.935l-.066.028a1.054,1.054,0,0,0,.836,1.935Zm5.221-1.891.066-.02a1.054,1.054,0,0,0-.593-2.022l-.069.021a1.054,1.054,0,0,0,.6,2.021Zm5.415-1.248.068-.012a1.054,1.054,0,0,0-.346-2.078l-.071.012a1.054,1.054,0,0,0,.348,2.078Zm5.528-.59.068,0a1.054,1.054,0,0,0-.1-2.106l-.072,0a1.054,1.054,0,1,0,.1,2.1Zm5.559.069.068,0a1.054,1.054,0,1,0,.155-2.1l-.072,0a1.053,1.053,0,1,0-.15,2.1Zm5.51.728.067.013a1.053,1.053,0,0,0,.4-2.068l-.071-.014a1.054,1.054,0,0,0-.4,2.069Zm5.385,1.386.066.021a1.053,1.053,0,0,0,.651-2l-.068-.022a1.053,1.053,0,0,0-.648,2Zm5.179,2.027.062.029a1.053,1.053,0,0,0,.888-1.911l-.066-.03a1.053,1.053,0,1,0-.884,1.912Zm4.9,2.634.058.036a1.054,1.054,0,0,0,1.111-1.791l-.062-.038a1.054,1.054,0,0,0-1.108,1.792Zm4.545,3.2.053.043a1.054,1.054,0,1,0,1.317-1.645l-.057-.044a1.054,1.054,0,0,0-1.314,1.647Zm4.131,3.721.048.049a1.054,1.054,0,0,0,1.5-1.477l-.05-.051a1.054,1.054,0,1,0-1.5,1.479Zm3.657,4.186.042.054a1.054,1.054,0,0,0,1.669-1.287l-.044-.057a1.054,1.054,0,0,0-1.667,1.289Zm3.132,4.59.035.059a1.054,1.054,0,0,0,1.811-1.078l-.037-.062a1.053,1.053,0,1,0-1.808,1.081Zm2.558,4.93.028.062a1.053,1.053,0,1,0,1.926-.853l-.029-.065a1.054,1.054,0,0,0-1.926.856Zm1.947,5.2.021.066a1.053,1.053,0,0,0,2.015-.615l-.021-.068a1.054,1.054,0,1,0-2.015.617Zm1.305,5.4.012.068a1.054,1.054,0,1,0,2.075-.367l-.012-.071a1.054,1.054,0,0,0-2.074.37Zm.647,5.52,0,.069a1.054,1.054,0,0,0,2.1-.118l0-.072a1.053,1.053,0,1,0-2.1.12Zm-.012,5.561,0,.069a1.053,1.053,0,1,0,2.1.132l0-.072a1.054,1.054,0,1,0-2.1-.129Zm-.672,5.52-.012.067a1.053,1.053,0,1,0,2.072.383l.013-.071a1.054,1.054,0,0,0-2.073-.38Zm-1.33,5.4-.021.066a1.053,1.053,0,1,0,2.01.63l.021-.068a1.053,1.053,0,1,0-2.011-.627Zm-1.972,5.2-.028.062a1.053,1.053,0,1,0,1.92.868l.03-.065a1.054,1.054,0,1,0-1.921-.865ZM422,360.378l-.035.058a1.053,1.053,0,1,0,1.8,1.092l.037-.062a1.053,1.053,0,1,0-1.8-1.089Zm-3.155,4.578-.042.054a1.053,1.053,0,0,0,1.659,1.3l.044-.057a1.053,1.053,0,1,0-1.66-1.3Zm-3.679,4.169-.048.048a1.053,1.053,0,1,0,1.492,1.488l.051-.05a1.054,1.054,0,1,0-1.494-1.486Z" transform="translate(-36.209 -31.847)" fill="#818386" fill-rule="evenodd"/><path d="M302.321,188.331l.015-.055a.871.871,0,1,0-1.681-.455l-.016.058a.871.871,0,0,0,1.682.453Zm1.46-4.359.021-.053a.871.871,0,1,0-1.614-.654l-.023.055a.871.871,0,0,0,1.616.652Zm1.974-4.15.027-.05a.871.871,0,1,0-1.524-.843l-.029.052a.871.871,0,0,0,1.525.842Zm2.457-3.883.034-.046a.871.871,0,0,0-1.412-1.02l-.035.048a.871.871,0,1,0,1.413,1.018Zm2.9-3.561.039-.042a.871.871,0,0,0-1.28-1.181l-.039.044a.871.871,0,0,0,1.281,1.179Zm3.307-3.19.044-.037a.871.871,0,0,0-1.131-1.325l-.045.039a.871.871,0,1,0,1.133,1.323Zm3.663-2.772.047-.031a.871.871,0,1,0-.964-1.451l-.049.033a.871.871,0,1,0,.966,1.449Zm3.966-2.314.051-.025a.871.871,0,1,0-.783-1.556l-.053.027a.871.871,0,0,0,.786,1.554Zm4.214-1.82.053-.019a.871.871,0,0,0-.59-1.639l-.056.021a.871.871,0,1,0,.593,1.637Zm4.405-1.3.055-.012a.871.871,0,1,0-.388-1.7l-.058.013a.871.871,0,0,0,.391,1.7Zm4.531-.759.056-.006a.871.871,0,1,0-.182-1.732l-.059.007a.871.871,0,0,0,.185,1.732Zm4.59-.214h.057a.871.871,0,1,0,.025-1.742h-.059a.871.871,0,0,0-.022,1.741Zm4.583.33.057.007a.871.871,0,0,0,.231-1.726l-.059-.008a.871.871,0,0,0-.228,1.727Zm4.509.875.055.015a.871.871,0,1,0,.437-1.686l-.058-.016a.871.871,0,0,0-.435,1.686Zm4.373,1.414.053.021a.871.871,0,1,0,.637-1.621l-.055-.022a.871.871,0,0,0-.635,1.622Zm4.171,1.931.049.026a.871.871,0,1,0,.828-1.532l-.053-.028a.871.871,0,1,0-.825,1.534Zm3.908,2.417.046.033a.871.871,0,0,0,1.006-1.423l-.048-.034a.871.871,0,1,0-1,1.423Zm3.591,2.867.042.038a.871.871,0,1,0,1.168-1.292l-.044-.039a.871.871,0,1,0-1.165,1.294Zm3.223,3.274.038.043a.871.871,0,0,0,1.313-1.144l-.039-.045a.871.871,0,0,0-1.312,1.146Zm2.811,3.633.032.047a.871.871,0,0,0,1.44-.979l-.033-.049a.871.871,0,0,0-1.439.981Zm2.355,3.942.025.05a.871.871,0,0,0,1.548-.8l-.027-.053a.871.871,0,0,0-1.546.8Zm1.865,4.2.02.053a.871.871,0,1,0,1.632-.608l-.021-.055a.871.871,0,1,0-1.631.61Zm1.345,4.391.013.056a.871.871,0,0,0,1.694-.407l-.014-.057a.871.871,0,1,0-1.693.408Zm.806,4.523.007.056a.871.871,0,0,0,1.731-.2l-.007-.059a.871.871,0,0,0-1.73.2Zm.261,4.588v.057a.871.871,0,0,0,1.742.007v-.059a.871.871,0,1,0-1.742,0Zm-.284,4.588-.007.056a.871.871,0,1,0,1.728.214l.007-.059a.871.871,0,1,0-1.729-.21Zm-.829,4.519-.013.055a.87.87,0,1,0,1.69.419l.015-.058a.871.871,0,0,0-1.691-.417Zm-1.368,4.385-.021.053a.871.871,0,1,0,1.627.621l.021-.056a.871.871,0,0,0-1.628-.618Z" transform="translate(-29.847 -8.723)" fill="#818386" fill-rule="evenodd"/><path d="M254.741,248.57h-.223a34.987,34.987,0,0,1,.215-69.972h.224a34.987,34.987,0,0,1-.217,69.972ZM302.833,212.1s-.253-3.195-.371-4.76l-.012-.048v-.047a1.461,1.461,0,0,0-1.547-1.313h-.048l-.136,0s-2.066.164-3.235.261h-.1c-1.082,0-1.354-1.476-1.354-1.5-.086-.33-.469-2.1-1.218-4.285a4,4,0,0,1-.254-1.3c0-1.045.656-1.261.656-1.261s1.645-.842,2.992-1.526a1.278,1.278,0,0,0,.78-1.175,1.966,1.966,0,0,0-.247-.9s-1.565-3.069-2.276-4.456v0l-.025-.053v0l-.018-.016a1.276,1.276,0,0,0-1.163-.721h-.006a1.972,1.972,0,0,0-.9.242s-2.189,1.116-2.821,1.435a.854.854,0,0,1-.4.09,2.131,2.131,0,0,1-1.509-.747L289.61,190v0l-.007-.013v-.007c-.166-.351-2.134-2.828-3.222-4.136a2.007,2.007,0,0,1-.569-1.238.735.735,0,0,1,.279-.609s1.181-1.393,2.177-2.572a1.571,1.571,0,0,0,.427-1.035,1.544,1.544,0,0,0-.482-1.068s-2.908-2.484-3.959-3.377l-.012-.013-.013-.01a1.425,1.425,0,0,0-.89-.352h-.006a1.7,1.7,0,0,0-1.088.479l-.093.105c-.371.442-1.746,2.051-2.252,2.642a.9.9,0,0,1-.705.288,2.982,2.982,0,0,1-1.225-.362c-.791-.712-3.649-1.983-4.892-2.8-.6-.4-.76-.772-.76-1.065a.877.877,0,0,1,.191-.523s.02-.084.075-.242c.155-.464.5-1.538.9-2.73a1.921,1.921,0,0,0,.1-.616,1.5,1.5,0,0,0-1.113-1.373l-.161-.051c-.656-.211-3.328-1.083-4.583-1.488l-.025-.006a1.835,1.835,0,0,0-.543-.091h-.007a1.475,1.475,0,0,0-1.323,1.022s-.879,2.725-1.113,3.442l-.007.024c-.173.465-.959.554-1.453.564h-.088a3,3,0,0,1-.321-.015,46.116,46.116,0,0,0-4.849-.579c-1.744-.142-1.769-1.189-1.769-1.189s-.1-1.336-.258-3.176c-.125-1.373-1.027-1.569-1.5-1.578h-.03l-.23.017-4.9.381a1.557,1.557,0,0,0-1.409,1.636v.013l.012.053c.025.348.178,2.4.253,3.28l.007.121c-.007.795-.668,1.133-1.311,1.293l-.2.044a41.929,41.929,0,0,0-4.805,1.363l-.019.011-.018,0a2.359,2.359,0,0,1-.779.145,1.428,1.428,0,0,1-1.374-1.061s-.383-.764-1.2-2.334l-.012-.044-.012-.009-.018-.036v-.007a1.612,1.612,0,0,0-1.417-.959h-.012a1.485,1.485,0,0,0-.637.141s-3.4,1.729-4.645,2.371a1.252,1.252,0,0,0-.742,1.166,2.058,2.058,0,0,0,.2.86s1.119,2.187,1.484,2.9l.006.007a1.248,1.248,0,0,1,.111.5,1.862,1.862,0,0,1-.878,1.424c-.612.413-2.4,1.8-3.916,3.086l-.043.03-.012.014-.012,0a2.034,2.034,0,0,1-1.262.538h-.007a1.446,1.446,0,0,1-1.088-.537l-2.183-1.857a1.5,1.5,0,0,0-.966-.376,1.724,1.724,0,0,0-1.014.368s-2.035,2.365-3.141,3.665l-.211.239-.062.072a1.6,1.6,0,0,0-.414,1,1.741,1.741,0,0,0,.551,1.177s1.818,1.539,2.573,2.186a1.012,1.012,0,0,1,.327.806,2.99,2.99,0,0,1-.339,1.22,37.194,37.194,0,0,0-2.511,4.471c-.434.863-.978,1.074-1.4,1.074a1.382,1.382,0,0,1-.693-.19s-1.312-.421-2.709-.879a1.914,1.914,0,0,0-.582-.1,1.574,1.574,0,0,0-1.372.9s-.983,3.038-1.522,4.681a1.594,1.594,0,0,0,.8,2.146s2.461.8,3.339,1.089.725,1.858.725,1.858c-.173.791-.439,3.123-.6,4.942-.136,1.7-1.342,1.76-1.5,1.76h-.025l-2.839.225a1.554,1.554,0,0,0-1.545,1.936s.191,2.476.352,4.453c.123,1.515,1.052,1.694,1.5,1.694l.215-.026s2.048-.159,2.809-.213l.21-.014a1.568,1.568,0,0,1,1.7,1.381c.2,1.168,1.164,3.813,1.442,5.228s-.489,1.631-.489,1.631-1.151.59-2.845,1.449a1.577,1.577,0,0,0-.743,2.349s1.472,2.881,2.215,4.329a1.283,1.283,0,0,0,1.2.787,2.517,2.517,0,0,0,1.163-.346s1.861-.958,2.672-1.363a1.023,1.023,0,0,1,.476-.113,2.048,2.048,0,0,1,1.54,1.134c.408.7,2.214,2.872,3.13,4s.087,1.845.087,1.845-.977,1.142-1.991,2.333a1.629,1.629,0,0,0,.018,2.238s2.455,2.229,3.816,3.25a1.74,1.74,0,0,0,1.052.406,1.7,1.7,0,0,0,1.255-.647l2.141-2.507a1.038,1.038,0,0,1,.8-.285,2.187,2.187,0,0,1,1.169.362c.686.471,2.962,1.739,4.416,2.475s1.032,1.841,1.032,1.841-.222.689-.865,2.665.791,2.318.791,2.318,2.77.9,4.578,1.485a2.4,2.4,0,0,0,.765.133,1.463,1.463,0,0,0,1.423-1.055s.706-2.176,1.051-3.227c.187-.579.768-.737,1.349-.737a6.569,6.569,0,0,1,1.225.15c.618.1,2.449.323,4.3.464s1.676,1.486,1.676,1.486.13,1.628.247,3.113c.093,1.218,1.293,1.33,1.731,1.33l.162-.007s2.492-.2,4.459-.354,1.682-1.812,1.682-1.812-.136-1.775-.234-3.011,1.268-1.627,1.757-1.695,2.461-.641,4.415-1.262a3.149,3.149,0,0,1,.947-.173,1.238,1.238,0,0,1,1.305.893l1.442,2.809a1.262,1.262,0,0,0,1.2.706,2.254,2.254,0,0,0,.724-.122s3.123-1.593,4.582-2.346a1.5,1.5,0,0,0,.514-2.23s-.922-1.815-1.354-2.649.173-1.645.971-2.193,2.882-2.227,4.063-3.167l.013-.013a1.625,1.625,0,0,1,.977-.406h0l.341.067a.964.964,0,0,1,.44.339s.89.763,2.269,1.942a1.844,1.844,0,0,0,1.175.5,1.572,1.572,0,0,0,1.188-.6h.007s2.208-2.583,3.246-3.807a1.461,1.461,0,0,0,.409-.952,1.709,1.709,0,0,0-.693-1.223s-1.758-1.5-2.535-2.161a.927.927,0,0,1-.316-.743,2.857,2.857,0,0,1,.439-1.308c.377-.515,1.843-3.195,2.666-4.688l.006-.011v0l.02-.024.017-.039a1.321,1.321,0,0,1,1.1-.785h.007a1.34,1.34,0,0,1,.761.281s.8.257,2.6.842l.012,0,.012.006a2.3,2.3,0,0,0,.681.117h.012a1.489,1.489,0,0,0,1.41-1.195s.965-2.975,1.485-4.571a2.106,2.106,0,0,0,.1-.625,1.516,1.516,0,0,0-1.125-1.382l-2.957-.96a1.472,1.472,0,0,1-.958-1.484,3.407,3.407,0,0,1,.049-.482c.2-.93.445-3.932.656-5.38V215.5l0-.037.02-.095v-.025l.006-.007v-.008l.007-.036v-.007l.006-.007v0l.007-.022v-.015l.012-.012V215.2l.006-.015v-.006l.006-.009v-.006l.007-.007v-.016l.007-.007v-.009a1.313,1.313,0,0,1,.8-.837l.036-.01.113-.025.055-.018.049-.011.223-.014.1,0s1.187-.112,2.956-.225a1.4,1.4,0,0,0,1.423-1.527A1.747,1.747,0,0,0,302.833,212.1Z" transform="translate(-13.388 -10.144)" fill="#252425" fill-rule="evenodd"/><path d="M405.781,447.708h-15.27L392.066,438h12.15Z" transform="translate(-45.863 -58.558)" fill="#ffc28c" fill-rule="evenodd"/><path d="M406.3,449.523H389.669l-.073.564,8.3,8.035,8.467-8.035Z" transform="translate(-45.701 -60.61)" fill="#ffc28c" fill-rule="evenodd"/><path d="M412.087,461.994l.644-10.432-9.227-2.039-7.436,3.973-7.292-3.973-9.223,2.039.663,11.509a35.449,35.449,0,0,0,31.871-1.077Z" transform="translate(-43.911 -60.61)" fill="#89a5d6" fill-rule="evenodd"/><path d="M426.452,457.126l-.048-1.472L419.8,452l-.54,10.374A35.506,35.506,0,0,0,426.452,457.126Z" transform="translate(-50.986 -61.052)" fill="#89a5d6" fill-rule="evenodd"/><path d="M378.561,463.439l-.5-11.435-6.73,3.65-.173,3.109A35.417,35.417,0,0,0,378.561,463.439Z" transform="translate(-42.415 -61.052)" fill="#89a5d6" fill-rule="evenodd"/><path d="M391.555,442.348l0,0,.7-4.341h0Z" transform="translate(-46.049 -58.558)" fill="#e0e1e3" fill-rule="evenodd"/><path d="M400.875,445.368h-5.269c-.7,0-2.313-1.322-4.05-3.019l.7-4.345H404.4l.667,4.141C403.287,443.939,401.606,445.368,400.875,445.368Z" transform="translate(-46.05 -58.558)" fill="#e2ad7e" fill-rule="evenodd"/><path d="M393.047,441.142c1.25,1.134,2.064,2.377,3.3,2.377h4.741c1.239,0,1.762-1.392,3.012-2.526Z" transform="translate(-46.315 -59.09)" fill="#481a10" fill-rule="evenodd"/><path d="M415.537,423.78h.538c.546,0,.93-.948,1.092-1.423a11.914,11.914,0,0,0,.569-2.351c.067-.582-.113-1.585-.861-1.585a1.718,1.718,0,0,0-1.338.874Z" transform="translate(-50.322 -55.069)" fill="#ffb87c" fill-rule="evenodd"/><path d="M383.386,423.78h-.538c-.546,0-.93-.948-1.091-1.423a11.8,11.8,0,0,1-.569-2.351c-.067-.582.113-1.585.86-1.585a1.717,1.717,0,0,1,1.338.874Z" transform="translate(-44.2 -55.069)" fill="#ffb87c" fill-rule="evenodd"/><path d="M410.11,409.028a13.39,13.39,0,0,0-26.581,0,78.321,78.321,0,0,0-.135,12.277,19.12,19.12,0,0,0,2.506,6.905c1.324,2.292,6.063,6.925,8.007,6.925h5.824c1.944,0,6.682-4.633,8.006-6.925a19.121,19.121,0,0,0,2.506-6.905A78.26,78.26,0,0,0,410.11,409.028Z" transform="translate(-44.562 -51.382)" fill="#ffb87c" fill-rule="evenodd"/><path d="M385.47,404.54l-.408,9.747c0,3.379-1.856,4.7-1.856,4.7v-7.92A12.328,12.328,0,0,1,385.47,404.54Z" transform="translate(-44.562 -52.596)" fill="#481a10" fill-rule="evenodd"/><path d="M413.58,404.54l.408,9.747c0,3.379,1.856,4.7,1.856,4.7v-7.92A12.335,12.335,0,0,0,413.58,404.54Z" transform="translate(-49.973 -52.596)" fill="#481a10" fill-rule="evenodd"/><path d="M404.068,427.1c-2.126,0-4.85-.939-5.526-3.578a3.564,3.564,0,0,1,.127-2.742,2.485,2.485,0,0,1,.39-.482,7.184,7.184,0,0,1,3.863-1.156c.215-.015.432-.024.648-.024a12.805,12.805,0,0,1,3.728.63c.443.538.443,1.452.443,2.824,0,3.128-1.131,4.527-3.673,4.527Zm-9.035-3.561c-.674,2.614-3.4,3.543-5.523,3.543-2.54,0-3.673-1.384-3.673-4.481,0-1.359,0-2.267.448-2.8a12.171,12.171,0,0,1,4.373-.6,7.225,7.225,0,0,1,3.844,1.133,2.365,2.365,0,0,1,.406.489,3.49,3.49,0,0,1,.125,2.711Zm14.359-3.9a19.56,19.56,0,0,0-3.143-.85c-.174-.039-.372-.073-.588-.1a12.831,12.831,0,0,0-2.8-.141c-3.469.238-4.6,1.4-4.951,1.991h-2.25c-.353-.589-1.479-1.752-4.95-1.991a12.817,12.817,0,0,0-2.8.141c-.22.028-.413.06-.583.1a19.63,19.63,0,0,0-3.149.851l-.273.1.57,1.112.089.09.111-.048c.031-.012.45-.2.647-.27a9.734,9.734,0,0,0-.145,2.091c0,3.278,1.469,4.942,4.371,4.942,2.321,0,5.317-1,6.1-3.816a4.931,4.931,0,0,0,.185-2.141h1.893a4.893,4.893,0,0,0,.184,2.141c.785,2.815,3.78,3.816,6.1,3.816,2.9,0,4.372-1.663,4.372-4.942a9.629,9.629,0,0,0-.146-2.092c.19.072.506.2.593.235l.113.045.7-1.169Z" transform="translate(-44.688 -55.088)" fill="#252425" fill-rule="evenodd"/><path d="M411.468,405.894s.518,8.38,3.291,10.477a14.031,14.031,0,0,0-1.936-12.588Z" transform="translate(-49.597 -52.461)" fill="#481a10" fill-rule="evenodd"/><path d="M387.154,405.906s-.515,8.38-3.29,10.477a14.109,14.109,0,0,1,2.022-12.536Z" transform="translate(-44.562 -52.473)" fill="#481a10" fill-rule="evenodd"/><path d="M408.19,403.269s-3.3-5.865-11.724-5.865c-14.377,0-13.115,15.749-13.115,15.749,3.99-8.115,9.8-3.488,13.489-5.9,0,0-.906,1.368-5.525,1.715C391.315,408.967,403.4,412.459,408.19,403.269Z" transform="translate(-44.583 -51.325)" fill="#481a10" fill-rule="evenodd"/><path d="M411.533,409.831a1.4,1.4,0,0,0-1.79-1.234s-.479-1.465-.263-1.748a2.006,2.006,0,0,1,1.3-.631c.694-.131,2.058,3.384,2.058,3.384S412.5,408.888,411.533,409.831Z" transform="translate(-49.233 -52.894)" fill="#481a10" fill-rule="evenodd"/><path d="M387.4,451.671h-.224a34.987,34.987,0,0,1,.216-69.972h.224a34.987,34.987,0,0,1-.217,69.972ZM435.49,415.2s-.253-3.2-.371-4.76l-.012-.049v-.046a1.463,1.463,0,0,0-1.546-1.314h-.049l-.136,0s-2.065.164-3.235.26h-.1c-1.082,0-1.354-1.475-1.354-1.5-.086-.33-.469-2.1-1.218-4.285a3.994,3.994,0,0,1-.253-1.3c0-1.045.656-1.261.656-1.261s1.645-.842,2.992-1.525a1.279,1.279,0,0,0,.779-1.175,1.972,1.972,0,0,0-.247-.9s-1.565-3.068-2.276-4.456v0l-.025-.053v-.006l-.018-.015a1.273,1.273,0,0,0-1.163-.721h-.006a1.972,1.972,0,0,0-.9.242s-2.189,1.115-2.821,1.435a.853.853,0,0,1-.4.09,2.132,2.132,0,0,1-1.509-.747l-.011-.012v0l-.007-.012v-.007c-.167-.352-2.134-2.828-3.223-4.136a2,2,0,0,1-.568-1.239.733.733,0,0,1,.279-.608s1.18-1.394,2.176-2.573a1.569,1.569,0,0,0,.427-1.035,1.549,1.549,0,0,0-.482-1.068s-2.908-2.482-3.958-3.375l-.012-.014-.013-.01a1.424,1.424,0,0,0-.89-.351h0a1.7,1.7,0,0,0-1.089.479l-.093.105c-.371.442-1.745,2.051-2.252,2.642a.9.9,0,0,1-.705.287,2.981,2.981,0,0,1-1.224-.362c-.792-.713-3.649-1.983-4.893-2.8-.6-.4-.76-.772-.76-1.064a.875.875,0,0,1,.191-.523s.02-.085.074-.243c.154-.464.5-1.539.9-2.729a1.927,1.927,0,0,0,.1-.616,1.5,1.5,0,0,0-1.113-1.373l-.161-.052c-.656-.211-3.328-1.082-4.583-1.488l-.024-.007a1.868,1.868,0,0,0-.544-.09H399.8a1.475,1.475,0,0,0-1.323,1.022s-.879,2.724-1.113,3.441l-.007.024c-.173.466-.958.554-1.453.564h-.087a2.852,2.852,0,0,1-.322-.016,46.321,46.321,0,0,0-4.848-.579c-1.745-.141-1.769-1.189-1.769-1.189s-.1-1.336-.259-3.176c-.125-1.373-1.027-1.568-1.5-1.577h-.03l-.229.016-4.9.381a1.558,1.558,0,0,0-1.41,1.637v.012l.012.053c.026.348.179,2.4.254,3.28l.006.12c-.006.795-.668,1.133-1.31,1.293l-.2.044a42.237,42.237,0,0,0-4.806,1.363l-.018.01-.018.006a2.346,2.346,0,0,1-.78.145,1.43,1.43,0,0,1-1.374-1.06s-.382-.764-1.2-2.335l-.012-.044-.012-.009-.018-.036v-.007a1.61,1.61,0,0,0-1.417-.959h-.012a1.489,1.489,0,0,0-.637.141s-3.4,1.728-4.645,2.37a1.253,1.253,0,0,0-.742,1.166,2.054,2.054,0,0,0,.2.86s1.119,2.186,1.484,2.9l.006.006a1.242,1.242,0,0,1,.111.5,1.861,1.861,0,0,1-.878,1.423c-.612.414-2.4,1.8-3.915,3.087l-.043.03-.012.014-.012,0a2.034,2.034,0,0,1-1.262.538H359.3a1.447,1.447,0,0,1-1.089-.538l-2.183-1.857a1.5,1.5,0,0,0-.966-.376,1.726,1.726,0,0,0-1.013.367s-2.035,2.365-3.142,3.665l-.21.24-.062.072a1.593,1.593,0,0,0-.415,1,1.737,1.737,0,0,0,.551,1.175s1.818,1.54,2.572,2.187a1.011,1.011,0,0,1,.328.806,2.985,2.985,0,0,1-.34,1.22,37.425,37.425,0,0,0-2.511,4.471c-.433.864-.977,1.074-1.4,1.074a1.382,1.382,0,0,1-.693-.189s-1.312-.422-2.71-.879a1.906,1.906,0,0,0-.581-.1,1.574,1.574,0,0,0-1.372.9s-.983,3.039-1.522,4.682a1.593,1.593,0,0,0,.8,2.146l3.339,1.087c.891.286.724,1.86.724,1.86-.173.791-.439,3.123-.6,4.942-.136,1.7-1.342,1.759-1.5,1.759h-.024l-2.839.226a1.554,1.554,0,0,0-1.545,1.936s.191,2.476.352,4.453c.122,1.515,1.052,1.694,1.5,1.694l.216-.027s2.048-.159,2.808-.213l.21-.013a1.568,1.568,0,0,1,1.7,1.381c.2,1.167,1.163,3.813,1.442,5.228s-.488,1.631-.488,1.631-1.151.592-2.845,1.45a1.575,1.575,0,0,0-.743,2.347s1.472,2.882,2.215,4.33a1.284,1.284,0,0,0,1.2.787,2.508,2.508,0,0,0,1.162-.347s1.862-.958,2.673-1.363a1.01,1.01,0,0,1,.475-.114,2.046,2.046,0,0,1,1.54,1.134c.409.7,2.215,2.872,3.13,4s.087,1.845.087,1.845-.978,1.142-1.991,2.332a1.631,1.631,0,0,0,.018,2.24s2.455,2.229,3.816,3.25a1.746,1.746,0,0,0,1.052.4,1.7,1.7,0,0,0,1.254-.646s1.794-2.1,2.141-2.508a1.043,1.043,0,0,1,.8-.284,2.178,2.178,0,0,1,1.169.362c.686.47,2.962,1.737,4.416,2.474s1.032,1.841,1.032,1.841-.222.689-.865,2.664.791,2.32.791,2.32,2.771.9,4.578,1.484a2.4,2.4,0,0,0,.765.133,1.462,1.462,0,0,0,1.423-1.054s.706-2.176,1.052-3.228c.186-.579.767-.736,1.348-.736a6.56,6.56,0,0,1,1.225.15c.619.1,2.449.323,4.3.465s1.676,1.485,1.676,1.485l.248,3.113c.092,1.218,1.292,1.331,1.731,1.331l.161-.008s2.493-.2,4.459-.354,1.683-1.813,1.683-1.813-.136-1.774-.235-3.011,1.268-1.626,1.757-1.694,2.461-.641,4.415-1.262a3.153,3.153,0,0,1,.947-.174,1.238,1.238,0,0,1,1.305.893l1.442,2.808a1.263,1.263,0,0,0,1.206.706,2.252,2.252,0,0,0,.723-.122s3.123-1.592,4.583-2.346a1.5,1.5,0,0,0,.514-2.23s-.922-1.814-1.355-2.65.173-1.645.971-2.193,2.881-2.226,4.063-3.165l.012-.015a1.629,1.629,0,0,1,.978-.405h0l.341.066a.965.965,0,0,1,.439.339s.89.765,2.27,1.943a1.838,1.838,0,0,0,1.174.5,1.569,1.569,0,0,0,1.188-.6h.007s2.208-2.581,3.247-3.805a1.465,1.465,0,0,0,.408-.953,1.711,1.711,0,0,0-.693-1.222s-1.757-1.495-2.535-2.161a.921.921,0,0,1-.316-.741A2.861,2.861,0,0,1,423.12,439c.377-.515,1.844-3.195,2.666-4.687l.006-.012v0l.02-.024.018-.039a1.324,1.324,0,0,1,1.1-.785h.007a1.341,1.341,0,0,1,.761.282s.8.256,2.6.84l.012,0,.012.006a2.288,2.288,0,0,0,.681.118h.012a1.491,1.491,0,0,0,1.411-1.2s.965-2.975,1.484-4.571a2.1,2.1,0,0,0,.1-.625,1.516,1.516,0,0,0-1.125-1.382l-2.957-.96a1.472,1.472,0,0,1-.958-1.484,3.54,3.54,0,0,1,.049-.482c.2-.93.445-3.931.656-5.38V418.6l.006-.037.019-.095v-.026l.006-.007v-.008l.007-.036v-.007l.007-.007v0l.006-.021v-.016l.012-.012V418.3l.007-.015v-.006l.006-.009v0l.007-.007v-.017l.006-.007v-.008a1.313,1.313,0,0,1,.8-.837l.036-.01.113-.025.055-.017.05-.011.222-.015.1,0s1.188-.112,2.956-.224a1.4,1.4,0,0,0,1.423-1.528A1.716,1.716,0,0,0,435.49,415.2Z" transform="translate(-37.02 -46.327)" fill="#e82727" fill-rule="evenodd"/><path d="M293.569,386.283h-.224a34.986,34.986,0,0,1,.216-69.972h.224a34.986,34.986,0,0,1-.217,69.972Zm48.092-36.471s-.253-3.194-.371-4.759l-.012-.048v-.047a1.463,1.463,0,0,0-1.547-1.314h-.049l-.136,0s-2.065.164-3.234.261h-.1c-1.082,0-1.354-1.476-1.354-1.5-.086-.33-.47-2.1-1.219-4.285a4,4,0,0,1-.253-1.3c0-1.045.656-1.262.656-1.262s1.645-.842,2.992-1.525a1.28,1.28,0,0,0,.78-1.175,1.966,1.966,0,0,0-.247-.9s-1.565-3.069-2.276-4.456v0l-.025-.053v0l-.018-.016a1.276,1.276,0,0,0-1.164-.721h-.006a1.972,1.972,0,0,0-.9.242s-2.189,1.115-2.821,1.434a.843.843,0,0,1-.4.09,2.131,2.131,0,0,1-1.509-.747l-.012-.011v0l-.007-.013v-.007c-.167-.352-2.134-2.828-3.223-4.136a2,2,0,0,1-.568-1.239.734.734,0,0,1,.279-.608s1.18-1.394,2.176-2.573a1.571,1.571,0,0,0,.427-1.035,1.542,1.542,0,0,0-.483-1.067s-2.907-2.484-3.958-3.377l-.012-.013-.012-.01a1.429,1.429,0,0,0-.891-.352h-.006a1.7,1.7,0,0,0-1.088.479l-.093.105c-.371.442-1.745,2.051-2.251,2.642a.9.9,0,0,1-.705.287,2.982,2.982,0,0,1-1.225-.362c-.792-.712-3.649-1.983-4.893-2.8-.6-.4-.759-.773-.759-1.065a.872.872,0,0,1,.191-.523s.02-.085.075-.243c.155-.463.5-1.539.9-2.729a1.928,1.928,0,0,0,.1-.616,1.5,1.5,0,0,0-1.114-1.373l-.16-.051c-.656-.211-3.328-1.083-4.584-1.488l-.024-.007a1.859,1.859,0,0,0-.544-.09h-.007a1.476,1.476,0,0,0-1.324,1.022s-.879,2.724-1.113,3.442l-.007.024c-.173.465-.958.554-1.453.563h-.087a2.984,2.984,0,0,1-.321-.015,46.151,46.151,0,0,0-4.849-.579c-1.744-.142-1.769-1.19-1.769-1.19s-.1-1.336-.258-3.176c-.125-1.373-1.028-1.567-1.5-1.577h-.03l-.229.017-4.9.381a1.557,1.557,0,0,0-1.41,1.636v.012l.012.053c.025.348.179,2.4.254,3.28l.006.122c-.006.794-.668,1.131-1.311,1.292l-.2.044a41.976,41.976,0,0,0-4.806,1.363l-.018.01-.019,0a2.331,2.331,0,0,1-.779.145,1.427,1.427,0,0,1-1.373-1.06s-.384-.764-1.2-2.334l-.013-.045-.011-.008-.018-.036v-.007a1.613,1.613,0,0,0-1.418-.959h-.012a1.489,1.489,0,0,0-.637.141s-3.4,1.728-4.645,2.371a1.252,1.252,0,0,0-.741,1.166,2.059,2.059,0,0,0,.2.86l1.483,2.9.007.007a1.247,1.247,0,0,1,.11.5,1.859,1.859,0,0,1-.877,1.423c-.612.414-2.4,1.8-3.916,3.087l-.043.03-.012.014-.013,0a2.031,2.031,0,0,1-1.261.538h-.007a1.444,1.444,0,0,1-1.088-.538l-2.183-1.857a1.5,1.5,0,0,0-.966-.376,1.726,1.726,0,0,0-1.014.367s-2.035,2.365-3.141,3.665l-.211.24-.062.072a1.59,1.59,0,0,0-.414,1,1.741,1.741,0,0,0,.551,1.177s1.818,1.539,2.572,2.186a1.009,1.009,0,0,1,.328.805,2.986,2.986,0,0,1-.34,1.22,37.3,37.3,0,0,0-2.51,4.47c-.434.864-.978,1.075-1.4,1.075a1.381,1.381,0,0,1-.692-.19s-1.312-.422-2.709-.879a1.914,1.914,0,0,0-.582-.1,1.574,1.574,0,0,0-1.372.9s-.983,3.038-1.522,4.681a1.594,1.594,0,0,0,.8,2.146l3.339,1.088c.891.286.725,1.859.725,1.859-.173.791-.44,3.123-.6,4.942-.136,1.7-1.342,1.759-1.5,1.759h-.025l-2.839.226a1.554,1.554,0,0,0-1.545,1.936s.191,2.476.352,4.453c.123,1.515,1.052,1.695,1.5,1.695l.215-.027s2.048-.159,2.809-.213l.21-.014a1.568,1.568,0,0,1,1.7,1.381c.2,1.168,1.164,3.813,1.442,5.228s-.488,1.631-.488,1.631-1.151.59-2.845,1.449a1.577,1.577,0,0,0-.743,2.349s1.472,2.881,2.215,4.329a1.285,1.285,0,0,0,1.2.787,2.513,2.513,0,0,0,1.163-.347s1.862-.958,2.672-1.363a1.022,1.022,0,0,1,.476-.113,2.047,2.047,0,0,1,1.539,1.133c.409.7,2.215,2.873,3.13,4s.087,1.845.087,1.845-.978,1.141-1.991,2.332a1.63,1.63,0,0,0,.018,2.239s2.455,2.229,3.816,3.25a1.744,1.744,0,0,0,1.052.405,1.694,1.694,0,0,0,1.254-.647s1.795-2.1,2.142-2.507a1.036,1.036,0,0,1,.8-.284,2.178,2.178,0,0,1,1.169.362c.686.471,2.963,1.738,4.416,2.474s1.033,1.841,1.033,1.841-.223.689-.866,2.665.792,2.319.792,2.319l4.577,1.484a2.4,2.4,0,0,0,.766.133A1.461,1.461,0,0,0,284.1,396s.706-2.176,1.052-3.227c.186-.579.767-.737,1.348-.737a6.4,6.4,0,0,1,1.225.152c.619.1,2.449.322,4.3.464s1.677,1.485,1.677,1.485.129,1.629.247,3.113c.093,1.218,1.293,1.331,1.731,1.331l.161-.008s2.493-.2,4.459-.353,1.682-1.813,1.682-1.813-.136-1.774-.234-3.012,1.267-1.626,1.756-1.694,2.461-.64,4.416-1.262a3.148,3.148,0,0,1,.946-.174,1.239,1.239,0,0,1,1.305.893s.873,1.7,1.442,2.809a1.263,1.263,0,0,0,1.206.705,2.273,2.273,0,0,0,.724-.122s3.122-1.592,4.582-2.347a1.5,1.5,0,0,0,.514-2.229s-.922-1.815-1.354-2.65.173-1.645.971-2.193,2.882-2.227,4.063-3.166l.012-.014a1.629,1.629,0,0,1,.978-.406h0l.341.067a.959.959,0,0,1,.439.339s.891.764,2.27,1.942a1.838,1.838,0,0,0,1.174.5,1.57,1.57,0,0,0,1.188-.6h.007s2.207-2.582,3.246-3.807a1.459,1.459,0,0,0,.409-.952,1.714,1.714,0,0,0-.693-1.224s-1.758-1.494-2.536-2.161a.924.924,0,0,1-.316-.741,2.862,2.862,0,0,1,.439-1.309c.376-.515,1.843-3.194,2.666-4.687l0-.011v0l.02-.025.018-.038a1.323,1.323,0,0,1,1.1-.786h.006a1.345,1.345,0,0,1,.762.282s.8.257,2.6.842l.012,0,.012,0a2.289,2.289,0,0,0,.681.118h.012a1.49,1.49,0,0,0,1.411-1.195s.964-2.975,1.484-4.572a2.07,2.07,0,0,0,.1-.624,1.516,1.516,0,0,0-1.124-1.382l-2.958-.96a1.472,1.472,0,0,1-.957-1.484,3.565,3.565,0,0,1,.048-.482c.2-.93.445-3.931.656-5.379v-.017l.006-.037.02-.095v-.025l0-.007v-.008l.007-.036V353l.007-.007v0l.007-.022v-.015l.012-.012v-.025l.007-.015v-.007l.006-.008v-.006l.006-.007v-.017l.007-.006v-.009a1.319,1.319,0,0,1,.8-.837l.037-.009.113-.025.054-.017.05-.011.222-.014.1,0s1.188-.111,2.957-.225a1.4,1.4,0,0,0,1.422-1.526A1.73,1.73,0,0,0,341.661,349.812Z" transform="translate(-20.305 -34.678)" fill="#00455b" fill-rule="evenodd"/><path d="M357.5,294.648h-.224a34.986,34.986,0,0,1,.215-69.972h.224a34.986,34.986,0,0,1-.216,69.972Zm48.091-36.47s-.253-3.195-.371-4.759l-.012-.048v-.047a1.463,1.463,0,0,0-1.547-1.314h-.049l-.136,0s-2.065.164-3.234.26h-.1c-1.082,0-1.354-1.475-1.354-1.5-.086-.331-.469-2.1-1.218-4.285a3.985,3.985,0,0,1-.254-1.3c0-1.045.656-1.262.656-1.262s1.645-.842,2.993-1.526a1.277,1.277,0,0,0,.779-1.174,1.971,1.971,0,0,0-.247-.9s-1.565-3.068-2.276-4.455v0l-.025-.053v0l-.018-.016a1.275,1.275,0,0,0-1.164-.721h0a1.978,1.978,0,0,0-.9.241s-2.189,1.117-2.821,1.435a.844.844,0,0,1-.4.091,2.128,2.128,0,0,1-1.508-.748l-.012-.011v0l-.007-.013v-.007c-.166-.351-2.133-2.829-3.222-4.137a1.993,1.993,0,0,1-.568-1.238.733.733,0,0,1,.278-.608s1.181-1.394,2.177-2.573a1.569,1.569,0,0,0,.427-1.035,1.546,1.546,0,0,0-.482-1.068s-2.908-2.483-3.959-3.376l-.012-.013L386.99,222a1.422,1.422,0,0,0-.89-.351h-.006a1.7,1.7,0,0,0-1.088.478l-.093.106c-.372.441-1.746,2.051-2.252,2.641a.9.9,0,0,1-.705.288,2.977,2.977,0,0,1-1.225-.362c-.792-.712-3.649-1.982-4.892-2.8-.6-.4-.76-.771-.76-1.065a.877.877,0,0,1,.191-.523s.02-.084.075-.242c.155-.464.5-1.538.9-2.73a1.916,1.916,0,0,0,.1-.615,1.5,1.5,0,0,0-1.114-1.374l-.16-.051c-.656-.211-3.329-1.082-4.584-1.488l-.024-.006a1.859,1.859,0,0,0-.543-.09h-.007a1.475,1.475,0,0,0-1.324,1.022s-.878,2.725-1.113,3.442l-.006.024c-.173.465-.959.553-1.453.564h-.087a2.855,2.855,0,0,1-.322-.016,46.145,46.145,0,0,0-4.849-.579c-1.744-.142-1.769-1.19-1.769-1.19s-.1-1.335-.258-3.176c-.125-1.373-1.028-1.568-1.5-1.577h-.03l-.23.016-4.9.382a1.557,1.557,0,0,0-1.409,1.636v.013l.012.053c.025.348.179,2.4.255,3.28l.006.121c-.006.795-.669,1.133-1.311,1.292l-.2.044a41.977,41.977,0,0,0-4.806,1.363l-.018.01-.018.006a2.377,2.377,0,0,1-.78.145,1.426,1.426,0,0,1-1.373-1.061s-.383-.763-1.2-2.334l-.013-.044-.012-.01-.018-.036V217.2a1.612,1.612,0,0,0-1.417-.959h-.013a1.483,1.483,0,0,0-.636.141s-3.4,1.729-4.645,2.371a1.252,1.252,0,0,0-.742,1.165,2.064,2.064,0,0,0,.2.86l1.484,2.9.006.007a1.252,1.252,0,0,1,.111.5,1.861,1.861,0,0,1-.878,1.423c-.612.414-2.4,1.8-3.915,3.087l-.043.03-.012.013-.013,0a2.029,2.029,0,0,1-1.262.538H329.4a1.444,1.444,0,0,1-1.089-.538l-2.183-1.857a1.5,1.5,0,0,0-.966-.376,1.726,1.726,0,0,0-1.014.367s-2.035,2.365-3.141,3.665l-.211.241-.062.07a1.6,1.6,0,0,0-.414,1,1.741,1.741,0,0,0,.551,1.176s1.818,1.539,2.572,2.186a1.009,1.009,0,0,1,.328.805,2.991,2.991,0,0,1-.339,1.22,37.3,37.3,0,0,0-2.511,4.471c-.433.863-.978,1.074-1.4,1.074a1.382,1.382,0,0,1-.693-.19s-1.312-.421-2.709-.879a1.939,1.939,0,0,0-.581-.1,1.575,1.575,0,0,0-1.373.9s-.983,3.038-1.522,4.68a1.594,1.594,0,0,0,.8,2.147s2.461.8,3.34,1.088.724,1.858.724,1.858c-.173.791-.439,3.123-.6,4.943-.136,1.7-1.343,1.759-1.5,1.759h-.025l-2.839.225a1.555,1.555,0,0,0-1.546,1.937s.191,2.475.352,4.452c.123,1.515,1.052,1.695,1.5,1.695l.216-.027s2.047-.159,2.808-.213l.21-.014a1.569,1.569,0,0,1,1.7,1.381c.2,1.168,1.163,3.814,1.441,5.229s-.488,1.631-.488,1.631-1.151.591-2.845,1.449a1.576,1.576,0,0,0-.742,2.348s1.472,2.881,2.214,4.329a1.282,1.282,0,0,0,1.2.786,2.517,2.517,0,0,0,1.163-.346s1.861-.958,2.672-1.363a1.024,1.024,0,0,1,.476-.114,2.049,2.049,0,0,1,1.54,1.135c.408.7,2.214,2.872,3.13,4s.087,1.845.087,1.845-.977,1.142-1.991,2.332a1.631,1.631,0,0,0,.018,2.24s2.456,2.228,3.817,3.25a1.745,1.745,0,0,0,1.051.405,1.7,1.7,0,0,0,1.255-.646s1.794-2.1,2.141-2.508a1.035,1.035,0,0,1,.8-.285,2.184,2.184,0,0,1,1.168.362c.686.47,2.963,1.738,4.416,2.473s1.033,1.842,1.033,1.842-.223.689-.865,2.664.791,2.319.791,2.319l4.577,1.485a2.422,2.422,0,0,0,.766.132,1.461,1.461,0,0,0,1.423-1.054s.706-2.177,1.052-3.227c.186-.579.767-.738,1.348-.738a6.424,6.424,0,0,1,1.225.152c.618.1,2.449.323,4.3.464s1.676,1.485,1.676,1.485.13,1.629.247,3.114c.093,1.219,1.293,1.33,1.732,1.33l.16-.007s2.493-.2,4.459-.353,1.683-1.814,1.683-1.814-.136-1.774-.235-3.01,1.267-1.627,1.757-1.7,2.461-.64,4.415-1.262a3.175,3.175,0,0,1,.947-.173,1.237,1.237,0,0,1,1.3.893s.873,1.7,1.442,2.809a1.263,1.263,0,0,0,1.206.7,2.281,2.281,0,0,0,.724-.121s3.122-1.593,4.583-2.347a1.5,1.5,0,0,0,.514-2.229s-.922-1.815-1.354-2.65.173-1.645.971-2.193,2.882-2.226,4.063-3.166l.012-.014a1.63,1.63,0,0,1,.978-.4h.006l.34.066a.954.954,0,0,1,.439.339s.891.766,2.27,1.942a1.84,1.84,0,0,0,1.174.5,1.573,1.573,0,0,0,1.188-.6h.007s2.208-2.583,3.246-3.807a1.458,1.458,0,0,0,.409-.952,1.709,1.709,0,0,0-.693-1.223s-1.758-1.5-2.536-2.161a.928.928,0,0,1-.316-.743,2.856,2.856,0,0,1,.439-1.308c.377-.516,1.843-3.195,2.666-4.688l.006-.011v-.006l.019-.024.019-.039a1.323,1.323,0,0,1,1.1-.785h.006a1.345,1.345,0,0,1,.762.282l2.6.841.012,0,.012,0a2.279,2.279,0,0,0,.681.118h.012a1.489,1.489,0,0,0,1.41-1.2s.965-2.975,1.484-4.57a2.084,2.084,0,0,0,.1-.625,1.516,1.516,0,0,0-1.124-1.383l-2.957-.96a1.47,1.47,0,0,1-.958-1.483,3.394,3.394,0,0,1,.049-.482c.2-.931.445-3.932.655-5.381v-.016l.007-.037.019-.1v-.025l0-.007V261.4l.007-.037v-.006l.007-.007v0l.007-.022v-.015l.012-.012v-.025l.006-.016v0l.006-.01v0l.007-.007v-.016l.007-.007V261.2a1.315,1.315,0,0,1,.8-.837l.036-.009.113-.025.055-.019.049-.011.223-.014.1.006s1.187-.112,2.956-.226a1.4,1.4,0,0,0,1.422-1.526A1.722,1.722,0,0,0,405.594,258.178Z" transform="translate(-31.695 -18.354)" fill="#5fc5db" fill-rule="evenodd"/><path d="M395.476,262.118a35.63,35.63,0,1,1-35.63-35.63A35.63,35.63,0,0,1,395.476,262.118Z" transform="translate(-34.053 -20.876)" fill="#ebe9e9" fill-rule="evenodd"/><path d="M314.014,385.529l5.788-3.755-14.492-22.09-5.788,3.755Z" transform="translate(-29.654 -44.605)" fill="#252425" fill-rule="evenodd"/><rect width="6.899" height="5.45" transform="translate(272.618 323.072) rotate(-32.989)" fill="#5a5b5e"/><path d="M298.148,356.077a10.475,10.475,0,1,1,3.084-14.489,10.476,10.476,0,0,1-3.084,14.489Zm6.131-16.467a14.108,14.108,0,1,0-4.154,19.514A14.106,14.106,0,0,0,304.279,339.61Z" transform="translate(-25.88 -39.883)" fill="#252425" fill-rule="evenodd"/><path d="M293.272,358.555h-.028a10.336,10.336,0,1,1,.028,0Z" transform="translate(-26.667 -40.672)" fill="#d3effd" fill-rule="evenodd"/><path d="M293.2,358.589a10.478,10.478,0,0,1-1.638-20.828,10.478,10.478,0,1,0,3.46,20.669A10.475,10.475,0,0,1,293.2,358.589Z" transform="translate(-26.659 -40.7)" fill="#71828b" fill-rule="evenodd"/><path d="M395.328,268.873a13.22,13.22,0,1,1-13.22-13.219A13.22,13.22,0,0,1,395.328,268.873Z" transform="translate(-42.011 -26.072)" fill="#e9321f" fill-rule="evenodd"/><path d="M393.764,269.306a11.223,11.223,0,1,1-11.223-11.222A11.223,11.223,0,0,1,393.764,269.306Z" transform="translate(-42.444 -26.505)" fill="#fff" fill-rule="evenodd"/><path d="M392.082,269.772a9.077,9.077,0,1,1-9.077-9.077A9.076,9.076,0,0,1,392.082,269.772Z" transform="translate(-42.909 -26.97)" fill="#e9321f" fill-rule="evenodd"/><path d="M390.436,270.227a6.974,6.974,0,1,1-6.974-6.974A6.973,6.973,0,0,1,390.436,270.227Z" transform="translate(-43.365 -27.426)" fill="#fff" fill-rule="evenodd"/><path d="M388.733,270.7a4.8,4.8,0,1,1-4.8-4.8A4.8,4.8,0,0,1,388.733,270.7Z" transform="translate(-43.837 -27.897)" fill="#e9321f" fill-rule="evenodd"/><path d="M387.222,271.117a2.871,2.871,0,1,1-2.872-2.871A2.871,2.871,0,0,1,387.222,271.117Z" transform="translate(-44.255 -28.315)" fill="#fff" fill-rule="evenodd"/><path d="M402.62,263.32l-.405-.911-13.56,6.009.405.911Z" transform="translate(-45.533 -27.276)" fill="#252425" fill-rule="evenodd"/><path d="M390.948,271.312l-2.73-1.654.543-3.285-3.843,4.657Z" transform="translate(-44.867 -27.982)" fill="#252425" fill-rule="evenodd"/><path d="M406.938,263.441l-1.661-1,.331-2-2.205.977-.367,1.958,1.663,1.059Z" transform="translate(-48.095 -26.925)" fill="#e9321f" fill-rule="evenodd"/><path d="M348.76,263.985h-6.035v-1.852a3.629,3.629,0,0,0-.232-1.652.852.852,0,0,0-.772-.355.982.982,0,0,0-.888.479,2.769,2.769,0,0,0-.3,1.451,4.115,4.115,0,0,0,.339,1.885,4.91,4.91,0,0,0,1.836,1.527q4.339,2.576,5.466,4.227t1.126,5.326a9.345,9.345,0,0,1-.625,3.936,4.892,4.892,0,0,1-2.415,2.122,9.56,9.56,0,0,1-4.168.857,9.314,9.314,0,0,1-4.452-.988,4.852,4.852,0,0,1-2.417-2.516,12.931,12.931,0,0,1-.57-4.338V272.46h6.035v3.04a4,4,0,0,0,.256,1.806.984.984,0,0,0,.9.4,1.059,1.059,0,0,0,.965-.51,2.911,2.911,0,0,0,.316-1.513,4.685,4.685,0,0,0-.6-2.885,19.26,19.26,0,0,0-3.042-2.27,29.706,29.706,0,0,1-3.209-2.33,5.458,5.458,0,0,1-1.305-2.006,8.846,8.846,0,0,1-.518-3.273,9.062,9.062,0,0,1,.735-4.2,4.93,4.93,0,0,1,2.369-2.076,9.447,9.447,0,0,1,3.951-.749,10.3,10.3,0,0,1,4.315.819,4.514,4.514,0,0,1,2.361,2.06A10.909,10.909,0,0,1,348.76,263Z" transform="translate(-35.876 -26.115)" fill="#e9321f" fill-rule="evenodd"/><path d="M354.994,256.535h10.836v5h-4.338v4.739h4.06v4.754h-4.06v5.495h4.769v5H354.994Z" transform="translate(-39.536 -26.229)" fill="#e9321f" fill-rule="evenodd"/><path d="M2.89,0H44.834a2.892,2.892,0,0,1,2.892,2.892v41.1a2.892,2.892,0,0,1-2.892,2.892H2.892A2.892,2.892,0,0,1,0,43.992V2.89A2.89,2.89,0,0,1,2.89,0Z" transform="translate(217.143 180.48)" fill="#c0d6e1"/><path d="M280.718,195.909H237.745a2.376,2.376,0,0,0-2.377,2.377v4.5h47.726v-4.5A2.375,2.375,0,0,0,280.718,195.909Z" transform="translate(-18.225 -15.429)" fill="#00324d" fill-rule="evenodd"/><rect width="20.6" height="2.352" transform="translate(220.243 182.905)" fill="#fff"/><path d="M266.239,199.56a.458.458,0,1,1,.208-.614.458.458,0,0,1-.208.614Zm.573-.794a.866.866,0,1,0-.594,1.23l.625,1.266.378-.189-.623-1.265A.865.865,0,0,0,266.812,198.766Z" transform="translate(-23.534 -15.852)" fill="#fff" fill-rule="evenodd"/><rect width="22.562" height="22.563" transform="translate(239.308 190.156)" fill="#fff"/><path d="M262.493,230h22.166V207.836H262.493V230Zm22.561.4H262.1V207.441h22.958Z" transform="translate(-22.987 -17.483)" fill="#6b9ab0" fill-rule="evenodd"/><rect width="0.396" height="31.908" transform="matrix(0.707, -0.707, 0.707, 0.707, 239.168, 190.296)" fill="#6b9ab0"/><rect width="31.908" height="0.396" transform="translate(239.168 212.577) rotate(-45)" fill="#6b9ab0"/><rect width="17.889" height="1.319" transform="translate(218.991 189.541)" fill="#00324d"/><rect width="12.725" height="1.321" transform="translate(221.574 191.545)" fill="#00324d"/><rect width="17.889" height="0.91" transform="translate(218.991 194.902)" fill="#6b9ab0"/><rect width="17.889" height="0.911" transform="translate(218.991 197.08)" fill="#6b9ab0"/><rect width="17.889" height="0.91" transform="translate(218.991 199.258)" fill="#6b9ab0"/><rect width="17.889" height="0.91" transform="translate(218.991 201.437)" fill="#6b9ab0"/><rect width="17.889" height="0.912" transform="translate(218.991 203.615)" fill="#6b9ab0"/><rect width="17.889" height="0.911" transform="translate(218.991 205.793)" fill="#6b9ab0"/><rect width="17.889" height="0.91" transform="translate(218.991 207.971)" fill="#6b9ab0"/><rect width="17.889" height="0.91" transform="translate(218.991 210.15)" fill="#6b9ab0"/><rect width="17.889" height="0.91" transform="translate(218.991 212.328)" fill="#6b9ab0"/><rect width="42.878" height="0.911" transform="translate(218.991 214.507)" fill="#6b9ab0"/><rect width="42.878" height="0.91" transform="translate(218.991 216.685)" fill="#6b9ab0"/><rect width="42.878" height="0.91" transform="translate(218.991 218.864)" fill="#6b9ab0"/><rect width="42.878" height="0.91" transform="translate(218.991 221.041)" fill="#6b9ab0"/><rect width="42.878" height="0.91" transform="translate(218.991 223.221)" fill="#6b9ab0"/></g></svg>