<svg xmlns="http://www.w3.org/2000/svg" xmlns:xlink="http://www.w3.org/1999/xlink" width="399" height="200" viewBox="0 0 399 200"><defs><pattern id="a" preserveAspectRatio="none" width="100%" height="100%" viewBox="0 0 400 222"><image width="400" height="222" xlink:href="Group%2051253-image.png"/></pattern><filter id="b" x="0" y="0" width="223" height="200" filterUnits="userSpaceOnUse"><feOffset dy="1" input="SourceAlpha"/><feGaussianBlur stdDeviation="28.5" result="c"/><feFlood flood-color="#000101" flood-opacity="0.063"/><feComposite operator="in" in2="c"/><feComposite in="SourceGraphic"/></filter><pattern id="d" preserveAspectRatio="none" width="100%" height="100%" viewBox="0 0 400 222"><image width="400" height="222" xlink:href="Group%2051253-image2.png"/></pattern><filter id="e" x="59" y="0" width="222" height="200" filterUnits="userSpaceOnUse"><feOffset dy="1" input="SourceAlpha"/><feGaussianBlur stdDeviation="28.5" result="f"/><feFlood flood-color="#000101" flood-opacity="0.059"/><feComposite operator="in" in2="f"/><feComposite in="SourceGraphic"/></filter><pattern id="g" preserveAspectRatio="none" width="100%" height="100%" viewBox="0 0 400 222"><image width="400" height="222" xlink:href="Group%2051253-image3.png"/></pattern><filter id="h" x="117" y="0" width="222" height="200" filterUnits="userSpaceOnUse"><feOffset dy="1" input="SourceAlpha"/><feGaussianBlur stdDeviation="28.5" result="i"/><feFlood flood-color="#000101" flood-opacity="0.059"/><feComposite operator="in" in2="i"/><feComposite in="SourceGraphic"/></filter><pattern id="j" width="1" height="1" viewBox="1.751 0 51 29"><image preserveAspectRatio="none" width="51" height="29" xlink:href="Group%2051253-image4.png"/></pattern><filter id="k" x="177" y="0" width="222" height="200" filterUnits="userSpaceOnUse"><feOffset dy="1" input="SourceAlpha"/><feGaussianBlur stdDeviation="28.5" result="l"/><feFlood flood-color="#000101" flood-opacity="0.059"/><feComposite operator="in" in2="l"/><feComposite in="SourceGraphic"/></filter></defs><g transform="translate(-963.5 -4839.253)"><g transform="matrix(1, 0, 0, 1, 963.5, 4839.25)" filter="url(#b)"><g transform="translate(85.5 84.5)" stroke="#e9e9e9" stroke-width="0.5" fill="url(#a)"><rect width="52" height="29" rx="6" stroke="none"/><rect x="0.25" y="0.25" width="51.5" height="28.5" rx="5.75" fill="none"/></g></g><g transform="matrix(1, 0, 0, 1, 963.5, 4839.25)" filter="url(#e)"><g transform="translate(144.5 84.5)" stroke="#e9e9e9" stroke-width="1" fill="url(#d)"><rect width="51" height="29" rx="6" stroke="none"/><rect x="0.5" y="0.5" width="50" height="28" rx="5.5" fill="none"/></g></g><g transform="matrix(1, 0, 0, 1, 963.5, 4839.25)" filter="url(#h)"><g transform="translate(202.5 84.5)" stroke="#e9e9e9" stroke-width="0.5" fill="url(#g)"><rect width="51" height="29" rx="6" stroke="none"/><rect x="0.25" y="0.25" width="50.5" height="28.5" rx="5.75" fill="none"/></g></g><g transform="matrix(1, 0, 0, 1, 963.5, 4839.25)" filter="url(#k)"><g transform="translate(262.5 84.5)" stroke="#e9e9e9" stroke-width="0.5" fill="url(#j)"><rect width="51" height="29" rx="6" stroke="none"/><rect x="0.25" y="0.25" width="50.5" height="28.5" rx="5.75" fill="none"/></g></g></g></svg>