<svg xmlns="http://www.w3.org/2000/svg" width="69.828" height="68.582" viewBox="0 0 69.828 68.582"><g transform="translate(-4 -4.5)"><path d="M72.706,62.524,66.472,56.29a3.835,3.835,0,0,0-4.24-.748L60.611,53.92A13.623,13.623,0,0,0,50.137,31.476a10.629,10.629,0,0,0-2.868.374,23.692,23.692,0,1,0,0,26.684,11.321,11.321,0,0,0,2.868.374,13.443,13.443,0,0,0,8.729-3.242l1.621,1.621a3.835,3.835,0,0,0,.748,4.24l6.235,6.235a3.8,3.8,0,0,0,2.619,1.122,3.589,3.589,0,0,0,2.619-1.122h0A3.615,3.615,0,0,0,72.706,62.524ZM6.619,46.439h8.729A66.7,66.7,0,0,0,16.1,53.8,39.353,39.353,0,0,0,9.611,56.04,19.777,19.777,0,0,1,6.619,46.439ZM9.736,34.094a43.861,43.861,0,0,0,6.484,2.244,48.8,48.8,0,0,0-.873,7.731H6.619A19.25,19.25,0,0,1,9.736,34.094Zm26.809,9.851H28.939V37.585a76.357,76.357,0,0,0,7.856-.748,31.326,31.326,0,0,1,.5,3.367A11.734,11.734,0,0,0,36.545,43.945Zm-7.606-8.853V24.243c2.993.873,5.736,4.614,7.232,10.225C33.926,34.718,31.433,34.967,28.939,35.092ZM26.445,24.243V35.092a44.355,44.355,0,0,1-7.232-.748C20.709,28.982,23.452,24.991,26.445,24.243Zm0,13.342v6.359H17.716a41.032,41.032,0,0,1,.873-7.108A76.359,76.359,0,0,0,26.445,37.585Zm-8.729,8.853h8.729v5.985a55.806,55.806,0,0,0-7.98.873A60.724,60.724,0,0,1,17.716,46.439Zm8.729,8.479V66.265c-3.117-.873-5.861-4.988-7.357-10.6A35.917,35.917,0,0,1,26.445,54.918ZM28.939,66.14V54.793a69.953,69.953,0,0,1,7.357.748C34.8,61.4,32.056,65.392,28.939,66.14Zm0-13.716V46.439h7.606a11.752,11.752,0,0,0,.873,3.741,24.969,24.969,0,0,1-.5,2.993A55.825,55.825,0,0,0,28.939,52.424Zm10.474,1.247.125.125c-.125,0-.125,0-.125-.125Zm0-16.958a.75.75,0,0,0-.125-.5c.249,0,.374-.125.623-.125A2.189,2.189,0,0,0,39.413,36.713Zm4.863-4.738a37.012,37.012,0,0,1-5.611,1.87A22.053,22.053,0,0,0,34.3,25.116,21.222,21.222,0,0,1,44.276,31.974ZM21.083,25.116a22.053,22.053,0,0,0-4.364,8.729,31.422,31.422,0,0,1-5.487-1.87A20.54,20.54,0,0,1,21.083,25.116ZM10.983,58.16a51.051,51.051,0,0,1,5.736-2,22.257,22.257,0,0,0,4.489,9.1A20.878,20.878,0,0,1,10.983,58.16ZM34.3,65.267a23.923,23.923,0,0,0,4.489-9.1,28.322,28.322,0,0,1,5.736,2A20.956,20.956,0,0,1,34.3,65.267Zm4.614-20.076A11.222,11.222,0,1,1,50.137,56.414,11.176,11.176,0,0,1,38.914,45.192ZM70.961,66.016a1.205,1.205,0,0,1-1.746,0L62.98,59.781a1.205,1.205,0,0,1,0-1.746,1.347,1.347,0,0,1,.873-.374,1.132,1.132,0,0,1,.873.374l6.235,6.235A1.205,1.205,0,0,1,70.961,66.016Z" transform="translate(0 4.198)"/><path d="M52.186,47.155A1.178,1.178,0,0,0,50.939,48.4,6.174,6.174,0,0,1,44.7,54.637a1.247,1.247,0,1,0,0,2.494A8.675,8.675,0,0,0,53.433,48.4,1.178,1.178,0,0,0,52.186,47.155ZM27.247,10.994H53.433A1.178,1.178,0,0,0,54.68,9.747,1.178,1.178,0,0,0,53.433,8.5H27.247A1.178,1.178,0,0,0,26,9.747,1.178,1.178,0,0,0,27.247,10.994Zm33.667,0h1.247a1.178,1.178,0,0,0,1.247-1.247A1.178,1.178,0,0,0,62.161,8.5H60.914a1.178,1.178,0,0,0-1.247,1.247A1.178,1.178,0,0,0,60.914,10.994Zm-3.741,0A1.278,1.278,0,0,0,58.42,9.747a1.132,1.132,0,0,0-.374-.873,1.205,1.205,0,0,0-1.746,0,1.205,1.205,0,0,0,0,1.746A1.132,1.132,0,0,0,57.173,10.994Z" transform="translate(5.433 0.988)"/><path d="M14.247,24.451A1.178,1.178,0,0,0,15.494,23.2V14.475a2.343,2.343,0,0,1,2.494-2.494h6.359a6.272,6.272,0,0,0,6.11,4.988h8.729V23.2a1.091,1.091,0,0,0,.748,1.122.75.75,0,0,0,.5.125,1.132,1.132,0,0,0,.873-.374l7.108-7.108H61.631V23.2A2.343,2.343,0,0,1,59.137,25.7H51.655a1.247,1.247,0,0,0,0,2.494h7.482A4.881,4.881,0,0,0,64.124,23.2V16.969h1.247a6.174,6.174,0,0,0,6.235-6.235A6.174,6.174,0,0,0,65.371,4.5H30.457a6.272,6.272,0,0,0-6.11,4.988H17.988A4.881,4.881,0,0,0,13,14.475V23.2A1.178,1.178,0,0,0,14.247,24.451ZM30.457,6.994H65.371a3.674,3.674,0,0,1,3.741,3.741,3.674,3.674,0,0,1-3.741,3.741H47.914a1.132,1.132,0,0,0-.873.374L41.68,20.211V15.722a1.178,1.178,0,0,0-1.247-1.247H30.457a3.674,3.674,0,0,1-3.741-3.741A3.674,3.674,0,0,1,30.457,6.994Z" transform="translate(2.222)" fill="#f97757"/></g></svg>