<svg xmlns="http://www.w3.org/2000/svg" width="81.088" height="78.473" viewBox="0 0 81.088 78.473"><g transform="translate(-275.535 -1140.11)"><path d="M285.343,1140.11a1.307,1.307,0,0,0-1.308,1.308v23.542a1.308,1.308,0,0,0,1.308,1.308h34a1.308,1.308,0,0,0,1.308-1.308v-23.542a1.308,1.308,0,0,0-1.308-1.308Zm1.308,2.616H318.04v20.926H286.651Z" transform="translate(13.734 0)" fill="#2b4255"/><path d="M289.035,1150.01v5.758h2.616v-5.758Zm7.847,0v5.758H299.5v-5.758Z" transform="translate(21.813 15.996)" fill="#2b4255" fill-rule="evenodd"/><path d="M288.086,1152.11v2.616H303.78v-2.616Z" transform="translate(20.279 19.389)" fill="#2b4255" fill-rule="evenodd"/><path d="M286.036,1142.11h26.157V1157.8H286.036Z" transform="translate(16.967 3.232)" fill="#f97757"/><path d="M275.535,1160.11v18.31h23.542v-18.31Zm2.616,2.616h18.31V1175.8h-18.31Z" transform="translate(0 32.315)" fill="#2b4255"/><path d="M278.035,1167.01v5.758h2.616v-5.758Zm7.847,0v5.758H288.5v-5.758Z" transform="translate(4.039 43.464)" fill="#2b4255" fill-rule="evenodd"/><path d="M277.035,1169.11v2.616h15.694v-2.616Z" transform="translate(2.424 46.857)" fill="#2b4255" fill-rule="evenodd"/><path d="M277.536,1162.11h13.079v7.847H277.536Z" transform="translate(3.233 35.547)" fill="#f8b84e"/><path d="M286.535,1160.11v18.31h23.542v-18.31Zm2.616,2.616h18.31V1175.8h-18.31Z" transform="translate(17.773 32.315)" fill="#2b4255"/><path d="M289.035,1167.01v5.758h2.616v-5.758Zm7.847,0v5.758H299.5v-5.758Z" transform="translate(21.813 43.464)" fill="#2b4255" fill-rule="evenodd"/><path d="M288.035,1169.11v2.616h15.694v-2.616Z" transform="translate(20.197 46.857)" fill="#2b4255" fill-rule="evenodd"/><path d="M288.536,1162.11h13.079v7.847H288.536Z" transform="translate(21.006 35.547)" fill="#f8b84e"/><path d="M297.535,1160.11v18.31h23.542v-18.31Zm2.616,2.616h18.31V1175.8h-18.31Z" transform="translate(35.546 32.315)" fill="#2b4255"/><path d="M300.035,1167.01v5.758h2.616v-5.758Zm7.847,0v5.758H310.5v-5.758Z" transform="translate(39.586 43.464)" fill="#2b4255" fill-rule="evenodd"/><path d="M299.035,1169.11v2.616h15.694v-2.616Z" transform="translate(37.97 46.857)" fill="#2b4255" fill-rule="evenodd"/><path d="M299.536,1162.11h13.079v7.847H299.536Z" transform="translate(38.779 35.547)" fill="#f8b84e"/><path d="M308.308,1154.11v5.231h2.616v-5.231Zm-28.773,5.231v2.616H339.7v-2.616Z" transform="translate(6.463 22.621)" fill="#2b4255" fill-rule="evenodd"/><path d="M279.535,1156.61v6.539h2.616v-6.539Zm28.773,0v6.539h2.616v-6.539Zm28.773,0v6.539H339.7v-6.539Z" transform="translate(6.463 26.66)" fill="#2b4255" fill-rule="evenodd"/></g></svg>