<svg xmlns="http://www.w3.org/2000/svg" width="36" height="36" viewBox="0 0 36 36">
  <path id="smile-o" d="M26.578,22.195a8.654,8.654,0,0,1-3.234,4.57A8.818,8.818,0,0,1,18,28.5a8.818,8.818,0,0,1-5.344-1.734,8.654,8.654,0,0,1-3.234-4.57,1.5,1.5,0,0,1,2.122-1.781,1.43,1.43,0,0,1,.738.891A5.98,5.98,0,0,0,18,25.5a5.98,5.98,0,0,0,5.719-4.195,1.427,1.427,0,0,1,.75-.891,1.469,1.469,0,0,1,1.148-.094,1.428,1.428,0,0,1,.867.738,1.445,1.445,0,0,1,.094,1.137ZM15,12a3,3,0,0,1-3,3,3,3,0,0,1-3-3,3,3,0,0,1,3-3,3,3,0,0,1,3,3Zm12,0a3,3,0,1,1-5.121-2.121A3,3,0,0,1,27,12Zm6,6a14.582,14.582,0,0,0-1.195-5.824,14.791,14.791,0,0,0-7.98-7.98,14.786,14.786,0,0,0-11.649,0,14.791,14.791,0,0,0-7.98,7.98,14.786,14.786,0,0,0,0,11.649,14.791,14.791,0,0,0,7.98,7.98,14.79,14.79,0,0,0,11.648,0,14.791,14.791,0,0,0,7.98-7.98A14.536,14.536,0,0,0,33,18Zm3,0a17.609,17.609,0,0,1-2.414,9.035,17.917,17.917,0,0,1-6.551,6.551A17.609,17.609,0,0,1,18,36a17.609,17.609,0,0,1-9.035-2.414,17.917,17.917,0,0,1-6.551-6.551A17.609,17.609,0,0,1,0,18,17.609,17.609,0,0,1,2.414,8.965,17.917,17.917,0,0,1,8.965,2.414,17.609,17.609,0,0,1,18,0a17.609,17.609,0,0,1,9.035,2.414,17.917,17.917,0,0,1,6.551,6.551A17.609,17.609,0,0,1,36,18Z" fill="#63ae0e"/>
</svg>
