<svg xmlns="http://www.w3.org/2000/svg" width="48" height="49.655" viewBox="0 0 48 49.655"><g transform="translate(0 16.13)"><path d="M41.318,170.279h0a.732.732,0,0,1-.729-.735l0-.327a.732.732,0,0,1,.732-.729h0a.732.732,0,0,1,.729.736l0,.327A.732.732,0,0,1,41.318,170.279Zm0,0" transform="translate(-36.674 -168.488)" fill="#fed370"/><path d="M41.212,204.357h0a.732.732,0,0,1-.729-.735l0-.327a.732.732,0,0,1,.732-.729h0a.732.732,0,0,1,.729.736l0,.327A.732.732,0,0,1,41.212,204.357Zm0,0" transform="translate(-36.578 -199.241)" fill="#fed370"/><path d="M56.965,188.712h0l-.327,0a.732.732,0,0,1,0-1.464h0l.327,0a.732.732,0,0,1,0,1.464Zm0,0" transform="translate(-50.499 -185.415)" fill="#fed370"/><path d="M22.887,188.61h-.33a.732.732,0,0,1,0-1.464h0l.327,0a.732.732,0,0,1,0,1.464Zm0,0" transform="translate(-19.746 -185.324)" fill="#fed370"/><path d="M257.408,461.365h0a.732.732,0,0,1-.729-.735l0-.327a.732.732,0,0,1,.732-.729h0a.732.732,0,0,1,.729.735l0,.327A.732.732,0,0,1,257.408,461.365Zm0,0" transform="translate(-231.674 -431.166)" fill="#fed370"/><path d="M257.306,495.443h0a.732.732,0,0,1-.728-.735l0-.327a.732.732,0,0,1,.732-.729h0a.732.732,0,0,1,.729.735v.327A.732.732,0,0,1,257.306,495.443Zm0,0" transform="translate(-231.582 -461.918)" fill="#fed370"/><path d="M273.055,479.8h0l-.327,0a.732.732,0,0,1,0-1.464h0l.327,0a.732.732,0,0,1,0,1.464Zm0,0" transform="translate(-245.499 -448.093)" fill="#fed370"/><path d="M238.977,479.692h0l-.327,0a.732.732,0,0,1,0-1.464h0l.327,0a.732.732,0,0,1,0,1.464Zm0,0" transform="translate(-214.747 -447.998)" fill="#fed370"/><path d="M307.162,403.478h0a.732.732,0,0,1-.728-.735v-.327a.732.732,0,0,1,.732-.729h0a.732.732,0,0,1,.728.735l0,.327A.732.732,0,0,1,307.162,403.478Zm0,0" transform="translate(-276.572 -378.928)" fill="#fed370"/><path d="M307.057,437.556h0a.732.732,0,0,1-.729-.735l0-.327a.732.732,0,0,1,.732-.729h0a.732.732,0,0,1,.728.735l0,.327A.732.732,0,0,1,307.057,437.556Zm0,0" transform="translate(-276.477 -409.681)" fill="#fed370"/><path d="M322.809,421.911h0l-.327,0a.732.732,0,0,1,0-1.464h.33a.732.732,0,0,1,0,1.464Zm0,0" transform="translate(-290.397 -395.856)" fill="#fed370"/><path d="M288.731,421.805h0l-.327,0a.732.732,0,0,1,0-1.464h0l.327,0a.732.732,0,0,1,0,1.464Zm0,0" transform="translate(-259.645 -395.76)" fill="#fed370"/><path d="M19.112,271.422a1.2,1.2,0,0,0-.344,1.063l1.019,5.946a1.2,1.2,0,0,1-1.742,1.266l-5.338-2.807a1.2,1.2,0,0,0-1.118,0L6.25,279.7a1.2,1.2,0,0,1-1.742-1.266l.15-.875.869-5.071a1.2,1.2,0,0,0-.346-1.063l-4.319-4.21a1.2,1.2,0,0,1,.666-2.048L7.5,264.3a1.2,1.2,0,0,0,.9-.656l2.67-5.409a1.2,1.2,0,0,1,2.152,0l2.67,5.409a1.2,1.2,0,0,0,.9.656l1.845.268,4.124.6a1.2,1.2,0,0,1,.665,2.048Zm0,0" transform="translate(-0.499 -248.869)" fill="#fed370"/></g><path d="M56.017,336.17a1.2,1.2,0,0,0-.344,1.063l1.019,5.946a1.2,1.2,0,0,1-1.742,1.266l-5.338-2.807a1.2,1.2,0,0,0-1.118,0l-5.338,2.807a1.2,1.2,0,0,1-1.742-1.266l.15-.875c9.358-3.992,12.844-8.982,13.984-12.99l4.124.6a1.2,1.2,0,0,1,.665,2.048Zm0,0" transform="translate(-37.162 -297.003)" fill="#fda736"/><path d="M150.828,45.241a.732.732,0,0,1-.518-1.25l18.9-18.9a.732.732,0,1,1,1.035,1.035l-18.9,18.9A.73.73,0,0,1,150.828,45.241Zm0,0" transform="translate(-135.754 -22.452)" fill="#fed370"/><path d="M268.159,124.654a.732.732,0,0,1-.518-1.249l15.526-15.526a.732.732,0,0,1,1.035,1.035L268.676,124.44A.732.732,0,0,1,268.159,124.654Zm0,0" transform="translate(-241.874 -97.257)" fill="#fed370"/><path d="M280.269,21.267a.732.732,0,0,1-.518-1.25l19.8-19.8a.732.732,0,0,1,1.035,1.035l-19.8,19.8A.73.73,0,0,1,280.269,21.267Zm0,0" transform="translate(-252.803 -0.001)" fill="#fda736"/><path d="M203.906,238.5a.732.732,0,0,1-.517-1.25l4.567-4.567a.732.732,0,0,1,1.035,1.035l-4.567,4.567A.73.73,0,0,1,203.906,238.5Zm0,0" transform="translate(-183.626 -209.945)" fill="#fda736"/><path d="M435.39,149.424a.732.732,0,0,1-.518-1.249l1.013-1.013a.732.732,0,0,1,1.035,1.035l-1.013,1.013A.729.729,0,0,1,435.39,149.424Zm0,0" transform="translate(-392.785 -132.701)" fill="#fed370"/><path d="M147.875,131.623a.732.732,0,0,1-.518-1.249l1.013-1.013A.732.732,0,1,1,149.4,130.4l-1.013,1.013A.729.729,0,0,1,147.875,131.623Zm0,0" transform="translate(-132.986 -116.626)" fill="#fed370"/><path d="M203.906,98.739a.732.732,0,0,1-.517-1.25l1.013-1.013a.732.732,0,0,1,1.035,1.035l-1.013,1.013A.732.732,0,0,1,203.906,98.739Zm0,0" transform="translate(-183.608 -86.93)" fill="#fed370"/><path d="M242.452,290.654a.732.732,0,0,1-.517-1.249l11.009-11.01a.732.732,0,0,1,1.035,1.035L242.97,290.439A.729.729,0,0,1,242.452,290.654Zm0,0" transform="translate(-218.504 -251.259)" fill="#fed370"/><path d="M408.674,360.718h-.015a.732.732,0,0,1,0-1.464h.015a.732.732,0,0,1,0,1.464Zm0,0" transform="translate(-368.665 -324.419)" fill="#fda736"/><path d="M1.252,438.905H1.237a.732.732,0,0,1,0-1.464h.015a.732.732,0,0,1,0,1.464Zm0,0" transform="translate(-0.507 -395.063)" fill="#fda736"/><path d="M384.728,320.269h-.015a.732.732,0,0,1,0-1.464h.015a.732.732,0,0,1,0,1.464Zm0,0" transform="translate(-346.955 -287.892)" fill="#fda736"/><path d="M381.67,365.64h-.015a.732.732,0,0,1,0-1.464h.015a.732.732,0,0,1,0,1.464Zm0,0" transform="translate(-344.192 -328.864)" fill="#fd7504"/><path d="M22.293,257.7a.732.732,0,0,1-.052-1.462h.012a.732.732,0,0,1,.106,1.46h-.013Zm0,0" transform="translate(-19.506 -231.392)" fill="#fd7504"/></svg>