<svg xmlns="http://www.w3.org/2000/svg" width="16.93" height="13.696" viewBox="0 0 16.93 13.696"><path d="M18.709,5.314a6.991,6.991,0,0,1-2,.544,3.471,3.471,0,0,0,1.528-1.912,6.963,6.963,0,0,1-2.206.839A3.486,3.486,0,0,0,11.859,4.1a3.45,3.45,0,0,0-1.742,3.839,9.879,9.879,0,0,1-7.16-3.611A3.449,3.449,0,0,0,4.032,8.94a3.475,3.475,0,0,1-1.573-.432V8.55a3.463,3.463,0,0,0,2.786,3.389A3.514,3.514,0,0,1,3.676,12a3.474,3.474,0,0,0,3.245,2.4,7,7,0,0,1-5.142,1.431A9.862,9.862,0,0,0,7.1,17.384a9.79,9.79,0,0,0,9.884-9.834c0-.149,0-.3-.011-.446a7.037,7.037,0,0,0,1.733-1.789Z" transform="translate(-1.779 -3.688)" fill="#1a1c52"/></svg>