<svg xmlns="http://www.w3.org/2000/svg" width="18.347" height="14.3" viewBox="0 0 18.347 14.3">
  <g id="visibility" transform="translate(0.169 0.15)">
    <g id="Group_74920" data-name="Group 74920" transform="translate(6.004 4.79)">
      <g id="Group_74919" data-name="Group 74919">
        <path id="Path_81318" data-name="Path 81318" d="M193.43,192.652a.375.375,0,1,1,.531.531,2.251,2.251,0,1,0,3.184,3.184.375.375,0,0,1,.531.531,3,3,0,1,1-4.245-4.245Z" transform="translate(-192.55 -192.542)" fill="#c3c6d1" stroke="#c3c6d1" stroke-width="0.3"/>
      </g>
    </g>
    <g id="Group_74922" data-name="Group 74922" transform="translate(8.174 3.943)">
      <g id="Group_74921" data-name="Group 74921">
        <path id="Path_81319" data-name="Path 81319" d="M170.978,170.711a2.972,2.972,0,0,1,3.525,2.95,2.934,2.934,0,0,1-.053.523.376.376,0,0,1-.369.31.334.334,0,0,1-.066-.006.376.376,0,0,1-.3-.435,2.176,2.176,0,0,0,.041-.393,2.224,2.224,0,0,0-2.644-2.212.375.375,0,1,1-.131-.739Z" transform="translate(-170.668 -170.659)" fill="#c3c6d1" stroke="#c3c6d1" stroke-width="0.3"/>
      </g>
    </g>
    <g id="Group_74924" data-name="Group 74924" transform="translate(0 3.04)">
      <g id="Group_74923" data-name="Group 74923">
        <path id="Path_81320" data-name="Path 81320" d="M133.525,140.424a18.231,18.231,0,0,1,4.915-3.921.375.375,0,1,1,.344.667,17.636,17.636,0,0,0-4.469,3.5c.895.969,4.415,4.5,8.127,4.5a8.653,8.653,0,0,0,3.774-.9.375.375,0,0,1,.326.676,9.385,9.385,0,0,1-4.1.979c-4.624,0-8.745-4.807-8.918-5.011A.375.375,0,0,1,133.525,140.424Z" transform="translate(-133.435 -136.461)" fill="#c3c6d1" stroke="#c3c6d1" stroke-width="0.3"/>
      </g>
    </g>
    <g id="Group_74926" data-name="Group 74926" transform="translate(6.289 1.501)">
      <g id="Group_74925" data-name="Group 74925">
        <path id="Path_81321" data-name="Path 81321" d="M.255,107.091a7.749,7.749,0,0,1,2.463-.432c4.624,0,8.745,4.806,8.918,5.011a.375.375,0,0,1,.021.457,13.933,13.933,0,0,1-3.443,3.264.373.373,0,0,1-.519-.106.374.374,0,0,1,.105-.519,13.724,13.724,0,0,0,3.064-2.833c-.864-.938-4.408-4.524-8.146-4.524a7.025,7.025,0,0,0-2.223.393.37.37,0,0,1-.475-.236A.375.375,0,0,1,.255,107.091Z" transform="translate(0 -106.659)" fill="#c3c6d1" stroke="#c3c6d1" stroke-width="0.3"/>
      </g>
    </g>
    <g id="Group_74928" data-name="Group 74928" transform="translate(2.252)">
      <g id="Group_74927" data-name="Group 74927">
        <path id="Path_81322" data-name="Path 81322" d="M64.106,64.122a.366.366,0,0,1,.531,0L77.4,77.345a.4.4,0,0,1,0,.55.367.367,0,0,1-.531,0L64.106,64.672A.4.4,0,0,1,64.106,64.122Z" transform="translate(-63.996 -64.008)" fill="#c3c6d1" stroke="#c3c6d1" stroke-width="0.3"/>
      </g>
    </g>
  </g>
</svg>
