<svg xmlns="http://www.w3.org/2000/svg" width="116.911" height="113.637" viewBox="0 0 116.911 113.637"><path d="M305.618,437.708c-1.739.266-3.01,1.38-2.841,2.486s1.717,1.787,3.456,1.52a4.4,4.4,0,0,0,1.933-.765l7.352-1.222-.491-2.906-7.336,1.038A4.4,4.4,0,0,0,305.618,437.708Z" transform="translate(-243.596 -351.457)" fill="#ffb6b6"/><path d="M358.568,393.8l-2.851,6.049-14.332,4.825-11.892.635-.3-2.856,12.889-2.695,13.226-6.25Z" transform="translate(-264.864 -316.608)" fill="#e6e6e6"/><g transform="translate(52.373 51.591)"><rect width="0.391" height="33.959" transform="matrix(1, -0.022, 0.022, 1, 8.425, 12.954)" fill="#3f3d56"/><path d="M312.259,383.3a7.633,7.633,0,0,1,.909-5.8l.332.207a7.373,7.373,0,0,0-.865,5.482l-.375.11Z" transform="translate(-303.435 -355.318)" fill="#3f3d56"/><path d="M318.437,357.619s-.533-3.646,4.38-4.646c1.024-.208,1.986-.351,2.868-.446a.937.937,0,0,1,.507,1.774,8.535,8.535,0,0,0-3.312,2.5A3.024,3.024,0,0,1,318.437,357.619Z" transform="translate(-308.567 -335.222)" fill="#6c63ff"/><path d="M310.632,437.242l-.375-.11a7.374,7.374,0,0,0-.865-5.482l.332-.207A7.633,7.633,0,0,1,310.632,437.242Z" transform="translate(-301.303 -398.722)" fill="#3f3d56"/><path d="M276.284,411.566s.533-3.646-4.38-4.646c-1.024-.208-1.986-.351-2.868-.446a.937.937,0,0,0-.507,1.774,8.534,8.534,0,0,1,3.312,2.5A3.024,3.024,0,0,0,276.284,411.566Z" transform="translate(-268 -378.627)" fill="#6c63ff"/><path d="M287.5,272.232c.989-.261,1.914-.715,1.883-1.165-.036-.534-1.41-.892-2.594-.946.893-.7,1.714-1.665,1.463-2.1-.231-.4-1.3-.246-2.3.108.586-.838,1-1.783.685-2.106-.391-.4-1.779.292-2.726,1.06.184-1.2.091-2.707-.446-2.844-.449-.114-1.085.764-1.522,1.722-.193-1-.583-1.958-1.034-1.958-.642,0-1.162,1.935-1.162,3.2,0,.071,0,.138.005.2-.064-.075-.138-.153-.222-.234-.9-.878-2.655-1.853-3.1-1.393-.314.323.1,1.268.685,2.106-.991-.354-2.064-.509-2.3-.108-.31.54,1.016,1.888,2.093,2.541-.065-.008-.133-.014-.205-.019-1.258-.086-3.224.3-3.268.942-.031.45.894.9,1.883,1.165-.985.37-1.9.945-1.821,1.4.1.553,1.647.747,2.862.633-.908.871-1.893,2.432-1.482,2.889.3.335,1.271-.012,2.148-.54-.42.964-.649,2.025-.264,2.283.509.34,1.9-.844,2.641-1.864-.075,1.247.223,2.961.816,3.029.448.051.944-.852,1.249-1.828.325,1,.858,1.946,1.317,1.883.6-.081.857-1.838.746-3.086.759.978,2.037,2.023,2.519,1.7.385-.258.157-1.318-.264-2.283.876.528,1.846.875,2.148.54.411-.457-.574-2.018-1.482-2.889,1.215.113,2.761-.08,2.862-.633.083-.456-.836-1.031-1.821-1.4Zm-5.325,3.528a1.473,1.473,0,0,0-.663.211,1.247,1.247,0,0,0-.767-.278,1.126,1.126,0,0,0-.888.154,1.281,1.281,0,0,0-.548-.578,1.474,1.474,0,0,0-.636-.282,1.247,1.247,0,0,0-.39-.717,1.866,1.866,0,0,0-.407-.363,1.083,1.083,0,0,0,.121-.931,1.473,1.473,0,0,0-.241-.653,1.247,1.247,0,0,0,.243-.779,1.151,1.151,0,0,0-.18-.863c.5.063.74-.247.963-.637a1.473,1.473,0,0,0,.238-.654,1.247,1.247,0,0,0,.689-.438,1.445,1.445,0,0,0,.4-.589,1.217,1.217,0,0,0,.81.2,1.247,1.247,0,0,0,.794-.189,1.473,1.473,0,0,0,.635.285,1.537,1.537,0,0,0,.665.06,1.713,1.713,0,0,0,.358.48,1.247,1.247,0,0,0,.689.438,1.473,1.473,0,0,0,.238.654,1.266,1.266,0,0,0,.547.589,2.026,2.026,0,0,0-.013.5,1.247,1.247,0,0,0,.243.779,1.474,1.474,0,0,0-.241.653,1.083,1.083,0,0,0,.121.931,1.866,1.866,0,0,0-.407.363,1.247,1.247,0,0,0-.39.717,1.473,1.473,0,0,0-.636.282,1.107,1.107,0,0,0-.581.71,1.335,1.335,0,0,0-.763-.054Z" transform="translate(-272.382 -264)" fill="#6c63ff"/><circle cx="4.151" cy="4.151" r="4.151" transform="translate(4.968 4.067)" fill="#3f3d56"/></g><path d="M58.509,562.64a.232.232,0,0,0,.233.233H160.808a.233.233,0,1,0,0-.465H58.742a.232.232,0,0,0-.233.233Z" transform="translate(-47.075 -452.501)" fill="#3f3d56"/><path d="M320.064,502.008l-2.559,6.474-3.312-2.258,1.957-6.775Z" transform="translate(-252.792 -401.846)" fill="#ffb6b6"/><path d="M261.644,500.219l-6.775,6.474,2.71,2.861,6.926-5.42Z" transform="translate(-205.062 -402.466)" fill="#ffb6b6"/><path d="M455,376.242l-.075-.527-1.731-3.387-5.721,1.506,1.054,4.667Z" transform="translate(-360.031 -299.567)" fill="#ffb6b6"/><path d="M351.556,452.995l.176,2.261s.727,9.482-5.144,10.235-8.431,1.506-11.894-4.366l-5.42-9.636-3.166,3.767-4.211-3.315s3.011-11.744,5.42-12.2a5.5,5.5,0,0,1,.9-.091,6.2,6.2,0,0,1,5.067,2.532l6.831,9.151,2.484-1.129,8.958,2.785Z" transform="translate(-258.991 -353.736)" fill="#2f2e41"/><path d="M276.864,533.6l1.355-2.56,3.915,2.71s.9,3.312-.452,3.764-5.119-.151-5.119-.151-6.926,1.506-7.076.151,3.162-1.656,3.162-1.656Z" transform="translate(-216.819 -427.261)" fill="#2f2e41"/><path d="M302.8,464.842l-10.464-6.593-5.345,4.786-3.613-4.216s6.625-9.786,8.582-10.238a50.453,50.453,0,0,1,5.119-.753l9.636,8.883-3.915,8.13Z" transform="translate(-227.997 -360.314)" fill="#2f2e41"/><path d="M216.984,530.266l3.463,3.764-.457.391s-.9,3.913-3.006,2.589a9.171,9.171,0,0,1-2.258-1.625s-6.022,1.355-6.625-1.054,1.054-1.957,1.054-1.957l1.5.9Z" transform="translate(-167.328 -426.641)" fill="#2f2e41"/><circle cx="4.818" cy="4.818" r="4.818" transform="translate(84.435 66.287)" fill="#ffb6b6"/><path d="M426.922,390.23l6.926-2.108s2.71,6.323,2.258,9.184-4.567,16.489-4.567,16.489l-9.134-5.047a23.335,23.335,0,0,0-.6-4.366c-.452-1.355-1.882-5.5,1.28-8.958s3.839-5.194,3.839-5.194Z" transform="translate(-338.798 -312.275)" fill="#e6e6e6"/><g transform="translate(0 0)"><rect width="0.391" height="79.946" transform="matrix(1, -0.022, 0.022, 1, 20.098, 30.49)" fill="#3f3d56"/><path d="M105.629,281.344a18.029,18.029,0,0,1,2.11-13.435l.332.207A17.6,17.6,0,0,0,106,281.234l-.375.11Z" transform="translate(-84.602 -215.554)" fill="#3f3d56"/><path d="M118.737,220.395s-1.256-8.582,10.312-10.938c2.41-.491,4.675-.826,6.752-1.05a2.205,2.205,0,0,1,1.193,4.176c-3.207,1.57-6.224,3.547-7.8,5.889-4.337,6.459-10.461,1.922-10.461,1.922Z" transform="translate(-95.501 -167.669)" fill="#6c63ff"/><path d="M101.036,408.344l-.375-.11a17.621,17.621,0,0,0-2.067-13.119l.332-.207a18.029,18.029,0,0,1,2.11,13.436Z" transform="translate(-79.326 -317.735)" fill="#3f3d56"/><path d="M19.5,347.395s1.256-8.582-10.312-10.938c-2.41-.491-4.675-.826-6.752-1.05a2.205,2.205,0,0,0-1.193,4.176c3.207,1.57,6.224,3.547,7.8,5.889,4.337,6.459,10.461,1.922,10.461,1.922Z" transform="translate(0 -269.85)" fill="#6c63ff"/><path d="M45.916,19.378c2.328-.614,4.506-1.684,4.433-2.742-.086-1.257-3.318-2.1-6.107-2.228,2.1-1.646,4.036-3.92,3.445-4.949-.543-.946-3.071-.579-5.4.254,1.38-1.973,2.35-4.2,1.611-4.957-.921-.948-4.187.688-6.417,2.5.434-2.817.215-6.373-1.049-6.7-1.057-.269-2.555,1.8-3.582,4.053C32.393,2.245,31.474,0,30.413,0,28.9,0,27.677,4.556,27.677,7.524c0,.168,0,.326.012.477-.152-.176-.325-.36-.524-.552-2.129-2.068-6.251-4.363-7.3-3.279-.739.761.231,2.984,1.611,4.957-2.332-.833-4.86-1.2-5.4-.254-.73,1.271,2.391,4.443,4.927,5.982-.152-.018-.313-.034-.483-.045-2.961-.2-7.59.71-7.692,2.217-.072,1.058,2.105,2.128,4.433,2.742-2.318.871-4.484,2.225-4.287,3.3.239,1.3,3.878,1.758,6.739,1.491-2.138,2.051-4.455,5.725-3.488,6.8.709.789,2.993-.028,5.056-1.27-.99,2.27-1.527,4.767-.621,5.373,1.2.8,4.484-1.988,6.217-4.388-.177,2.937.526,6.971,1.92,7.13,1.054.12,2.222-2.006,2.941-4.3.765,2.355,2.019,4.581,3.1,4.433,1.405-.192,2.018-4.327,1.756-7.266,1.787,2.3,4.795,4.763,5.93,4,.907-.606.369-3.1-.621-5.373,2.063,1.243,4.347,2.059,5.056,1.27.967-1.077-1.351-4.751-3.488-6.8,2.861.267,6.5-.189,6.739-1.491.2-1.073-1.969-2.427-4.287-3.3ZM33.379,27.685a3.468,3.468,0,0,0-1.562.5,2.936,2.936,0,0,0-1.806-.655,2.651,2.651,0,0,0-2.092.363,3.015,3.015,0,0,0-1.289-1.36,3.468,3.468,0,0,0-1.5-.665,2.936,2.936,0,0,0-.917-1.688,4.395,4.395,0,0,0-.958-.854,2.551,2.551,0,0,0,.284-2.193,3.468,3.468,0,0,0-.567-1.538,2.936,2.936,0,0,0,.572-1.834,2.71,2.71,0,0,0-.423-2.032c1.174.149,1.741-.582,2.268-1.5a3.468,3.468,0,0,0,.561-1.54,2.936,2.936,0,0,0,1.621-1.03,3.4,3.4,0,0,0,.933-1.386,2.866,2.866,0,0,0,1.907.477,2.936,2.936,0,0,0,1.868-.445,3.468,3.468,0,0,0,1.5.67,3.618,3.618,0,0,0,1.566.142,4.033,4.033,0,0,0,.842,1.129,2.936,2.936,0,0,0,1.621,1.03,3.468,3.468,0,0,0,.561,1.54A2.981,2.981,0,0,0,39.656,16.2a4.773,4.773,0,0,0-.03,1.167A2.936,2.936,0,0,0,40.2,19.2a3.468,3.468,0,0,0-.567,1.538,2.551,2.551,0,0,0,.284,2.193,4.395,4.395,0,0,0-.958.854,2.936,2.936,0,0,0-.917,1.688,3.468,3.468,0,0,0-1.5.665,2.607,2.607,0,0,0-1.367,1.672,3.143,3.143,0,0,0-1.8-.127Z" transform="translate(-10.315 0)" fill="#6c63ff"/><circle cx="9.771" cy="9.771" r="9.771" transform="translate(11.695 9.576)" fill="#3f3d56"/></g><g transform="translate(106.7 83.835)"><rect width="0.391" height="19.102" transform="matrix(1, -0.022, 0.022, 1, 4.653, 7.289)" fill="#3f3d56"/><path d="M570.464,495.941a4.386,4.386,0,0,1,.521-3.331l.332.207a4.063,4.063,0,0,0-.477,3.014Z" transform="translate(-565.582 -480.179)" fill="#3f3d56"/><path d="M574.371,481.661s-.3-2.051,2.464-2.613c.576-.117,1.117-.2,1.613-.251a.527.527,0,0,1,.285,1,4.8,4.8,0,0,0-1.863,1.407A1.7,1.7,0,0,1,574.371,481.661Z" transform="translate(-568.819 -469.063)" fill="#6c63ff"/><path d="M569.764,526.287l-.375-.11a4.063,4.063,0,0,0-.477-3.014l.332-.207A4.385,4.385,0,0,1,569.764,526.287Z" transform="translate(-564.434 -504.595)" fill="#3f3d56"/><path d="M550.659,512.006s.3-2.051-2.464-2.613c-.576-.117-1.117-.2-1.613-.251a.527.527,0,0,0-.285,1,4.8,4.8,0,0,1,1.863,1.407A1.7,1.7,0,0,0,550.659,512.006Z" transform="translate(-546 -493.478)" fill="#6c63ff"/><path d="M556.971,433.63c.556-.147,1.077-.4,1.059-.655-.021-.3-.793-.5-1.459-.532.5-.393.964-.937.823-1.183-.13-.226-.734-.138-1.291.061.33-.471.562-1,.385-1.185-.22-.226-1,.164-1.533.6.1-.673.051-1.523-.251-1.6-.253-.064-.61.43-.856.968-.108-.565-.328-1.1-.581-1.1-.361,0-.654,1.089-.654,1.8,0,.04,0,.078,0,.114q-.054-.063-.125-.132c-.509-.494-1.494-1.042-1.745-.783-.177.182.055.713.385,1.185-.557-.2-1.161-.287-1.291-.061-.174.3.571,1.062,1.177,1.429-.036,0-.075-.008-.115-.011-.708-.048-1.813.17-1.838.53-.017.253.5.508,1.059.655-.554.208-1.071.532-1.024.788.057.311.927.42,1.61.356-.511.49-1.065,1.368-.833,1.625.169.189.715-.007,1.208-.3-.236.542-.365,1.139-.148,1.284.286.192,1.072-.475,1.485-1.049-.042.7.126,1.666.459,1.7.252.029.531-.479.7-1.028.183.563.482,1.094.741,1.059.336-.046.482-1.034.42-1.736.427.55,1.146,1.138,1.417.957.217-.145.088-.742-.148-1.284.493.3,1.039.492,1.208.3.231-.257-.323-1.135-.833-1.625.684.064,1.553-.045,1.61-.356C558.042,434.162,557.525,433.838,556.971,433.63Zm-3,1.985a.828.828,0,0,0-.373.119.7.7,0,0,0-.432-.156.633.633,0,0,0-.5.087.72.72,0,0,0-.308-.325.829.829,0,0,0-.358-.159.7.7,0,0,0-.219-.4,1.051,1.051,0,0,0-.229-.2.609.609,0,0,0,.068-.524.828.828,0,0,0-.135-.367.7.7,0,0,0,.137-.438.648.648,0,0,0-.1-.486c.281.036.416-.139.542-.358a.829.829,0,0,0,.134-.368.7.7,0,0,0,.387-.246.812.812,0,0,0,.223-.331.685.685,0,0,0,.456.114.7.7,0,0,0,.446-.106.829.829,0,0,0,.357.16.865.865,0,0,0,.374.034.964.964,0,0,0,.2.27.7.7,0,0,0,.387.246.828.828,0,0,0,.134.368.712.712,0,0,0,.308.332,1.14,1.14,0,0,0-.007.279.7.7,0,0,0,.137.438.828.828,0,0,0-.135.367.61.61,0,0,0,.068.524,1.051,1.051,0,0,0-.229.2.7.7,0,0,0-.219.4.828.828,0,0,0-.358.159.623.623,0,0,0-.327.4A.751.751,0,0,0,553.975,435.615Z" transform="translate(-548.464 -429)" fill="#6c63ff"/><circle cx="2.335" cy="2.335" r="2.335" transform="translate(2.794 2.288)" fill="#3f3d56"/></g><g transform="translate(71.87 80.992)"><path d="M368.783,532.307c-1.127,1.35-1.344,3.026-.485,3.744s2.47.2,3.6-1.147a4.4,4.4,0,0,0,.943-1.853l4.7-5.782-2.291-1.854-4.813,5.633A4.4,4.4,0,0,0,368.783,532.307Z" transform="translate(-367.773 -503.731)" fill="#ffb6b6"/><path d="M407.292,414.451l1.637,6.484-8.012,12.825-8.179,8.22-2.651-2.2,8.249-10.263,6.252-13.224Z" transform="translate(-385.726 -414.451)" fill="#e6e6e6"/></g><path d="M430.517,334.251c1.236,0,1.306.005,1.506,0,1.533-.04,1.933-.643,2.71-.6,1.386.073-.443,7.024-1.2,10.238-.746,3.152,1.776,5.976,1.957,6.173,2.56,2.784,7.057,3.294,7.829,2.108.625-.96-1.589-2.419-1.054-4.517.523-2.051,2.938-1.832,3.613-3.764.707-2.023-1.669-3.043-3.162-7.98-.857-2.835-.706-3.363-1.506-5.119-2.138-4.693-12.619-2.7-11.442,1.656.228.842-.378,1.809.753,1.807Z" transform="translate(-345.705 -263.975)" fill="#2f2e41"/></svg>