<svg xmlns="http://www.w3.org/2000/svg" width="143.227" height="106.694" viewBox="0 0 143.227 106.694"><g transform="translate(0 0)"><path d="M916.215,715.351c4.1-2.993,6.929-8.132,6.032-13.13a23.4,23.4,0,0,1-14.047,7.791c-2.1.323-4.48.464-5.9,2.048a5.23,5.23,0,0,0-1.162,3.7,15.536,15.536,0,0,0,.819,3.878l-.061.325C906.951,719.508,912.112,718.343,916.215,715.351Z" transform="translate(-787.684 -613.835)" fill="#f0f0f0"/><path d="M927.53,701.754a20,20,0,0,1-7.43,9.807,8.613,8.613,0,0,1-2.405,1.222,4.94,4.94,0,0,1-2.6.037,10.221,10.221,0,0,0-2.43-.466,3.024,3.024,0,0,0-2.231,1.068,7.856,7.856,0,0,0-1.426,2.782,7.716,7.716,0,0,1-1.587,3.092c-.1.1.063.254.164.152,1.459-1.468,1.51-3.7,2.629-5.377a3.063,3.063,0,0,1,2.25-1.485,7.929,7.929,0,0,1,2.476.427,5.271,5.271,0,0,0,2.543.058,7.962,7.962,0,0,0,2.444-1.125,19.4,19.4,0,0,0,4.468-4.1,20.353,20.353,0,0,0,3.353-6.045C927.8,701.667,927.577,701.62,927.53,701.754Z" transform="translate(-793.075 -613.365)" fill="#fff"/><path d="M1007.008,766.507a3,3,0,0,0,3.856.472c.12-.08,0-.27-.118-.19a2.778,2.778,0,0,1-3.586-.447C1007.063,766.236,1006.911,766.4,1007.008,766.507Z" transform="translate(-878.828 -669.02)" fill="#fff"/><path d="M964.307,757.826a5.783,5.783,0,0,1,1.66-3.874c.1-.1-.063-.254-.164-.152a6.015,6.015,0,0,0-1.719,4.035C964.08,757.979,964.3,757.969,964.307,757.826Z" transform="translate(-841.893 -658.221)" fill="#fff"/><path d="M1032.43,722.915a1.7,1.7,0,0,1-.709-1.447c.006-.144-.218-.134-.224.009a1.9,1.9,0,0,0,.781,1.6.116.116,0,0,0,.158-.006A.113.113,0,0,0,1032.43,722.915Z" transform="translate(-899.941 -630.32)" fill="#fff"/><path d="M884.678,641.439c-.006.09-.013.18-.021.271a22.367,22.367,0,0,1-.565,3.584c-.021.091-.043.184-.066.274a23.578,23.578,0,0,1-3.645,7.878,22.9,22.9,0,0,1-2.229,2.671,14.909,14.909,0,0,0-3.076,3.718,3.944,3.944,0,0,0-.182.451l4.016,7.24.051.037.147.3.135-.123.077-.071c.017-.016.034-.032.05-.045l.015-.015c.016-.013.03-.028.045-.04q.383-.355.762-.717s0,0,0,0a33.667,33.667,0,0,0,5.13-6.086c.043-.067.087-.135.128-.205a21.848,21.848,0,0,0,1.651-3.16,19.329,19.329,0,0,0,.663-1.839,16.062,16.062,0,0,0,.683-4.975,12.755,12.755,0,0,0-3.589-8.965C884.8,641.555,884.74,641.5,884.678,641.439Z" transform="translate(-765.092 -561.498)" fill="#f0f0f0"/><path d="M903.575,640.93a20,20,0,0,1-.028,12.3,8.609,8.609,0,0,1-1.185,2.424,4.939,4.939,0,0,1-2.053,1.595,10.224,10.224,0,0,0-2.221,1.091,3.024,3.024,0,0,0-1.138,2.2,7.857,7.857,0,0,0,.536,3.08,7.716,7.716,0,0,1,.595,3.424c-.02.143.2.165.223.022.281-2.051-1.024-3.866-1.138-5.876a3.063,3.063,0,0,1,.9-2.54,7.929,7.929,0,0,1,2.234-1.15,5.27,5.27,0,0,0,2.065-1.484,7.962,7.962,0,0,0,1.273-2.37,19.4,19.4,0,0,0,1.1-5.963,20.352,20.352,0,0,0-.962-6.845C903.734,640.7,903.531,640.795,903.575,640.93Z" transform="translate(-784.072 -560.922)" fill="#fff"/><path d="M947.5,708.419a3,3,0,0,0,3.363-1.945c.048-.136-.161-.217-.209-.081a2.778,2.778,0,0,1-3.132,1.8C947.383,708.169,947.362,708.392,947.5,708.419Z" transform="translate(-827.533 -617.368)" fill="#fff"/><path d="M916.195,732.473a5.783,5.783,0,0,1-1.007-4.092c.019-.143-.2-.165-.223-.022a6.015,6.015,0,0,0,1.057,4.256C916.105,732.732,916.278,732.59,916.195,732.473Z" transform="translate(-799.554 -636.259)" fill="#fff"/><path d="M941.54,669.825a1.7,1.7,0,0,1-1.438-.728c-.082-.119-.255.024-.173.142a1.9,1.9,0,0,0,1.589.809.116.116,0,0,0,.122-.1A.113.113,0,0,0,941.54,669.825Z" transform="translate(-821.076 -585.275)" fill="#fff"/><path d="M554.388,72.323c.516-.458,1.058-.9,1.61-1.313l.2.27c-.544.408-1.079.844-1.588,1.3Zm3.323-2.489c.584-.366,1.192-.713,1.8-1.029l.155.3c-.6.312-1.2.654-1.78,1.015Zm3.688-1.906c.636-.264,1.292-.506,1.949-.718l.1.322c-.649.209-1.3.448-1.923.708Zm4.028-.946-.077-.329c.672-.158,1.359-.29,2.039-.393l.05.334c-.672.1-1.349.231-2.012.387Zm4.049-.609-.023-.337c.688-.046,1.387-.064,2.076-.053l-.005.338c-.68-.011-1.369.007-2.048.052Zm4.094.066.033-.336c.687.068,1.379.166,2.058.291l-.061.332c-.67-.123-1.353-.22-2.03-.287Zm12.664,44.523c.54-.413,1.069-.855,1.574-1.312l.227.25c-.512.464-1.048.911-1.6,1.33ZM577.6,67.181l.088-.326c.665.18,1.332.391,1.981.626l-.115.318C578.913,67.567,578.255,67.359,577.6,67.181Zm11.669,41.031c.465-.5.914-1.019,1.337-1.553l.265.21c-.428.541-.884,1.07-1.355,1.574Zm-7.816-39.638.141-.307c.627.287,1.25.6,1.852.941l-.165.295C582.685,69.17,582.07,68.858,581.451,68.574ZM591.81,105c.378-.567.736-1.156,1.066-1.751l.3.164c-.334.6-.7,1.2-1.08,1.774Zm-6.786-34.423.189-.28c.572.385,1.135.8,1.673,1.23l-.211.264C586.143,71.367,585.588,70.958,585.023,70.578Zm8.771,30.84c.28-.621.538-1.26.766-1.9l.318.113c-.231.65-.492,1.3-.776,1.927ZM588.22,73.137l.232-.246c.5.474.989.974,1.449,1.487l-.252.226c-.454-.506-.935-1-1.429-1.467Zm6.947,24.422c.175-.659.324-1.332.443-2l.333.059c-.121.678-.272,1.361-.449,2.029Zm-4.214-21.374.269-.2c.416.55.815,1.123,1.184,1.705l-.285.181C591.756,77.293,591.363,76.727,590.952,76.184Zm4.934,17.342c.064-.677.1-1.366.107-2.047l.338,0c-.007.69-.044,1.388-.108,2.075Zm-2.741-13.886.3-.157c.32.61.618,1.242.886,1.878l-.311.131c-.265-.627-.559-1.251-.874-1.853Zm2.784,9.79c-.049-.677-.127-1.362-.232-2.036l.334-.052c.107.683.186,1.377.236,2.064Zm-1.191-6.018.321-.106c.215.654.406,1.328.568,2l-.329.079c-.159-.661-.348-1.326-.56-1.972Z" transform="translate(-489.111 -65.98)" fill="#f0f0f0"/><path d="M756.169,413.843l2.309-7.718L754.1,405.05l-1.613,7.86-2.758,11.026a2.085,2.085,0,1,0,2.864,1l.042.014Z" transform="translate(-656.343 -357.947)" fill="#9e616a"/><path d="M901.184,418.47,901,410.416l-4.5.328.888,7.975.774,11.339a2.085,2.085,0,1,0,3.033.068h.045Z" transform="translate(-783.699 -362.568)" fill="#9e616a"/><path d="M683.719,681.9h-2.766l-.865-10.669h3.631Z" transform="translate(-585.612 -577.983)" fill="#9e616a"/><path d="M740.508,811.092h-8.919v-.113a3.471,3.471,0,0,1,3.471-3.471h5.447Z" transform="translate(-641.696 -704.497)" fill="#2f2e41"/><path d="M788.112,681.9h-2.766l-1.316-10.669h4.082Z" transform="translate(-675.115 -577.983)" fill="#9e616a"/><path d="M847.7,811.092h-8.919v-.113a3.471,3.471,0,0,1,3.471-3.471H847.7Z" transform="translate(-733.994 -704.497)" fill="#2f2e41"/><path d="M775.663,536.817h0l-.062,0-2.381-.132a1.083,1.083,0,0,1-1.017-.953l-2.916-25.967a.269.269,0,0,0-.494-.11l-3.716,5.883a8.579,8.579,0,0,0-1.255,3.44l-1.888,15.6a1.09,1.09,0,0,1-1.075.94h-2.642a1.084,1.084,0,0,1-1.083-1.032l-.6-14.133a15.852,15.852,0,0,1,.8-5.81l5.687-14.555.033-.009,13.69-3.912.006,39.7a1.085,1.085,0,0,1-1.083,1.055Z" transform="translate(-663.157 -436.316)" fill="#2f2e41"/><path d="M717.281,293.494H710l-5.376,2.579,1.826,20.512,13.663.362,2.8-20.348Z" transform="translate(-606.743 -252.722)" fill="#6c63ff"/><path d="M809.766,316.493l1.933-.651,3.346,7.736-7.312,2.5Z" transform="translate(-695.524 -271.966)" fill="#6c63ff"/><path d="M681.54,312.955l-2.742-.9-4.167,6.837,6.91,3.6Z" transform="translate(-580.912 -268.706)" fill="#6c63ff"/><circle cx="4.208" cy="4.208" r="4.208" transform="translate(102.916 30.568)" fill="#9e616a"/><path d="M826.386,273.548a10.908,10.908,0,0,0-2.139.106c-.35.011-.7-.032-1.05,0a1.272,1.272,0,0,0-.915.451c-.144.2-.211.464-.416.6-.161.1-.372.1-.534.2-.311.2-.3.669-.55.938-.119.128-.294.206-.379.359a.777.777,0,0,0-.071.322l-.121,1.611a.291.291,0,0,0,.3.389c.291.04.645.054.814-.186.2-.284.048-.811.378-.921.292-.1.527.312.835.321.232.006.4-.21.547-.387s.4-.345.6-.224c.165.1.179.338.3.486.188.224.547.168.813.047a1.421,1.421,0,0,1,.828-.233c.4.081.607.566,1,.683.56.167,1.163-.5,1.689-.245a.871.871,0,0,1,.405.678,4.981,4.981,0,0,0,.116.812.655.655,0,0,0,.584.494.82.82,0,0,1,.13-.534c.081-.123.2-.223.269-.351.255-.442-.055-1,.007-1.505.016-.128.055-.252.059-.381a1.394,1.394,0,0,0-.466-.9l-.271-.3a6.254,6.254,0,0,0-.793-.788,7.965,7.965,0,0,1-.658-.5C827.272,274.18,827.01,273.651,826.386,273.548Z" transform="translate(-717.991 -244.682)" fill="#2f2e41"/><path d="M194.206,218.387v-53.25a.875.875,0,0,1,.874-.874h76.381a.875.875,0,0,1,.874.874v53.25a.875.875,0,0,1-.874.874H195.08A.875.875,0,0,1,194.206,218.387Z" transform="translate(-178.964 -150.609)" fill="#fff"/><path d="M191.636,216.372a1.433,1.433,0,0,1-1.43-1.429V161.693a1.433,1.433,0,0,1,1.429-1.43h76.382a1.433,1.433,0,0,1,1.43,1.429v53.251a1.433,1.433,0,0,1-1.429,1.43Zm-.318-1.43a.32.32,0,0,0,.319.319h76.38a.32.32,0,0,0,.318-.319v-53.25a.32.32,0,0,0-.319-.318h-76.38a.32.32,0,0,0-.318.319Z" transform="translate(-175.52 -147.165)" fill="#e4e4e4"/><path d="M547.975,253.8a.693.693,0,1,1,0,1.386H530.6a.693.693,0,0,1-.023-1.386h17.394Z" transform="translate(-468.024 -227.707)" fill="#e4e4e4"/><path d="M547.975,289.053a.693.693,0,1,1,0,1.386H530.6a.693.693,0,0,1-.023-1.386h17.394Z" transform="translate(-468.024 -258.064)" fill="#e4e4e4"/><path d="M547.975,324.309a.693.693,0,1,1,0,1.386H530.6a.693.693,0,0,1-.023-1.386h17.394Z" transform="translate(-468.024 -288.423)" fill="#e4e4e4"/><path d="M580.336,364.107a2.372,2.372,0,1,1,2.372,2.372A2.372,2.372,0,0,1,580.336,364.107Z" transform="translate(-511.454 -320.649)" fill="#6c63ff"/><path d="M589.221,371.323h.7v-.7a.234.234,0,1,1,.468,0v.7h.7a.234.234,0,0,1,0,.468h-.7v.7a.234.234,0,0,1-.468,0v-.7h-.7a.234.234,0,0,1,0-.468Z" transform="translate(-518.903 -328.099)" fill="#fff"/><path d="M305.075,241.528a9.256,9.256,0,0,1-.583,3.246,9,9,0,0,1-.645,1.375,9.3,9.3,0,0,1-16.136,0q-.124-.214-.234-.435a9.3,9.3,0,1,1,17.6-4.185Z" transform="translate(-258.421 -209.135)" fill="#e4e4e4"/><circle cx="1.777" cy="1.777" r="1.777" transform="translate(36.064 30.407)" fill="#6c63ff"/><path d="M293.647,289.226c.783-.846,1.83-2.19,2.812-1.219.493.458,1.264,1.593,2,.851l5.764-5.764a1.144,1.144,0,0,1,1.637.029l4.8,5.163a9.006,9.006,0,0,1-.645,1.375H293.882Z" transform="translate(-264.591 -252.648)" fill="#fff"/><path d="M408.766,485.8a.444.444,0,1,0,0,.889h4.664a.444.444,0,0,0,0-.889Z" transform="translate(-363.336 -427.479)" fill="#6c63ff"/><path d="M257.506,438.806a.444.444,0,0,0,0,.889h25.881a.444.444,0,0,0,0-.889Z" transform="translate(-233.088 -387.014)" fill="#e5e5e5"/><path d="M257.506,462.3a.444.444,0,0,0,0,.889h25.881a.444.444,0,0,0,0-.889Z" transform="translate(-233.088 -407.247)" fill="#e5e5e5"/><path d="M652.766,485.8a.444.444,0,1,0,0,.889h4.664a.444.444,0,1,0,0-.889Z" transform="translate(-573.44 -427.479)" fill="#6c63ff"/><path d="M501.506,438.806a.444.444,0,0,0,0,.889h25.881a.444.444,0,1,0,0-.889Z" transform="translate(-443.192 -387.014)" fill="#e5e5e5"/><path d="M501.506,462.3a.444.444,0,0,0,0,.889h25.881a.444.444,0,1,0,0-.889Z" transform="translate(-443.192 -407.247)" fill="#e5e5e5"/><path d="M130.6,432.364c-.386.572-.8,1.135-1.233,1.672l-.263-.212c.426-.53.835-1.085,1.216-1.65ZM128,435.6c-.475.5-.977.986-1.492,1.445l-.225-.252c.508-.453,1-.932,1.472-1.426Zm-3.1,2.762c-.55.414-1.125.811-1.71,1.18l-.18-.286c.576-.364,1.144-.755,1.687-1.164Zm-3.666,1.917.157.3c-.612.32-1.244.619-1.878.887l-.132-.311c.626-.265,1.249-.559,1.853-.875Zm-3.771,1.6.106.321c-.655.216-1.327.406-2,.567l-.079-.329C116.149,442.275,116.812,442.087,117.459,441.874Zm-3.982.953.051.334c-.682.1-1.377.181-2.066.229l-.023-.337C112.118,443.006,112.8,442.93,113.477,442.827ZM90.152,402.845c-.42.534-.823,1.094-1.2,1.662l-.282-.186c.38-.576.789-1.143,1.215-1.685Zm19.238,40.265,0,.338c-.689-.009-1.387-.048-2.075-.114l.032-.336C108.021,443.062,108.709,443.1,109.389,443.11ZM87.9,406.262c-.327.6-.633,1.215-.909,1.836l-.309-.137c.281-.63.591-1.257.922-1.861Zm17.416,36.454-.06.333c-.679-.122-1.361-.274-2.028-.452l.087-.326C103.969,442.446,104.642,442.6,105.312,442.717ZM86.231,410c-.225.643-.426,1.3-.6,1.961l-.327-.085c.174-.667.378-1.336.605-1.987Zm15.123,31.659-.113.318c-.65-.231-1.3-.492-1.926-.776l.139-.308c.62.28,1.26.538,1.9.766ZM85.2,413.967c-.117.671-.208,1.354-.269,2.032l-.337-.031c.063-.687.154-1.38.273-2.059Zm12.424,26.011-.164.3c-.6-.335-1.2-.7-1.773-1.081l.188-.281c.565.377,1.154.736,1.749,1.066ZM84.828,418.047c-.006.682.017,1.371.068,2.049l-.337.025c-.051-.687-.074-1.386-.069-2.077ZM94.218,437.7l-.21.265c-.54-.429-1.068-.886-1.57-1.358l.231-.246C93.164,436.831,93.686,437.282,94.218,437.7Zm-9.086-15.573c.107.672.243,1.348.4,2.009l-.328.08c-.164-.67-.3-1.356-.411-2.037Zm6.1,12.77-.251.226c-.461-.512-.907-1.05-1.325-1.6l.269-.2c.413.542.852,1.073,1.307,1.578Zm-5.129-8.792c.216.644.462,1.288.731,1.915l-.311.133c-.273-.635-.522-1.288-.741-1.941Zm2.649,5.534-.285.182c-.371-.58-.724-1.186-1.046-1.794l.3-.158c.318.6.666,1.2,1.032,1.771Z" transform="translate(-84.489 -355.868)" fill="#f0f0f0"/><path d="M555.921,831.969H466a.165.165,0,1,1,0-.331h89.92a.165.165,0,0,1,0,.331Z" transform="translate(-412.86 -725.275)" fill="#cacaca"/></g></svg>