<svg xmlns="http://www.w3.org/2000/svg" width="114.159" height="94.858" viewBox="0 0 114.159 94.858"><rect width="51.857" height="94.487" rx="25.928" transform="translate(32.586)" fill="#3f3d56"/><path d="M501.627,165.805v75.8a8.477,8.477,0,0,1-8.467,8.467H459.987a8.477,8.477,0,0,1-8.467-8.467v-75.8a8.477,8.477,0,0,1,8.467-8.467h4.338v1.5a2.558,2.558,0,0,0,2.558,2.558h19.381a2.558,2.558,0,0,0,2.558-2.558v-1.5h4.338A8.477,8.477,0,0,1,501.627,165.805Z" transform="translate(-418.059 -156.463)" fill="#fff"/><path d="M441.156,258.88a.637.637,0,0,1-.636-.636v-1.273a.636.636,0,0,1,1.273,0v1.273A.637.637,0,0,1,441.156,258.88Z" transform="translate(-408.809 -239.712)" fill="#3f3d56"/><path d="M441.156,288.111a.637.637,0,0,1-.636-.636v-3.5a.636.636,0,0,1,1.273,0v3.5A.637.637,0,0,1,441.156,288.111Z" transform="translate(-408.809 -262.417)" fill="#3f3d56"/><path d="M441.156,321.089a.637.637,0,0,1-.636-.636v-3.5a.636.636,0,1,1,1.273,0v3.5A.637.637,0,0,1,441.156,321.089Z" transform="translate(-408.809 -290.151)" fill="#3f3d56"/><path d="M769.156,276.422a.637.637,0,0,1-.636-.636v-8.547a.636.636,0,1,1,1.273,0v8.547A.637.637,0,0,1,769.156,276.422Z" transform="translate(-684.634 -248.346)" fill="#3f3d56"/><path d="M589.441,165.976H584.51a.4.4,0,0,1,0-.8h4.931a.4.4,0,1,1,0,.8Z" transform="translate(-529.56 -163.058)" fill="#fff"/><circle cx="0.318" cy="0.318" r="0.318" transform="translate(62.108 2.202)" fill="#fff"/><path d="M870.941,612.836a.567.567,0,0,0,.4-.986l-.04-.154a1.523,1.523,0,0,1,2.823-.054c.687,1.566,1.572,3.186,1.156,4.922a18.044,18.044,0,0,0-2.515-18.738,4.647,4.647,0,0,1-2.388-3.088c.579.19,1.295-.286.855-.891-.19-.231-.383-.46-.573-.69,2.171-2.357,4.82,1.29,2.435,4.466a18.174,18.174,0,0,1,2.072,3.174,7.643,7.643,0,0,1,.422-3.554,12.8,12.8,0,0,1,1.949-2.87,1.569,1.569,0,0,1,2.806.784.813.813,0,0,0,.026,1.594,7.824,7.824,0,0,1-4.252,6.217,18.247,18.247,0,0,1,1.07,7.617c.387-3.024,3.622-3.788,5.877-5.01a.883.883,0,0,1,1.355.881,5.1,5.1,0,0,0-.889.48.771.771,0,0,0,.371,1.4,7.78,7.78,0,0,1-7.083,4.782,18.76,18.76,0,0,1-1.225,3.691l-4.5.043c-.017-.05-.032-.1-.047-.151a5.117,5.117,0,0,0,1.245-.086c-1.115-1.295-1.974-1.952-1.349-3.781Z" transform="translate(-770.289 -522.323)" fill="#f2f2f2"/><path d="M254.846,612.836a.567.567,0,0,1-.4-.986l.04-.154a1.523,1.523,0,0,0-2.823-.054c-.687,1.566-1.572,3.186-1.156,4.922a18.044,18.044,0,0,1,2.515-18.738,4.646,4.646,0,0,0,2.388-3.088c-.579.19-1.295-.286-.855-.891.19-.231.383-.46.573-.69-2.171-2.357-4.82,1.29-2.435,4.466a18.176,18.176,0,0,0-2.072,3.174,7.642,7.642,0,0,0-.422-3.554,12.8,12.8,0,0,0-1.949-2.87,1.569,1.569,0,0,0-2.806.784.813.813,0,0,1-.026,1.594,7.824,7.824,0,0,0,4.252,6.217,18.247,18.247,0,0,0-1.07,7.617c-.387-3.024-3.622-3.788-5.877-5.01a.883.883,0,0,0-1.355.881,5.1,5.1,0,0,1,.889.48.771.771,0,0,1-.371,1.4,7.779,7.779,0,0,0,7.083,4.782,18.758,18.758,0,0,0,1.225,3.691l4.5.043c.017-.05.032-.1.047-.151a5.114,5.114,0,0,1-1.245-.086c1.115-1.295,1.974-1.952,1.349-3.781Z" transform="translate(-241.326 -522.323)" fill="#f2f2f2"/><path d="M493.2,172.5H488.9a.8.8,0,1,1,0-1.591H493.2a.8.8,0,0,1,0,1.591Z" transform="translate(-448.825 -167.874)" fill="#e6e6e6"/><circle cx="0.716" cy="0.716" r="0.716" transform="translate(71.81 3.113)" fill="#e6e6e6"/><circle cx="0.716" cy="0.716" r="0.716" transform="translate(74.037 3.113)" fill="#e6e6e6"/><circle cx="0.716" cy="0.716" r="0.716" transform="translate(76.264 3.113)" fill="#e6e6e6"/><path d="M540.825,250.793H513.831a1.975,1.975,0,0,0-1.973,1.972v17.547a1.975,1.975,0,0,0,1.972,1.972h26.994a1.974,1.974,0,0,0,1.972-1.972V252.765A1.974,1.974,0,0,0,540.825,250.793Z" transform="translate(-468.8 -235.052)" fill="#f2f2f2"/><path d="M575.833,297.639a125.9,125.9,0,0,1-8.062,12.474h-4.233q4.159-5.067,8.324-10.134a6.741,6.741,0,0,1,2.856-2.387Z" transform="translate(-512.258 -274.407)" fill="#3f3d56"/><path d="M565.665,286.1c-.442.46-.865.939-1.263,1.436-.877,1.056-1.741,2.121-2.609,3.183-.54.661-1.081,1.322-1.615,1.982a3.944,3.944,0,0,1-.482-.364,4.32,4.32,0,1,1,5.521-6.645A3.982,3.982,0,0,1,565.665,286.1Z" transform="translate(-507.716 -263.564)" fill="#6c63ff"/><path d="M562.274,273.653v.641l-.286-.105-4.029-1.473a42.058,42.058,0,0,0-3.977-1.371,6.268,6.268,0,0,0-3.6.046,8.264,8.264,0,0,0-2.806,1.742c-.358.331-.7.67-1.04,1.021-.11.116-.22.232-.328.348-.324.353-.638.714-.935,1.088-.876,1.056-1.742,2.122-2.609,3.183-.541.662-1.082,1.322-1.616,1.982q-2.677,3.276-5.322,6.565a3.106,3.106,0,0,1-.7-.089q2.7-3.352,5.423-6.687l.124-.153c.213-.266.431-.533.647-.8q1.358-1.663,2.717-3.323c.659-.8,1.312-1.613,2.022-2.376.043-.049.088-.1.134-.146l.207-.22c1.541-1.592,3.464-3,5.768-3.038a11.221,11.221,0,0,1,3.924.862c1.357.492,2.709.991,4.064,1.487Z" transform="translate(-488.276 -251.614)" fill="#3f3d56"/><path d="M529.5,585.632H497.264a1.975,1.975,0,0,1-1.972-1.972v-4.345a1.975,1.975,0,0,1,1.972-1.972H529.5a1.975,1.975,0,0,1,1.972,1.972v4.345A1.975,1.975,0,0,1,529.5,585.632Z" transform="translate(-454.868 -509.658)" fill="#f2f2f2"/><path d="M529.5,445.632H497.264a1.975,1.975,0,0,1-1.972-1.972v-4.345a1.975,1.975,0,0,1,1.972-1.972H529.5a1.975,1.975,0,0,1,1.972,1.972v4.345A1.975,1.975,0,0,1,529.5,445.632Z" transform="translate(-454.868 -391.927)" fill="#f2f2f2"/><path d="M529.5,515.632H497.264a1.975,1.975,0,0,1-1.972-1.972v-4.345a1.975,1.975,0,0,1,1.972-1.972H529.5a1.975,1.975,0,0,1,1.972,1.972v4.345A1.975,1.975,0,0,1,529.5,515.632Z" transform="translate(-454.868 -450.793)" fill="#f2f2f2"/><path d="M581.182,594.231h-9.5a.425.425,0,1,1,0-.85h9.5a.425.425,0,0,1,0,.85Z" transform="translate(-518.751 -523.145)" fill="#fff"/><path d="M589.756,608.922h-18.74a.425.425,0,1,1,0-.85h18.74a.425.425,0,0,1,0,.85Z" transform="translate(-518.189 -535.499)" fill="#fff"/><circle cx="2.849" cy="2.849" r="2.849" transform="translate(45.038 68.981)" fill="#fff"/><path d="M503.226,626.975a1.232,1.232,0,0,0-1.623.564,1.179,1.179,0,0,0-.07.182l-4.29.256-.636,2.223,5.839-.987a1.228,1.228,0,0,0,1.35-.653,1.176,1.176,0,0,0-.541-1.572Z" transform="translate(-455.975 -551.297)" fill="#ffb6b6"/><path d="M457.277,557.832h0a2.127,2.127,0,0,0-2.87,1.457l-1.179,4.763.222,8.333s6.156,1.181,7.19.422.936-1.325,1.033-.759.541.8.547.578.056-.186.314-.254,1.394-.487,1.394-.487l.051-2.376s-1.879-.712-2.335-.5.1.565-.456.213-.613-1.466-.708-.463-.371,1.19-.786.744-2.335-.161-2.335-.161l1.222-9.263A2.127,2.127,0,0,0,457.277,557.832Z" transform="translate(-419.495 -493.117)" fill="#6c63ff"/><path d="M462.38,547.168l.065-1.755-6.737-1.085-.1,2.589Z" transform="translate(-383.138 -457.743)" fill="#ffb6b6"/><path d="M731.3,687.392l-.064-2.809,1.2.044,1.939-2.6a.751.751,0,0,1,1.352.477l-.123,3.337-1.209.531,1.18.268-.046,1.258Z" transform="translate(-653.278 -597.439)" fill="#2f2e41"/><path d="M500.963,693.031,522.3,690.55s9.214.532,11.376-.874l2.28-.288.124-3.349a6.428,6.428,0,0,1-2.2-.363c-.8-.373-.245-.83-1.009-.381s-.683.5-1.274.3-27.686-1.314-27.686-1.314Z" transform="translate(-459.637 -599.582)" fill="#2f2e41"/><path d="M411.232,543.343l1.241-1.242-4.2-5.377-1.831,1.833Z" transform="translate(-341.789 -451.348)" fill="#ffb6b6"/><path d="M669.833,716.261l1.864-2.1.85.849,3.188-.585a.751.751,0,0,1,.667,1.269l-2.36,2.363-1.248-.433.682,1-.89.891Z" transform="translate(-601.645 -624.71)" fill="#2f2e41"/><path d="M448.039,634.274l.212,4.931a7.673,7.673,0,0,0,11.6,6.287q.137-.084.275-.174s1.879-.5,1.822-1.3.4-1.188.808-.97,5.726-7.332,5.726-7.332,11.052,5.513,13.491,6.811l2.573-.7s.968.457.619-.2-.411-.345-.518-1.065-.381-1.614-.547-1.576-13.673-9.416-13.673-9.416a4.278,4.278,0,0,0-4.93-.757c-.057.216-.008.224-.008.224l-9.017,7.347-1.274-2.42Z" transform="translate(-415.132 -552.512)" fill="#2f2e41"/><path d="M441.053,542.361l-3.866-1.812-1.157,2.014s-3.108,4.436-3.154,7.636.507,4.152.507,4.152-1.34,1-.67,1.615,2.154.877,1.014,1.142-.851,2.954.422,3.431,8.107.473,8.107.473a1.217,1.217,0,0,1,.3-1.2c.53-.531,1.007-.15.53-.977s-1.273-.35-.636-1.463a3.982,3.982,0,0,0,.636-1.446,5.041,5.041,0,0,0-.657-5.147c-.119-.163-.019-.17-.019-.17l-1.578-5.287Z" transform="translate(-402.086 -478.717)" fill="#6c63ff"/><path d="M442.873,484.181a8.379,8.379,0,0,1-.735,2.671c-.271.746.9,1.736,1.655,1.953a1.112,1.112,0,0,1,.364-.668,1.9,1.9,0,0,0-.014.749l6.354,1.447a7.317,7.317,0,0,0,2.042-5.522,2.233,2.233,0,0,0-1.075-2.227l-3.212-1.9c-1.366-.311-3.087-.5-4.074.347A3.909,3.909,0,0,0,442.873,484.181Z" transform="translate(-410.136 -428.155)" fill="#2f2e41"/><circle cx="3.659" cy="3.659" r="3.659" transform="translate(34.759 54.161)" fill="#ffb6b6"/><path d="M454.8,484.716l-.177.776,3.086.7a1.138,1.138,0,0,1,.38-.829,1.939,1.939,0,0,0,.022.92,6.8,6.8,0,0,0,4.51,1.027.7.7,0,0,0,.844-.531h0a4.513,4.513,0,0,0-3.243-5.4,4.453,4.453,0,0,0-5.423,3.332Z" transform="translate(-420.669 -428.851)" fill="#2f2e41"/><path d="M462,469.06a2.78,2.78,0,0,0,1.206-.343l-.241.554a2.8,2.8,0,0,1,2,.2,1.071,1.071,0,0,1,.453.384.788.788,0,0,1,.06.679.738.738,0,0,1-.432.411,1.426,1.426,0,0,1-.529.055l-2.253-.053a1.685,1.685,0,0,1-.831-.161.83.83,0,0,1-.386-.824A1.176,1.176,0,0,1,462,469.06Z" transform="translate(-426.064 -418.311)" fill="#2f2e41"/><path d="M510.024,639.124a.154.154,0,0,0-.03-.028.32.32,0,0,0-.1-.077l-.268-.143-1.777-1.973a.446.446,0,0,0-.334-.032h0l-.761.235-.655.2-.915.284-6.23,1.929-4.1,1.268a.443.443,0,0,0-.291.548.462.462,0,0,0,.094.166l.13.145.273.3.633,1.312.176.2a.441.441,0,0,0,.456.128l13.491-3.752a.449.449,0,0,0,.205-.717Z" transform="translate(-454.242 -559.701)" fill="#ccc"/><path d="M576.351,528.405l-.261.042a.275.275,0,0,0-.178.11l-.115.161-1.038,2.6a.275.275,0,0,0-.047.2l.122.74-.46,13.2a.278.278,0,0,0,.1.172l2.016,2.7.047.037.1.079a.28.28,0,0,0,.182.058l.171-.008a.275.275,0,0,0,.2-.1.271.271,0,0,0,.057-.218l-.585-19.548a.274.274,0,0,0-.315-.226Z" transform="translate(-521.37 -468.501)" fill="#ccc"/><path d="M336.15,383.04l-.92,2.8-.356,11.191,1.432,1.273Z" transform="translate(-281.606 -322.11)" fill="#6c63ff"/><path d="M504.355,641.578a1.232,1.232,0,0,0-1.623.564,1.185,1.185,0,0,0-.07.182l-4.29.256-.636,2.223,5.839-.987a1.229,1.229,0,0,0,1.35-.653,1.176,1.176,0,0,0-.541-1.572Z" transform="translate(-456.924 -563.577)" fill="#ffb6b6"/><path d="M458.406,572.434h0a2.127,2.127,0,0,0-2.87,1.457l-1.179,4.763.222,8.333s6.156,1.181,7.19.422.936-1.325,1.033-.759.541.8.547.578.056-.186.314-.254,1.394-.487,1.394-.487l.051-2.376s-1.879-.712-2.335-.5.1.565-.456.213-.613-1.466-.708-.463-.371,1.19-.786.744-2.335-.161-2.335-.161l1.222-9.263a2.127,2.127,0,0,0-1.3-2.247Z" transform="translate(-420.444 -505.397)" fill="#6c63ff"/><path d="M241.165,745.974a.189.189,0,0,0,.189.189H355.135a.189.189,0,1,0,0-.379H241.354a.189.189,0,0,0-.189.189Z" transform="translate(-241.165 -651.306)" fill="#ccc"/><path d="M691.5,445.632H659.264a1.975,1.975,0,0,1-1.972-1.972v-4.345a1.975,1.975,0,0,1,1.972-1.972H691.5a1.975,1.975,0,0,1,1.972,1.972v4.345A1.975,1.975,0,0,1,691.5,445.632Z" transform="translate(-591.099 -391.927)" fill="#e6e6e6"/><path d="M743.182,454.231h-9.5a.425.425,0,0,1,0-.85h9.5a.425.425,0,0,1,0,.85Z" transform="translate(-654.982 -405.415)" fill="#fff"/><path d="M751.756,468.922h-18.74a.425.425,0,1,1,0-.85h18.74a.425.425,0,0,1,0,.85Z" transform="translate(-654.42 -417.769)" fill="#fff"/><circle cx="2.849" cy="2.849" r="2.849" transform="translate(70.807 46.711)" fill="#fff"/><path d="M626.5,515.632H594.264a1.975,1.975,0,0,1-1.972-1.972v-4.345a1.975,1.975,0,0,1,1.972-1.972H626.5a1.975,1.975,0,0,1,1.972,1.972v4.345A1.975,1.975,0,0,1,626.5,515.632Z" transform="translate(-536.438 -450.793)" fill="#e6e6e6"/><path d="M678.182,524.231h-9.5a.425.425,0,1,1,0-.85h9.5a.425.425,0,0,1,0,.85Z" transform="translate(-600.321 -464.28)" fill="#fff"/><path d="M686.756,538.922h-18.74a.425.425,0,1,1,0-.85h18.74a.425.425,0,0,1,0,.85Z" transform="translate(-599.76 -476.634)" fill="#fff"/><circle cx="2.849" cy="2.849" r="2.849" transform="translate(60.467 57.846)" fill="#fff"/></svg>