<svg xmlns="http://www.w3.org/2000/svg" width="106.599" height="92.849" viewBox="0 0 106.599 92.849"><g transform="translate(0 0)"><path d="M270.844,127.905a44.393,44.393,0,0,1-12.389,30.819q-.72.754-1.479,1.471-1.156,1.1-2.39,2.114a44.359,44.359,0,0,1-27.269,10.113q-.5.011-1,.011c-7.95,0-17.949-4.246-27.022-10.124q-1.126-.729-2.232-1.493-.517-.353-1.029-.717a91.547,91.547,0,0,1-9.941-8.121,64.434,64.434,0,0,1-5.734-6.131c-6.972-8.6-8.51-16.349,1.43-17.942q1.765-.282,3.427-.6,2.406-.462,4.606-1,2.963-.72,5.567-1.562.876-.282,1.712-.575c8.239-2.894,13.754-6.668,17.507-10.762q.955-1.04,1.761-2.1a29.584,29.584,0,0,0,2.235-3.4,31.946,31.946,0,0,0,2.307-5.145l.034-.1c2.987-8.615,2.078-16.606,5.373-19.281,14.085-11.434,31.62,4.849,39.85,24.051q.622,1.451,1.171,2.92.246.656.475,1.315.6,1.716,1.092,3.442.188.658.358,1.315c.122.472.238.944.346,1.415A44.883,44.883,0,0,1,270.844,127.905Z" transform="translate(-174.731 -79.585)" fill="#f2f2f2"/><path d="M383.164,693.725q-.5.011-1,.011c-7.95,0-17.949-4.246-27.023-10.124q-1.126-.729-2.232-1.493l.647-3.935,19.578-2.6,9.826,7.514Z" transform="translate(-330.578 -600.888)" fill="#2f2e41"/><path d="M580.085,259.635h-2.79a.326.326,0,0,0-.326.326v2.791a.325.325,0,0,0,.326.325h2.79a.326.326,0,0,0,.326-.325v-2.791A.327.327,0,0,0,580.085,259.635Z" transform="translate(-526.556 -237.069)" fill="#fff"/><path d="M580.085,297.585h-2.79a.326.326,0,0,0-.326.326V300.7a.325.325,0,0,0,.326.325h2.79a.326.326,0,0,0,.326-.325v-2.791A.327.327,0,0,0,580.085,297.585Z" transform="translate(-526.556 -270.263)" fill="#e6e6e6"/><path d="M580.085,335.535h-2.79a.326.326,0,0,0-.326.326v2.79a.325.325,0,0,0,.326.326h2.79a.326.326,0,0,0,.326-.326v-2.79A.327.327,0,0,0,580.085,335.535Z" transform="translate(-526.556 -303.456)" fill="#e6e6e6"/><path d="M580.406,373.753a.328.328,0,0,0-.321-.268h-2.79a.326.326,0,0,0-.326.326v2.79a.325.325,0,0,0,.326.326h2.79a.326.326,0,0,0,.326-.326v-2.79A.3.3,0,0,0,580.406,373.753Z" transform="translate(-526.556 -336.65)" fill="#e6e6e6"/><path d="M580.211,411.46a.331.331,0,0,0-.127-.025h-2.79a.325.325,0,0,0-.326.326v2.79a.324.324,0,0,0,.326.326h2.79a.326.326,0,0,0,.326-.326v-2.79A.328.328,0,0,0,580.211,411.46Z" transform="translate(-526.556 -369.844)" fill="#e6e6e6"/><path d="M626.845,259.635h-2.79a.326.326,0,0,0-.326.326v2.791a.325.325,0,0,0,.326.325h2.79a.326.326,0,0,0,.326-.325v-2.791A.327.327,0,0,0,626.845,259.635Z" transform="translate(-567.456 -237.069)" fill="#e6e6e6"/><path d="M626.845,297.585h-2.79a.326.326,0,0,0-.326.326V300.7a.325.325,0,0,0,.326.325h2.79a.326.326,0,0,0,.326-.325v-2.791A.327.327,0,0,0,626.845,297.585Z" transform="translate(-567.456 -270.263)" fill="#6c63ff"/><path d="M626.845,335.535h-2.79a.326.326,0,0,0-.326.326v2.79a.325.325,0,0,0,.326.326h2.79a.326.326,0,0,0,.326-.326v-2.79A.327.327,0,0,0,626.845,335.535Z" transform="translate(-567.456 -303.456)" fill="#6c63ff"/><path d="M626.845,373.485h-2.79a.325.325,0,0,0-.308.223.31.31,0,0,0-.018.1v2.79a.325.325,0,0,0,.326.326h2.79a.326.326,0,0,0,.326-.326v-2.79A.327.327,0,0,0,626.845,373.485Z" transform="translate(-567.456 -336.65)" fill="#6c63ff"/><path d="M626.845,411.435h-2.79a.325.325,0,0,0-.326.326v2.79a.325.325,0,0,0,.326.326h2.79a.326.326,0,0,0,.326-.326v-2.79a.326.326,0,0,0-.326-.326Z" transform="translate(-567.456 -369.844)" fill="#e6e6e6"/><path d="M673.6,259.635h-2.79a.326.326,0,0,0-.326.326v2.791a.325.325,0,0,0,.326.325h2.79a.326.326,0,0,0,.326-.325v-2.791A.327.327,0,0,0,673.6,259.635Z" transform="translate(-608.355 -237.069)" fill="#6c63ff"/><path d="M673.6,297.585h-2.79a.326.326,0,0,0-.326.326V300.7a.325.325,0,0,0,.326.325h2.79a.326.326,0,0,0,.326-.325v-2.791A.327.327,0,0,0,673.6,297.585Z" transform="translate(-608.355 -270.263)" fill="#6c63ff"/><path d="M673.6,335.535h-2.79a.326.326,0,0,0-.326.326v2.79a.325.325,0,0,0,.326.326h2.79a.326.326,0,0,0,.326-.326v-2.79A.327.327,0,0,0,673.6,335.535Z" transform="translate(-608.355 -303.456)" fill="#e6e6e6"/><path d="M673.6,373.485h-2.79a.326.326,0,0,0-.326.326v2.79a.325.325,0,0,0,.326.326h2.79a.326.326,0,0,0,.326-.326v-2.79A.327.327,0,0,0,673.6,373.485Z" transform="translate(-608.355 -336.65)" fill="#6c63ff"/><path d="M673.6,411.435h-2.79a.325.325,0,0,0-.326.326v2.79a.325.325,0,0,0,.326.326h2.79a.326.326,0,0,0,.326-.326v-2.79a.326.326,0,0,0-.326-.326Z" transform="translate(-608.355 -369.844)" fill="#6c63ff"/><path d="M720.365,259.635h-2.79a.326.326,0,0,0-.326.326v2.791a.325.325,0,0,0,.326.325h2.79a.326.326,0,0,0,.326-.325v-2.791a.327.327,0,0,0-.326-.326Z" transform="translate(-649.255 -237.069)" fill="#6c63ff"/><path d="M720.365,297.585h-2.79a.326.326,0,0,0-.326.326V300.7a.325.325,0,0,0,.326.325h2.79a.326.326,0,0,0,.326-.325v-2.791A.327.327,0,0,0,720.365,297.585Z" transform="translate(-649.255 -270.263)" fill="#fff"/><path d="M720.365,335.535h-2.79a.326.326,0,0,0-.326.326v2.79a.325.325,0,0,0,.326.326h2.79a.326.326,0,0,0,.326-.326v-2.79A.327.327,0,0,0,720.365,335.535Z" transform="translate(-649.255 -303.456)" fill="#fff"/><path d="M720.365,373.485h-2.79a.326.326,0,0,0-.326.326v2.79a.325.325,0,0,0,.326.326h2.79a.326.326,0,0,0,.326-.326v-2.79A.327.327,0,0,0,720.365,373.485Z" transform="translate(-649.255 -336.65)" fill="#e6e6e6"/><path d="M720.365,411.435h-2.79a.325.325,0,0,0-.326.326v2.79a.325.325,0,0,0,.326.326h2.79a.326.326,0,0,0,.326-.326v-2.79a.326.326,0,0,0-.326-.326Z" transform="translate(-649.255 -369.844)" fill="#6c63ff"/><path d="M767.125,259.635h-2.791a.326.326,0,0,0-.325.326v2.791a.325.325,0,0,0,.325.325h2.791a.326.326,0,0,0,.326-.325v-2.791A.327.327,0,0,0,767.125,259.635Z" transform="translate(-690.154 -237.069)" fill="#fff"/><path d="M767.125,297.585h-2.791a.326.326,0,0,0-.325.326V300.7a.325.325,0,0,0,.325.325h2.791a.326.326,0,0,0,.326-.325v-2.791A.327.327,0,0,0,767.125,297.585Z" transform="translate(-690.154 -270.263)" fill="#fff"/><path d="M767.125,335.535h-2.791a.326.326,0,0,0-.325.326v2.79a.325.325,0,0,0,.325.326h2.791a.326.326,0,0,0,.326-.326v-2.79A.327.327,0,0,0,767.125,335.535Z" transform="translate(-690.154 -303.456)" fill="#fff"/><path d="M767.125,373.485h-2.791a.326.326,0,0,0-.325.326v2.79a.325.325,0,0,0,.325.326h2.791a.326.326,0,0,0,.326-.326v-2.79A.327.327,0,0,0,767.125,373.485Z" transform="translate(-690.154 -336.65)" fill="#6c63ff"/><path d="M767.125,411.435h-2.791a.325.325,0,0,0-.325.326v2.79a.325.325,0,0,0,.325.326h2.791a.326.326,0,0,0,.326-.326v-2.79a.326.326,0,0,0-.326-.326Z" transform="translate(-690.154 -369.844)" fill="#e6e6e6"/><path d="M813.885,259.635h-2.791a.326.326,0,0,0-.325.326v2.791a.325.325,0,0,0,.325.325h2.791a.326.326,0,0,0,.326-.325v-2.791A.327.327,0,0,0,813.885,259.635Z" transform="translate(-731.054 -237.069)" fill="#fff"/><path d="M813.885,297.585h-2.791a.326.326,0,0,0-.325.326V300.7a.325.325,0,0,0,.325.325h2.791a.326.326,0,0,0,.326-.325v-2.791A.327.327,0,0,0,813.885,297.585Z" transform="translate(-731.054 -270.263)" fill="#fff"/><path d="M813.885,335.535h-2.791a.326.326,0,0,0-.325.326v2.79a.325.325,0,0,0,.325.326h2.791a.326.326,0,0,0,.326-.326v-2.79A.327.327,0,0,0,813.885,335.535Z" transform="translate(-731.054 -303.456)" fill="#6c63ff"/><path d="M813.885,373.485h-2.791a.326.326,0,0,0-.325.326v2.79a.325.325,0,0,0,.325.326h2.791a.326.326,0,0,0,.326-.326v-2.79A.327.327,0,0,0,813.885,373.485Z" transform="translate(-731.054 -336.65)" fill="#e6e6e6"/><path d="M813.885,411.435h-2.791a.325.325,0,0,0-.325.326v2.79a.325.325,0,0,0,.325.326h2.791a.326.326,0,0,0,.326-.326v-2.79a.326.326,0,0,0-.326-.326Z" transform="translate(-731.054 -369.844)" fill="#fff"/><path d="M860.645,259.635h-2.791a.326.326,0,0,0-.325.326v2.791a.325.325,0,0,0,.325.325h2.791a.326.326,0,0,0,.326-.325v-2.791A.327.327,0,0,0,860.645,259.635Z" transform="translate(-771.953 -237.069)" fill="#6c63ff"/><path d="M860.645,297.585h-2.791a.326.326,0,0,0-.325.326V300.7a.325.325,0,0,0,.325.325h2.791a.326.326,0,0,0,.326-.325v-2.791A.327.327,0,0,0,860.645,297.585Z" transform="translate(-771.953 -270.263)" fill="#6c63ff"/><path d="M860.645,335.535h-2.791a.326.326,0,0,0-.325.326v2.79a.325.325,0,0,0,.325.326h2.791a.326.326,0,0,0,.326-.326v-2.79a.327.327,0,0,0-.326-.326Z" transform="translate(-771.953 -303.456)" fill="#e6e6e6"/><path d="M860.645,373.485h-2.791a.326.326,0,0,0-.325.326v2.79a.325.325,0,0,0,.325.326h2.791a.326.326,0,0,0,.326-.326v-2.79A.327.327,0,0,0,860.645,373.485Z" transform="translate(-771.953 -336.65)" fill="#fff"/><path d="M860.645,411.435h-2.791a.325.325,0,0,0-.325.326v2.79a.325.325,0,0,0,.325.326h2.791a.326.326,0,0,0,.326-.326v-2.79a.326.326,0,0,0-.326-.326Z" transform="translate(-771.953 -369.844)" fill="#6c63ff"/><path d="M907.4,259.635h-2.791a.326.326,0,0,0-.325.326v2.791a.325.325,0,0,0,.324.325H907.4a.326.326,0,0,0,.326-.325v-2.791A.327.327,0,0,0,907.4,259.635Z" transform="translate(-812.853 -237.069)" fill="#6c63ff"/><path d="M907.4,297.585h-2.791a.326.326,0,0,0-.325.326V300.7a.325.325,0,0,0,.324.325H907.4a.326.326,0,0,0,.326-.325v-2.791A.327.327,0,0,0,907.4,297.585Z" transform="translate(-812.853 -270.263)" fill="#6c63ff"/><path d="M907.4,335.535h-2.791a.326.326,0,0,0-.325.326v2.79a.325.325,0,0,0,.325.326H907.4a.326.326,0,0,0,.326-.326v-2.79A.327.327,0,0,0,907.4,335.535Z" transform="translate(-812.853 -303.456)" fill="#e6e6e6"/><path d="M907.4,373.485h-2.791a.326.326,0,0,0-.325.326v2.79a.325.325,0,0,0,.325.326H907.4a.326.326,0,0,0,.326-.326v-2.79A.327.327,0,0,0,907.4,373.485Z" transform="translate(-812.853 -336.65)" fill="#6c63ff"/><path d="M907.4,411.435h-2.791a.325.325,0,0,0-.325.326v2.79a.325.325,0,0,0,.325.326H907.4a.326.326,0,0,0,.326-.326v-2.79A.326.326,0,0,0,907.4,411.435Z" transform="translate(-812.853 -369.844)" fill="#6c63ff"/><path d="M954.165,259.635h-2.791a.326.326,0,0,0-.325.326v2.791a.325.325,0,0,0,.325.325h2.791a.326.326,0,0,0,.326-.325v-2.791A.327.327,0,0,0,954.165,259.635Z" transform="translate(-853.753 -237.069)" fill="#e6e6e6"/><path d="M954.165,297.585h-2.791a.326.326,0,0,0-.325.326V300.7a.325.325,0,0,0,.325.325h2.791a.326.326,0,0,0,.326-.325v-2.791A.327.327,0,0,0,954.165,297.585Z" transform="translate(-853.753 -270.263)" fill="#6c63ff"/><path d="M954.165,335.535h-2.791a.326.326,0,0,0-.325.326v2.79a.325.325,0,0,0,.325.326h2.791a.326.326,0,0,0,.326-.326v-2.79A.327.327,0,0,0,954.165,335.535Z" transform="translate(-853.753 -303.456)" fill="#6c63ff"/><path d="M954.165,373.485h-2.791a.326.326,0,0,0-.325.326v2.79a.325.325,0,0,0,.325.326h2.791a.326.326,0,0,0,.326-.326v-2.79A.327.327,0,0,0,954.165,373.485Z" transform="translate(-853.753 -336.65)" fill="#6c63ff"/><path d="M954.165,411.435h-2.791a.325.325,0,0,0-.325.326v2.79a.325.325,0,0,0,.325.326h2.791a.326.326,0,0,0,.326-.326v-2.79A.326.326,0,0,0,954.165,411.435Z" transform="translate(-853.753 -369.844)" fill="#e6e6e6"/><path d="M1000.926,259.635h-2.791a.326.326,0,0,0-.325.326v2.791a.325.325,0,0,0,.324.325h2.791a.326.326,0,0,0,.326-.325v-2.791A.327.327,0,0,0,1000.926,259.635Z" transform="translate(-894.653 -237.069)" fill="#e6e6e6"/><path d="M1000.926,297.585h-2.791a.326.326,0,0,0-.325.326V300.7a.325.325,0,0,0,.325.325h2.791a.326.326,0,0,0,.326-.325v-2.791A.327.327,0,0,0,1000.926,297.585Z" transform="translate(-894.653 -270.263)" fill="#e6e6e6"/><path d="M1000.926,335.535h-2.791a.326.326,0,0,0-.325.326v2.79a.325.325,0,0,0,.325.326h2.791a.326.326,0,0,0,.326-.326v-2.79A.327.327,0,0,0,1000.926,335.535Z" transform="translate(-894.653 -303.456)" fill="#6c63ff"/><path d="M1000.926,373.485h-2.791a.326.326,0,0,0-.325.326v2.79a.325.325,0,0,0,.325.326h2.791a.326.326,0,0,0,.326-.326v-2.79A.327.327,0,0,0,1000.926,373.485Z" transform="translate(-894.653 -336.65)" fill="#e6e6e6"/><path d="M1000.926,411.435h-2.791a.325.325,0,0,0-.325.326v2.79a.325.325,0,0,0,.325.326h2.791a.326.326,0,0,0,.326-.326v-2.79A.326.326,0,0,0,1000.926,411.435Z" transform="translate(-894.653 -369.844)" fill="#e6e6e6"/><path d="M335.553,659.99h-.078l.066-.009Z" transform="translate(-293.43 -577.265)" fill="#2f2e41"/><circle cx="8.563" cy="8.563" r="8.563" transform="translate(26.882 13.587)" fill="#ffb6b6"/><path d="M394.413,160.228s2.24-4.281-2.688-4.671c0,0-4.2-3.81-8.482-.7a4.3,4.3,0,0,0-3.612,2.643,1.6,1.6,0,0,0-2.24,1.168,12.175,12.175,0,0,0,0,7.4c1.344,3.5,1.79,3.892,1.79,3.892s-2.208-7.344,3.167-7.733,11.391-3.749,11.839.533,1.122,5.336,1.122,5.336S399.564,161.979,394.413,160.228Z" transform="translate(-351.469 -144.356)" fill="#2f2e41"/><path d="M375.158,358.491l-.028.145-.31,1.634-2.139,11.3-.127.666-.266,1.407-.363,1.92-.806,4.255-.231,1.219-.086.457-.03.16-.239,1.262-.073.381-.584,4.328-.51,3.771,1.707,1.707-1.018,1.018-.668,3.826v.009H342.126q-1.654-1.072-3.261-2.21l.224-1.679s.772-3,.447-3.358-1.033-1-1.033-1l.894-2.086.124-.289-.208-4.315-.005-.1-.069-1.423-.009-.183-.014-.274-.264-5.474-.005-.09-.08-1.659-.075-1.578-.033-.665-.322-6.659-.218-4.522-.19-3.937.766-.259,8.19-2.784,3.393-4.41,7.061.053,3.457.026,5.768,5.349,1.312.627.01.005.941.45,2.386,1.139,2.523,1.206,1.295.618Z" transform="translate(-317.563 -315.238)" fill="#cacaca"/><path d="M315.069,567.644a3.8,3.8,0,0,1-5.1-2.811l-13.355-1.895,4.643-5.252,11.97,2.6a3.816,3.816,0,0,1,1.838,7.353Z" transform="translate(-281.341 -497.765)" fill="#ffb6b6"/><path d="M254.593,411.358a1.694,1.694,0,0,0-.989-.61l-5.479-1.139-.563-.117a2.373,2.373,0,0,1-1.57-1.137,2.4,2.4,0,0,1-.307-.99,2.368,2.368,0,0,1,.112-.937l1.9-5.721,1.232-3.712a5.238,5.238,0,0,0,.262-1.385,5.433,5.433,0,0,0-1.137-3.621,5.351,5.351,0,0,0-6.142-1.71l-.1.036a5.337,5.337,0,0,0-3.172,3.561l-1.339,4.869-2.761,10.038a7.24,7.24,0,0,0,6.136,9.109l7.892.925,3.652.429a1.692,1.692,0,0,0,1.86-1.345.617.617,0,0,0,.014-.069l.088-.541.743-4.56.008-.046A1.689,1.689,0,0,0,254.593,411.358Z" transform="translate(-226.82 -351.027)" fill="#cacaca"/><path d="M490.933,555.914a3.8,3.8,0,0,0,4.649-3.5l12.954-3.759-5.337-4.544-11.484,4.266a3.816,3.816,0,0,0-.783,7.539Z" transform="translate(-448.699 -485.89)" fill="#ffb6b6"/><path d="M565.883,391.715l-6.161-14.18a5.367,5.367,0,0,0-2.54-2.676,5.435,5.435,0,0,0-1.1-.4c-.059-.015-.118-.029-.177-.04a5.281,5.281,0,0,0-2.441.045,5.366,5.366,0,0,0-3.427,2.723.125.125,0,0,0-.01.017,5.4,5.4,0,0,0-.046,4.869l.076.153,4.354,8.744a2.369,2.369,0,0,1-1.316,3.282l-.306.11-5.5,1.986a1.692,1.692,0,0,0-1.044,2.1l.014.044,1.542,4.933c.008.023.015.045.024.068a.9.9,0,0,0,.05.124,1.69,1.69,0,0,0,1.982.944l2.968-.783.605-.16,7.664-2.024a7.239,7.239,0,0,0,4.79-9.884Z" transform="translate(-499.613 -337.36)" fill="#cacaca"/><path d="M219.629,608.285a64.436,64.436,0,0,0,5.734,6.131h56.646a2.061,2.061,0,0,1,2.058,2.059l.081,14.354a44.547,44.547,0,0,0,9.709-6.082q1.233-1.013,2.39-2.114.758-.718,1.479-1.471a44.57,44.57,0,0,0,8.625-12.876Z" transform="translate(-214.002 -542.022)" fill="#3f3d56"/><path d="M748.286,711.025q-.72.754-1.479,1.471H734.749v-1.471Z" transform="translate(-664.562 -631.886)" fill="#fff"/><path d="M337.522,333a.694.694,0,0,0-.61-.363H295.823a.7.7,0,0,0-.694.7v24.592h42.478V333.331A.675.675,0,0,0,337.522,333Z" transform="translate(-280.039 -300.92)" fill="#3f3d56"/><path d="M294.832,529.092v3.035a.958.958,0,0,0,.958.958h15.678v5.989h-.208a.124.124,0,0,0-.124.124v.417a.124.124,0,0,0,.124.124h9.733a.124.124,0,0,0,.124-.124V539.2a.124.124,0,0,0-.124-.124h-.208v-5.989h15.678a.958.958,0,0,0,.958-.958v-3.035Z" transform="translate(-279.78 -472.755)" fill="#3f3d56"/><circle cx="3.924" cy="3.924" r="3.924" transform="translate(31.909 39.78)" fill="#6c63ff"/><path d="M394.329,185.368H393.7c0-4.737-4.689-7.842-9.419-7.844a10.326,10.326,0,0,0-2.049.2c-.759.152-1.548.333-2.322.57-3.054.936-5.887,2.746-5.887,7.075a9.851,9.851,0,0,0,.318,2.492l-.607.158a10.512,10.512,0,0,1-.338-2.649c0-3.782,1.553-6.381,4.235-7.93a13.683,13.683,0,0,1,5.1-1.6,12.173,12.173,0,0,1,2.475-.075A9.516,9.516,0,0,1,394.329,185.368Z" transform="translate(-348.5 -163.686)" fill="#6c63ff"/><path d="M523.32,230.583l-.247-1.825a1.994,1.994,0,0,0-2.287-1.7l-.392.054a.825.825,0,0,0-.707.927l.57,4.2a.824.824,0,0,0,.664.7.772.772,0,0,0,.153.015.814.814,0,0,0,.11-.008l.439-.059a1.979,1.979,0,0,0,1.346-.806c.034-.048.066-.1.1-.147A2.1,2.1,0,0,0,523.32,230.583Z" transform="translate(-476.446 -208.554)" fill="#6c63ff"/><path d="M520.14,228.275a.8.8,0,0,0-.292.241.821.821,0,0,0-.162.61l.57,4.2a.824.824,0,0,0,.664.7Z" transform="translate(-476.446 -209.639)" fill="#fff"/><path d="M542.633,234.258l-.247-1.825a1.968,1.968,0,0,0-.627-1.2l.568,4.182a.777.777,0,0,0,.051.2A2.1,2.1,0,0,0,542.633,234.258Z" transform="translate(-495.759 -212.228)" fill="#3f3d56"/><ellipse cx="0.313" cy="0.877" rx="0.313" ry="0.877" transform="translate(44.376 21.647) rotate(-7.726)" fill="#3f3d56"/><ellipse cx="0.313" cy="0.877" rx="0.313" ry="0.877" transform="translate(44 19.392) rotate(-7.726)" fill="#3f3d56"/><ellipse cx="0.313" cy="0.877" rx="0.313" ry="0.877" transform="translate(46.381 20.269) rotate(-7.726)" fill="#3f3d56"/><path d="M413.839,177.524a10.326,10.326,0,0,0-2.049.2c-.759.152-1.548.333-2.322.57-1.209-.059-2.1-.372-2.279-.855a13.684,13.684,0,0,1,5.1-1.6,12.174,12.174,0,0,1,2.475-.075.718.718,0,0,1,.341.479C415.166,176.683,414.669,177.146,413.839,177.524Z" transform="translate(-378.055 -163.686)" fill="#3f3d56"/><path d="M370.725,255.237l-.965-4.012a.755.755,0,0,0-.612-.57.845.845,0,0,0-.125-.01.757.757,0,0,0-.175.021l-.373.09a1.868,1.868,0,0,0-1.377,2.251l.432,1.8a1.986,1.986,0,0,0,.669,1.08,1.767,1.767,0,0,0,.17.122,1.856,1.856,0,0,0,1.425.231l.372-.09a.733.733,0,0,0,.272-.127A.751.751,0,0,0,370.725,255.237Z" transform="translate(-342.942 -229.206)" fill="#6c63ff"/><ellipse cx="0.313" cy="0.877" rx="0.313" ry="0.877" transform="translate(25.045 23.653) rotate(-13.53)" fill="#3f3d56"/><ellipse cx="0.313" cy="0.877" rx="0.313" ry="0.877" transform="translate(23.792 24.029) rotate(-13.53)" fill="#3f3d56"/><path d="M385.537,254.863l-.965-4.012a.819.819,0,0,0-.663-.617l1.317,5.479A.816.816,0,0,0,385.537,254.863Z" transform="translate(-357.693 -228.847)" fill="#fff"/><path d="M367.311,261.012a.812.812,0,0,0-.147-.307,1.846,1.846,0,0,0-.071,1.1l.432,1.8a1.986,1.986,0,0,0,.669,1.08Z" transform="translate(-342.938 -238.005)" fill="#3f3d56"/></g></svg>