<svg xmlns="http://www.w3.org/2000/svg" width="18" height="18.001" viewBox="0 0 18 18.001">
  <path id="logo-whatsapp" d="M17.628,4.865a8.972,8.972,0,0,0-15.3,6.3,8.864,8.864,0,0,0,1.2,4.46L2.25,20.251,7,19.01a8.985,8.985,0,0,0,4.283,1.085h0a8.954,8.954,0,0,0,8.963-8.92,8.847,8.847,0,0,0-2.622-6.309Zm-6.34,13.724h0a7.464,7.464,0,0,1-3.792-1.033L7.221,17.4l-2.82.736L5.154,15.4l-.177-.281a7.456,7.456,0,1,1,6.311,3.474Zm4.086-5.552c-.224-.111-1.326-.651-1.53-.725s-.355-.111-.5.111-.578.723-.709.874-.261.167-.485.055a6.118,6.118,0,0,1-1.8-1.106A6.732,6.732,0,0,1,9.1,10.7c-.131-.223-.014-.344.1-.455s.224-.261.336-.39a1.5,1.5,0,0,0,.224-.372.411.411,0,0,0-.018-.39c-.055-.111-.5-1.209-.69-1.655s-.366-.375-.5-.382-.281-.008-.43-.008a.825.825,0,0,0-.6.279,2.5,2.5,0,0,0-.784,1.859,4.34,4.34,0,0,0,.914,2.306,9.948,9.948,0,0,0,3.825,3.365,12.983,12.983,0,0,0,1.277.469,3.086,3.086,0,0,0,1.41.089,2.307,2.307,0,0,0,1.512-1.06A1.863,1.863,0,0,0,15.8,13.3c-.055-.093-.205-.149-.43-.261Z" transform="translate(-2.25 -2.25)" fill="#656565" fill-rule="evenodd"/>
</svg>
