<svg xmlns="http://www.w3.org/2000/svg" width="20" height="14.071" viewBox="0 0 20 14.071"><g transform="translate(0 -73)"><path d="M16.779,87.071H3.221A3.2,3.2,0,0,1,0,83.9V76.17A3.2,3.2,0,0,1,3.221,73H16.779A3.2,3.2,0,0,1,20,76.17V83.9A3.2,3.2,0,0,1,16.779,87.071Z" transform="translate(0 0)" fill="#1a1c52"/><path d="M399.932,73H398.68a3.258,3.258,0,0,1,3.338,3.171V83.9a3.258,3.258,0,0,1-3.338,3.171h1.252a3.258,3.258,0,0,0,3.338-3.171V76.171A3.258,3.258,0,0,0,399.932,73Z" transform="translate(-383.269)" fill="#1a1c52"/><path d="M194.753,172.511v5.808a.5.5,0,0,0,.753.425l4.81-2.9a.5.5,0,0,0,0-.85l-4.81-2.9A.5.5,0,0,0,194.753,172.511Z" transform="translate(-187.254 -95.379)" fill="#fafafa"/></g></svg>